<svg width="41" height="40" viewBox="0 0 41 40" fill="none" xmlns="http://www.w3.org/2000/svg">
<path d="M40.9967 20.9091C40.9967 31.9548 31.1333 40 20.0876 40C9.04194 40 2.36115 30.9091 0.99673 20C-0.367691 9.09091 9.95103 0 20.9967 0C32.0424 0 40.9967 9.8634 40.9967 20.9091Z" fill="#E8E3DB"/>
<path d="M17.9688 13.9393V23.0303C17.9688 23.4321 18.1284 23.8175 18.4125 24.1016C18.6967 24.3858 19.0821 24.5454 19.4839 24.5454H25.5445C25.9464 24.5454 26.3317 24.3858 26.6159 24.1016C26.9 23.8175 27.0597 23.4321 27.0597 23.0303V16.3954C27.0596 16.1936 27.0193 15.9937 26.941 15.8077C26.8626 15.6217 26.7479 15.4532 26.6036 15.3121L24.0922 12.856C23.8092 12.5792 23.429 12.4242 23.0331 12.4242H19.4839C19.0821 12.4242 18.6967 12.5838 18.4125 12.868C18.1284 13.1521 17.9688 13.5375 17.9688 13.9393V13.9393Z" stroke="#2E2E2E" stroke-width="1.5" stroke-linecap="round" stroke-linejoin="round"/>
<path d="M24.0284 24.5454V26.0605C24.0284 26.4624 23.8688 26.8478 23.5846 27.1319C23.3005 27.416 22.9151 27.5757 22.5133 27.5757H16.4527C16.0508 27.5757 15.6654 27.416 15.3813 27.1319C15.0971 26.8478 14.9375 26.4624 14.9375 26.0605V17.7272C14.9375 17.3253 15.0971 16.94 15.3813 16.6558C15.6654 16.3717 16.0508 16.212 16.4527 16.212H17.9678" stroke="#2E2E2E" stroke-width="1.5" stroke-linecap="round" stroke-linejoin="round"/>
</svg>
