<svg width="41" height="40" viewBox="0 0 41 40" fill="none" xmlns="http://www.w3.org/2000/svg">
<path d="M40.9967 20.9091C40.9967 31.9548 31.1333 40 20.0876 40C9.04194 40 2.36115 30.9091 0.99673 20C-0.367691 9.09091 9.95103 0 20.9967 0C32.0424 0 40.9967 9.8634 40.9967 20.9091Z" fill="#E8E3DB"/>
<path d="M22.2636 28.1791V20.7281H24.7773L25.1509 17.8109H22.2636V15.9527C22.2636 15.1109 22.4982 14.5345 23.7064 14.5345H25.2373V11.9336C24.4924 11.8538 23.7437 11.8152 22.9945 11.8181C20.7727 11.8181 19.2473 13.1745 19.2473 15.6645V17.8054H16.75V20.7227H19.2527V28.1791H22.2636Z" fill="#2E2E2E"/>
</svg>
