<svg width="24" height="24" viewBox="0 0 24 24" fill="none" xmlns="http://www.w3.org/2000/svg">
<g clip-path="url(#clip0_2389_170)">
<path d="M3.58203 18.5285C4.28275 18.1039 4.84458 17.9826 5.741 17.5377C6.22077 17.3017 7.63483 16.54 8.89738 15.7446C10.1599 14.9492 11.2394 14.174 11.2394 14.174C11.2394 14.174 12.3442 13.3988 13.4994 12.4686C14.6546 11.5383 15.8604 10.4463 16.2518 10.0553C16.9714 9.38125 17.2934 8.83526 17.931 8.30273C17.2997 8.80155 16.7189 8.97679 15.873 9.50258C15.4185 9.77895 14.0612 10.6418 12.8555 11.4709C11.6497 12.3 10.5576 13.0819 10.5576 13.0819C10.5576 13.0819 9.46553 13.8504 8.28504 14.7335C7.10455 15.6165 5.842 16.6141 5.42536 16.9579C4.63626 17.605 4.27012 18.0836 3.58203 18.5285Z" fill="#D44242"/>
<path d="M3.58203 17.1803C4.21331 16.8163 4.71833 16.7354 5.47586 16.3647C5.90513 16.1625 7.16768 15.5154 8.27242 14.8278C9.37715 14.1402 10.343 13.4796 10.343 13.4796C10.343 13.4796 11.3152 12.8056 12.3315 11.9697C13.3479 11.1338 14.3958 10.1564 14.7304 9.81263C15.3617 9.179 15.6268 8.70037 16.1823 8.22852C15.5919 8.61107 14.9806 8.95549 14.3516 9.25988C13.9476 9.50255 12.7482 10.2508 11.6813 10.9788C10.6145 11.7068 9.65491 12.3876 9.65491 12.3876C9.65491 12.3876 8.69537 13.0617 7.66008 13.8369C6.62479 14.6121 5.51374 15.5019 5.13497 15.8119C4.64127 16.2982 4.12284 16.755 3.58203 17.1803Z" fill="#D44242"/>
<path d="M5.37451 14.4841C5.85823 14.2917 6.35135 14.1274 6.8517 13.992C7.58288 13.6845 8.29549 13.3287 8.98542 12.9269C9.8187 12.4416 10.532 11.9293 10.532 11.9293C10.532 11.9293 11.258 11.4305 11.9966 10.8036C12.6072 10.2878 13.185 9.72937 13.7263 9.13187C14.0404 8.6936 14.3755 8.27287 14.73 7.87134C14.2859 8.14919 13.8215 8.38814 13.3412 8.58586C13.0319 8.75438 12.1355 9.25994 11.3464 9.80595C10.5573 10.352 9.85027 10.8306 9.85027 10.8306C9.85027 10.8306 9.14324 11.3226 8.38571 11.9023C7.62817 12.482 6.81382 13.1426 6.54869 13.3786C6.18484 13.7791 5.79226 14.1488 5.37451 14.4841Z" fill="#D44242"/>
<path d="M4.90137 13.7155C5.30254 13.5843 5.71175 13.4829 6.12605 13.4122C6.2523 13.3583 6.52375 13.2774 6.83939 13.1358C7.15503 12.9943 7.52117 12.8325 7.86206 12.6438C8.29559 12.4072 8.71703 12.1462 9.12461 11.8618C9.53169 11.5798 9.92369 11.2738 10.2988 10.9451C10.5892 10.6907 10.8674 10.4207 11.1321 10.1362C11.3783 9.88674 11.555 9.65756 11.656 9.54971C11.8813 9.17102 12.1324 8.81056 12.4072 8.47119C12.0448 8.69245 11.6619 8.87316 11.2646 9.01045C11.1447 9.07786 10.8922 9.20592 10.6334 9.37444C10.3745 9.54296 10.0021 9.74521 9.68013 9.95418C9.04886 10.3586 8.48071 10.763 8.48071 10.763C8.48071 10.763 7.91887 11.1473 7.31284 11.6124C7.00983 11.8416 6.68157 12.0977 6.43537 12.2865C6.18917 12.4752 5.96191 12.6977 5.8546 12.7853C5.57192 13.134 5.252 13.4462 4.90137 13.7155Z" fill="#D44242"/>
<path d="M4.06787 12.5495C4.49697 12.3935 4.93572 12.2696 5.38093 12.1787C6.03137 11.939 6.66437 11.6483 7.27476 11.3091C8.2062 10.7824 9.08961 10.1641 9.9135 9.46215C10.4428 9.00666 10.9388 8.50867 11.397 7.97245C11.6556 7.57538 11.9359 7.19498 12.2366 6.83325C11.8447 7.06729 11.435 7.26572 11.0119 7.42645C10.7405 7.568 9.95137 8.01963 9.25697 8.47127C8.56256 8.9229 7.95654 9.35431 7.95654 9.35431C7.95654 9.35431 7.32526 9.77898 6.69398 10.2778C6.06271 10.7766 5.33042 11.3698 5.10316 11.5788C4.78521 11.9339 4.43879 12.2587 4.06787 12.5495Z" fill="#D44242"/>
<path d="M3.81543 11.1608C4.049 11.0867 4.26995 11.1608 4.5919 11.1608C4.74317 11.1474 4.89311 11.1203 5.04011 11.0799C5.25568 11.0294 5.46685 10.9595 5.67139 10.871C5.94647 10.7538 6.21066 10.6094 6.46048 10.4395C6.70494 10.2752 6.93521 10.088 7.14857 9.88003C7.31333 9.71838 7.46535 9.54255 7.60309 9.35427C7.72935 9.18575 7.81141 9.02394 7.86192 8.94979C8.01342 8.64646 8.01342 8.38357 8.17756 8.19482C7.98817 8.3566 7.74197 8.32967 7.45159 8.43078C7.37583 8.46448 7.21801 8.51841 7.04757 8.60605C6.87712 8.69368 6.6688 8.78804 6.48573 8.8959C6.11328 9.1116 5.80395 9.32728 5.80395 9.32728C5.80395 9.32728 5.482 9.543 5.17268 9.80589C5.00223 9.94071 4.83179 10.0957 4.68659 10.2238C4.5414 10.3519 4.42146 10.48 4.36464 10.5407C4.11844 10.8035 4.03638 11.0462 3.81543 11.1608Z" fill="#D44242"/>
<path d="M5.99316 18.5285C6.69388 18.1039 7.25572 17.9826 8.15213 17.5377C8.6319 17.3017 10.046 16.54 11.3085 15.7446C12.5711 14.9492 13.6506 14.174 13.6506 14.174C13.6506 14.174 14.7553 13.3988 15.9105 12.4686C17.0658 11.5383 18.2715 10.4463 18.6629 10.0553C19.3825 9.38125 19.7045 8.83526 20.3421 8.30273C19.7108 8.80155 19.13 8.97679 18.2841 9.50258C17.8296 9.77895 16.4724 10.6418 15.2603 11.4709C14.0483 12.3 12.9688 13.0819 12.9688 13.0819C12.9688 13.0819 11.8767 13.8504 10.6962 14.7335C9.51569 15.6165 8.25313 16.6141 7.83649 16.9579C7.0474 17.605 6.68126 18.0836 5.99316 18.5285Z" fill="#D44242"/>
<path d="M11.5488 16.8027C11.7508 16.7421 11.9402 16.8701 12.2243 16.8836C12.3576 16.8759 12.4904 16.8602 12.622 16.8364C12.8139 16.8062 13.0022 16.7542 13.1838 16.6814C13.4196 16.5896 13.646 16.4721 13.8593 16.3309C14.0715 16.1906 14.2684 16.0256 14.4464 15.8388C14.5882 15.6965 14.7151 15.5383 14.8252 15.3669C14.9032 15.2515 14.9729 15.1298 15.0335 15.0029C15.1471 14.7266 15.1282 14.4839 15.2607 14.3289C15.0966 14.4704 14.8757 14.43 14.6295 14.5041C14.5094 14.5448 14.3914 14.592 14.2759 14.6457C14.1244 14.7131 13.9477 14.7872 13.7962 14.8749C13.4805 15.0501 13.2154 15.2321 13.2154 15.2321C13.2154 15.2321 12.9503 15.4074 12.6662 15.6298C12.5273 15.7444 12.3821 15.8792 12.2622 15.9938C12.1422 16.1084 12.0412 16.2163 11.9907 16.2702C11.8013 16.5061 11.7382 16.7016 11.5488 16.8027Z" fill="#D44242"/>
<path d="M11.3022 15.886C11.5043 15.8321 11.7 15.9534 11.9777 15.9669C12.0535 15.9669 12.205 15.9669 12.3754 15.9265C12.5667 15.893 12.7547 15.8411 12.9373 15.7714C13.1739 15.6789 13.4004 15.5592 13.6127 15.4142C13.8254 15.2742 14.0242 15.1116 14.2061 14.9288C14.3428 14.7809 14.4674 14.6208 14.5786 14.4502C14.6567 14.3348 14.7263 14.213 14.7869 14.0862C14.9005 13.8098 14.8816 13.5671 15.0142 13.4121C14.85 13.5537 14.6291 13.52 14.3829 13.5874L14.0294 13.7289C13.8779 13.7964 13.7011 13.8705 13.5496 13.9581C13.234 14.1334 12.9688 14.3154 12.9688 14.3154C12.9688 14.3154 12.7037 14.4907 12.4196 14.7131C12.2807 14.8277 12.1355 14.9625 12.0156 15.0771C11.8956 15.1917 11.7946 15.3063 11.7441 15.3535C11.5548 15.5557 11.5106 15.7916 11.3022 15.886Z" fill="#D44242"/>
<path d="M3.04541 10.3585C3.24742 10.3046 3.44312 10.4259 3.72088 10.4394C4.04838 10.4287 4.37223 10.3627 4.68042 10.2439C4.91709 10.1515 5.14359 10.0317 5.35589 9.88665C5.57025 9.74938 5.76933 9.58658 5.94929 9.40133C6.18141 9.15573 6.37724 8.87386 6.53006 8.56544C6.64369 8.28232 6.62475 8.03966 6.75732 7.89136C6.59319 8.03291 6.37224 7.99922 6.12604 8.06663C6.0566 8.06663 5.92404 8.14079 5.77253 8.2082C5.62102 8.27561 5.44427 8.35651 5.29276 8.4374C4.97712 8.61266 4.71199 8.79464 4.71199 8.79464C4.71199 8.79464 4.44685 8.96989 4.16277 9.19908C4.02389 9.30693 3.8787 9.44177 3.75876 9.55636C3.63881 9.67095 3.53781 9.78553 3.48731 9.83272C3.30424 10.0282 3.23479 10.2641 3.04541 10.3585Z" fill="#D44242"/>
<path d="M15.2607 10.9315C15.4628 10.8776 15.6584 10.9989 15.9425 11.0124C16.0736 11.0074 16.2043 10.9939 16.3339 10.9719C16.5271 10.9377 16.7172 10.8859 16.9021 10.8169C17.1362 10.7259 17.3605 10.6084 17.5712 10.4664C17.7848 10.3253 17.9837 10.1604 18.1646 9.97429C18.3967 9.72869 18.5926 9.44686 18.7454 9.13844C18.859 8.86206 18.8401 8.61265 18.9726 8.46436C18.8148 8.59917 18.5876 8.56547 18.3414 8.63288L17.9879 8.77445L17.5081 9.00361C17.1924 9.17887 16.9336 9.3609 16.9336 9.3609C16.9336 9.3609 16.6622 9.53614 16.3781 9.76533C16.2392 9.87318 16.1003 10.008 15.9741 10.1226C15.8478 10.2372 15.7531 10.3518 15.7026 10.399C15.5196 10.6079 15.4501 10.8371 15.2607 10.9315Z" fill="#D44242"/>
<path d="M13.4048 10.3585C13.6068 10.3046 13.8025 10.4259 14.0803 10.4394C14.2135 10.4349 14.3463 10.4214 14.478 10.399C14.6711 10.3648 14.8612 10.3129 15.0461 10.2439C15.2804 10.1506 15.5047 10.0308 15.7153 9.88665C15.9296 9.74938 16.1287 9.58658 16.3087 9.40133C16.5408 9.15573 16.7366 8.87386 16.8894 8.56544C17.0031 8.28232 16.9841 8.03966 17.1167 7.89136C16.9526 8.03291 16.7316 7.99922 16.4854 8.06663C16.416 8.06663 16.2834 8.14079 16.1319 8.2082C15.9804 8.27561 15.8036 8.35651 15.6521 8.4374C15.3365 8.61266 15.0714 8.79464 15.0714 8.79464C15.0714 8.79464 14.8062 8.96989 14.5221 9.19908C14.3833 9.30693 14.2381 9.44177 14.1181 9.55636C13.9982 9.67095 13.8972 9.78553 13.8467 9.83272C13.6573 10.0282 13.5942 10.2641 13.4048 10.3585Z" fill="#D44242"/>
<path d="M8.19043 10.3585C8.39244 10.3046 8.58814 10.4259 8.87221 10.4394C9.0054 10.4342 9.1382 10.4207 9.26991 10.399C9.46104 10.3647 9.64902 10.3129 9.83175 10.2439C10.4967 9.99078 11.0692 9.51871 11.4668 8.89578C11.542 8.77836 11.6116 8.65684 11.6751 8.53175C11.7887 8.24863 11.7698 8.00596 11.9023 7.85767C11.7445 7.99922 11.5173 7.96553 11.2711 8.03293C11.2079 8.03293 11.0691 8.1071 10.9175 8.17451L10.4378 8.40367C10.1221 8.57893 9.86331 8.76095 9.86331 8.76095C9.86331 8.76095 9.59187 8.9362 9.30779 9.16539C9.16891 9.27324 9.03003 9.40808 8.90378 9.52267C8.77752 9.63726 8.68283 9.75184 8.63233 9.79902C8.44926 10.0282 8.35456 10.2642 8.19043 10.3585Z" fill="#D44242"/>
<path d="M12.71 17.5308C12.8678 17.5308 13.0256 17.6589 13.2529 17.7061C13.36 17.7148 13.4676 17.7148 13.5748 17.7061C13.7306 17.7002 13.8852 17.6753 14.0356 17.6319C14.2267 17.5703 14.4093 17.4819 14.5785 17.369C14.7514 17.2613 14.9088 17.1273 15.0457 16.9713C15.1512 16.8496 15.2443 16.7162 15.3234 16.5736C15.3757 16.4744 15.4201 16.3707 15.456 16.2635C15.5191 16.0208 15.456 15.8051 15.557 15.6636C15.4371 15.7782 15.2351 15.7243 15.0204 15.7647C14.9261 15.7873 14.8333 15.8166 14.7427 15.8523C14.6152 15.8917 14.4907 15.9413 14.3702 16.0006C14.0755 16.1513 13.7962 16.3342 13.5369 16.5466C13.4322 16.6338 13.3331 16.7284 13.2402 16.8297C13.1519 16.9174 13.0761 17.0117 13.0382 17.0522C12.912 17.2544 12.8552 17.4634 12.71 17.5308Z" fill="#D44242"/>
<path d="M7.31885 8.47111C7.51454 8.42392 7.70393 8.55197 7.95012 8.56545C8.07906 8.56384 8.20774 8.55258 8.3352 8.53175C8.52202 8.50301 8.70589 8.45564 8.88441 8.39022C9.10626 8.30129 9.31802 8.18597 9.51569 8.04643C9.88911 7.81305 10.2085 7.49278 10.45 7.10945C10.5235 6.99574 10.5889 6.87634 10.6457 6.75221C10.753 6.48257 10.7277 6.2399 10.8603 6.07812C10.7025 6.21294 10.4815 6.17249 10.229 6.2399C10.1659 6.2399 10.0333 6.30727 9.88814 6.37468C9.72839 6.43876 9.5724 6.51305 9.421 6.59714C9.11799 6.75892 8.85917 6.93418 8.85917 6.93418C8.85917 6.93418 8.60034 7.10271 8.32889 7.31841C8.19632 7.42627 8.05744 7.5611 7.9375 7.66895L7.67868 7.93856C7.57136 8.15426 7.50192 8.41718 7.31885 8.47111Z" fill="#D44242"/>
<path d="M13.5181 18.0363C13.638 18.0363 13.7453 18.2048 13.9221 18.2925C14.0037 18.3234 14.0885 18.3437 14.1746 18.3531C14.2982 18.37 14.4234 18.37 14.547 18.3531C14.7024 18.3213 14.8518 18.262 14.9889 18.1779C15.1291 18.0957 15.2533 17.9859 15.3551 17.8543C15.4346 17.751 15.4985 17.635 15.5445 17.5105C15.5795 17.4241 15.605 17.3337 15.6202 17.2409C15.6202 17.0319 15.5508 16.8499 15.6202 16.7354C15.5318 16.823 15.3425 16.7353 15.172 16.7758C15.0975 16.7832 15.0236 16.7967 14.9511 16.8162C14.859 16.8338 14.7683 16.8585 14.6796 16.8904C14.5773 16.9264 14.4797 16.9762 14.3892 17.0387C14.2949 17.0941 14.2061 17.1596 14.1241 17.2342C14.0547 17.2948 13.9852 17.3825 13.9221 17.4499C13.859 17.5173 13.8085 17.5981 13.7832 17.6319C13.6759 17.7936 13.6317 17.9959 13.5181 18.0363Z" fill="#D44242"/>
<path d="M14.3643 13.9043C17.123 12.0371 18.9095 10.9451 21.5672 8.78803L23.0002 7.62863H21.1948H12.2685L12.8493 8.04655C12.0854 6.02431 11.2711 3.80658 11.1322 3.44931L10.6019 2.02026L9.97066 3.40887L7.96319 8.01286L8.52503 7.62863H0.949707L1.66937 8.67344L2.17439 9.40817L5.53909 14.3088L5.47597 13.6347L2.86879 19.6003L2.04182 21.481L3.73364 20.4496L10.3999 16.4051H9.76865L14.2823 19.5599C15.0777 20.1126 15.791 20.598 16.4602 21.0294L18.0194 22.0405L17.3061 20.2946C16.3971 18.0769 15.507 16.4186 14.3265 13.9448C14.9577 16.2501 15.387 18.2117 16.2203 20.7462L17.0599 20.0115C16.4286 19.5262 15.7216 19.0206 14.9325 18.4611L10.4189 15.2997L10.1032 15.0772L9.77496 15.2794L3.10868 19.3239L3.97352 20.18L6.5807 14.2144L6.73221 13.8639L6.51757 13.547L3.15287 8.6465L2.64784 7.91848L2.15545 8.96329H8.94168L9.10581 8.58581C9.35201 8.02632 9.90753 6.74556 11.1196 3.98182H9.98328L11.694 8.58581L11.8519 9.00374H21.1948L20.8223 7.83759C18.561 9.72399 16.4047 11.7497 14.3643 13.9043Z" fill="#D44242"/>
</g>
<defs>
<clipPath id="clip0_2389_170">
<rect width="22" height="20" fill="white" transform="translate(1 2)"/>
</clipPath>
</defs>
</svg>
