<svg width="24" height="24" viewBox="0 0 24 24" fill="none" xmlns="http://www.w3.org/2000/svg">
<path d="M0 12C0 5.37258 5.37258 0 12 0C18.6274 0 24 5.37258 24 12C24 18.6274 18.6274 24 12 24C5.37258 24 0 18.6274 0 12Z" fill="#2E2E2E"/>
<path fill-rule="evenodd" clip-rule="evenodd" d="M12 24C18.6274 24 24 18.6274 24 12C24 5.37258 18.6274 0 12 0C5.37258 0 0 5.37258 0 12C0 18.6274 5.37258 24 12 24ZM9.22517 5.36423C9.58694 5.00246 10.0776 4.79922 10.5892 4.79922H13.7057C14.2097 4.79928 14.6938 4.99662 15.0542 5.349L17.2592 7.5055C17.443 7.68514 17.589 7.89969 17.6888 8.13654C17.7885 8.3734 17.8398 8.6278 17.8399 8.88479V14.7107C17.8399 15.2223 17.6366 15.7129 17.2749 16.0747C16.9131 16.4365 16.4224 16.6397 15.9108 16.6397H15.1797V17.3712C15.1797 17.8829 14.9765 18.3735 14.6147 18.7353C14.2529 19.0971 13.7623 19.3003 13.2507 19.3003H7.92907C7.41745 19.3003 6.92678 19.0971 6.56501 18.7353C6.20324 18.3735 6 17.8829 6 17.3712V10.0541C6 9.54245 6.20324 9.05178 6.56501 8.69001C6.92678 8.32824 7.41745 8.125 7.92907 8.125H8.66016V6.72829C8.66016 6.21667 8.8634 5.726 9.22517 5.36423ZM14.581 15.4422L14.5969 15.4424H15.9108C16.1049 15.4424 16.291 15.3653 16.4282 15.2281C16.5654 15.0908 16.6425 14.9047 16.6425 14.7107V8.88493C16.6425 8.78748 16.623 8.69094 16.5852 8.60112C16.5474 8.51127 16.492 8.42989 16.4223 8.36176L14.2171 6.20511C14.0804 6.07149 13.8968 5.99662 13.7057 5.99657H10.5892C10.3952 5.99657 10.2091 6.07367 10.0718 6.21089C9.9346 6.34811 9.85751 6.53423 9.85751 6.72829V8.6959C9.85793 8.70511 9.85814 8.71437 9.85814 8.72368C9.85814 8.73299 9.85793 8.74225 9.85751 8.75146V14.7107C9.85751 14.9047 9.9346 15.0908 10.0718 15.2281C10.2091 15.3653 10.3952 15.4424 10.5892 15.4424H14.5652L14.581 15.4422ZM8.66016 14.7107V9.32236H7.92907C7.73501 9.32236 7.54889 9.39945 7.41167 9.53667C7.27445 9.67389 7.19736 9.86001 7.19736 10.0541V17.3712C7.19736 17.5653 7.27445 17.7514 7.41167 17.8886C7.54889 18.0259 7.73501 18.103 7.92907 18.103H13.2507C13.4447 18.103 13.6308 18.0259 13.7681 17.8886C13.9053 17.7514 13.9824 17.5653 13.9824 17.3712V16.6397H10.5892C10.0776 16.6397 9.58694 16.4365 9.22517 16.0747C8.8634 15.7129 8.66016 15.2223 8.66016 14.7107Z" fill="#E3DCD1"/>
</svg>
