<svg width="24" height="24" viewBox="0 0 24 24" fill="none" xmlns="http://www.w3.org/2000/svg">
<g clip-path="url(#clip0_2389_1443)">
<path d="M3.02344 16.4697C3.53385 16.2082 4.0595 15.9768 4.59762 15.7769C5.37349 15.3755 6.12274 14.9258 6.84083 14.4303C7.7145 13.8232 8.45437 13.2082 8.45437 13.2082C8.45437 13.2082 9.20211 12.6011 9.96559 11.8616C10.5892 11.2526 11.1704 10.6025 11.7051 9.91565C12.0041 9.41944 12.3326 8.94117 12.6889 8.4834C12.2153 8.81429 11.7182 9.11086 11.2013 9.37077C10.8629 9.57315 9.90262 10.2114 9.0683 10.8419C8.23398 11.4724 7.49412 12.0795 7.49412 12.0795C7.49412 12.0795 6.75425 12.6712 5.9829 13.3795C5.21155 14.0878 4.40872 14.8973 4.14111 15.1853C3.80132 15.6403 3.42773 16.0696 3.02344 16.4697Z" fill="#D44242"/>
<path d="M2 14.6485C2.6218 14.3371 3.15702 14.3138 3.95198 14.0102C4.91029 13.63 5.84352 13.1906 6.74616 12.6947C7.85596 12.0954 8.80047 11.4649 8.80047 11.4649C8.80047 11.4649 9.76859 10.8499 10.7525 10.0716C11.58 9.44174 12.3685 8.76329 13.1137 8.03993C13.7041 7.43279 13.9008 6.95797 14.4675 6.48315C13.8796 6.82617 13.2665 7.1254 12.6336 7.37832C12.2243 7.58848 11.0594 8.25012 9.98111 8.89619C8.90279 9.54225 7.99764 10.165 7.99764 10.165C7.99764 10.165 7.05313 10.7721 6.03778 11.4804C5.02243 12.1888 3.94411 13.0372 3.58992 13.3018C3.09338 13.7879 2.56202 14.238 2 14.6485Z" fill="#D44242"/>
<path d="M2.78711 12.4845C3.30094 12.313 3.82717 12.1803 4.36129 12.0875C4.53445 12.0253 4.88864 11.9163 5.29006 11.745C5.69147 11.5738 6.17947 11.3714 6.62024 11.1457C7.18234 10.8548 7.7288 10.5352 8.25739 10.1883C8.78548 9.84913 9.29517 9.48281 9.78435 9.09075C10.1779 8.77939 10.5714 8.42912 10.8784 8.12555C11.1854 7.82198 11.4294 7.54952 11.5632 7.41719C11.8626 6.96887 12.194 6.54226 12.5549 6.14062C12.084 6.4049 11.5884 6.62387 11.0752 6.79449L10.2094 7.23818C9.83157 7.44834 9.42229 7.69741 8.97364 7.94649C8.13933 8.43688 7.39946 8.91948 7.39946 8.91948C7.39946 8.91948 6.66747 9.3943 5.87251 9.94695C5.47896 10.2272 5.08541 10.5386 4.73122 10.7954C4.37703 11.0523 4.10942 11.2936 3.94413 11.4025C3.59643 11.8009 3.20878 12.1635 2.78711 12.4845Z" fill="#D44242"/>
<path d="M3.97559 10.4216C4.31022 10.382 4.64843 10.382 4.98306 10.4216C5.08538 10.4216 5.31365 10.3827 5.56551 10.3127C5.84956 10.2407 6.1283 10.1497 6.39983 10.0402C6.74829 9.89972 7.0829 9.72777 7.39943 9.52651C7.7166 9.32521 8.01669 9.09874 8.29672 8.84932C8.51042 8.65289 8.71028 8.44223 8.89491 8.21883C9.0602 8.01645 9.17039 7.82185 9.24123 7.73623C9.43801 7.37817 9.45375 7.0668 9.67414 6.84106C9.42227 7.03566 9.10743 7.01231 8.72962 7.13686C8.63517 7.13686 8.43053 7.24581 8.20227 7.35478C7.97401 7.46375 7.7064 7.58053 7.47028 7.71286C6.98228 7.96972 6.57299 8.24215 6.57299 8.24215C6.57299 8.24215 6.14796 8.49902 5.70719 8.82595C5.48681 8.98162 5.25855 9.17624 5.06964 9.33192C4.88074 9.48759 4.72332 9.64326 4.64461 9.70553C4.36913 9.99353 4.25894 10.2737 3.97559 10.4216Z" fill="#D44242"/>
<path d="M2.68457 9.23861C3.06553 9.16286 3.45302 9.12374 3.8416 9.12184C3.96753 9.12184 4.22727 9.05176 4.5185 8.95836C4.84634 8.86044 5.16715 8.74085 5.47875 8.60033C5.8828 8.41997 6.27224 8.20918 6.64364 7.96984C7.01511 7.73785 7.36775 7.4776 7.69835 7.19145C7.95898 6.97258 8.20116 6.7331 8.42247 6.47534C8.57869 6.30397 8.72581 6.1247 8.86324 5.93825C9.12298 5.54128 9.17021 5.20655 9.44569 4.94189C9.10327 5.12 8.73781 5.25094 8.3595 5.33109C8.24931 5.37779 8.01318 5.47118 7.74557 5.60351C7.47796 5.73583 7.16312 5.89152 6.87977 6.05498C6.30519 6.37412 5.80933 6.70106 5.80933 6.70106C5.80933 6.70106 5.30559 7.02017 4.77036 7.40158C4.50275 7.59618 4.23514 7.81413 3.98327 7.99316L3.47166 8.42906C3.15683 8.75598 3.02302 9.05958 2.68457 9.23861Z" fill="#D44242"/>
<path d="M3.62158 16.7422C4.2785 16.4805 4.94838 16.2519 5.62866 16.0572C6.62149 15.6564 7.58877 15.1963 8.52516 14.6795C9.66644 14.0568 10.6503 13.4029 10.6503 13.4029C10.6503 13.4029 11.6499 12.7646 12.6731 11.9629C13.5181 11.3138 14.3224 10.6145 15.0816 9.86903C15.7034 9.24632 15.9396 8.75594 16.4984 8.31226C15.8872 8.66381 15.2535 8.97583 14.6015 9.24633C14.1844 9.4565 12.9565 10.1493 11.8624 10.8031C10.7684 11.457 9.80025 12.1186 9.80025 12.1186C9.80025 12.1186 8.82426 12.7491 7.76955 13.4808C6.71485 14.2124 5.59718 15.0375 5.23512 15.3644C4.7279 15.8577 4.18893 16.3178 3.62158 16.7422Z" fill="#D44242"/>
<path d="M8.61133 16.4463C8.8632 16.3841 9.09932 16.5242 9.45352 16.5397C9.86185 16.5274 10.2656 16.4512 10.6499 16.314C10.945 16.2072 11.2274 16.0689 11.4921 15.9015C11.7575 15.7438 12.0032 15.5556 12.2241 15.341C12.3992 15.1723 12.5573 14.9872 12.6963 14.7884C12.7914 14.6563 12.8782 14.5185 12.9561 14.3758C13.0978 14.0489 13.0741 13.7687 13.2394 13.5974C13.0348 13.7609 12.7593 13.722 12.4523 13.7998L12.0116 13.9633C11.8227 14.0411 11.6023 14.1267 11.4134 14.2279C11.0198 14.4303 10.6892 14.6405 10.6892 14.6405C10.6892 14.6405 10.3587 14.8428 10.0045 15.0997C9.83132 15.232 9.65029 15.3877 9.50075 15.5201C9.3512 15.6524 9.22526 15.7847 9.1623 15.8392C8.92617 16.0649 8.84746 16.3763 8.61133 16.4463Z" fill="#D44242"/>
<path d="M8.30469 15.3877C8.55656 15.3254 8.80056 15.4655 9.14688 15.4811C9.55521 15.4687 9.959 15.3926 10.3433 15.2554C10.6373 15.1494 10.9195 15.0137 11.1854 14.8506C11.4518 14.6877 11.6998 14.4973 11.9253 14.2824C12.0974 14.116 12.253 13.9335 12.3897 13.7375C12.4853 13.6031 12.5721 13.4627 12.6494 13.3172C12.7911 12.9981 12.7675 12.7178 12.9328 12.5388C12.7281 12.6945 12.4527 12.6556 12.1457 12.7412C12.0591 12.7412 11.8938 12.8191 11.7049 12.8969C11.516 12.9747 11.2956 13.0681 11.1067 13.1693C10.7132 13.3639 10.3826 13.5741 10.3826 13.5741C10.3826 13.5741 10.052 13.7764 9.69784 14.0411C9.52468 14.1656 9.34365 14.3291 9.19411 14.4537C9.04456 14.5782 8.91862 14.7183 8.85566 14.7728C8.61953 15.0141 8.54082 15.2787 8.30469 15.3877Z" fill="#D44242"/>
<path d="M12.1143 13.4497C12.3661 13.3874 12.6101 13.5275 12.9643 13.5431C13.1306 13.5412 13.2965 13.5256 13.4602 13.4964C13.6985 13.4569 13.9329 13.397 14.1607 13.3174C14.4526 13.2124 14.7323 13.0767 14.995 12.9126C15.2613 12.7497 15.5094 12.5593 15.7349 12.3444C15.9094 12.178 16.0676 11.9956 16.2071 11.7995C16.3409 11.6283 16.4118 11.4493 16.4669 11.3792C16.6007 11.0601 16.5771 10.7799 16.7502 10.6008C16.5456 10.7565 16.2622 10.7176 15.9631 10.8032C15.8844 10.8032 15.7113 10.881 15.5224 10.9589C15.3335 11.0367 15.1209 11.1301 14.9242 11.2313C14.6784 11.3537 14.4393 11.4888 14.2079 11.6361C14.2079 11.6361 13.8695 11.8385 13.5153 12.1031C13.3421 12.2354 13.169 12.3911 13.0115 12.5156L12.6731 12.8426C12.437 13.0761 12.3504 13.3407 12.1143 13.4497Z" fill="#D44242"/>
<path d="M3.33789 6.83322C3.58189 6.77095 3.81802 6.91886 4.12498 6.94221C4.21156 6.94221 4.40046 6.94221 4.60511 6.94221C4.83824 6.90627 5.06749 6.84891 5.28987 6.77094C5.56543 6.66912 5.82927 6.53866 6.07697 6.38175C6.33469 6.22293 6.57477 6.03772 6.79322 5.82912C6.96029 5.66514 7.11057 5.48524 7.24186 5.29203C7.33571 5.16066 7.41989 5.02277 7.49373 4.87946C7.61967 4.56811 7.58819 4.29567 7.75348 4.10107C7.5567 4.25675 7.28122 4.21005 6.96638 4.29567C6.82174 4.33619 6.67979 4.38559 6.54135 4.44357C6.36032 4.52141 6.14781 4.60704 5.95891 4.70045C5.72161 4.81867 5.49043 4.94857 5.26626 5.08964C5.03736 5.22756 4.81662 5.3783 4.60511 5.54112C4.43415 5.66595 4.27117 5.8011 4.11711 5.94585C3.96756 6.07039 3.8495 6.19495 3.78653 6.25722C3.65273 6.45961 3.56615 6.72425 3.33789 6.83322Z" fill="#D44242"/>
<path d="M4.03865 4C3.28556 5.72595 2.85106 7.57131 2.75569 9.44872C2.63763 10.9277 2.46446 15.4034 2.49595 18.5014V20.9689L4.71555 19.8636L12.6967 15.886L19.261 12.6246L21.9922 11.2624L19.261 9.9002C17.9072 9.21521 15.8765 8.22668 13.9639 7.33932C12.0512 6.45195 10.2645 5.68913 9.4381 5.33885C7.7344 4.57493 5.90526 4.12136 4.03865 4C6.53373 5.81364 7.88752 7.11356 9.98906 8.33563C10.6502 8.72482 12.0434 9.54217 13.5625 10.3673C15.0815 11.1923 16.758 12.0485 17.9229 12.6246V9.9002L11.3665 13.1694L3.30665 17.1548L5.54986 18.5248C5.54986 15.9249 5.40032 12.3989 5.28225 11.1456C5.08548 8.76378 4.51877 7.03571 4.03865 4Z" fill="#D44242"/>
</g>
<defs>
<clipPath id="clip0_2389_1443">
<rect width="20" height="17" fill="white" transform="translate(2 4)"/>
</clipPath>
</defs>
</svg>
