<svg width="24" height="24" viewBox="0 0 24 24" fill="none" xmlns="http://www.w3.org/2000/svg">
<path d="M0 12C0 5.37258 5.37258 0 12 0C18.6274 0 24 5.37258 24 12C24 18.6274 18.6274 24 12 24C5.37258 24 0 18.6274 0 12Z" fill="#2E2E2E"/>
<path fill-rule="evenodd" clip-rule="evenodd" d="M12 24C18.6274 24 24 18.6274 24 12C24 5.37258 18.6274 0 12 0C5.37258 0 0 5.37258 0 12C0 18.6274 5.37258 24 12 24ZM12 5.4C10.2072 5.4 9.9828 5.4072 9.279 5.4396H9.2784C8.5764 5.472 8.0964 5.5836 7.6764 5.7462C7.23628 5.91207 6.83762 6.1719 6.5082 6.5076C6.17227 6.83719 5.91223 7.23605 5.7462 7.6764C5.5836 8.0964 5.4714 8.5764 5.4396 9.2796C5.4078 9.9828 5.4 10.2072 5.4 12C5.4 13.7922 5.4072 14.0166 5.4396 14.7216C5.472 15.4236 5.5836 15.9036 5.7462 16.3236C5.91199 16.7639 6.17183 17.1628 6.5076 17.4924C6.83749 17.828 7.23655 18.0876 7.677 18.2532C8.097 18.4164 8.577 18.5286 9.279 18.5604C9.9828 18.5922 10.2072 18.6 12 18.6C13.7928 18.6 14.0172 18.5928 14.7216 18.5604C15.4236 18.528 15.9036 18.4164 16.3236 18.2532C16.7634 18.0876 17.1624 17.8284 17.4924 17.4924C17.828 17.1625 18.0876 16.7635 18.2532 16.323C18.4164 15.903 18.5286 15.423 18.5604 14.721C18.5922 14.0172 18.6 13.7928 18.6 12C18.6 10.2078 18.5928 9.9834 18.5604 9.2784C18.528 8.5764 18.4164 8.0964 18.2532 7.6764C18.0876 7.236 17.8284 6.8376 17.4924 6.5082C17.1624 6.1722 16.7634 5.9124 16.3236 5.7462C15.9036 5.5836 15.4236 5.4714 14.7204 5.4396C14.0172 5.4078 13.7928 5.4 12 5.4ZM12 6.5892C13.7622 6.5892 13.971 6.5958 14.667 6.6276C15.3108 6.657 15.66 6.7644 15.8928 6.855C16.1794 6.96073 16.4388 7.12924 16.6518 7.3482C16.8828 7.5792 17.025 7.7994 17.145 8.1072C17.2356 8.34 17.343 8.6892 17.3724 9.333C17.4042 10.029 17.4108 10.2378 17.4108 12C17.4108 13.7622 17.4042 13.971 17.3724 14.667C17.343 15.3108 17.2356 15.66 17.145 15.8928C17.0394 16.179 16.8708 16.4388 16.6518 16.6518C16.4208 16.8828 16.2006 17.025 15.8928 17.145C15.66 17.2356 15.3108 17.343 14.667 17.3724C13.971 17.4042 13.7628 17.4108 12 17.4108C10.2372 17.4108 10.029 17.4042 9.333 17.3724C8.6892 17.343 8.34 17.2356 8.1072 17.145C7.821 17.0394 7.5612 16.8708 7.3482 16.6518C7.1292 16.4388 6.9606 16.179 6.855 15.8928C6.7644 15.66 6.657 15.3108 6.6276 14.667C6.5958 13.971 6.5892 13.7622 6.5892 12C6.5892 10.2378 6.5958 10.029 6.6276 9.333C6.657 8.6892 6.7644 8.34 6.855 8.1072C6.96071 7.82057 7.12923 7.56123 7.3482 7.3482C7.5792 7.1172 7.7994 6.975 8.1072 6.855C8.34 6.7644 8.6892 6.657 9.333 6.6276C10.029 6.5958 10.2378 6.5892 12 6.5892ZM12.6402 14.1094C12.152 14.257 11.6278 14.2306 11.157 14.0346C10.8563 13.9099 10.587 13.7201 10.3684 13.4788C10.1499 13.2376 9.98756 12.9508 9.89312 12.6393C9.79869 12.3278 9.77451 11.9992 9.82231 11.6772C9.87011 11.3552 9.98872 11.0478 10.1696 10.7771C10.3504 10.5064 10.5891 10.2793 10.8683 10.1119C11.1475 9.94451 11.4603 9.84112 11.7843 9.80917C12.1083 9.77722 12.4353 9.81749 12.7418 9.92709C13.0483 10.0367 13.3267 10.2129 13.557 10.443C13.9182 10.803 14.1432 11.2772 14.1936 11.7847C14.244 12.2921 14.1167 12.8013 13.8334 13.2253C13.55 13.6494 13.1283 13.9618 12.6402 14.1094ZM10.7018 8.86582C10.2902 9.0363 9.91621 9.28619 9.6012 9.6012C8.965 10.2374 8.60758 11.1003 8.60758 12C8.60758 12.8997 8.965 13.7626 9.6012 14.3988C10.2374 15.035 11.1003 15.3924 12 15.3924C12.8997 15.3924 13.7626 15.035 14.3988 14.3988C14.7138 14.0838 14.9637 13.7098 15.1342 13.2982C15.3047 12.8866 15.3924 12.4455 15.3924 12C15.3924 11.5545 15.3047 11.1134 15.1342 10.7018C14.9637 10.2902 14.7138 9.91621 14.3988 9.6012C14.0838 9.28619 13.7098 9.0363 13.2982 8.86582C12.8866 8.69533 12.4455 8.60758 12 8.60758C11.5545 8.60758 11.1134 8.69533 10.7018 8.86582ZM16.3286 8.85238C16.2854 8.95061 16.2229 9.03916 16.1448 9.1128C15.993 9.25601 15.7913 9.33442 15.5826 9.33138C15.374 9.32834 15.1747 9.24408 15.0271 9.09651C14.8795 8.94893 14.7953 8.74964 14.7922 8.54096C14.7892 8.33227 14.8676 8.13062 15.0108 7.9788C15.0844 7.90074 15.173 7.83824 15.2712 7.79502C15.3694 7.75179 15.4753 7.72871 15.5826 7.72715C15.6899 7.72559 15.7965 7.74557 15.8959 7.78591C15.9954 7.82625 16.0857 7.88614 16.1616 7.96202C16.2375 8.03791 16.2973 8.12824 16.3377 8.22769C16.378 8.32713 16.398 8.43365 16.3965 8.54096C16.3949 8.64826 16.3718 8.75416 16.3286 8.85238Z" fill="#E3DCD1"/>
</svg>
