<svg width="32" height="32" viewBox="0 0 32 32" fill="none" xmlns="http://www.w3.org/2000/svg">
<path d="M0 16C0 7.16344 7.16344 0 16 0V0C24.8366 0 32 7.16344 32 16V16C32 24.8366 24.8366 32 16 32V32C7.16344 32 0 24.8366 0 16V16Z" fill="#E3DCD1"/>
<path fill-rule="evenodd" clip-rule="evenodd" d="M13.9969 13.6427H16.8855V15.0816C17.3016 14.2541 18.3688 13.5105 19.9718 13.5105C23.0448 13.5105 23.7743 15.1579 23.7743 18.1803V23.778H20.6632V18.8686C20.6632 17.1474 20.2471 16.1767 19.1878 16.1767C17.7185 16.1767 17.108 17.2229 17.108 18.8679V23.778H13.9969V13.6427V13.6427ZM8.66208 23.6457H11.7732V13.5105H8.66208V23.6457V23.6457ZM12.2189 10.2057C12.219 10.4665 12.1673 10.7247 12.0667 10.9653C11.9662 11.2059 11.8188 11.4241 11.6332 11.6073C11.2571 11.9811 10.7479 12.1904 10.2176 12.1891C9.68828 12.1887 9.18033 11.98 8.80364 11.6081C8.61869 11.4243 8.47183 11.2058 8.37146 10.9652C8.2711 10.7246 8.2192 10.4665 8.21875 10.2057C8.21875 9.67919 8.42875 9.17519 8.80442 8.80341C9.18077 8.43098 9.68894 8.22218 10.2184 8.22241C10.7489 8.22241 11.2575 8.43163 11.6332 8.80341C12.0081 9.17519 12.2189 9.67919 12.2189 10.2057Z" fill="#2E2E2E"/>
</svg>
