<svg width="34" height="34" viewBox="0 0 34 34" fill="none" xmlns="http://www.w3.org/2000/svg">
<path d="M9.18031 25.772C9.99447 24.9559 10.8452 24.6749 11.9526 23.8155C12.2474 23.5702 12.8419 23.0947 13.5283 22.4768C14.2147 21.8589 14.998 21.1138 15.7208 20.3693C17.1863 18.9003 18.3388 17.404 18.3388 17.404C18.3388 17.404 19.5565 15.9626 20.7259 14.2388C21.6947 12.8371 22.5614 11.3683 23.3189 9.84415C23.9393 8.58032 24.0115 7.68551 24.6298 6.71469C23.9512 7.64568 23.1401 8.03745 22.148 9.01189C21.6391 9.52196 20.0311 11.1338 18.7014 12.6975C17.3716 14.2612 16.1894 15.6668 16.1894 15.6668C16.1894 15.6668 15.0121 17.0977 13.7778 18.7261C12.5435 20.3546 11.2873 22.2257 10.8836 22.861C10.1679 24.0298 9.94933 24.9109 9.18031 25.772Z" fill="#2E2E2E"/>
<path d="M28.1474 26.348C27.1278 25.5239 26.7084 24.6173 25.6196 23.4746C25.0467 22.8449 23.248 21.0263 21.4975 19.4454C19.7469 17.8645 18.1558 16.532 18.1558 16.532C18.1558 16.532 16.5491 15.1641 14.7145 13.7393C12.8798 12.3145 10.7972 10.8428 10.0647 10.3942C8.75658 9.52296 7.79387 9.26491 6.80422 8.41066C7.72893 9.33021 8.09293 10.2516 9.11188 11.4647C10.3482 12.9386 11.6643 14.3441 13.0541 15.6747C14.7395 17.3007 16.3814 18.6536 16.3814 18.6536C16.3814 18.6536 18.0289 20.0622 19.8982 21.4215C21.4456 22.5617 23.0547 23.6147 24.7176 24.5757C26.111 25.3918 27.093 25.5691 28.1474 26.348Z" fill="#2E2E2E"/>
</svg>
