<svg width="32" height="32" viewBox="0 0 32 32" fill="none" xmlns="http://www.w3.org/2000/svg">
<path d="M0 16C0 7.16344 7.16344 0 16 0C24.8366 0 32 7.16344 32 16C32 24.8366 24.8366 32 16 32C7.16344 32 0 24.8366 0 16Z" fill="#E3DCD1"/>
<circle cx="16" cy="16" r="16" fill="#E3DCD1"/>
<path fill-rule="evenodd" clip-rule="evenodd" d="M14.119 6.39893C13.4368 6.39893 12.7826 6.66991 12.3002 7.15228C11.8179 7.63464 11.5469 8.28886 11.5469 8.97102V10.8333H10.5721C9.88993 10.8333 9.23571 11.1043 8.75335 11.5867C8.27099 12.069 8 12.7232 8 13.4054V23.1616C8 23.8438 8.27099 24.498 8.75335 24.9804C9.23571 25.4627 9.88993 25.7337 10.5721 25.7337H17.6675C18.3497 25.7337 19.0039 25.4627 19.4863 24.9804C19.9686 24.498 20.2396 23.8438 20.2396 23.1616V22.1863H21.2144C21.8966 22.1863 22.5508 21.9153 23.0332 21.4329C23.5155 20.9506 23.7865 20.2963 23.7865 19.6142V11.8464C23.7865 11.5037 23.718 11.1645 23.585 10.8487C23.4521 10.5329 23.2573 10.2468 23.0123 10.0073L20.0722 7.13197C19.5917 6.66213 18.9463 6.39901 18.2742 6.39893H14.119ZM19.4625 20.5898C19.4555 20.5896 19.4485 20.5895 19.4414 20.5895C19.4343 20.5895 19.4273 20.5896 19.4203 20.5898H14.119C13.8602 20.5898 13.6121 20.487 13.4291 20.304C13.2461 20.1211 13.1433 19.8729 13.1433 19.6142V11.6686C13.1439 11.6563 13.1442 11.6439 13.1442 11.6315C13.1442 11.6191 13.1439 11.6068 13.1433 11.5945V8.97102C13.1433 8.71227 13.2461 8.46412 13.4291 8.28115C13.6121 8.09819 13.8602 7.9954 14.119 7.9954H18.2742C18.5291 7.99546 18.7739 8.09529 18.9561 8.27345L21.8964 11.149C21.9893 11.2398 22.0632 11.3483 22.1136 11.4681C22.164 11.5879 22.19 11.7166 22.19 11.8465V19.6142C22.19 19.8729 22.0872 20.1211 21.9043 20.304C21.7213 20.487 21.4732 20.5898 21.2144 20.5898H19.4625ZM11.5469 12.4298V19.6142C11.5469 20.2963 11.8179 20.9506 12.3002 21.4329C12.7826 21.9153 13.4368 22.1863 14.119 22.1863H18.6432V23.1616C18.6432 23.4204 18.5404 23.6685 18.3574 23.8515C18.1744 24.0345 17.9263 24.1372 17.6675 24.1372H10.5721C10.3133 24.1372 10.0652 24.0345 9.88223 23.8515C9.69926 23.6685 9.59647 23.4204 9.59647 23.1616V13.4054C9.59647 13.1466 9.69926 12.8985 9.88223 12.7155C10.0652 12.5326 10.3133 12.4298 10.5721 12.4298H11.5469Z" fill="#2E2E2E"/>
</svg>
