<svg width="20" height="20" viewBox="0 0 20 20" fill="none" xmlns="http://www.w3.org/2000/svg">
<path d="M9.4516 10.5001C9.4516 10.1706 9.40784 9.80719 9.49403 9.48593C9.62563 8.99543 9.91005 8.54796 10.2536 8.17899C11.4385 6.90625 12.9653 5.90926 14.6115 5.3487C15.129 5.17248 15.7297 4.92974 16.2876 4.96256C16.365 4.96711 16.2564 5.2877 16.2494 5.33172C16.1434 5.99531 16.1343 6.66414 16.0584 7.33032C16.0311 7.57 15.9693 7.81315 15.9821 8.05593C15.9925 8.25531 16.0874 7.67043 16.1263 7.4746M16.1263 7.4746C16.2307 6.94896 16.0257 8.00077 16.1263 7.4746ZM16.1263 7.4746C16.2269 6.94843 18.3793 3.25074 18 3.034C17.662 2.84083 10.5 3.534 10.5 3.534" stroke="#2E2E2E" stroke-width="1.5" stroke-linecap="round"/>
<path d="M6.06666 6.00209C5.51445 6.00209 4.98384 5.9777 4.45381 6.09548C3.77423 6.2465 3.74832 7.31374 3.71428 7.82443C3.64536 8.85815 3.8466 9.87868 3.88338 10.9088C3.91512 11.7975 3.88591 12.6924 3.88591 13.5817C3.88591 14.2739 3.84048 14.9608 3.84048 15.6539C3.84048 15.9734 3.76425 16.284 4.01211 16.5071C4.12927 16.6125 4.46749 16.5449 4.61283 16.5323C5.10952 16.4891 5.61207 16.4826 6.10704 16.4288C6.73025 16.3611 7.31796 16.2698 7.94958 16.2698C9.55444 16.2698 11.1583 16.3152 12.7604 16.3152C13.2172 16.3152 13.6741 16.3152 14.1309 16.3152C14.4388 16.3152 15.0902 16.3538 15.2667 16.0401C15.3841 15.8314 15.3349 15.5425 15.3349 15.3132C15.3349 14.7776 15.4204 14.2352 15.3349 13.7133" stroke="#2E2E2E" stroke-width="1.5" stroke-linecap="round"/>
</svg>
