<svg width="41" height="40" viewBox="0 0 41 40" fill="none" xmlns="http://www.w3.org/2000/svg">
<path d="M40.9967 20.9091C40.9967 31.9548 31.1333 40 20.0876 40C9.04194 40 2.36115 30.9091 0.99673 20C-0.367691 9.09091 9.95103 0 20.9967 0C32.0424 0 40.9967 9.8634 40.9967 20.9091Z" fill="#E8E3DB"/>
<path fill-rule="evenodd" clip-rule="evenodd" d="M12.6641 13.0591C12.6641 12.6898 12.8108 12.3356 13.0719 12.0745C13.333 11.8133 13.6872 11.6666 14.0565 11.6666H27.9368C28.1198 11.6663 28.3011 11.7021 28.4702 11.772C28.6394 11.8418 28.7931 11.9444 28.9226 12.0737C29.0521 12.203 29.1548 12.3566 29.2248 12.5257C29.2948 12.6948 29.3308 12.876 29.3307 13.0591V26.9394C29.3309 27.1224 29.295 27.3037 29.2251 27.4729C29.1552 27.642 29.0526 27.7957 28.9232 27.9252C28.7938 28.0547 28.6401 28.1574 28.471 28.2274C28.3019 28.2974 28.1206 28.3334 27.9376 28.3333H14.0565C13.8736 28.3333 13.6924 28.2973 13.5235 28.2272C13.3545 28.1572 13.2009 28.0546 13.0716 27.9252C12.9423 27.7958 12.8398 27.6422 12.7698 27.4732C12.6999 27.3042 12.664 27.123 12.6641 26.9401V13.0591ZM19.261 18.0212H21.5179V19.1545C21.8436 18.503 22.6769 17.9166 23.9292 17.9166C26.33 17.9166 26.8989 19.2144 26.8989 21.5954V26.006H24.4694V22.1378C24.4694 20.7818 24.1436 20.0166 23.3163 20.0166C22.1686 20.0166 21.6913 20.8416 21.6913 22.1378V26.006H19.261V18.0212ZM15.0944 25.9022H17.5247V17.9166H15.0944V25.9015V25.9022ZM17.8724 15.3121C17.877 15.5202 17.84 15.7271 17.7635 15.9207C17.687 16.1142 17.5727 16.2906 17.4271 16.4394C17.2816 16.5882 17.1078 16.7064 16.9159 16.7871C16.7241 16.8678 16.518 16.9094 16.3099 16.9094C16.1018 16.9094 15.8957 16.8678 15.7039 16.7871C15.512 16.7064 15.3382 16.5882 15.1927 16.4394C15.0471 16.2906 14.9328 16.1142 14.8563 15.9207C14.7798 15.7271 14.7428 15.5202 14.7474 15.3121C14.7564 14.9036 14.925 14.515 15.217 14.2293C15.5091 13.9436 15.9014 13.7836 16.3099 13.7836C16.7184 13.7836 17.1107 13.9436 17.4028 14.2293C17.6948 14.515 17.8634 14.9036 17.8724 15.3121Z" fill="#2E2E2E"/>
</svg>
