<svg width="426" height="427" viewBox="0 0 426 427" fill="none" xmlns="http://www.w3.org/2000/svg">
<g clip-path="url(#clip0_3140_5108)">
<path d="M412.702 36.6958C412.462 35.5338 411.731 34.5271 410.739 33.8694C410.04 33.4087 409.327 33.1892 408.484 33.1443C408.06 33.1822 407.695 33.2232 407.271 33.2611C406.539 33.4035 405.917 33.7333 405.35 34.1869C404.916 34.4057 404.538 34.688 404.161 34.9703C403.223 35.5856 402.342 36.2645 401.577 37.01C400.56 37.984 399.602 38.9612 398.584 39.9352C397.563 40.9695 396.542 42.0037 395.464 42.9745C394.386 43.9453 393.251 44.8525 392.17 45.8836C390.008 47.9458 387.906 50.0112 385.803 52.0765C384.722 53.1076 383.701 54.1419 382.677 55.2365C381.716 56.274 380.752 57.3718 379.788 58.4696C378.564 59.9165 377.283 61.2998 376.059 62.7467C375.285 63.6732 374.575 64.5426 373.801 65.4691C371.936 67.6076 369.955 69.6794 368.09 71.8179C365.905 74.3023 363.898 76.8566 361.83 79.4077C361.183 80.22 360.536 81.0322 359.892 81.7842C358.094 83.8053 356.356 85.8296 354.555 87.9111C352.821 89.8751 351.026 91.8359 349.231 93.7966C349.168 93.8537 349.104 93.9108 349.104 93.9108C347.966 94.8784 346.885 95.9095 345.744 96.9374C344.662 97.9684 343.524 98.936 342.503 99.9703C341.229 101.233 339.957 102.435 338.682 103.698C336.707 105.649 334.729 107.661 332.813 109.615C330.451 112.03 328.149 114.447 325.844 116.925C325.523 117.271 325.203 117.617 324.883 117.963C324.645 117.889 324.465 117.88 324.224 117.867C323.86 117.908 323.435 117.946 323.071 117.987C322.339 118.129 321.657 118.456 321.087 118.97C320.963 119.024 320.896 119.141 320.773 119.195C320.05 119.157 319.318 119.299 318.697 119.629C318.323 119.851 317.825 120.127 317.508 120.412C317.378 120.587 317.191 120.698 317.061 120.872C316.744 121.158 316.484 121.507 316.227 121.796C316.034 122.027 315.78 122.256 315.587 122.487C315.01 123.122 314.493 123.76 313.916 124.394C313.208 125.203 312.501 126.012 311.794 126.821C310.186 128.671 308.579 130.521 307.031 132.374C303.781 135.588 300.591 138.805 297.455 142.146C295.537 144.161 293.732 146.302 291.928 148.444C291.351 149.079 290.774 149.713 290.197 150.348C289.302 151.268 288.348 152.185 287.454 153.105C286.623 153.968 285.853 154.834 285.019 155.757C284.441 156.392 283.925 157.03 283.408 157.667C283.341 157.785 283.217 157.839 283.151 157.956C281.305 159.733 279.4 161.506 277.498 163.219C275.722 164.818 273.829 166.35 272.225 168.14C271.454 169.006 270.747 169.815 270.154 170.751C270.094 170.748 270.094 170.748 270.03 170.805C269.108 171.119 268.861 171.227 268.043 171.848C267.349 172.416 266.825 173.175 266.543 173.946C266.26 174.717 266.272 175.625 266.531 176.425C266.525 176.546 266.518 176.666 266.452 176.784C266.343 177.685 266.596 178.606 267.099 179.359C267.121 180.086 267.139 180.873 267.281 181.606C267.414 182.521 267.609 183.378 267.922 184.302C268.235 185.226 268.608 186.153 268.978 187.14C269.288 188.125 269.658 189.112 269.968 190.096C270.388 191.268 270.688 192.433 271.045 193.662C271.406 194.83 271.769 195.938 272.133 197.046C272.496 198.155 272.856 199.323 273.16 200.428C273.412 201.349 273.722 202.333 274.035 203.257C274.452 204.489 274.87 205.721 275.531 206.905C275.971 207.715 276.41 208.525 276.79 209.331C277.008 209.766 277.17 210.138 277.328 210.569C278.03 212.119 279.397 213.644 281.273 213.562C281.577 213.518 281.878 213.534 282.243 213.493C282.366 213.439 282.487 213.445 282.55 213.388C282.714 213.699 282.879 214.011 283.104 214.325C283.275 214.516 283.506 214.709 283.68 214.84C283.391 215.731 283.159 216.687 283.472 217.611C283.579 217.858 283.627 218.103 283.734 218.351C284.009 218.849 284.351 219.23 284.817 219.558C285.051 219.691 285.289 219.764 285.523 219.898C285.878 220.037 286.239 220.057 286.6 220.076C287.313 220.295 288.162 220.22 288.847 219.833C289.842 219.281 290.549 218.472 291.313 217.726C291.757 217.327 292.141 216.924 292.528 216.46C293.292 215.715 293.996 214.966 294.7 214.217C295.594 213.297 296.491 212.317 297.271 211.27C297.662 210.746 297.995 210.159 298.325 209.632C299.022 209.004 299.72 208.376 300.417 207.748C300.417 207.748 300.417 207.748 300.481 207.691C300.668 207.58 300.794 207.466 300.981 207.355C301.362 207.012 301.689 206.546 301.835 206.069C302.117 205.298 302.042 204.447 301.659 203.701C301.384 203.203 301.042 202.822 300.633 202.558C300.168 202.231 299.515 202.014 298.971 202.046L298.914 201.982C298.803 201.795 298.689 201.668 298.518 201.477C298.404 201.35 298.233 201.16 298.119 201.033C297.894 200.718 297.609 200.401 297.385 200.086C296.932 199.518 296.423 198.886 295.97 198.317C295.517 197.749 295.004 197.177 294.552 196.609C293.697 195.656 292.906 194.646 291.924 193.807C291.579 193.486 291.234 193.166 290.819 193.022C290.705 192.895 290.651 192.772 290.538 192.644C290.145 192.079 289.756 191.454 289.303 190.885C289.192 190.698 289.079 190.571 288.908 190.38C288.395 189.808 287.863 189.599 287.217 189.262C286.919 189.185 286.621 189.109 286.32 189.093C286.019 189.077 285.715 189.121 285.411 189.166C285.227 189.216 285.043 189.267 284.92 189.321C285.173 189.092 285.427 188.864 285.684 188.575C286.575 187.715 287.412 186.732 288.246 185.809C289.016 184.942 289.79 184.016 290.561 183.15C291.461 182.109 292.362 181.068 293.259 180.088C293.773 179.51 294.344 178.996 294.914 178.483C295.422 178.026 295.929 177.569 296.496 177.115C297.171 176.909 297.856 176.522 298.363 176.066C298.68 175.78 299.067 175.317 299.331 174.907C299.464 174.673 299.597 174.438 299.667 174.26C299.87 173.847 300.133 173.438 300.34 172.965C300.606 172.496 300.869 172.086 301.076 171.613C301.209 171.379 301.339 171.204 301.412 170.966C301.679 170.496 301.948 169.966 302.158 169.433C302.57 168.487 302.685 167.465 302.436 166.484C304.129 164.155 305.826 161.766 307.52 159.437C308.04 158.739 308.564 157.98 309.084 157.282C310.514 155.362 311.941 153.503 313.372 151.583C316.553 147.398 319.845 143.4 323.2 139.345C323.713 138.767 324.227 138.19 324.684 137.549C324.684 137.549 324.684 137.549 324.687 137.489C326.171 135.693 327.652 133.957 329.076 132.158C330.56 130.362 332.048 128.506 333.532 126.71C333.405 126.824 333.338 126.942 333.212 127.056C333.855 126.304 334.499 125.552 335.086 124.736C335.409 124.33 335.616 123.857 335.705 123.318C338.46 120.32 341.216 117.321 343.972 114.323C345.766 112.362 347.682 110.408 349.48 108.387C350.05 107.873 350.51 107.171 350.729 106.457C350.806 106.159 350.882 105.861 350.961 105.502C351.091 105.327 351.278 105.216 351.408 105.042C353.45 102.973 355.496 100.844 357.541 98.7155C357.921 98.3729 358.245 97.9667 358.625 97.6241C359.196 97.1102 359.653 96.4692 359.875 95.6947C359.878 95.6344 359.945 95.517 359.948 95.4567C362.244 93.1597 364.543 90.8024 366.838 88.5054C368.877 86.4971 370.745 84.2983 372.723 82.2868C374.765 80.2182 376.861 78.2735 378.786 76.1382C381.218 73.546 383.479 70.7633 385.737 68.0409C386.318 67.346 386.895 66.7115 387.475 66.0166C387.992 65.3788 388.449 64.7378 388.969 64.0397C389.942 62.761 390.916 61.4822 391.95 60.2067C393.748 58.1856 395.66 56.2915 397.632 54.4007C399.731 52.3956 402.001 50.5811 404.043 48.5125C405.254 47.3069 406.526 46.1045 407.794 44.9625C408.491 44.3343 409.125 43.7633 409.706 43.0684C410.28 42.4941 410.797 41.8564 411.196 41.1519C411.656 40.4506 411.942 39.619 412.345 38.8542C412.795 38.3339 412.837 37.5498 412.702 36.6958ZM284.87 203.834C284.914 204.139 285.022 204.387 285.19 204.638C285.186 204.698 285.183 204.758 285.183 204.758C285.17 205 285.154 205.301 285.202 205.546C285.011 205.717 284.878 205.952 284.745 206.187C284.694 206.002 284.647 205.758 284.657 205.577C284.474 204.479 284.17 203.374 283.987 202.275C283.811 201.056 283.631 199.897 283.455 198.678C283.404 198.494 283.414 198.313 283.363 198.129C283.453 197.589 283.481 197.047 283.51 196.504C283.489 195.777 283.527 195.053 283.506 194.326C283.613 194.574 283.781 194.825 283.889 195.072C283.815 195.31 283.799 195.612 283.787 195.853C283.821 196.339 283.862 196.704 283.96 197.133C284.007 197.377 284.054 197.622 284.105 197.806C284.2 198.295 284.294 198.783 284.449 199.276C284.474 199.942 284.556 200.672 284.641 201.342C284.593 202.247 284.671 203.037 284.87 203.834Z" fill="#B7B6B4"/>
<path d="M419.511 32.4013C419.071 31.5915 418.435 31.0737 417.608 30.7272C417.431 30.6573 417.193 30.5841 416.952 30.5713C417.016 30.5142 417.079 30.4571 417.142 30.4C417.333 30.2287 417.523 30.0574 417.656 29.8225C418.253 28.8261 418.2 27.5531 417.402 26.6638C416.946 26.1556 416.297 25.8791 415.635 25.8438C415.153 25.8181 414.725 25.9162 414.291 26.135C413.797 26.3506 413.302 26.5662 412.808 26.7818C412.253 26.9942 411.699 27.2065 411.141 27.4792C410.028 27.9643 408.973 28.5128 407.971 29.1853C405.911 30.4666 403.901 31.932 401.837 33.2736C400.836 33.946 399.774 34.6152 398.715 35.2241C397.596 35.8298 396.477 36.4355 395.358 37.0412C394.3 37.6501 393.301 38.2622 392.3 38.9346C391.238 39.6038 390.176 40.273 389.057 40.8787C387.995 41.5479 386.933 42.2171 385.928 42.9498C384.739 43.7332 383.551 44.5166 382.419 45.3636C380.469 46.8322 378.52 48.3009 376.627 49.8331C376.564 49.8902 376.5 49.9473 376.437 50.0044C376.377 50.0012 376.253 50.0551 376.19 50.1122C374.84 50.5241 373.654 51.2472 372.412 51.9068C371.29 52.5727 370.11 53.1752 368.988 53.8412C366.747 55.1129 364.62 56.5116 362.554 57.9135C360.487 59.3155 358.48 60.7206 356.363 61.9384C355.241 62.6044 354.122 63.2101 352.939 63.8729C352.759 63.8632 352.521 63.7901 352.341 63.7805C351.618 63.7419 350.947 63.8876 350.265 64.2142C349.467 64.474 348.665 64.7942 347.92 65.1779C347.112 65.6186 346.303 66.0594 345.552 66.5637C343.742 67.6769 342.046 68.9172 340.347 70.2177C339.215 71.0647 338.08 71.9719 336.945 72.8792C336.568 73.1615 336.251 73.447 335.874 73.7293C335.506 73.8307 335.195 73.9956 334.828 74.097C334.457 74.2586 334.083 74.4806 333.769 74.7058C332.771 75.318 331.766 76.0507 330.761 76.7834C330.26 77.1196 329.756 77.5161 329.315 77.8555C329.065 78.0236 328.811 78.2521 328.561 78.4202L328.501 78.417C327.313 78.0512 326.099 78.168 324.984 78.7133C324.242 79.0367 323.5 79.3601 322.752 79.8041C321.69 80.4733 320.685 81.206 319.741 81.9419C319.173 82.3956 318.609 82.7889 318.041 83.2425C316.78 84.264 315.515 85.3457 314.193 86.364C314.066 86.4782 314.003 86.5353 313.876 86.6495C313.815 86.6463 313.812 86.7066 313.752 86.7034C313.381 86.8651 313.01 87.0268 312.579 87.1852C312.209 87.3469 311.831 87.6292 311.518 87.8544C310.516 88.5269 309.511 89.2596 308.503 90.0526C307.999 90.4491 307.495 90.8456 306.991 91.2422C306.106 91.9813 305.222 92.7205 304.34 93.3993C304.103 93.3261 303.802 93.3101 303.561 93.2973C303.2 93.278 302.896 93.3223 302.531 93.3633C301.859 93.509 301.302 93.7817 300.794 94.2385C299.726 95.0283 298.658 95.8181 297.589 96.608C297.288 96.5919 296.984 96.6362 296.68 96.6805C296.129 96.8325 295.514 97.0417 295.016 97.3176C294.271 97.7013 293.637 98.2723 292.946 98.7798C292.632 99.005 292.318 99.2303 292.005 99.4555C291.063 100.131 290.121 100.807 289.18 101.482C287.988 102.326 286.736 103.167 285.541 104.071C283.411 105.53 281.284 106.928 279.153 108.387C277.961 109.231 276.773 110.015 275.581 110.858C274.579 111.531 273.637 112.206 272.633 112.939C272.382 113.107 272.132 113.275 271.878 113.504C271.571 113.608 271.323 113.716 271.076 113.824C269.333 114.82 267.751 116.187 266.172 117.494C265.855 117.779 265.478 118.062 265.161 118.347C264.622 118.258 264.077 118.289 263.586 118.445C263.095 118.6 262.664 118.758 262.233 118.917C262.169 118.974 262.109 118.971 262.046 119.028C261.668 119.31 261.294 119.532 260.917 119.815C260.73 119.926 260.54 120.097 260.413 120.211C260.099 120.436 259.782 120.722 259.468 120.947C259.028 121.286 258.587 121.626 258.146 121.965C257.075 122.815 256.007 123.605 254.938 124.395C252.992 125.803 250.928 127.145 249.096 128.68C248.021 129.591 247.003 130.565 245.868 131.472C245.117 131.976 244.369 132.42 243.618 132.925C242.619 133.537 241.507 134.022 240.458 134.45C239.405 134.938 238.413 135.43 237.418 135.981C236.92 136.257 236.423 136.533 235.925 136.809C235.428 137.085 234.93 137.361 234.435 137.576C233.817 137.846 233.26 138.119 232.645 138.328C231.97 138.534 231.298 138.679 230.566 138.822C229.894 138.967 229.216 139.234 228.544 139.379C227.879 139.404 227.632 139.512 226.646 139.883C225.901 140.267 225.267 140.838 224.807 141.539C224.547 141.888 224.344 142.301 224.261 142.72C224.179 143.139 224.096 143.557 224.01 144.037C223.962 144.941 224.161 145.738 224.54 146.545C224.749 147.161 225.667 148.057 226.25 148.451C226.484 148.584 226.775 148.781 227.07 148.918C227.887 149.445 228.767 149.915 229.584 150.443C230.632 151.164 231.684 151.825 232.792 152.549C233.843 153.21 234.831 153.928 235.883 154.589C236.871 155.307 237.862 155.965 238.85 156.683C240.886 158.122 242.729 159.793 244.698 161.35C245.623 162.125 246.55 162.839 247.478 163.554C248.814 164.533 250.281 165.337 251.874 166.026C252.406 166.236 252.941 166.386 253.54 166.478C253.537 166.538 253.594 166.602 253.59 166.662C253.745 167.154 254.024 167.593 254.242 168.028C254.628 168.714 255.134 169.406 255.707 169.981C256.053 170.302 256.569 170.813 257.037 171.08C257.449 171.283 257.861 171.487 258.272 171.69C258.751 171.776 259.229 171.862 259.768 171.951C260.069 171.967 260.37 171.983 260.674 171.939C260.842 172.19 261.069 172.444 261.237 172.695C261.687 173.324 262.561 173.915 263.273 174.134C263.691 174.217 264.049 174.297 264.468 174.379C265.25 174.421 265.922 174.275 266.607 173.889C266.794 173.778 266.981 173.667 267.107 173.552C268.163 173.004 268.886 171.893 269.071 170.693C269.255 170.643 269.381 170.528 269.505 170.474C270.316 169.973 271.068 169.469 271.762 168.901C272.71 168.105 273.601 167.245 274.552 166.389C276.334 164.669 278.113 163.01 279.777 161.224C282.013 158.923 284.245 156.683 286.481 154.383C286.607 154.269 286.734 154.155 286.861 154.041C287.051 153.869 287.245 153.638 287.495 153.47C287.939 153.07 288.383 152.67 288.767 152.267C289.661 151.347 290.612 150.491 291.506 149.57C292.337 148.708 293.228 147.848 294.062 146.924C295.019 145.947 295.974 145.03 296.871 144.05C297.442 143.536 297.835 142.952 298.054 142.238C298.124 142.06 298.194 141.883 298.207 141.641C298.591 141.238 298.914 140.832 299.298 140.429C299.424 140.315 299.491 140.198 299.618 140.083C300.062 139.684 300.566 139.287 301.01 138.888C302.969 137.238 304.871 135.525 306.831 133.875C310.686 130.633 314.484 127.327 318.057 123.707C318.505 123.247 318.952 122.787 319.399 122.327C319.656 122.039 319.909 121.81 320.166 121.521C320.553 121.058 320.937 120.655 321.324 120.192C321.45 120.078 321.517 119.96 321.647 119.786C321.91 119.377 322.113 118.964 322.196 118.545C323.845 117.06 325.436 115.512 327.028 113.964C328.877 112.127 330.789 110.233 332.637 108.396C335.824 105.239 338.953 102.019 342.14 98.862C342.457 98.5765 342.711 98.3481 343.028 98.0625C343.979 97.206 344.927 96.4097 345.644 95.4197C345.907 95.0104 346.11 94.5978 346.196 94.1185C347.147 93.2619 348.101 92.3451 348.992 91.4853C349.883 90.6255 350.774 89.7658 351.726 88.9092C352.807 87.8781 353.948 86.8502 354.969 85.8159C355.663 85.2481 356.297 84.6771 356.995 84.0489C360.666 80.8575 364.452 77.7932 368.123 74.6017C369.451 73.4629 370.843 72.2669 372.172 71.128C372.742 70.6141 373.373 70.1034 373.944 69.5894C374.324 69.2468 374.702 68.9645 375.082 68.6219C375.336 68.3934 375.646 68.2285 375.9 68.0001C376.341 67.6607 376.728 67.1975 376.997 66.6675C377.197 66.3152 377.397 65.963 377.54 65.5472C377.794 65.3188 378.047 65.0904 378.301 64.862C380.137 63.2663 381.975 61.6102 383.751 60.0113C384.575 59.269 385.463 58.4695 386.287 57.7272C386.668 57.3845 387.112 56.9848 387.492 56.6422C388.06 56.1886 388.69 55.6778 389.201 55.1607C389.775 54.5864 390.111 53.939 390.153 53.155C390.156 53.0947 390.159 53.0343 390.163 52.974C390.6 52.6949 390.977 52.4126 391.418 52.0732C392.42 51.4008 393.364 50.6649 394.252 49.8654C394.696 49.4657 395.14 49.0659 395.587 48.6059C395.777 48.4346 395.971 48.203 396.161 48.0316C396.418 47.7429 396.678 47.3939 396.935 47.1051C397.258 46.699 397.518 46.35 397.668 45.8136L397.671 45.7532C400.695 43.3741 403.723 40.9347 406.747 38.5556C407.565 37.9339 408.323 37.3089 409.141 36.6872C409.955 36.1258 410.71 35.5612 411.525 34.9997C411.265 35.3488 411.001 35.7581 410.741 36.1072C410.218 36.8656 409.691 37.6843 409.168 38.4427C408.708 39.144 408.251 39.785 407.852 40.4895C407.725 40.6037 407.655 40.7814 407.528 40.8956C407.461 41.013 407.395 41.1304 407.331 41.1875C407.198 41.4224 407.005 41.654 406.871 41.8888C406.608 42.2982 406.345 42.7076 406.082 43.1169C405.524 43.3896 405.077 43.8496 404.687 44.3732C403.773 45.6552 402.917 47.0006 402.063 48.2858C401.67 48.8697 401.337 49.4568 400.944 50.0407C400.883 50.0374 400.883 50.0374 400.823 50.0342C400.516 50.1388 400.269 50.2466 399.961 50.3512C399.403 50.6239 398.959 51.0236 398.629 51.5504C397.986 52.3024 397.459 53.1211 396.872 53.9366C396.542 54.4633 396.152 54.9869 395.822 55.5137C394.979 56.6179 394.132 57.7824 393.349 58.8899C393.092 59.1786 392.892 59.5309 392.635 59.8196C392.328 59.9242 392.08 60.032 391.773 60.1366C391.215 60.4092 390.768 60.8693 390.378 61.3928C389.604 62.3193 388.944 63.3729 388.228 64.3629C388.031 64.6548 387.834 64.9468 387.638 65.2387C387.244 65.8226 386.791 66.4033 386.397 66.9871C385.966 67.1456 385.532 67.3644 385.152 67.707C384.835 67.9926 384.518 68.2781 384.201 68.5636C383.883 68.8491 383.563 69.195 383.303 69.544C382.469 70.4673 381.752 71.4573 380.975 72.4441C380.585 72.9677 380.255 73.4945 379.868 73.9577C378.952 75.3 378.038 76.5819 377.122 77.9242C376.665 78.5652 376.272 79.1491 375.815 79.7901C374.966 79.8658 374.043 80.1795 373.47 80.7538C372.699 81.6199 371.928 82.4861 371.158 83.3523C370.511 84.1646 369.924 84.9801 369.274 85.8527C368.884 86.3763 368.554 86.9031 368.227 87.3695C367.18 88.8863 366.131 90.4634 365.084 91.9802C364.757 92.4467 364.43 92.9131 364.1 93.4399C363.98 93.4335 363.86 93.4271 363.739 93.4207C363.499 93.4078 363.194 93.4521 362.95 93.4996C362.646 93.5438 362.339 93.6484 362.031 93.753C361.6 93.9115 361.166 94.1303 360.849 94.4158C359.33 95.726 358.097 97.3537 356.809 98.8577C356.102 99.6668 355.455 100.479 354.808 101.291C354.098 102.161 353.387 103.03 352.674 103.96C351.83 105.064 350.869 106.102 350.143 107.273C350.01 107.507 349.876 107.742 349.803 107.98C349.48 108.386 349.153 108.853 348.83 109.259C348.31 109.957 347.789 110.655 347.209 111.35C346.432 112.337 345.652 113.384 344.875 114.371C343.058 116.754 341.297 119.2 339.477 121.644C338.957 122.342 338.436 123.04 337.977 123.741C335.772 126.587 333.625 129.497 331.424 132.283C331.228 132.575 330.974 132.803 330.777 133.095C330.584 133.327 330.447 133.622 330.368 133.981C330.301 134.098 330.174 134.212 330.108 134.33C329.493 134.539 328.992 134.875 328.488 135.272C327.654 136.195 326.817 137.179 326.043 138.105C326.303 137.756 326.62 137.471 326.88 137.121C326.236 137.873 325.653 138.629 325.069 139.384C324.422 140.196 323.718 140.945 323.071 141.757C321.651 143.496 320.227 145.295 318.746 147.031C315.147 151.133 311.494 155.112 308.008 159.341C306.071 161.718 304.193 164.098 302.256 166.474C300.572 168.623 298.944 170.834 297.378 173.049C295.291 175.962 293.381 178.945 291.063 181.664C290.422 182.356 289.782 183.047 289.024 183.672C288.837 183.783 288.65 183.894 288.403 184.002C287.598 184.383 286.903 184.95 286.44 185.712C285.52 187.115 285.418 189.045 286.243 190.54C286.905 191.725 287.946 192.567 289.112 193.355C289.811 193.815 290.511 194.276 291.148 194.794C291.376 195.048 291.664 195.305 291.892 195.559C292.582 196.201 293.275 196.782 294.095 197.249C294.973 197.78 295.913 198.253 296.854 198.727L296.914 198.73C296.872 199.514 297.185 200.438 297.511 201.121C297.783 201.68 298.068 201.997 298.413 202.318C298.413 202.318 298.413 202.318 298.353 202.315L298.41 202.379C298.524 202.506 298.641 202.572 298.755 202.699C299.391 203.217 300.028 203.735 300.667 204.192C300.902 204.326 301.193 204.523 301.427 204.656C301.545 204.723 301.659 204.85 301.776 204.917C302.647 205.568 303.457 206.216 304.391 206.81C305.148 207.335 305.908 207.799 306.668 208.262C307.254 208.596 307.9 208.933 308.553 209.149C308.613 209.152 308.613 209.152 308.67 209.216C309.366 209.737 310.06 210.318 310.696 210.836C312.77 212.701 314.714 214.74 317.048 216.255C318.156 216.98 319.207 217.641 320.252 218.422C320.775 218.813 321.237 219.2 321.756 219.652C321.987 219.845 322.222 219.979 322.453 220.173C322.57 220.239 322.687 220.306 322.804 220.373C323.273 220.64 323.922 220.916 324.451 221.186C324.803 221.387 325.401 221.479 326.003 221.511C326.06 221.575 326.06 221.575 326.117 221.638C326.292 221.768 326.462 221.959 326.637 222.089C327.187 223.086 328.108 223.922 329.176 224.281C330.006 224.567 330.912 224.555 331.771 224.298C332.556 224.28 333.292 224.077 333.973 223.75C334.965 223.259 335.669 222.51 336.319 221.638C336.709 221.114 336.979 220.584 337.312 219.997C337.982 218.762 338.591 217.525 339.257 216.351C339.387 216.176 339.46 215.938 339.53 215.76C339.736 215.287 340.066 214.761 340.216 214.224C340.355 213.869 340.375 213.507 340.394 213.145C340.433 212.421 340.291 211.688 339.962 211.065C341.25 208.412 342.538 205.759 343.827 203.106C344.569 201.634 345.315 200.101 345.997 198.625C347.209 196.27 348.485 193.858 349.697 191.504C350.233 190.504 350.709 189.501 351.242 188.562C352.035 187.273 352.711 185.918 353.387 184.563C353.857 183.681 354.263 182.856 354.733 181.974C354.936 181.561 355.199 181.152 355.402 180.739C356.005 179.622 356.671 178.448 357.334 177.334C358.134 175.925 358.933 174.516 359.793 173.11C359.99 172.818 360.186 172.526 360.383 172.234C361.043 171.181 361.82 170.194 362.245 169.007C362.744 167.582 362.406 165.991 361.441 164.851C361.844 164.086 362.246 163.322 362.589 162.554C362.726 162.258 362.862 161.963 362.999 161.668C363.868 160.081 364.737 158.495 365.607 156.908C365.81 156.495 366.01 156.143 366.153 155.727C366.292 155.372 366.375 154.953 366.394 154.591C366.464 154.413 366.474 154.232 366.483 154.051C366.483 154.051 366.483 154.051 366.547 153.994C366.991 153.595 367.378 153.131 367.644 152.662C367.974 152.135 368.187 151.541 368.46 150.951C368.599 150.596 368.799 150.243 368.939 149.888C369.282 149.12 369.624 148.352 369.964 147.644C370.51 146.464 370.996 145.28 371.481 144.096C371.83 143.207 372.24 142.322 372.589 141.433C372.716 141.319 372.839 141.265 372.966 141.151C373.28 140.926 373.48 140.573 373.737 140.285C373.864 140.17 373.933 139.993 374 139.875C374.27 139.345 374.479 138.812 374.689 138.279C374.765 137.981 374.902 137.685 375.035 137.451C375.374 136.743 375.651 136.092 375.99 135.385C376.536 134.204 377.082 133.023 377.628 131.843C378.862 129.066 380.034 126.346 381.208 123.566C383.204 118.955 385.258 114.407 387.432 109.865C387.648 109.211 387.68 108.608 387.535 107.935C387.386 107.323 387.114 106.764 386.658 106.255C386.487 106.065 386.256 105.871 386.082 105.741C387.253 103.021 388.424 100.301 389.656 97.5845C389.723 97.4671 389.726 97.4068 389.792 97.2894C389.856 97.2323 389.862 97.1117 389.926 97.0546C392.794 91.9453 395.484 86.7661 398.175 81.5869C399.993 78.0548 401.808 74.583 403.627 71.0508C403.896 70.5208 404.163 70.0512 404.432 69.5212C404.905 68.5786 405.378 67.6361 405.848 66.7539C406.39 65.6336 406.993 64.5165 407.476 63.393C407.619 62.9773 407.704 62.498 407.667 62.0726C408.019 61.1236 408.372 60.1746 408.784 59.2289C408.997 58.6354 409.032 57.9719 408.884 57.3592C408.783 56.9909 408.682 56.6226 408.457 56.3082C409.656 54.1947 410.916 52.0844 412.115 49.9709C413.314 47.8574 414.51 45.8042 415.592 43.6239C416.332 42.2117 417.071 40.7995 417.75 39.3841C418.023 38.7938 418.356 38.2067 418.629 37.6164C418.972 36.8484 419.375 36.0836 419.657 35.3123C419.959 34.1792 419.89 33.2078 419.511 32.4013ZM240.341 145.694C240.344 145.633 240.405 145.637 240.408 145.576C240.405 145.637 240.405 145.637 240.341 145.694ZM270.645 167.209C270.578 167.326 270.575 167.386 270.509 167.504C270.575 167.386 270.578 167.326 270.645 167.209Z" fill="#F2F0ED"/>
<path d="M251.71 135.11C252.395 134.724 253.079 134.337 253.764 133.95C255.26 133.062 256.816 132.177 258.316 131.229C258.94 130.839 259.504 130.445 260.129 130.055C260.817 129.608 261.505 129.161 262.256 128.656C262.446 128.485 262.693 128.377 262.884 128.206C261.331 129.03 259.781 129.795 258.231 130.559C257.549 130.885 256.804 131.269 256.123 131.596C255.318 131.976 254.45 132.414 253.644 132.794C252.218 133.504 250.792 134.215 249.366 134.925C248.808 135.198 248.187 135.527 247.629 135.8C246.637 136.292 245.641 136.843 244.646 137.395C243.404 138.055 242.164 138.654 240.922 139.314C238.998 140.3 237.131 141.349 235.207 142.336C234.833 142.558 234.462 142.719 234.088 142.941C235.321 142.463 236.551 142.044 237.784 141.566C238.709 141.192 239.695 140.821 240.623 140.386C241.672 139.958 242.661 139.527 243.65 139.096C244.021 138.934 244.392 138.773 244.762 138.611C246.496 137.796 248.173 136.918 249.91 136.043C250.464 135.83 251.086 135.501 251.71 135.11Z" fill="#2E2E2E"/>
<path d="M324.669 84.5638C322.799 85.6737 320.866 86.8408 318.992 88.0111C316.808 89.3463 314.564 90.6783 312.377 92.0738C310.443 93.2409 308.57 94.4112 306.636 95.5783C304.887 96.6947 303.077 97.8079 301.327 98.9244C299.45 100.155 297.517 101.322 295.64 102.553C294.451 103.336 293.266 104.059 292.077 104.843C291.827 105.011 291.576 105.179 291.326 105.347C290.638 105.794 290.01 106.245 289.323 106.692C288.508 107.253 287.696 107.754 286.942 108.319C285.81 109.166 284.621 109.949 283.49 110.796C282.548 111.472 281.667 112.151 280.725 112.826C279.784 113.502 278.903 114.181 277.961 114.856C277.834 114.971 277.711 115.024 277.584 115.139C277.083 115.475 276.642 115.814 276.141 116.15C275.764 116.433 275.327 116.712 274.949 116.994C274.325 117.384 273.761 117.778 273.136 118.168C272.699 118.447 272.258 118.786 271.821 119.065C271.447 119.287 271.13 119.573 270.756 119.795C271.818 119.126 272.94 118.46 273.998 117.851C274.433 117.632 274.87 117.353 275.244 117.131C275.868 116.741 276.493 116.351 277.178 115.964C277.365 115.853 277.615 115.685 277.802 115.574C278.113 115.409 278.366 115.18 278.677 115.015C279.114 114.736 279.555 114.397 280.053 114.121C280.243 113.95 280.49 113.842 280.68 113.671C280.68 113.671 280.741 113.674 280.744 113.614C280.994 113.445 281.308 113.22 281.558 113.052C281.682 112.998 281.749 112.881 281.872 112.827C282.5 112.376 283.128 111.926 283.755 111.476L283.692 111.533C284.38 111.086 285.007 110.635 285.695 110.188C286.386 109.68 287.074 109.233 287.765 108.726L287.702 108.783C288.016 108.558 288.39 108.336 288.704 108.11C289.391 107.663 290.079 107.216 290.767 106.769C291.268 106.433 291.769 106.096 292.27 105.76C292.52 105.592 292.771 105.424 293.018 105.316C295.081 103.975 297.145 102.633 299.266 101.355C301.326 100.074 303.39 98.7319 305.453 97.3903C307.453 96.1058 309.393 94.8181 311.394 93.5335C313.083 92.4139 314.773 91.2943 316.462 90.1747C318.402 88.887 320.406 87.5421 322.346 86.2544C323.167 85.5724 323.918 85.0681 324.669 84.5638Z" fill="#2E2E2E"/>
<path d="M280.751 113.493C280.755 113.433 280.815 113.436 280.751 113.493C280.815 113.436 280.755 113.433 280.751 113.493C280.755 113.433 280.751 113.493 280.751 113.493Z" fill="#2E2E2E"/>
<path d="M348.949 70.7974C350.635 69.7381 352.321 68.6788 354.011 67.5592C356.325 66.0495 358.642 64.4794 360.963 62.8491C361.026 62.792 361.086 62.7952 361.15 62.7381C362.028 62.1196 362.906 61.501 363.784 60.8825C360.18 62.8074 356.64 64.6751 353.093 66.6635C351.413 67.6021 349.733 68.5408 348.113 69.4827C346.37 70.4785 344.68 71.5981 342.994 72.6574C341.181 73.8309 339.364 75.0647 337.608 76.3018C337.608 76.3018 337.608 76.3018 337.545 76.3589C336.042 77.3675 334.6 78.3793 333.1 79.3276C334.337 78.7887 335.516 78.1862 336.755 77.587C337.376 77.2572 337.994 76.9877 338.619 76.5976C340.359 75.6621 342.039 74.7234 343.779 73.788C345.519 72.8525 347.262 71.8567 348.949 70.7974Z" fill="#2E2E2E"/>
<path d="M255.881 158.74C255.359 158.349 254.893 158.022 254.371 157.631C254.023 157.371 253.674 157.11 253.326 156.85C253.152 156.72 252.918 156.586 252.743 156.456C251.698 155.674 250.653 154.893 249.545 154.168C247.857 152.99 246.103 151.928 244.285 150.924C245.308 152.128 246.39 153.335 247.476 154.482C248.277 155.311 249.078 156.14 249.942 156.911C250.287 157.232 250.693 157.556 251.038 157.877C251.212 158.007 251.383 158.198 251.617 158.331C252.197 158.786 252.839 159.183 253.422 159.577C253.948 159.907 254.594 160.244 255.123 160.514C255.709 160.848 256.298 161.121 256.947 161.398C257.713 161.741 258.543 162.027 259.373 162.313C260.263 162.603 261.153 162.892 262.047 163.121C260.995 162.46 260.011 161.682 258.966 160.901C257.974 160.243 256.926 159.522 255.881 158.74Z" fill="#2E2E2E"/>
<path d="M307.537 197.603C307.138 197.158 306.679 196.711 306.28 196.266C305.824 195.758 305.305 195.307 304.843 194.919C304.44 194.535 304.035 194.211 303.57 193.884C302.585 193.105 301.597 192.387 300.546 191.726C298.794 190.605 297.034 189.664 295.152 188.717C297.257 191.128 299.492 193.364 301.918 195.429C302.899 196.267 303.884 197.046 304.932 197.767C305.92 198.485 306.848 199.199 307.839 199.857C308.13 200.054 308.425 200.191 308.776 200.391C309.071 200.528 309.302 200.721 309.597 200.858C310.243 201.195 310.946 201.595 311.595 201.872C310.617 200.973 309.705 199.957 308.73 198.997C308.271 198.55 307.936 198.048 307.537 197.603Z" fill="#2E2E2E"/>
<path d="M325.071 212.933C323.931 211.663 322.475 210.678 321.012 209.813C321.904 211.192 322.917 212.576 324.126 213.669C325.165 214.571 326.394 215.302 327.495 216.147C326.834 214.963 325.986 213.889 325.071 212.933Z" fill="#2E2E2E"/>
<path d="M338.994 199.764C339.327 199.177 339.6 198.587 339.933 198C341.666 194.947 343.338 191.891 344.896 188.708C346.181 186.115 347.406 183.519 348.276 180.783C347.413 182.249 346.554 183.655 345.811 185.127C345.005 186.657 344.139 188.183 343.333 189.713C342.597 191.065 341.861 192.417 341.185 193.772C340.779 194.597 340.373 195.422 339.966 196.247C339.693 196.838 339.36 197.425 339.084 198.075C338.675 198.961 338.269 199.786 337.859 200.671C337.653 201.144 337.447 201.617 337.237 202.15C336.891 202.979 336.548 203.747 336.202 204.575C336.066 204.87 335.929 205.165 335.85 205.524C335.847 205.584 335.847 205.584 335.783 205.641C336.002 204.927 336.222 204.213 336.381 203.496C336.079 204.629 335.717 205.759 335.294 206.885C335.291 206.946 335.348 207.009 335.412 206.952C336.224 205.302 337.036 203.652 337.906 202.065C338.195 201.173 338.594 200.469 338.994 199.764Z" fill="#2E2E2E"/>
<path d="M364.075 149.387C364.491 148.381 364.847 147.371 365.142 146.359C365.444 145.226 365.743 144.153 365.924 143.013C365.858 143.131 365.791 143.248 365.785 143.369C365.242 144.489 364.639 145.606 364.039 146.663C363.906 146.898 363.773 147.133 363.64 147.368C363.506 147.602 363.31 147.894 363.177 148.129C362.783 148.713 362.45 149.3 362.117 149.887C360.857 151.997 359.658 154.111 358.633 156.355C356.596 160.601 354.91 165.047 353.522 169.57C356.475 165.131 359.194 160.558 361.501 155.782C362.339 153.649 363.237 151.52 364.075 149.387Z" fill="#2E2E2E"/>
<path d="M379.074 113.775C379.439 112.585 379.804 111.394 380.112 110.141C380.411 109.068 380.65 107.992 380.948 106.919C379.873 108.979 378.734 111.095 377.715 113.219C376.969 114.751 376.22 116.345 375.652 117.947C374.598 120.734 373.721 123.59 373.025 126.457C374.811 123.528 376.483 120.471 377.8 117.276C378.28 116.212 378.708 114.965 379.074 113.775Z" fill="#2E2E2E"/>
<path d="M377.708 113.339C377.708 113.339 377.711 113.279 377.771 113.282C377.711 113.279 377.711 113.279 377.708 113.339Z" fill="#2E2E2E"/>
<path d="M408.726 50.0927C407.686 51.4889 406.646 52.8851 405.726 54.2877C404.679 55.8045 403.693 57.3245 402.706 58.8445C401.386 60.9516 400.127 63.0619 398.985 65.2389C397.776 67.5333 396.747 69.8374 395.656 72.1986C394.691 74.4456 393.726 76.6925 392.821 78.9427C392.405 79.9488 391.986 81.0152 391.571 82.0212C392.893 79.8538 394.216 77.6864 395.539 75.519C396.992 73.1771 398.385 70.832 399.777 68.4868C400.374 67.4904 400.973 66.4336 401.51 65.434C402.116 64.2566 402.722 63.0792 403.328 61.9018C404.613 59.309 405.901 56.6559 407.069 53.9964C407.622 52.6952 408.174 51.394 408.726 50.0927Z" fill="#2E2E2E"/>
<path d="M277.472 192.008C277.216 191.148 276.903 190.224 276.587 189.36C276.166 188.189 275.743 187.078 275.259 185.963C274.136 183.242 272.83 180.571 271.523 177.901C272.288 180.542 273.176 183.13 274.125 185.721C274.39 186.401 274.656 187.08 274.918 187.82C275.235 188.684 275.614 189.49 275.991 190.357C276.421 191.348 276.851 192.338 277.281 193.329C277.654 194.256 278.027 195.183 278.4 196.11C278.558 196.542 278.716 196.974 278.814 197.403C278.688 196.368 278.439 195.387 278.189 194.406C277.99 193.609 277.731 192.809 277.472 192.008Z" fill="#2E2E2E"/>
<path d="M300.596 161.366C301.696 159.973 302.853 158.643 303.954 157.251C303.954 157.251 303.951 157.311 303.891 157.308C304.791 156.267 305.695 155.166 306.653 154.189C305.261 155.385 303.926 156.644 302.591 157.904C301.443 159.052 300.295 160.201 299.208 161.352C297.993 162.618 296.779 163.884 295.504 165.147C294.163 166.527 292.882 167.91 291.601 169.294C291.024 169.928 290.51 170.506 289.993 171.143C289.416 171.778 288.899 172.416 288.382 173.054C287.285 174.386 286.248 175.722 285.151 177.055C284.05 178.448 282.889 179.837 281.789 181.23C282.74 180.374 283.631 179.514 284.522 178.654C285.093 178.14 285.603 177.623 286.117 177.046C287.331 175.78 288.546 174.514 289.76 173.248C291.101 171.868 292.383 170.485 293.724 169.104C294.875 167.896 296.029 166.627 297.123 165.354C298.338 164.088 299.498 162.699 300.596 161.366Z" fill="#2E2E2E"/>
<path d="M286.988 206.004C287.017 205.461 286.989 204.855 287.018 204.312C287.025 203.042 287.029 201.833 287.037 200.563C286.935 201.344 286.893 202.128 286.851 202.912C286.825 203.394 286.8 203.877 286.771 204.42C286.706 205.626 286.702 206.835 286.698 208.045C286.707 209.013 286.713 210.042 286.781 211.013C286.843 209.867 286.907 208.661 286.968 207.515C286.933 207.029 286.962 206.486 286.988 206.004Z" fill="#2E2E2E"/>
<path d="M288.09 205.699C288.118 206.306 288.146 206.912 288.174 207.518C288.202 208.124 288.351 208.737 288.442 209.286C288.471 208.743 288.443 208.137 288.412 207.591C288.324 206.982 288.235 206.372 288.09 205.699Z" fill="#2E2E2E"/>
<path d="M289.805 205.247C289.785 205.608 289.823 206.034 289.864 206.399C289.902 206.824 290 207.253 290.038 207.678C289.997 207.313 290.019 206.891 289.978 206.526C289.944 206.04 289.842 205.672 289.805 205.247Z" fill="#2E2E2E"/>
<path d="M291.543 204.372C291.504 205.095 291.523 205.882 291.545 206.609C291.589 206.914 291.633 207.219 291.614 207.58C291.643 207.038 291.671 206.495 291.64 205.949C291.669 205.406 291.638 204.86 291.543 204.372Z" fill="#2E2E2E"/>
<path d="M292.994 204.328C292.896 205.048 292.854 205.832 292.875 206.559C292.9 207.226 292.986 207.895 293.067 208.625C293.166 207.905 293.205 207.181 293.18 206.515C293.161 205.728 293.08 204.998 292.994 204.328Z" fill="#2E2E2E"/>
<path d="M421.492 47.3257C421.162 47.8524 420.892 48.3824 420.623 48.9124C420.486 49.2075 420.289 49.4995 420.15 49.8549C419.74 50.7404 419.274 51.5623 418.865 52.4477C417.982 54.2757 417.16 56.1069 416.338 57.9381C415.446 59.9471 414.615 61.9592 413.84 64.0349C413.132 65.9931 412.424 67.9513 411.716 69.9096C410.932 72.1662 410.211 74.3657 409.487 76.6255C411.188 73.0266 412.885 69.488 414.469 65.8224C416.186 61.922 417.726 57.9516 419.149 53.9145C419.504 52.9052 419.863 51.8356 420.219 50.8264C420.365 50.3503 420.514 49.8139 420.72 49.341C420.997 48.6904 421.213 48.0366 421.492 47.3257Z" fill="#2E2E2E"/>
<path d="M394.216 108.292L394.156 108.288C394.096 108.285 394.032 108.342 394.032 108.342C393.902 108.517 393.772 108.691 393.642 108.866C393.512 109.04 393.379 109.275 393.249 109.45C392.986 109.859 392.779 110.332 392.513 110.802C392.307 111.275 392.04 111.744 391.837 112.157C391.494 112.925 391.151 113.693 390.809 114.461C390.466 115.229 390.123 115.997 389.84 116.768C389.637 117.181 389.495 117.596 389.291 118.009C388.114 120.85 386.993 123.754 385.876 126.597C384.895 129.146 383.91 131.755 382.929 134.303C382.51 135.369 382.152 136.439 381.736 137.445C381.107 139.045 380.539 140.648 379.91 142.247C379.558 143.196 379.202 144.205 378.79 145.151C378.158 146.811 377.526 148.471 376.834 150.128C375.856 152.616 374.939 155.107 373.964 157.535C373.891 157.773 373.758 158.008 373.685 158.246C374.91 155.65 376.135 153.054 377.296 150.515C378.391 148.094 379.546 145.675 380.641 143.254C381.394 141.6 382.089 139.883 382.841 138.23C383.25 137.344 383.603 136.395 383.952 135.507C384.993 132.962 386.037 130.356 386.961 127.744C388.019 124.897 389.079 121.99 390.08 119.079C390.292 118.486 390.508 117.832 390.721 117.238C390.934 116.645 391.146 116.051 391.359 115.458C391.708 114.569 391.997 113.677 392.286 112.786C392.645 111.716 393.067 110.589 393.604 109.59C393.607 109.529 393.67 109.472 393.674 109.412C393.67 109.472 393.607 109.529 393.6 109.65C393.531 109.828 393.518 110.069 393.448 110.247C393.295 110.843 393.143 111.44 392.933 111.973C393.146 111.38 393.356 110.847 393.568 110.253C393.638 110.075 393.711 109.837 393.781 109.66C393.784 109.599 393.851 109.482 393.854 109.422C393.921 109.304 393.927 109.184 393.997 109.006C394.067 108.828 394.073 108.707 394.143 108.53C394.33 108.419 394.333 108.358 394.216 108.292Z" fill="#2E2E2E"/>
<path d="M389.348 135.008C389.288 135.005 389.231 134.942 389.171 134.938C389.05 134.932 388.927 134.986 388.86 135.103C388.73 135.278 388.597 135.513 388.407 135.684C388.277 135.858 388.143 136.093 388.07 136.331C387.804 136.801 387.597 137.274 387.391 137.747C387.318 137.985 387.188 138.159 387.115 138.397C386.706 139.283 386.296 140.168 385.887 141.054C385.338 142.295 384.789 143.536 384.3 144.78C383.192 147.442 382.144 150.108 381.157 152.777C380.103 155.564 379.109 158.354 378.052 161.201C377.337 163.28 376.566 165.295 375.851 167.374C377.143 164.66 378.374 161.944 379.606 159.227C380.701 156.806 381.799 154.324 382.897 151.842C383.453 150.48 384.065 149.182 384.56 147.818C385.192 146.158 385.824 144.498 386.456 142.838C386.738 142.067 387.021 141.296 387.303 140.524C387.519 139.871 387.792 139.28 388.008 138.626C387.703 139.82 387.395 141.074 387.15 142.27C387.515 141.08 387.881 139.89 388.306 138.703C388.455 138.166 388.662 137.694 388.811 137.157C389.024 136.564 389.236 135.97 389.389 135.373C389.519 135.199 389.465 135.075 389.348 135.008Z" fill="#2E2E2E"/>
<path d="M414.743 78.7803C414.843 78.7856 414.928 78.709 414.934 78.6092C414.939 78.5094 414.862 78.4241 414.763 78.4188C414.663 78.4135 414.578 78.4901 414.572 78.5899C414.567 78.6897 414.644 78.775 414.743 78.7803Z" fill="#2E2E2E"/>
<path d="M416.469 71.3123C416.469 71.3123 416.409 71.3091 416.406 71.3694C415.304 73.9115 414.26 76.5171 413.219 79.0625C412.869 79.9511 412.46 80.8366 412.108 81.7855C411.968 82.141 411.828 82.4964 411.689 82.8519C410.943 84.3847 410.257 85.9208 409.572 87.4568C409.369 87.8694 409.226 88.2852 409.023 88.6977C408.753 89.2277 408.48 89.818 408.27 90.3512C407.718 91.6524 407.109 92.8901 406.557 94.1913C406.074 95.3148 405.592 96.4383 405.109 97.5618C404.56 98.8027 404.071 100.047 403.522 101.288C404.249 100.117 404.918 98.8823 405.588 97.6478C406.19 96.5307 406.793 95.4136 407.399 94.2363C408.202 92.7669 408.948 91.2341 409.754 89.7045C410.29 88.7048 410.706 87.6988 411.185 86.6356C411.594 85.7501 411.944 84.8615 412.353 83.976C412.49 83.6809 412.563 83.4429 412.699 83.1477C412.702 83.0874 412.769 82.97 412.772 82.9097C413.277 81.364 413.839 79.8818 414.344 78.3362C414.703 77.2666 415.065 76.1367 415.364 75.0639C415.662 73.9911 416.021 72.9215 416.377 71.9122C416.386 71.7313 416.516 71.5567 416.469 71.3123C416.466 71.3726 416.469 71.3123 416.469 71.3123Z" fill="#2E2E2E"/>
<path d="M350.085 205.738C349.45 207.459 348.818 209.118 348.183 210.839C347.624 212.261 347.122 213.746 346.564 215.168C345.995 216.771 345.427 218.373 344.858 219.976C344.643 220.63 344.427 221.284 344.15 221.934C343.16 224.664 342.229 227.396 341.299 230.129C340.575 232.389 339.794 234.585 339.069 236.845C338.282 239.162 337.555 241.482 336.767 243.799C336.046 245.998 335.325 248.198 334.604 250.397C334.385 251.112 334.169 251.765 333.95 252.48C334.928 249.991 335.909 247.443 336.887 244.955C337.725 242.822 338.56 240.749 339.337 238.613C340.249 236.243 341.16 233.872 342.007 231.558C342.36 230.609 342.712 229.66 343.005 228.708C343.573 227.105 344.145 225.442 344.656 223.776C344.869 223.182 345.081 222.589 345.234 221.992C345.599 220.802 345.968 219.551 346.333 218.361C347.143 215.622 347.953 212.883 348.763 210.144C349.265 208.658 349.643 207.227 350.085 205.738Z" fill="#2E2E2E"/>
<path d="M347.61 228.349C346.978 230.009 346.407 231.672 345.892 233.398C345.52 234.709 345.266 236.087 345.011 237.464C344.925 237.944 344.839 238.423 344.814 238.905C345.192 237.474 345.633 235.985 346.072 234.557C346.51 233.129 346.891 231.637 347.209 230.202C347.365 229.545 347.518 228.949 347.61 228.349Z" fill="#2E2E2E"/>
<path d="M349.438 229.172C349.226 229.765 348.953 230.356 348.74 230.949C348.597 231.365 348.454 231.781 348.308 232.257C348.019 233.149 347.787 234.104 347.615 235.063C347.904 234.171 348.197 233.219 348.486 232.327C348.628 231.911 348.714 231.432 348.857 231.016C349.133 230.365 349.286 229.768 349.438 229.172Z" fill="#2E2E2E"/>
<path d="M245.815 121.127C243.326 122.506 240.841 123.825 238.356 125.144C235.745 126.578 233.196 127.954 230.584 129.387C229.279 130.104 227.909 130.878 226.603 131.595C225.358 132.314 224.112 133.034 222.866 133.754C221.557 134.531 220.188 135.305 218.879 136.082C218.628 136.25 218.318 136.415 218.007 136.58C217.259 137.024 216.451 137.465 215.703 137.909C214.27 138.74 212.897 139.574 211.465 140.405C211.091 140.627 210.653 140.906 210.279 141.128C209.344 141.683 208.412 142.177 207.477 142.732C208.526 142.304 209.575 141.876 210.628 141.388C211.249 141.058 211.927 140.792 212.548 140.462C214.406 139.594 216.203 138.722 218 137.85C218.434 137.631 218.868 137.412 219.363 137.197C219.673 137.032 219.984 136.867 220.294 136.702C222.035 135.766 223.775 134.831 225.458 133.832C226.269 133.331 227.138 132.893 227.949 132.392C229.572 131.39 231.195 130.388 232.818 129.386C234.942 128.047 237.066 126.709 239.193 125.31C241.437 123.978 243.624 122.582 245.815 121.127Z" fill="#2E2E2E"/>
<path d="M254.2 118.973C252.757 119.985 251.312 121.057 249.927 122.132C252.161 120.981 254.339 119.766 256.459 118.488C256.833 118.266 257.21 117.984 257.585 117.762C258.025 117.423 258.526 117.086 258.963 116.807C259.277 116.582 259.591 116.357 259.908 116.071C260.225 115.786 260.602 115.504 260.916 115.278C261.864 114.482 262.872 113.689 263.76 112.89C262.071 114.009 260.387 115.008 258.698 116.128C257.886 116.629 257.075 117.13 256.26 117.691C255.576 118.078 254.888 118.526 254.2 118.973Z" fill="#2E2E2E"/>
<path d="M249.803 115.412C250.167 115.371 250.475 115.266 250.839 115.225C251.451 115.076 252.066 114.867 252.684 114.597C253.546 114.28 254.294 113.836 255.102 113.396C255.974 112.898 256.785 112.397 257.543 111.772C256.795 112.216 256.05 112.599 255.305 112.983C254.871 113.202 254.376 113.417 253.942 113.636C252.89 114.125 251.774 114.67 250.668 115.034C250.361 115.139 250.114 115.247 249.81 115.291C249.502 115.396 249.258 115.443 248.954 115.487C249.198 115.44 249.499 115.456 249.803 115.412Z" fill="#2E2E2E"/>
<path d="M214.784 131.388C215.893 130.963 216.945 130.475 218.001 129.926C218.869 129.488 219.801 128.994 220.67 128.556C222.163 127.729 223.655 126.901 225.152 126.013C226.274 125.347 227.332 124.738 228.394 124.069C229.393 123.457 230.455 122.787 231.453 122.175C230.651 122.496 229.906 122.879 229.101 123.26C228.296 123.64 227.551 124.024 226.75 124.344C225.387 124.997 224.024 125.65 222.658 126.364C221.415 127.023 220.17 127.743 218.924 128.463C217.989 129.018 217.117 129.516 216.182 130.071C215.434 130.515 214.626 130.956 213.821 131.336C213.016 131.717 212.271 132.1 211.466 132.481C212.632 132.12 213.735 131.816 214.784 131.388Z" fill="#2E2E2E"/>
<path d="M395.653 31.4924C396.819 31.1312 397.989 30.7097 399.095 30.3453C399.586 30.19 400.14 29.9776 400.632 29.8223C400.815 29.7717 400.999 29.721 401.186 29.61C402.051 29.2327 402.856 28.8522 403.722 28.475C404.527 28.0945 405.332 27.714 406.137 27.3335C406.447 27.1687 406.698 27.0005 407.005 26.896C407.566 26.563 408.124 26.2903 408.685 25.9573C410.178 25.1296 411.674 24.2416 413.17 23.3536C413.731 23.0206 414.292 22.6876 414.793 22.3514C414.359 22.5702 413.925 22.789 413.494 22.9475C413.123 23.1092 412.689 23.3279 412.318 23.4896C411.453 23.8669 410.587 24.2442 409.722 24.6214C408.981 24.9448 408.239 25.2682 407.497 25.5915C406.816 25.9181 406.198 26.1876 405.516 26.5142C404.467 26.9421 403.475 27.4336 402.423 27.9219C401.989 28.1407 401.494 28.3562 401.06 28.575C400.937 28.6289 400.813 28.6828 400.689 28.7367C398.775 29.5419 396.858 30.4075 395 31.2762C393.948 31.7645 392.896 32.2527 391.844 32.741C393.016 32.2591 394.363 31.9076 395.653 31.4924Z" fill="#2E2E2E"/>
<path d="M398.972 25.863C399.957 25.4921 400.883 25.1181 401.868 24.7472C402.917 24.3193 404.03 23.8342 405.079 23.4063C402.807 24.1319 400.534 24.8576 398.316 25.7071C396.836 26.2935 395.416 26.8831 393.933 27.5299C395.59 27.0134 397.248 26.4969 398.972 25.863Z" fill="#2E2E2E"/>
<path d="M376.805 41.9193C375.068 42.7944 373.331 43.6696 371.594 44.5447C369.857 45.4199 368.184 46.238 366.447 47.1131C364.894 47.9376 363.284 48.6985 361.731 49.523C361.297 49.7418 360.862 49.9606 360.428 50.1794C360.305 50.2333 360.178 50.3475 360.054 50.4014C359.125 50.8357 358.194 51.3304 357.265 51.7648C356.707 52.0375 356.209 52.3134 355.652 52.5861C355.404 52.6938 355.157 52.8016 354.907 52.9697C354.843 53.0268 354.783 53.0236 354.72 53.0807C354.533 53.1917 354.349 53.2424 354.162 53.3534C353.604 53.6261 352.986 53.8956 352.431 54.108C351.874 54.3806 351.319 54.593 350.761 54.8657C350.08 55.1923 349.338 55.5156 348.66 55.7819C349.338 55.5156 350.073 55.3129 350.752 55.0466C351.243 54.8914 351.737 54.6758 352.228 54.5205C353.214 54.1497 354.139 53.7756 355.125 53.4048C355.309 53.3541 355.496 53.2431 355.68 53.1924C356.174 52.9768 356.729 52.7644 357.226 52.4886C358.275 52.0606 359.267 51.5691 360.32 51.0809C360.814 50.8653 361.372 50.5926 361.87 50.3167C362.985 49.7713 364.104 49.1657 365.223 48.56C366.776 47.7355 368.272 46.8475 369.825 46.023C371.195 45.2493 372.564 44.4755 373.933 43.7017C374.811 43.0832 375.87 42.4743 376.805 41.9193C376.865 41.9225 376.865 41.9225 376.805 41.9193Z" fill="#2E2E2E"/>
<path d="M360.579 47.4051C360.95 47.2434 361.32 47.0817 361.751 46.9232C362.433 46.5966 363.051 46.3272 363.732 46.0006C365.282 45.2364 366.772 44.4691 368.265 43.6414C366.04 44.6115 363.758 45.5181 361.59 46.5517C360.785 46.9322 360.043 47.2556 359.238 47.636C358.063 48.1782 356.944 48.7839 355.768 49.326C357.308 48.7428 358.972 48.1057 360.579 47.4051Z" fill="#2E2E2E"/>
<path d="M287.174 94.9039C288.597 94.2539 289.96 93.6008 291.323 92.9476C292.004 92.621 292.682 92.3548 293.364 92.0282C294.419 91.4796 295.471 90.9914 296.527 90.4428C297.706 89.8403 298.822 89.2949 300.001 88.6925C300.685 88.3056 301.37 87.9187 302.051 87.5921C304.042 86.4885 306.036 85.3246 308.03 84.1608C308.838 83.72 309.589 83.2157 310.397 82.7749C311.022 82.3848 311.646 81.9947 312.331 81.6078C312.581 81.4397 312.892 81.2748 313.142 81.1067C313.266 81.0528 313.329 80.9957 313.453 80.9418C314.328 80.3836 315.203 79.8254 316.081 79.2069C317.019 78.5915 317.957 77.9762 318.836 77.3577C319.273 77.0786 319.714 76.7392 320.154 76.3998C320.091 76.4569 320.031 76.4537 320.027 76.514C319.59 76.7931 319.153 77.0722 318.715 77.3513C318.278 77.6304 317.843 77.8492 317.406 78.1283C316.408 78.7404 315.412 79.2922 314.417 79.844C314.043 80.066 313.606 80.3451 313.232 80.5671C312.734 80.843 312.236 81.1189 311.739 81.3947C310.93 81.8355 310.059 82.3334 309.25 82.7742C307.323 83.8207 305.339 84.8036 303.412 85.8501C302.233 86.4526 301.051 87.1154 299.932 87.721C299.247 88.1079 298.566 88.4345 297.941 88.8246C296.635 89.5413 295.269 90.2548 293.963 90.9714C293.466 91.2473 292.968 91.5232 292.47 91.7991C290.233 93.0105 287.995 94.2219 285.817 95.4364C284.946 95.9343 284.077 96.3719 283.206 96.8698C284.451 96.1499 285.811 95.557 287.174 94.9039Z" fill="#2E2E2E"/>
<path d="M303.68 81.993C304.051 81.8314 304.482 81.6729 304.853 81.5112C305.408 81.2988 305.966 81.0261 306.523 80.7535C307.265 80.4301 308.01 80.0464 308.691 79.7198C309.62 79.2854 310.492 78.7876 311.42 78.3532C310.431 78.7843 309.446 79.1552 308.457 79.5864C307.902 79.7987 307.408 80.0143 306.85 80.287C306.356 80.5026 305.801 80.7149 305.307 80.9305C303.209 81.7864 301.167 82.7059 299.123 83.6856C300.663 83.1024 302.14 82.5763 303.68 81.993Z" fill="#2E2E2E"/>
<path d="M333.17 66.69C334.6 65.9194 336.093 65.0918 337.526 64.2609C335.982 64.9044 334.378 65.5447 332.832 66.2486C331.288 66.8921 329.681 67.5927 328.135 68.2966C327.206 68.7309 326.277 69.1653 325.349 69.5997C324.915 69.8185 324.42 70.0341 323.986 70.2528C322.934 70.7411 321.881 71.2294 320.886 71.7812C320.576 71.9461 320.265 72.111 319.954 72.2758C319.273 72.6024 318.591 72.929 317.97 73.2588C318.705 73.056 319.441 72.8533 320.119 72.587C320.486 72.4857 320.857 72.324 321.225 72.2226C322.334 71.7979 323.5 71.4366 324.61 71.0119C325.101 70.8566 325.595 70.6411 326.029 70.4223C327.082 69.934 328.131 69.506 329.126 68.9543C330.495 68.1805 331.801 67.4638 333.17 66.69Z" fill="#2E2E2E"/>
<path d="M360.039 183.164C359.35 184.76 358.718 186.42 358.086 188.08C357.448 189.861 356.867 191.705 356.225 193.546C355.794 194.853 355.362 196.161 354.93 197.468C355.688 195.694 356.504 193.984 357.323 192.213C358.002 190.798 358.621 189.379 359.243 187.9C360.065 186.069 360.824 184.295 361.528 182.397C362.154 180.857 362.722 179.255 363.347 177.715C363.986 175.935 364.624 174.154 365.202 172.371C363.999 174.545 362.914 176.785 361.832 178.965C361.27 180.447 360.654 181.806 360.039 183.164Z" fill="#2E2E2E"/>
<path d="M368.887 174.623C368.268 176.042 367.709 177.464 367.09 178.882C366.814 179.533 366.538 180.184 366.258 180.895C365.36 183.024 364.519 185.217 363.62 187.347C362.506 190.13 361.449 192.977 360.392 195.824C359.827 197.366 359.258 198.969 358.75 200.575C358.604 201.051 358.461 201.467 358.315 201.943C357.953 203.073 357.654 204.146 357.292 205.276C357.066 206.11 356.781 206.942 356.555 207.777C356.406 208.313 356.26 208.789 356.11 209.326C355.656 211.055 355.145 212.722 354.69 214.452C354.245 216.001 353.861 217.553 353.413 219.162C353.984 217.499 354.613 215.899 355.185 214.236C355.816 212.576 356.388 210.913 357.016 209.313C357.512 207.949 358.004 206.644 358.556 205.343C358.975 204.277 359.334 203.207 359.753 202.141C359.893 201.785 360.036 201.37 360.175 201.014C361.506 197.577 362.776 194.136 363.985 190.693C364.341 189.684 364.7 188.614 364.999 187.541C365.719 185.342 366.38 183.139 367.041 180.936C367.193 180.34 367.406 179.746 367.562 179.089C368.124 177.607 368.505 176.115 368.887 174.623Z" fill="#2E2E2E"/>
<path d="M424.595 21.9062C424.307 21.6489 423.895 21.4455 423.534 21.4263C423.413 21.4199 423.293 21.4134 423.169 21.4673C422.865 21.5116 422.618 21.6194 422.311 21.724C422.003 21.8286 421.753 21.9967 421.445 22.1012C421.258 22.2122 421.011 22.32 420.824 22.431C420.39 22.6498 419.956 22.8686 419.518 23.1477C418.523 23.6995 417.591 24.1942 416.596 24.746C414.545 25.8463 412.491 27.007 410.44 28.1074C407.081 29.9847 403.721 31.8621 400.361 33.7395C392.953 37.9414 385.486 42.1401 378.078 46.342C374.528 48.3907 370.921 50.3758 367.371 52.4245C363.136 54.8601 358.838 57.3527 354.603 59.7883C353.17 60.6192 351.738 61.4501 350.302 62.3413C347.684 63.8953 345.005 65.446 342.384 67.0603C341.262 67.7263 340.14 68.3923 339.017 69.0583C336.897 70.3364 334.836 71.6177 332.716 72.8958C330.532 74.231 328.288 75.563 326.1 76.9585C324.978 77.6245 323.913 78.354 322.791 79.02C320.23 80.6375 317.609 82.2518 315.047 83.8694C313.925 84.5353 312.86 85.2649 311.738 85.9309C307.424 88.7251 303.11 91.5193 298.795 94.3136C297.73 95.0431 296.605 95.7694 295.543 96.4386C293.039 98.1196 290.474 99.7974 287.97 101.478C284.591 103.718 281.208 106.017 277.766 108.314C274.26 110.667 270.757 112.96 267.251 115.314C265.749 116.322 264.31 117.274 262.807 118.282C260.556 119.735 258.369 121.131 256.119 122.583C254.806 123.42 253.431 124.315 252.118 125.152C249.807 126.602 247.497 128.051 245.189 129.44C244.565 129.83 243.94 130.22 243.255 130.607C241.756 131.555 240.2 132.44 238.7 133.389C236.89 134.502 235.027 135.491 233.16 136.541C231.543 137.422 229.87 138.24 228.199 138.998C227.394 139.379 226.593 139.699 225.788 140.079C224.986 140.399 224.244 140.723 223.442 141.043L223.385 140.979C223.151 140.846 222.913 140.773 222.673 140.76C222.131 140.731 221.633 141.007 221.31 141.413C221.11 141.765 221.027 142.184 221.128 142.553C221.229 142.921 221.454 143.235 221.742 143.493C223.658 144.925 225.513 146.355 227.366 147.845C227.711 148.166 228.116 148.49 228.461 148.811C228.404 148.747 228.344 148.744 228.287 148.68C229.155 149.392 229.959 150.161 230.826 150.872C232.846 152.613 234.869 154.293 236.893 155.974C238.742 157.524 240.654 159.017 242.567 160.51C244.596 162.07 246.686 163.633 248.716 165.193C250.685 166.75 252.591 168.363 254.564 169.86C256.306 171.162 258.05 172.404 259.789 173.767C260.603 174.355 261.413 175.003 262.224 175.651C262.977 176.236 263.791 176.823 264.608 177.351C265.379 179.872 266.214 182.336 267.169 184.806C268.07 187.152 269.158 189.388 270.122 191.677C270.61 192.731 271.033 193.843 271.46 194.894C271.941 196.068 272.421 197.243 272.902 198.418C273.38 199.653 273.8 200.825 274.281 202C274.761 203.175 275.245 204.289 275.669 205.4C276.365 207.071 277 208.737 277.576 210.401C278.262 212.252 278.888 214.1 279.45 216.005C280.063 218.094 280.676 220.184 281.596 222.168C281.707 222.355 281.818 222.543 281.992 222.673C282.033 223.038 282.254 223.413 282.546 223.61C282.72 223.74 282.954 223.874 283.195 223.886C283.376 223.896 283.499 223.842 283.68 223.852C283.803 223.798 283.987 223.747 284.111 223.693C284.174 223.636 284.238 223.579 284.361 223.525C284.485 223.471 284.552 223.354 284.675 223.3C284.802 223.186 284.929 223.072 285.119 222.9C285.246 222.786 285.309 222.729 285.436 222.615C285.69 222.386 285.883 222.155 286.134 221.987C286.577 221.587 286.964 221.124 287.408 220.724C288.299 219.864 289.19 219.004 290.081 218.145C291.032 217.288 291.983 216.431 292.935 215.575C293.826 214.715 294.716 213.855 295.611 212.935C296.441 212.072 297.215 211.146 298.046 210.283C298.88 209.359 299.714 208.436 300.491 207.449C301.008 206.812 301.525 206.174 301.982 205.533C302.789 206.241 303.596 206.95 304.404 207.658C305.328 208.433 306.313 209.211 307.237 209.987C309.264 211.607 311.23 213.224 313.257 214.844C314.241 215.622 315.286 216.404 316.268 217.242C317.195 217.957 318.123 218.672 319.051 219.387C320.039 220.105 321.087 220.826 322.078 221.483C323.066 222.201 324.054 222.919 325.105 223.58C326.448 224.438 327.791 225.296 329.2 226.037C329.846 226.373 330.549 226.774 331.195 227.111C331.49 227.247 331.841 227.447 332.136 227.584C332.37 227.718 332.605 227.851 332.842 227.924C332.902 227.927 333.02 227.994 333.08 227.997C333.257 228.067 333.378 228.074 333.558 228.083C333.859 228.099 334.046 227.988 334.29 227.941C334.598 227.836 334.858 227.487 334.934 227.189C335.01 226.891 335.026 226.589 334.922 226.281C335.981 224.523 336.924 222.698 337.866 220.873C338.882 218.811 339.954 216.811 340.909 214.745C342.947 210.499 344.924 206.25 346.901 202C348.678 198.103 350.392 194.263 352.23 190.369C353.318 188.068 354.41 185.707 355.499 183.406C356.587 181.105 357.736 178.807 358.824 176.506C359.637 174.856 360.386 173.263 361.138 171.61C361.82 170.134 362.563 168.661 363.248 167.125C363.588 166.417 363.927 165.71 364.264 165.062C365.355 162.701 366.45 160.28 367.542 157.919C368.291 156.325 368.98 154.729 369.668 153.133C370.7 150.768 371.732 148.404 372.763 146.039C373.103 145.332 373.385 144.561 373.665 143.85C374.29 142.31 374.912 140.831 375.537 139.292C376.226 137.696 376.855 136.096 377.483 134.497C378.594 131.774 379.648 128.987 380.759 126.264C383.972 118.088 387.185 109.913 390.515 101.804C391.28 99.9092 392.042 98.0748 392.803 96.2404C393.835 93.876 394.866 91.5116 395.898 89.1472C396.307 88.2618 396.72 87.316 397.129 86.4306C397.808 85.0152 398.431 83.5362 399.11 82.1208C399.998 80.1722 400.884 78.2839 401.829 76.3988C405.574 68.433 409.145 60.337 412.772 52.3045C413.734 50.1178 414.756 47.9344 415.718 45.7477C416.127 44.8623 416.54 43.9165 416.952 42.9708C417.505 41.6696 418.06 40.308 418.552 39.0036C418.965 38.0579 419.257 37.1057 419.61 36.1567C419.965 35.1475 420.321 34.1382 420.676 33.1289C421.321 31.2278 421.906 29.3234 422.49 27.4191C422.617 27.3049 422.807 27.1336 422.934 27.0193C423.318 26.6164 423.758 26.277 424.028 25.747C424.228 25.3948 424.307 25.0361 424.206 24.6678C424.276 24.4901 424.406 24.3155 424.476 24.1378C424.549 23.8998 424.562 23.6585 424.635 23.4205C425.038 22.6557 424.82 22.2206 424.595 21.9062ZM261.011 170.082C259.039 168.586 256.999 167.207 255.03 165.651C252.943 164.027 250.917 162.407 248.77 160.78C246.854 159.348 244.878 157.912 242.966 156.419C241.981 155.64 240.933 154.919 239.952 154.08C238.91 153.239 237.868 152.397 236.826 151.555C234.917 150.002 233.068 148.451 231.219 146.901C230.124 145.935 228.968 144.967 227.809 144.058C226.998 143.41 226.185 142.822 225.374 142.174C225.868 141.959 226.36 141.803 226.794 141.585C228.277 140.938 229.76 140.291 231.247 139.584C232.55 138.928 233.852 138.271 235.098 137.551C235.719 137.222 236.404 136.835 237.025 136.505C237.583 136.232 238.084 135.896 238.642 135.623C240.762 134.345 242.883 133.067 245.064 131.792C246.623 130.847 248.122 129.899 249.682 128.954C251.365 127.955 252.988 126.953 254.674 125.893C256.925 124.441 259.236 122.991 261.486 121.539C262.735 120.758 263.984 119.978 265.236 119.138C268.803 116.787 272.366 114.498 275.871 112.144C279.564 109.68 283.197 107.212 286.887 104.808C291.017 102.064 295.145 99.3811 299.275 96.6375C300.464 95.8541 301.652 95.0707 302.898 94.3508C305.463 92.673 308.084 91.0587 310.649 89.3809C311.71 88.7117 312.772 88.0425 313.834 87.3733C316.021 85.9778 318.269 84.5855 320.453 83.2503C322.513 81.969 324.574 80.6877 326.694 79.4096C327.88 78.6865 329.125 77.9666 330.314 77.1832C332.932 75.6292 335.554 74.0149 338.112 72.4577C339.11 71.8456 340.169 71.2367 341.167 70.6246C345.716 67.9638 350.328 65.2459 354.877 62.5852C358.366 60.5333 361.913 58.5449 365.463 56.4962C372.377 52.5099 379.343 48.6474 386.314 44.7246C394.279 40.25 402.244 35.7754 410.267 31.3643C411.76 30.5366 413.253 29.7089 414.742 28.9416C414.489 29.17 414.298 29.3413 414.045 29.5697C412.78 30.6515 411.575 31.7364 410.31 32.8182C409.616 33.386 408.982 33.9571 408.287 34.5249C407.656 35.0356 406.962 35.6035 406.328 36.1745C403.671 38.4523 401.189 40.8603 398.646 43.265C396.166 45.6127 393.687 47.9604 391.264 50.3716C390.053 51.5772 388.905 52.7257 387.697 53.871C386.423 55.1337 385.088 56.3932 383.813 57.6559C381.337 59.9433 378.801 62.2275 376.324 64.5148C373.658 66.9735 370.995 69.3719 368.388 71.8338C367.18 72.9791 365.969 74.1847 364.761 75.33C363.55 76.5356 362.399 77.7444 361.191 78.8897C358.651 81.2342 356.112 83.5786 353.629 85.9866C351.023 88.4485 348.474 90.9739 345.927 93.439C344.656 94.6414 343.381 95.9041 342.11 97.1065C340.899 98.3121 339.688 99.5177 338.476 100.723C336.117 103.077 333.704 105.308 331.345 107.662C328.733 110.244 326.24 112.833 323.685 115.479C321.319 117.954 318.897 120.365 316.474 122.776C313.988 125.245 311.499 127.773 308.953 130.238C307.806 131.387 306.598 132.532 305.39 133.678C304.182 134.823 302.974 135.968 301.762 137.174C299.21 139.759 296.657 142.345 294.048 144.867C292.837 146.073 291.629 147.218 290.417 148.424C289.206 149.63 287.995 150.835 286.784 152.041C285.572 153.246 284.358 154.512 283.147 155.718C281.872 156.981 280.601 158.183 279.326 159.446C278.118 160.591 276.967 161.8 275.819 162.948C274.545 164.211 273.27 165.474 271.995 166.736C270.978 167.71 269.96 168.684 268.942 169.658C268.368 170.233 267.797 170.747 267.223 171.321C266.776 171.781 266.393 172.184 265.946 172.644C265.752 172.875 265.559 173.107 265.362 173.399C265.305 173.335 265.245 173.332 265.188 173.269C264.722 172.941 264.26 172.554 263.798 172.166C262.924 171.575 261.999 170.8 261.011 170.082ZM280.078 206.482C279.117 204.133 278.096 201.78 277.074 199.427C276.59 198.312 276.166 197.201 275.683 196.086C275.199 194.972 274.715 193.857 274.231 192.743C273.317 190.638 272.34 188.59 271.362 186.542C270.442 184.557 269.642 182.579 268.845 180.54C268.636 179.924 268.428 179.308 268.219 178.692C267.96 177.892 267.701 177.092 267.441 176.292C267.514 176.054 267.527 175.813 267.48 175.568C267.426 175.445 267.372 175.321 267.319 175.197C267.262 175.133 267.208 175.009 267.151 174.946C267.284 174.711 267.478 174.479 267.671 174.248C268.315 173.496 269.016 172.807 269.713 172.179C270.411 171.551 271.111 170.863 271.749 170.231C272.893 169.143 274.101 167.998 275.246 166.91C276.581 165.65 277.859 164.327 279.197 163.007C280.344 161.859 281.489 160.771 282.697 159.625C283.968 158.423 285.18 157.217 286.394 155.951C287.605 154.746 288.82 153.48 290.031 152.274C291.242 151.069 292.453 149.863 293.725 148.661C295 147.398 296.331 146.199 297.546 144.933C300.095 142.408 302.584 139.879 305.13 137.414C306.275 136.326 307.483 135.18 308.627 134.092C309.965 132.772 311.3 131.513 312.578 130.19C313.789 128.984 315 127.779 316.275 126.516C317.423 125.367 318.631 124.222 319.779 123.074C320.99 121.868 322.261 120.666 323.476 119.4C324.75 118.137 325.968 116.811 327.246 115.488C329.735 112.959 332.224 110.43 334.77 107.965C335.978 106.82 337.123 105.732 338.331 104.587C339.539 103.441 340.687 102.293 341.895 101.148C344.444 98.6221 347.05 96.1602 349.599 93.6348C352.145 91.1697 354.691 88.7046 357.234 86.2998C358.506 85.0974 359.774 83.9553 361.045 82.7529C362.317 81.5505 363.588 80.3481 364.799 79.1425C366.007 77.9972 367.158 76.7884 368.306 75.6399C369.518 74.4343 370.726 73.289 371.994 72.147C374.66 69.6883 377.327 67.2296 379.993 64.7709C382.533 62.4264 385.066 60.2026 387.549 57.7946C390.031 55.3866 392.457 52.9151 394.943 50.4467C397.368 47.9752 399.908 45.6308 402.391 43.2228C403.599 42.0775 404.747 40.929 406.015 39.7869C406.332 39.5014 406.712 39.1587 407.029 38.8732C405.812 40.1994 404.591 41.586 403.43 42.9757C402.206 44.4226 400.982 45.8694 399.755 47.3766C398.594 48.7664 397.433 50.1561 396.273 51.5459C394.985 53.0498 393.761 54.4967 392.53 56.0642C391.753 57.051 390.98 57.9775 390.206 58.904C389.372 59.8273 388.538 60.7506 387.761 61.7374C386.987 62.6639 386.15 63.6475 385.373 64.6343C383.886 66.4905 382.341 68.2832 380.794 70.1362C379.633 71.526 378.412 72.9125 377.191 74.299C375.97 75.6856 374.753 77.0118 373.532 78.3984C370.9 81.3428 368.265 84.3475 365.75 87.3586C363.298 90.3126 360.85 93.2063 358.342 96.0968C355.897 98.9302 353.569 101.83 351.181 104.727C350.211 105.946 349.177 107.221 348.206 108.44C347.109 109.772 346.012 111.105 344.915 112.438C343.63 113.881 342.406 115.328 341.122 116.772C339.961 118.162 338.744 119.488 337.583 120.878C335.068 123.889 332.49 126.957 329.975 129.968C328.881 131.24 327.784 132.573 326.747 133.909C325.453 135.533 324.159 137.158 322.862 138.843C320.658 141.689 318.45 144.596 316.246 147.442C313.785 150.577 311.381 153.775 308.98 156.914C306.709 159.877 304.382 162.777 302.171 165.744C301.067 167.197 299.964 168.651 298.86 170.104C297.696 171.554 296.532 173.004 295.365 174.515C293.101 177.358 290.839 180.14 288.632 183.047C287.849 184.154 287.008 185.198 286.168 186.242C285.911 186.531 285.654 186.82 285.457 187.111C285.397 187.108 285.337 187.105 285.337 187.105C284.855 187.079 284.421 187.298 284.158 187.708C284.034 187.761 283.974 187.758 283.911 187.815C283.663 187.923 283.533 188.098 283.4 188.332C283.334 188.45 283.264 188.628 283.197 188.745C283.13 188.862 283.127 188.923 283.061 189.04C282.991 189.218 282.981 189.399 282.911 189.577C282.835 189.875 282.762 190.113 282.686 190.411C282.609 190.71 282.597 190.951 282.764 191.202C282.872 191.45 283.103 191.643 283.341 191.716C283.401 191.72 283.461 191.723 283.461 191.723C283.435 192.205 283.409 192.688 283.384 193.17C283.316 194.437 283.249 195.704 283.121 196.967C282.989 199.44 282.8 201.849 282.729 204.325C282.594 206.858 282.522 209.334 282.447 211.871C282.434 212.112 282.425 212.293 282.412 212.534C281.615 210.496 280.878 208.46 280.078 206.482ZM296.016 208.723C295.186 209.586 294.412 210.512 293.578 211.436C292.807 212.302 291.916 213.162 291.089 213.964C289.814 215.227 288.482 216.426 287.268 217.692C286.631 218.324 286.054 218.958 285.416 219.589C285.159 219.878 284.842 220.164 284.585 220.452C284.589 220.392 284.592 220.332 284.592 220.332C284.624 219.729 284.656 219.126 284.688 218.522C284.753 217.316 284.877 216.113 284.941 214.907C285.073 212.434 285.265 209.964 285.394 207.552C285.526 205.079 285.718 202.609 285.789 200.133C285.928 197.54 286.006 194.943 285.96 192.4C285.932 191.794 285.901 191.248 285.873 190.642C285.873 190.642 285.933 190.645 285.93 190.705C286.395 191.032 286.858 191.42 287.323 191.747C289.169 193.358 290.951 195.025 292.67 196.75C293.532 197.582 294.332 198.411 295.133 199.24C295.649 199.752 296.169 200.203 296.685 200.714C297.201 201.226 297.783 201.62 298.299 202.131C298.819 202.582 299.398 203.036 299.978 203.491C300.152 203.621 300.266 203.748 300.44 203.878C298.965 205.493 297.491 207.108 296.016 208.723ZM417.71 34.4224C417.427 35.1936 417.145 35.9649 416.862 36.7361C416.51 37.6851 416.1 38.5705 415.748 39.5195C415.399 40.4081 414.986 41.3539 414.637 42.2425C413.682 44.3085 412.787 46.3778 411.831 48.4438C409.921 52.5759 408.01 56.7079 406.157 60.9035C405.265 62.9125 404.313 64.9182 403.421 66.9271C402.469 68.9328 401.577 70.9417 400.622 73.0078C399.533 75.3086 398.442 77.6698 397.293 79.9675C396.204 82.2683 395.176 84.5724 394.087 86.8733C393.202 88.7616 392.377 90.6531 391.552 92.5446C390.793 94.3187 389.971 96.1499 389.209 97.9843C388.304 100.234 387.336 102.542 386.432 104.792C385.454 107.28 384.419 109.705 383.441 112.193C381.775 116.278 380.168 120.365 378.562 124.453C377.724 126.586 376.886 128.719 375.988 130.848C375.356 132.508 374.664 134.165 373.972 135.822C372.861 138.545 371.686 141.325 370.575 144.048C369.88 145.765 369.065 147.475 368.306 149.249C367.481 151.141 366.656 153.033 365.83 154.924C364.605 157.52 363.441 160.119 362.212 162.776C361.46 164.429 360.648 166.079 359.835 167.73C358.887 169.675 357.998 171.624 357.049 173.569C355.827 176.105 354.602 178.701 353.32 181.233C352.438 183.061 351.616 184.892 350.737 186.66C349.855 188.488 349.033 190.319 348.151 192.147C347.196 194.213 346.24 196.279 345.348 198.288C344.123 200.884 342.959 203.483 341.734 206.079C340.575 208.558 339.42 210.976 338.202 213.452C337.726 214.455 337.186 215.515 336.71 216.517C336.24 217.4 335.768 218.342 335.298 219.224C334.426 220.871 333.556 222.458 332.744 224.108C332.509 223.975 332.218 223.778 331.984 223.645C331.458 223.314 330.989 223.047 330.464 222.717C329.998 222.389 329.469 222.119 329.004 221.792C326.965 220.413 324.989 218.977 322.953 217.538C322.022 216.884 321.034 216.166 320.106 215.451C319.121 214.672 318.136 213.894 317.155 213.056C315.185 211.499 313.279 209.885 311.31 208.329C309.283 206.708 307.254 205.149 305.288 203.532C304.363 202.757 303.442 201.921 302.454 201.203C301.412 200.361 300.367 199.58 299.265 198.735C298.86 198.411 298.515 198.09 298.167 197.829C296.324 196.159 294.545 194.431 292.642 192.757C291.603 191.854 290.625 190.956 289.583 190.114C289.064 189.663 288.542 189.272 287.962 188.818C287.671 188.621 287.38 188.424 287.088 188.227C287.669 187.532 288.189 186.834 288.769 186.139C289.809 184.743 290.85 183.346 291.947 182.014C294.341 178.996 296.793 176.042 299.244 173.088C301.565 170.309 303.713 167.399 305.977 164.556C308.248 161.592 310.633 158.756 312.903 155.792C315.364 152.657 317.765 149.519 320.223 146.444C321.39 144.934 322.557 143.424 323.788 141.856C324.825 140.52 325.862 139.184 326.899 137.848C327.933 136.573 328.906 135.294 329.937 134.079C331.098 132.689 332.258 131.299 333.483 129.853C335.547 127.362 337.672 124.874 339.736 122.383C340.83 121.111 341.928 119.778 343.082 118.509C343.726 117.757 344.369 117.005 345.073 116.257C345.78 115.448 346.424 114.696 347.131 113.886C347.715 113.131 348.355 112.44 348.939 111.684C349.649 110.815 350.36 109.946 351.07 109.076C352.231 107.686 353.331 106.294 354.432 104.901C356.369 102.524 358.301 100.268 360.235 97.9518C363.13 94.5981 366.029 91.184 368.924 87.8302C370.082 86.5008 371.239 85.1714 372.397 83.8419C373.744 82.3412 375.089 80.9007 376.436 79.4C378.938 76.6301 381.383 73.7967 383.825 71.0236C386.01 68.5393 388.078 65.9882 390.142 63.4974C391.363 62.1109 392.644 60.7275 393.808 59.2775C395.035 57.7703 396.202 56.2599 397.49 54.756C398.651 53.3662 399.808 52.0368 400.969 50.647C402.196 49.1398 403.483 47.6359 404.711 46.1287C405.615 45.0277 406.579 43.9299 407.482 42.8289C408.06 42.1943 408.637 41.5597 409.214 40.9252C409.851 40.2938 410.492 39.6022 411.129 38.9708C412.407 37.6478 413.742 36.3883 415.02 35.0653C415.657 34.4339 416.297 33.7422 416.875 33.1077C417.452 32.4731 418.092 31.7814 418.729 31.1501C418.793 31.093 418.796 31.0327 418.856 31.0359C418.574 31.8071 418.291 32.5784 418.066 33.4131C417.986 33.7718 417.85 34.0669 417.71 34.4224Z" fill="#2E2E2E"/>
<path d="M231.249 150.894C231.132 150.828 231.078 150.704 230.961 150.637C231.078 150.704 231.192 150.831 231.249 150.894Z" fill="#2E2E2E"/>
<path d="M282.451 236.73C282.387 237.936 282.206 239.076 281.961 240.272C281.646 241.647 281.154 242.951 280.545 244.189C280.069 245.192 279.479 246.068 278.828 246.94C278.505 247.346 278.121 247.749 277.798 248.155C277.477 248.501 277.16 248.787 276.84 249.133C276.139 249.821 275.442 250.449 274.691 250.953C275.154 250.192 275.62 249.37 276.026 248.545C276.226 248.193 276.429 247.78 276.629 247.428C276.836 246.955 277.102 246.485 277.365 246.076C277.775 245.19 278.241 244.368 278.707 243.547C279.31 242.429 280.034 241.319 280.64 240.141C281.246 238.964 281.849 237.847 282.451 236.73Z" fill="#2E2E2E"/>
<path d="M266.179 262.294C264.746 263.125 263.31 264.016 261.931 264.971C259.991 266.259 258.168 267.613 256.396 269.152C254.624 270.69 252.965 272.356 251.31 273.961C252.179 273.524 253.047 273.086 253.916 272.649C255.035 272.043 256.157 271.377 257.279 270.711C257.78 270.375 258.28 270.039 258.781 269.702C259.222 269.363 259.723 269.027 260.163 268.687C261.111 267.891 262.002 267.031 262.897 266.111C264.051 264.842 265.145 263.57 266.179 262.294ZM261.871 264.968L261.807 265.025C261.807 265.025 261.868 265.028 261.871 264.968Z" fill="#2E2E2E"/>
<path d="M235.261 280.606C233.819 281.618 232.322 282.506 230.776 283.21C229.723 283.698 228.674 284.126 227.572 284.43C226.409 284.731 225.189 284.968 223.972 285.145C222.815 285.325 221.662 285.445 220.455 285.442C221.45 284.89 222.445 284.338 223.441 283.786C224.56 283.181 225.672 282.696 226.845 282.214C229.551 281.269 232.416 280.757 235.261 280.606Z" fill="#2E2E2E"/>
<path d="M194.36 284.595C196.812 285.028 199.346 285.042 201.817 285.114C200.401 285.643 198.927 286.109 197.406 286.33C196.677 286.412 196.009 286.497 195.287 286.459C194.561 286.481 193.785 286.318 193.069 286.159C192.41 286.064 191.818 285.851 191.162 285.695C189.201 285.106 187.25 284.337 185.356 283.631C186.022 283.606 186.623 283.638 187.286 283.673C189.693 283.802 192.031 284.108 194.36 284.595Z" fill="#2E2E2E"/>
<path d="M157.957 267.654C159.005 268.375 159.99 269.154 160.911 269.989C161.373 270.377 161.776 270.761 162.235 271.209C162.697 271.596 163.036 272.038 163.431 272.543C164.286 273.496 165.017 274.502 165.748 275.509C165.748 275.509 165.748 275.509 165.691 275.445C165.859 275.696 166.03 275.887 166.137 276.135C164.256 275.187 162.448 274.002 161.023 272.414C160.397 271.716 159.893 270.963 159.393 270.15C158.894 269.337 158.397 268.464 157.957 267.654Z" fill="#2E2E2E"/>
<path d="M147.208 242.827C147.343 243.681 147.479 244.535 147.551 245.446C147.626 246.297 147.702 247.148 147.717 247.995C147.726 248.963 147.738 249.871 147.686 250.836C147.625 251.982 147.504 253.125 147.563 254.277C147.601 254.703 147.702 255.071 147.803 255.439C148.018 255.935 148.233 256.43 148.448 256.925C148.281 256.674 148.113 256.424 148.005 256.176C147.784 255.801 147.502 255.423 147.404 254.995C147.091 254.071 147.022 253.099 146.953 252.128C146.884 251.156 146.816 250.185 146.747 249.214C146.682 247.033 146.677 244.855 147.208 242.827C147.148 242.824 147.148 242.824 147.208 242.827Z" fill="#2E2E2E"/>
<path d="M164.182 223.348C164.118 223.406 164.118 223.406 164.055 223.463C163.992 223.52 163.868 223.574 163.862 223.694C163.408 224.275 163.068 224.983 162.672 225.627C162.409 226.036 162.145 226.446 161.885 226.795C161.295 227.67 160.645 228.543 159.878 229.349C159.941 229.292 159.941 229.292 160.005 229.235C158.397 231.084 156.384 232.61 154.263 233.888C154.819 232.527 155.431 231.229 156.224 229.94C156.814 229.065 157.407 228.128 158.172 227.383C158.872 226.694 159.63 226.07 160.385 225.505C160.885 225.169 161.386 224.832 161.887 224.496C162.198 224.331 162.512 224.106 162.762 223.938C163.263 223.602 163.697 223.383 164.182 223.348Z" fill="#2E2E2E"/>
<path d="M180.896 222.364C181.666 222.647 182.366 223.108 182.942 223.623C183.81 224.334 184.484 225.277 185.158 226.221C185.436 226.659 185.712 227.157 185.927 227.653C185.404 227.262 184.882 226.871 184.356 226.541C183.013 225.683 181.601 225.003 180.188 224.323C179.365 223.916 178.541 223.509 177.645 223.34C176.685 223.229 175.719 223.238 174.756 223.186C175.317 222.853 175.878 222.52 176.496 222.251C177.174 221.985 177.846 221.839 178.568 221.877C178.628 221.881 178.688 221.884 178.749 221.887C179.471 221.926 180.244 222.148 180.896 222.364Z" fill="#2E2E2E"/>
<path d="M193.102 241.402C193.921 243.019 194.62 244.628 195.192 246.353C195.394 247.089 195.536 247.823 195.615 248.613C195.687 249.524 195.639 250.429 195.47 251.327C195.318 251.924 195.048 252.454 194.778 252.984C194.578 253.336 194.378 253.688 194.118 254.037C194.195 253.739 194.271 253.441 194.347 253.142C194.36 252.901 194.43 252.723 194.443 252.482C194.532 251.942 194.561 251.4 194.529 250.854C194.444 250.184 194.356 249.574 194.208 248.961C194.063 248.288 193.917 247.615 193.829 247.006C193.734 246.517 193.637 246.088 193.602 245.602C193.258 244.132 193.151 242.736 193.102 241.402Z" fill="#2E2E2E"/>
<path d="M188.076 268.897C187.838 269.973 187.542 270.985 187.247 271.998C187.171 272.296 187.034 272.591 186.898 272.886C186.695 273.299 186.552 273.715 186.349 274.127C185.486 275.593 184.449 276.929 183.244 278.014C183.447 277.601 183.71 277.192 183.913 276.78C184.05 276.484 184.183 276.25 184.319 275.954C184.459 275.599 184.656 275.307 184.796 274.952C185.002 274.479 185.208 274.006 185.471 273.596C185.808 272.949 186.144 272.302 186.544 271.597C186.953 270.712 187.486 269.772 188.076 268.897Z" fill="#2E2E2E"/>
<path d="M166.33 296.286C165.258 298.285 163.945 300.272 162.289 301.877C160.955 303.137 159.385 304.263 157.823 305.268C158.752 303.685 159.742 302.104 160.903 300.715C162.387 298.919 164.336 297.45 166.33 296.286Z" fill="#2E2E2E"/>
<path d="M142.531 319.272C140.66 321.531 138.669 323.784 136.342 325.534C134.326 327.121 132.085 328.392 129.901 329.727C131.394 327.751 133.126 325.847 134.965 324.191C135.852 323.391 136.794 322.716 137.732 322.101C139.238 321.032 140.858 320.09 142.531 319.272C142.471 319.268 142.471 319.268 142.531 319.272Z" fill="#2E2E2E"/>
<path d="M105.754 344.408C103.88 346.728 101.768 348.974 99.3204 350.719C97.1204 352.355 94.5848 353.49 92.1697 354.632C91.6753 354.847 91.1777 355.123 90.7434 355.342C91.5236 354.295 92.421 353.315 93.3786 352.337C94.146 351.531 94.9703 350.789 95.7946 350.047C98.0076 348.169 100.562 346.672 103.165 345.419C104.023 345.163 104.889 344.786 105.754 344.408Z" fill="#2E2E2E"/>
<path d="M72.4609 365.375C72.3341 365.49 72.2073 365.604 72.0837 365.658C71.7096 365.88 71.3958 366.105 71.0218 366.327C69.8427 366.929 68.5497 367.405 67.3706 368.007C66.6289 368.331 65.9443 368.718 65.1994 369.101C64.7018 369.377 64.2074 369.593 63.7667 369.932C63.0789 370.379 62.391 370.827 61.7601 371.337C59.7503 372.803 57.848 374.516 56.1198 376.359C56.4304 376.194 56.741 376.029 57.0517 375.865C59.3464 374.717 61.7013 373.572 63.9423 372.3C65.1246 371.638 66.2467 370.972 67.315 370.182C68.0029 369.735 68.6306 369.284 69.2614 368.773C70.4598 367.809 71.7216 366.788 72.4609 365.375Z" fill="#2E2E2E"/>
<path d="M44.2987 384.136C41.975 385.827 39.5976 387.394 37.0019 388.526C34.777 389.496 32.5015 390.282 30.1787 390.823C32.2359 389.602 34.1823 388.194 36.2933 387.097C37.2886 386.545 38.2774 386.114 39.3232 385.746C40.9269 385.106 42.5843 384.589 44.2987 384.136Z" fill="#2E2E2E"/>
<path d="M15.3447 398.38C12.9577 400.127 10.3996 401.684 7.74051 402.873C6.68825 403.362 5.64243 403.729 4.53641 404.094C3.36699 404.515 2.14058 404.873 0.914171 405.231C0.606765 405.336 0.302574 405.38 0.0585784 405.428C1.11726 404.819 2.17595 404.21 3.23463 403.601C4.41692 402.938 5.59921 402.275 6.83847 401.676C7.95414 401.131 9.12678 400.649 10.3596 400.17C10.9142 399.958 11.4689 399.746 12.0235 399.533C12.7017 399.267 13.4401 399.004 14.1151 398.798C14.4859 398.636 14.9169 398.478 15.3447 398.38Z" fill="#2E2E2E"/>
</g>
<defs>
<clipPath id="clip0_3140_5108">
<rect width="404" height="406" fill="white" transform="translate(21.6133) rotate(3.05153)"/>
</clipPath>
</defs>
</svg>
