<svg width="229" height="32" viewBox="0 0 229 32" fill="none" xmlns="http://www.w3.org/2000/svg">
<path d="M52.9284 25H50.358L40.2783 12.1232V25H37.33V7.10854H39.9004L49.9549 19.9602V7.10854H52.9284V25ZM68.3806 23.362C67.1207 24.622 65.5583 25.252 63.6936 25.252C61.8288 25.252 60.2581 24.622 58.9813 23.362C57.7213 22.0853 57.0914 20.5313 57.0914 18.7002C57.0914 16.869 57.7213 15.3235 58.9813 14.0635C60.2581 12.7868 61.8288 12.1484 63.6936 12.1484C65.5583 12.1484 67.1207 12.7868 68.3806 14.0635C69.6574 15.3235 70.2958 16.869 70.2958 18.7002C70.2958 20.5313 69.6574 22.0853 68.3806 23.362ZM63.6936 22.6817C64.7855 22.6817 65.6843 22.3037 66.3899 21.5477C67.1123 20.7749 67.4734 19.8258 67.4734 18.7002C67.4734 17.5746 67.1123 16.6339 66.3899 15.8779C65.6843 15.1051 64.7855 14.7187 63.6936 14.7187C62.5848 14.7187 61.6692 15.1051 60.9468 15.8779C60.2413 16.6339 59.8885 17.5746 59.8885 18.7002C59.8885 19.8258 60.2413 20.7749 60.9468 21.5477C61.6692 22.3037 62.5848 22.6817 63.6936 22.6817ZM73.2899 25V22.8077L79.8921 14.9203H73.3907V12.4004H83.4704V14.6179L76.8682 22.4801H83.672V25H73.2899ZM97.9454 23.362C96.6855 24.622 95.1231 25.252 93.2584 25.252C91.3936 25.252 89.8229 24.622 88.5461 23.362C87.2862 22.0853 86.6562 20.5313 86.6562 18.7002C86.6562 16.869 87.2862 15.3235 88.5461 14.0635C89.8229 12.7868 91.3936 12.1484 93.2584 12.1484C95.1231 12.1484 96.6855 12.7868 97.9454 14.0635C99.2222 15.3235 99.8606 16.869 99.8606 18.7002C99.8606 20.5313 99.2222 22.0853 97.9454 23.362ZM93.2584 22.6817C94.3503 22.6817 95.2491 22.3037 95.9547 21.5477C96.6771 20.7749 97.0383 19.8258 97.0383 18.7002C97.0383 17.5746 96.6771 16.6339 95.9547 15.8779C95.2491 15.1051 94.3503 14.7187 93.2584 14.7187C92.1496 14.7187 91.234 15.1051 90.5117 15.8779C89.8061 16.6339 89.4533 17.5746 89.4533 18.7002C89.4533 19.8258 89.8061 20.7749 90.5117 21.5477C91.234 22.3037 92.1496 22.6817 93.2584 22.6817ZM119.96 25V17.919C119.96 16.8942 119.767 16.0963 119.381 15.5251C119.011 14.9539 118.457 14.6683 117.718 14.6683C116.827 14.6683 116.113 15.0127 115.576 15.7015C115.038 16.3903 114.752 17.3562 114.719 18.5994V25H111.947V17.919C111.947 16.8942 111.754 16.0963 111.367 15.5251C110.998 14.9539 110.443 14.6683 109.704 14.6683C108.78 14.6683 108.041 15.0295 107.487 15.7519C106.949 16.4743 106.68 17.4906 106.68 18.801V25H103.908V12.4004H106.68V14.1139C107.453 12.8036 108.646 12.1484 110.259 12.1484C112.157 12.1484 113.459 12.98 114.164 14.6431C114.517 13.8535 115.055 13.2404 115.777 12.8036C116.516 12.3668 117.323 12.1484 118.196 12.1484C119.608 12.1484 120.716 12.6272 121.523 13.5847C122.329 14.5423 122.732 15.8359 122.732 17.4654V25H119.96ZM128.924 9.65366C128.42 9.65366 127.983 9.47727 127.613 9.12448C127.244 8.75489 127.059 8.3097 127.059 7.78892C127.059 7.28493 127.244 6.85654 127.613 6.50375C127.983 6.13417 128.42 5.94937 128.924 5.94937C129.444 5.94937 129.881 6.13417 130.234 6.50375C130.587 6.85654 130.763 7.28493 130.763 7.78892C130.763 8.3097 130.587 8.75489 130.234 9.12448C129.881 9.47727 129.444 9.65366 128.924 9.65366ZM127.538 25V12.4004H130.31V25H127.538ZM142.812 25V7.10854H145.761V14.5171H154.606V7.10854H157.554V25H154.606V17.3142H145.761V25H142.812ZM168.339 25.252C166.424 25.252 164.845 24.6388 163.602 23.4124C162.376 22.1861 161.762 20.6153 161.762 18.7002C161.762 16.8354 162.384 15.2815 163.627 14.0383C164.87 12.7784 166.441 12.1484 168.339 12.1484C170.086 12.1484 171.531 12.7028 172.674 13.8115C173.833 14.9203 174.412 16.4491 174.412 18.3978C174.412 18.7338 174.404 19.0362 174.387 19.305H164.484C164.551 20.3297 164.946 21.1613 165.668 21.7997C166.391 22.4213 167.289 22.7321 168.365 22.7321C169.977 22.7321 171.178 22.0937 171.968 20.8169L174.085 22.3289C172.875 24.2776 170.96 25.252 168.339 25.252ZM164.61 17.289H171.615C171.464 16.4155 171.069 15.7351 170.431 15.2479C169.809 14.7439 169.078 14.4919 168.239 14.4919C167.365 14.4919 166.584 14.7355 165.895 15.2227C165.223 15.7099 164.795 16.3987 164.61 17.289ZM183.688 25.252C181.974 25.252 180.529 24.6136 179.353 23.3368C178.194 22.0601 177.615 20.5145 177.615 18.7002C177.615 16.8858 178.194 15.3403 179.353 14.0635C180.529 12.7868 181.974 12.1484 183.688 12.1484C184.544 12.1484 185.334 12.3416 186.056 12.728C186.779 13.0976 187.333 13.5511 187.72 14.0887V12.4004H190.491V25H187.72V23.3117C187.333 23.8492 186.779 24.3112 186.056 24.6976C185.334 25.0672 184.544 25.252 183.688 25.252ZM181.495 21.5729C182.201 22.3457 183.1 22.7321 184.192 22.7321C185.284 22.7321 186.182 22.3457 186.888 21.5729C187.594 20.8001 187.946 19.8426 187.946 18.7002C187.946 17.5578 187.594 16.6003 186.888 15.8275C186.182 15.0547 185.284 14.6683 184.192 14.6683C183.1 14.6683 182.201 15.0547 181.495 15.8275C180.79 16.6003 180.437 17.5578 180.437 18.7002C180.437 19.8426 180.79 20.8001 181.495 21.5729ZM195.507 25V6.10057H198.279V25H195.507ZM208.732 25.126C207.455 25.126 206.413 24.7732 205.607 24.0676C204.817 23.3452 204.422 22.3037 204.422 20.9429V14.8699H201.802V12.4004H204.422V8.89768H207.194V12.4004H210.798V14.8699H207.194V20.4893C207.194 21.2621 207.362 21.8165 207.698 22.1525C208.034 22.4717 208.572 22.6313 209.311 22.6313C209.916 22.6313 210.411 22.5473 210.798 22.3793V24.8488C210.193 25.0336 209.504 25.126 208.732 25.126ZM217.459 25H214.687V6.10057H217.459V14.1139C218.248 12.8036 219.525 12.1484 221.289 12.1484C222.75 12.1484 223.918 12.6272 224.792 13.5847C225.665 14.5423 226.102 15.8191 226.102 17.415V25H223.33V17.8686C223.33 16.8606 223.095 16.0795 222.624 15.5251C222.154 14.9539 221.516 14.6683 220.709 14.6683C219.752 14.6683 218.971 15.0295 218.366 15.7519C217.761 16.4743 217.459 17.4906 217.459 18.801V25Z" fill="white"/>
<path d="M1.36035 27.217C1.49581 25.7504 1.68612 24.4624 1.90469 23.1269C2.12326 21.7914 2.37756 20.42 2.63103 18.7247C2.67092 18.4484 2.72328 18.0886 2.79724 17.5619C2.87121 17.0352 2.96844 16.3508 3.08978 15.4201L2.44238 16.0094C3.85518 16.0703 5.77078 16.1429 7.84925 16.2055C9.92773 16.2682 12.1708 16.3207 14.2318 16.3574C16.2928 16.3942 18.1835 16.4151 19.5555 16.4259L21.782 16.4409H22.0471L21.083 15.4769C21.083 15.5161 21.0955 16.4785 21.1163 18.2147C21.1312 19.0828 21.1495 20.1429 21.1703 21.3774C21.1911 22.6119 21.2268 24.0209 21.2692 25.5843L22.0894 24.6836C21.1828 24.7721 20.1049 24.8806 18.9647 25.0033C17.8244 25.126 16.6211 25.2621 15.4626 25.4015C14.3041 25.5409 13.1896 25.6786 12.2339 25.8013L9.96513 26.0951C8.2199 26.3247 6.8071 26.545 5.45913 26.737C4.11115 26.929 2.82135 27.0976 1.36035 27.2145C2.8147 27.1018 3.97236 27.0784 5.21729 27.0651C6.46221 27.0517 7.78276 27.0567 9.52715 27.0116L11.8242 26.9457C12.8032 26.9156 13.9592 26.8756 15.1759 26.8272C16.3925 26.7788 17.669 26.7187 18.8874 26.6602C20.1057 26.6018 21.2584 26.53 22.2291 26.4699L23.0443 26.419L23.0493 25.5693C23.0593 24.0051 23.0634 22.5961 23.0618 21.3615C23.0601 20.127 23.0535 19.0661 23.0501 18.198C23.036 16.4626 23.0277 15.4994 23.0269 15.4601L23.0194 14.4994L22.0604 14.4936H21.7952L19.568 14.4844C18.1968 14.4844 16.3086 14.4844 14.2442 14.4961C12.1799 14.5078 9.93853 14.5386 7.86006 14.5795C5.78158 14.6204 3.86598 14.6714 2.45235 14.7173L1.83738 14.7365L1.80497 15.3066C1.74679 16.3249 1.71188 17.0711 1.68695 17.6371C1.66202 18.203 1.64706 18.5869 1.63459 18.8824C1.56645 20.6887 1.56894 22.0543 1.55149 23.3248C1.53404 24.5952 1.49332 25.7579 1.36035 27.217Z" fill="#D44242"/>
<path d="M10.6525 6.11858C11.5317 6.04002 12.4143 6.00717 13.2969 6.02011C14.1737 6.02011 15.0887 6.04512 16.1965 6.02675C16.6951 6.01841 17.6001 6.00006 18.6472 5.96668C19.1708 5.94915 19.7276 5.92742 20.2977 5.90155C20.8678 5.87567 21.4388 5.8448 21.9923 5.81058L21.0831 4.99507C21.0365 7.02424 21.0249 9.00582 21.0307 10.4782C21.0307 11.2145 21.039 11.8238 21.0415 12.2478C21.044 12.6719 21.0498 12.9056 21.0498 12.9081L21.7978 11.9448L21.2551 12.0709L20.2279 12.3129C19.5872 12.4648 18.6913 12.681 17.6707 12.9348C16.6502 13.1885 15.51 13.4832 14.3714 13.7862C13.2329 14.0892 12.1043 14.4014 11.1095 14.686L12.0237 15.3629C11.9173 14.4606 11.8101 13.6793 11.7195 13.04C11.6289 12.4006 11.5533 11.9056 11.5035 11.5842C11.3372 10.4991 11.1552 9.60932 11.0048 8.74623C10.8407 7.87711 10.7239 6.99966 10.6549 6.11776C10.7035 6.92817 10.701 7.74083 10.6475 8.55092C10.6067 9.33805 10.5444 10.1869 10.5261 11.3246C10.5211 11.6585 10.5137 12.1869 10.5137 12.883C10.5137 13.5792 10.5137 14.4473 10.5411 15.4631L10.5602 16.3045L11.4528 16.1376C12.47 15.9498 13.621 15.7277 14.777 15.4932C15.933 15.2586 17.0848 15.0149 18.1112 14.7887C19.1376 14.5625 20.0359 14.358 20.6783 14.2094L21.7055 13.9698L22.2474 13.8413L23.0095 13.661L22.9978 12.878C22.9978 12.878 22.9978 12.6418 22.9879 12.2178C22.9779 11.7938 22.9654 11.1844 22.9488 10.4482C22.9131 8.97579 22.8457 6.99504 22.7435 4.96837L22.6962 4.03516L21.8335 4.15368C21.2244 4.23715 20.5969 4.32729 19.9836 4.41994C19.3703 4.5126 18.7719 4.60776 18.2201 4.69958C17.1164 4.88238 16.2048 5.04765 15.7119 5.13947C14.6141 5.34314 13.8005 5.53932 13.0409 5.70709C12.2539 5.8931 11.4562 6.0305 10.6525 6.11858Z" fill="#D44242"/>
<path d="M2.46456 15.1992C2.46456 15.498 2.37564 15.7518 2.2809 16.0197C2.16423 16.316 2.07005 16.6207 1.99917 16.9312C1.95844 17.1266 1.88531 17.5155 1.81965 17.9913C1.754 18.4671 1.69749 19.0263 1.66674 19.5614C1.63599 20.0964 1.62519 20.6073 1.62602 20.9804C1.62685 21.3535 1.63433 21.5997 1.63433 21.5997C1.63433 21.5997 1.63433 21.8426 1.65261 22.2191C1.67089 22.5955 1.69916 23.1047 1.75484 23.6381C1.81052 24.1714 1.89113 24.7282 1.97673 25.1998C2.06232 25.6714 2.15457 26.0579 2.2036 26.2507C2.28828 26.558 2.39636 26.8582 2.52689 27.1488C2.63409 27.4126 2.73798 27.6614 2.74795 27.9602C2.74795 27.6614 2.8377 27.4076 2.93327 27.1397C3.05062 26.8436 3.14508 26.5388 3.21584 26.2282C3.25656 26.0328 3.33053 25.6439 3.39618 25.1681C3.46183 24.6923 3.51834 24.133 3.54826 23.598C3.57818 23.0629 3.58898 22.5521 3.58732 22.179C3.58565 21.8059 3.57818 21.5596 3.57818 21.5596C3.57818 21.5596 3.57818 21.3168 3.55906 20.9403C3.53995 20.5639 3.51169 20.0547 3.45518 19.5213C3.39867 18.9879 3.31972 18.4312 3.23329 17.9596C3.14686 17.488 3.05627 17.1015 3.00641 16.9087C2.92186 16.6016 2.81435 16.3014 2.68479 16.0105C2.57841 15.7468 2.47536 15.498 2.46456 15.1992Z" fill="#D44242"/>
<path d="M0.706055 27.0535C1.54293 26.9024 2.17038 27.1052 3.19175 27.0785C3.46933 27.0785 4.02281 27.056 4.68766 27.0268L5.75973 26.9659C6.1337 26.9425 6.51682 26.9124 6.89163 26.8824L7.96784 26.7922L8.88201 26.7088C9.40724 26.6604 9.74548 26.6203 9.74548 26.6203C9.74548 26.6203 10.0846 26.5911 10.609 26.5368L11.5173 26.4366L12.5902 26.3081C12.9625 26.2588 13.3431 26.2104 13.7138 26.1579L14.7767 26.0009C15.4416 25.8933 15.9834 25.8023 16.2552 25.7505C17.2607 25.5694 17.8342 25.2422 18.6844 25.2196C18.2605 25.2196 17.904 25.1178 17.5209 25.0176C17.0961 24.8965 16.6642 24.8021 16.2277 24.7347C15.9502 24.6988 15.3967 24.6245 14.7136 24.5794C14.3745 24.5552 14.0038 24.5327 13.6224 24.5252C13.2409 24.5177 12.8487 24.5076 12.4647 24.5135C12.0808 24.5193 11.7068 24.5268 11.3611 24.546C11.0153 24.5652 10.6962 24.5803 10.4286 24.6045C9.89092 24.6479 9.54437 24.6838 9.54437 24.6838C9.54437 24.6838 9.19782 24.7188 8.66179 24.7856C8.39335 24.8173 8.08005 24.8691 7.73682 24.9183C7.39359 24.9676 7.02542 25.0368 6.64896 25.1111C6.27249 25.1854 5.88937 25.2672 5.51789 25.3565C5.1464 25.4458 4.78822 25.5393 4.45995 25.6312C3.80341 25.8123 3.2732 25.9984 3.00809 26.0894C2.59429 26.2439 2.19021 26.4234 1.79807 26.627C1.45068 26.7956 1.12158 26.9642 0.706055 27.0535Z" fill="#D44242"/>
<path d="M10.8154 6.21645C11.093 6.15635 11.3481 6.20061 11.6166 6.24151C11.9152 6.30095 12.2182 6.3361 12.5224 6.34667C12.7127 6.35084 13.0909 6.34666 13.5455 6.32413C14 6.30159 14.5336 6.249 15.0414 6.17805C15.5491 6.1071 16.022 6.02197 16.3711 5.95018C16.7201 5.8784 16.9453 5.82583 16.9453 5.82583C16.9453 5.82583 17.1714 5.77741 17.5179 5.6906C17.8645 5.60379 18.3324 5.47774 18.8169 5.32248C19.3014 5.16723 19.8042 4.98362 20.2297 4.81C20.6552 4.63638 20.9934 4.47609 21.1629 4.38845C21.4329 4.24659 21.6913 4.08361 21.9358 3.90099C22.1602 3.74657 22.3713 3.59631 22.648 3.52953C22.3705 3.58963 22.1162 3.54457 21.8477 3.50284C21.55 3.44268 21.2479 3.40692 20.9444 3.39597C20.7549 3.3918 20.3768 3.39599 19.9213 3.4177C19.4659 3.4394 18.9332 3.49364 18.4254 3.56459C17.9177 3.63554 17.4431 3.72235 17.0957 3.79413C16.7484 3.86591 16.5206 3.92019 16.5206 3.92019C16.5206 3.92019 16.2954 3.96859 15.948 4.05624C15.6007 4.14388 15.1319 4.27077 14.6466 4.42603C14.1613 4.58128 13.6585 4.76575 13.2338 4.93936C12.8091 5.11298 12.4709 5.27323 12.3014 5.36087C12.0324 5.50248 11.7748 5.66493 11.531 5.8467C11.3016 6.00028 11.0913 6.14967 10.8154 6.21645Z" fill="#D44242"/>
<path d="M21.2973 15.6211C21.2483 15.889 21.1137 16.0977 20.9757 16.3198C20.8103 16.5607 20.6652 16.815 20.5419 17.0802C20.4679 17.2471 20.3283 17.581 20.1821 17.9925C20.0358 18.404 19.8845 18.894 19.7665 19.3656C19.6485 19.8372 19.5455 20.2913 19.4815 20.6277C19.4175 20.964 19.3826 21.1819 19.3826 21.1819C19.3826 21.1819 19.3435 21.3989 19.2945 21.7378C19.2455 22.0767 19.1881 22.5366 19.1507 23.0233C19.1133 23.5099 19.0967 24.0249 19.1 24.4589C19.1033 24.893 19.1266 25.2578 19.1416 25.4389C19.1731 25.7305 19.2287 26.0189 19.3078 26.3012C19.366 26.5557 19.4266 26.7978 19.3851 27.0666C19.4333 26.7995 19.5687 26.5908 19.7075 26.3687C19.8732 26.1277 20.0188 25.8734 20.143 25.6083C20.2161 25.4414 20.3558 25.1075 20.502 24.6952C20.6483 24.2828 20.8004 23.7945 20.9225 23.3221C21.0447 22.8496 21.1419 22.3972 21.2051 22.0608C21.2683 21.7244 21.3032 21.5058 21.3032 21.5058C21.3032 21.5058 21.3422 21.2887 21.3863 20.9498C21.4303 20.6109 21.4918 20.1502 21.5292 19.6644C21.5666 19.1786 21.5832 18.6627 21.5791 18.2287C21.5749 17.7946 21.5533 17.4299 21.5375 17.2479C21.5073 16.9568 21.4531 16.6687 21.3755 16.3865C21.3156 16.1319 21.2566 15.8907 21.2973 15.6211Z" fill="#D44242"/>
<path d="M10.7016 6.57209C10.6985 6.57361 10.695 6.57447 10.6916 6.57462C10.6881 6.57476 10.6846 6.5742 10.6813 6.57295C10.6781 6.5717 10.6751 6.56981 10.6726 6.56736C10.6701 6.56492 10.6681 6.562 10.6667 6.55876C10.6617 6.54588 10.6617 6.53158 10.6667 6.5187C10.6725 6.49282 10.6966 6.47277 10.7124 6.47945C10.7531 6.49281 10.7623 6.54039 10.7606 6.58546C10.759 6.63053 10.7498 6.68898 10.7415 6.74323C10.7332 6.79749 10.7232 6.85425 10.7124 6.91017C10.6555 7.15863 10.621 7.41174 10.6094 7.66642C10.6094 7.82335 10.6094 8.1347 10.6293 8.50781C10.6493 8.88092 10.6966 9.31494 10.7606 9.72478C10.8246 10.1346 10.9019 10.5203 10.9667 10.8033C11.0316 11.0862 11.0798 11.2673 11.0798 11.2673C11.0798 11.2673 11.1238 11.4501 11.2011 11.7297C11.2784 12.0094 11.3931 12.3867 11.5335 12.7765C11.674 13.1663 11.841 13.5695 11.9981 13.9075C12.1552 14.2456 12.3047 14.5194 12.3837 14.6588C12.5157 14.8765 12.667 15.0818 12.8358 15.2722C12.9796 15.4509 13.1192 15.6187 13.174 15.8449C13.1258 15.6178 13.1798 15.405 13.2314 15.1813C13.3012 14.9359 13.3474 14.6843 13.3693 14.43C13.3793 14.2723 13.3909 13.9593 13.3793 13.5828C13.3666 13.1711 13.3319 12.7604 13.2754 12.3524C13.2026 11.8261 13.0985 11.3046 12.9638 10.7907C12.9638 10.7907 12.9197 10.6063 12.8391 10.3233C12.7585 10.0403 12.6388 9.66136 12.4901 9.26989C12.3432 8.88486 12.1767 8.50763 11.9914 8.13969C11.8252 7.80581 11.659 7.53454 11.5759 7.40183C11.4355 7.18816 11.2749 6.98857 11.0964 6.80583C11.0573 6.76326 11.0208 6.72234 10.9842 6.6781C10.9476 6.63386 10.9169 6.59466 10.877 6.54124C10.8563 6.51534 10.8322 6.4923 10.8055 6.47277C10.7915 6.46184 10.7755 6.4539 10.7583 6.44945C10.7412 6.445 10.7233 6.44413 10.7058 6.44689C10.6946 6.45098 10.6844 6.45746 10.676 6.46584C10.6675 6.47422 10.6609 6.48431 10.6566 6.49547C10.6524 6.50663 10.6506 6.5186 10.6513 6.53052C10.652 6.54244 10.6553 6.55405 10.6609 6.56459C10.663 6.56789 10.6657 6.57073 10.669 6.57291C10.6722 6.57509 10.6758 6.57656 10.6796 6.57727C10.6835 6.57797 10.6874 6.57787 10.6912 6.57698C10.6949 6.5761 10.6985 6.57442 10.7016 6.57209Z" fill="#D44242"/>
<path d="M21.7305 4.85547C21.7247 5.18017 21.6258 5.45225 21.5236 5.74022C21.3969 6.05817 21.2931 6.38482 21.2128 6.71766C21.1646 6.92717 21.079 7.34704 20.9942 7.85788C20.9095 8.36872 20.828 8.97138 20.7757 9.54816C20.7233 10.1249 20.6842 10.6758 20.666 11.0823C20.6477 11.4888 20.6419 11.7501 20.6419 11.7501C20.6419 11.7501 20.631 12.013 20.6252 12.4179C20.6194 12.8227 20.6252 13.377 20.6427 13.9562C20.6601 14.5355 20.7075 15.1415 20.7599 15.6566C20.8122 16.1716 20.8746 16.5956 20.9103 16.8076C20.9698 17.1448 21.0532 17.4773 21.1596 17.8026C21.2427 18.0956 21.3258 18.3727 21.315 18.6974C21.3358 18.3735 21.4496 18.1064 21.5643 17.8234C21.7048 17.5103 21.8223 17.1872 21.9159 16.8568C21.9707 16.649 22.0738 16.2308 22.1727 15.72C22.2716 15.2091 22.3646 14.604 22.4286 14.0247C22.4926 13.4454 22.5333 12.8903 22.5541 12.4813C22.5749 12.0723 22.5799 11.8069 22.5799 11.8069C22.5799 11.8069 22.5899 11.5431 22.5932 11.1324C22.5965 10.7218 22.5932 10.1675 22.5583 9.58488C22.5234 9.00226 22.4702 8.39293 22.402 7.87708C22.3339 7.36123 22.2566 6.93803 22.2142 6.72602C22.1405 6.39076 22.0427 6.0613 21.9217 5.74022C21.8286 5.45309 21.7322 5.18017 21.7305 4.85547Z" fill="#D44242"/>
<path d="M0.30045 15.293C0.337848 15.5784 0.274682 15.8322 0.212353 16.101C0.133122 16.3988 0.0775435 16.7025 0.046141 17.0091C0.0303509 17.2011 0.00375298 17.5851 0.000428741 18.0492C-0.0028955 18.5133 0.0128975 19.0583 0.0552815 19.5759C0.0976655 20.0934 0.157502 20.5834 0.211521 20.9439C0.26554 21.3045 0.308759 21.5366 0.308759 21.5366C0.308759 21.5366 0.346982 21.7686 0.417622 22.1259C0.488262 22.4831 0.596305 22.9664 0.73426 23.4664C0.872216 23.9664 1.03926 24.4856 1.20048 24.9205C1.36171 25.3553 1.51712 25.7068 1.59773 25.882C1.73301 26.1594 1.89031 26.4255 2.0681 26.6775C2.21769 26.9088 2.36397 27.1249 2.42546 27.407C2.37061 27.1232 2.41881 26.8662 2.46535 26.5957C2.53057 26.2934 2.57225 25.9864 2.59001 25.6776C2.59915 25.4856 2.60497 25.1041 2.59001 24.6433C2.57505 24.1826 2.54513 23.6417 2.49361 23.1317C2.44208 22.6217 2.37477 22.1359 2.31909 21.7795C2.2634 21.423 2.22019 21.1952 2.22019 21.1952C2.22019 21.1952 2.18279 20.9656 2.11298 20.6109C2.04318 20.2561 1.94678 19.7762 1.8163 19.2753C1.68582 18.7745 1.53789 18.2587 1.39328 17.8213C1.24868 17.3839 1.11156 17.0283 1.03843 16.8505C0.917508 16.5678 0.77497 16.2948 0.612097 16.0342C0.476634 15.803 0.344496 15.5776 0.30045 15.293Z" fill="#D44242"/>
</svg>
