<svg width="244" height="32" viewBox="0 0 244 32" fill="none" xmlns="http://www.w3.org/2000/svg">
<path d="M52.9279 25H50.3576L40.2779 12.1232V25H37.3295V7.10854H39.8999L49.9544 19.9602V7.10854H52.9279V25ZM69.6401 23.362C68.3801 24.622 66.8178 25.252 64.953 25.252C63.0883 25.252 61.5175 24.622 60.2408 23.362C58.9808 22.0853 58.3508 20.5313 58.3508 18.7002C58.3508 16.869 58.9808 15.3235 60.2408 14.0635C61.5175 12.7868 63.0883 12.1484 64.953 12.1484C66.8178 12.1484 68.3801 12.7868 69.6401 14.0635C70.9169 15.3235 71.5552 16.869 71.5552 18.7002C71.5552 20.5313 70.9169 22.0853 69.6401 23.362ZM64.953 22.6817C66.045 22.6817 66.9438 22.3037 67.6493 21.5477C68.3717 20.7749 68.7329 19.8258 68.7329 18.7002C68.7329 17.5746 68.3717 16.6339 67.6493 15.8779C66.9438 15.1051 66.045 14.7187 64.953 14.7187C63.8443 14.7187 62.9287 15.1051 62.2063 15.8779C61.5007 16.6339 61.1479 17.5746 61.1479 18.7002C61.1479 19.8258 61.5007 20.7749 62.2063 21.5477C62.9287 22.3037 63.8443 22.6817 64.953 22.6817ZM75.8094 25V22.8077L82.4116 14.9203H75.9102V12.4004H85.9899V14.6179L79.3877 22.4801H86.1915V25H75.8094ZM101.725 23.362C100.465 24.622 98.9025 25.252 97.0378 25.252C95.173 25.252 93.6023 24.622 92.3255 23.362C91.0655 22.0853 90.4356 20.5313 90.4356 18.7002C90.4356 16.869 91.0655 15.3235 92.3255 14.0635C93.6023 12.7868 95.173 12.1484 97.0378 12.1484C98.9025 12.1484 100.465 12.7868 101.725 14.0635C103.002 15.3235 103.64 16.869 103.64 18.7002C103.64 20.5313 103.002 22.0853 101.725 23.362ZM97.0378 22.6817C98.1297 22.6817 99.0285 22.3037 99.7341 21.5477C100.456 20.7749 100.818 19.8258 100.818 18.7002C100.818 17.5746 100.456 16.6339 99.7341 15.8779C99.0285 15.1051 98.1297 14.7187 97.0378 14.7187C95.929 14.7187 95.0134 15.1051 94.2911 15.8779C93.5855 16.6339 93.2327 17.5746 93.2327 18.7002C93.2327 19.8258 93.5855 20.7749 94.2911 21.5477C95.0134 22.3037 95.929 22.6817 97.0378 22.6817ZM125 25V17.919C125 16.8942 124.806 16.0963 124.42 15.5251C124.051 14.9539 123.496 14.6683 122.757 14.6683C121.867 14.6683 121.153 15.0127 120.615 15.7015C120.077 16.3903 119.792 17.3562 119.758 18.5994V25H116.986V17.919C116.986 16.8942 116.793 16.0963 116.407 15.5251C116.037 14.9539 115.483 14.6683 114.744 14.6683C113.82 14.6683 113.08 15.0295 112.526 15.7519C111.988 16.4743 111.72 17.4906 111.72 18.801V25H108.948V12.4004H111.72V14.1139C112.492 12.8036 113.685 12.1484 115.298 12.1484C117.196 12.1484 118.498 12.98 119.204 14.6431C119.557 13.8535 120.094 13.2404 120.817 12.8036C121.556 12.3668 122.362 12.1484 123.236 12.1484C124.647 12.1484 125.756 12.6272 126.562 13.5847C127.368 14.5423 127.772 15.8359 127.772 17.4654V25H125ZM135.223 9.65366C134.719 9.65366 134.282 9.47727 133.913 9.12448C133.543 8.75489 133.358 8.3097 133.358 7.78892C133.358 7.28493 133.543 6.85654 133.913 6.50375C134.282 6.13417 134.719 5.94937 135.223 5.94937C135.744 5.94937 136.18 6.13417 136.533 6.50375C136.886 6.85654 137.062 7.28493 137.062 7.78892C137.062 8.3097 136.886 8.75489 136.533 9.12448C136.18 9.47727 135.744 9.65366 135.223 9.65366ZM133.837 25V12.4004H136.609V25H133.837ZM151.632 25V7.10854H154.58V14.5171H163.425V7.10854H166.373V25H163.425V17.3142H154.58V25H151.632ZM178.419 25.252C176.503 25.252 174.924 24.6388 173.681 23.4124C172.455 22.1861 171.842 20.6153 171.842 18.7002C171.842 16.8354 172.463 15.2815 173.706 14.0383C174.949 12.7784 176.52 12.1484 178.419 12.1484C180.166 12.1484 181.61 12.7028 182.753 13.8115C183.912 14.9203 184.492 16.4491 184.492 18.3978C184.492 18.7338 184.483 19.0362 184.466 19.305H174.563C174.63 20.3297 175.025 21.1613 175.747 21.7997C176.47 22.4213 177.369 22.7321 178.444 22.7321C180.056 22.7321 181.258 22.0937 182.047 20.8169L184.164 22.3289C182.954 24.2776 181.039 25.252 178.419 25.252ZM174.689 17.289H181.694C181.543 16.4155 181.148 15.7351 180.51 15.2479C179.888 14.7439 179.158 14.4919 178.318 14.4919C177.444 14.4919 176.663 14.7355 175.974 15.2227C175.302 15.7099 174.874 16.3987 174.689 17.289ZM195.027 25.252C193.313 25.252 191.868 24.6136 190.693 23.3368C189.533 22.0601 188.954 20.5145 188.954 18.7002C188.954 16.8858 189.533 15.3403 190.693 14.0635C191.868 12.7868 193.313 12.1484 195.027 12.1484C195.884 12.1484 196.673 12.3416 197.396 12.728C198.118 13.0976 198.672 13.5511 199.059 14.0887V12.4004H201.831V25H199.059V23.3117C198.672 23.8492 198.118 24.3112 197.396 24.6976C196.673 25.0672 195.884 25.252 195.027 25.252ZM192.834 21.5729C193.54 22.3457 194.439 22.7321 195.531 22.7321C196.623 22.7321 197.522 22.3457 198.227 21.5729C198.933 20.8001 199.285 19.8426 199.285 18.7002C199.285 17.5578 198.933 16.6003 198.227 15.8275C197.522 15.0547 196.623 14.6683 195.531 14.6683C194.439 14.6683 193.54 15.0547 192.834 15.8275C192.129 16.6003 191.776 17.5578 191.776 18.7002C191.776 19.8426 192.129 20.8001 192.834 21.5729ZM208.106 25V6.10057H210.878V25H208.106ZM222.591 25.126C221.314 25.126 220.272 24.7732 219.466 24.0676C218.676 23.3452 218.282 22.3037 218.282 20.9429V14.8699H215.661V12.4004H218.282V8.89768H221.053V12.4004H224.657V14.8699H221.053V20.4893C221.053 21.2621 221.221 21.8165 221.557 22.1525C221.893 22.4717 222.431 22.6313 223.17 22.6313C223.775 22.6313 224.271 22.5473 224.657 22.3793V24.8488C224.052 25.0336 223.363 25.126 222.591 25.126ZM232.578 25H229.806V6.10057H232.578V14.1139C233.367 12.8036 234.644 12.1484 236.408 12.1484C237.869 12.1484 239.037 12.6272 239.911 13.5847C240.784 14.5423 241.221 15.8191 241.221 17.415V25H238.449V17.8686C238.449 16.8606 238.214 16.0795 237.743 15.5251C237.273 14.9539 236.635 14.6683 235.828 14.6683C234.871 14.6683 234.09 15.0295 233.485 15.7519C232.88 16.4743 232.578 17.4906 232.578 18.801V25Z" fill="white"/>
<path d="M1.36011 28.217C1.49557 26.7504 1.68588 25.4624 1.90444 24.1269C2.12301 22.7914 2.37732 21.42 2.63079 19.7247C2.67068 19.4484 2.72304 19.0886 2.797 18.5619C2.87097 18.0352 2.9682 17.3508 3.08953 16.4201L2.44214 17.0094C3.85494 17.0703 5.77053 17.1429 7.84901 17.2055C9.92749 17.2682 12.1705 17.3207 14.2315 17.3574C16.2926 17.3942 18.1832 17.4151 19.5553 17.4259L21.7817 17.4409H22.0468L21.0828 16.4769C21.0828 16.5161 21.0953 17.4785 21.116 19.2147C21.131 20.0828 21.1493 21.1429 21.17 22.3774C21.1908 23.6119 21.2266 25.0209 21.2689 26.5843L22.0892 25.6836C21.1825 25.7721 20.1046 25.8806 18.9644 26.0033C17.8242 26.126 16.6208 26.2621 15.4623 26.4015C14.3038 26.5409 13.1894 26.6786 12.2337 26.8013L9.96488 27.0951C8.21966 27.3247 6.80686 27.545 5.45888 27.737C4.11091 27.929 2.82111 28.0976 1.36011 28.2145C2.81446 28.1018 3.97212 28.0784 5.21704 28.0651C6.46197 28.0517 7.78252 28.0567 9.52691 28.0116L11.824 27.9457C12.8029 27.9156 13.959 27.8756 15.1756 27.8272C16.3923 27.7788 17.6688 27.7187 18.8871 27.6602C20.1055 27.6018 21.2581 27.53 22.2288 27.4699L23.0441 27.419L23.0491 26.5693C23.059 25.0051 23.0632 23.5961 23.0615 22.3615C23.0599 21.127 23.0532 20.0661 23.0499 19.198C23.0358 17.4626 23.0275 16.4994 23.0266 16.4601L23.0192 15.4994L22.0601 15.4936H21.795L19.5678 15.4844C18.1965 15.4844 16.3083 15.4844 14.244 15.4961C12.1797 15.5078 9.93829 15.5386 7.85981 15.5795C5.78134 15.6204 3.86574 15.6714 2.45211 15.7173L1.83713 15.7365L1.80472 16.3066C1.74655 17.3249 1.71164 18.0711 1.68671 18.6371C1.66178 19.203 1.64682 19.5869 1.63435 19.8824C1.5662 21.6887 1.5687 23.0543 1.55124 24.3248C1.53379 25.5952 1.49308 26.7579 1.36011 28.217Z" fill="#D44242"/>
<path d="M10.6527 7.11858C11.5319 7.04002 12.4146 7.00717 13.2971 7.02011C14.1739 7.02011 15.0889 7.04512 16.1967 7.02675C16.6953 7.01841 17.6004 7.00006 18.6475 6.96668C19.1711 6.94915 19.7279 6.92742 20.298 6.90155C20.8681 6.87567 21.439 6.8448 21.9925 6.81058L21.0833 5.99507C21.0368 8.02424 21.0251 10.0058 21.031 11.4782C21.031 12.2145 21.0393 12.8238 21.0418 13.2478C21.0443 13.6719 21.0501 13.9056 21.0501 13.9081L21.798 12.9448L21.2554 13.0709L20.2282 13.3129C19.5874 13.4648 18.6915 13.681 17.671 13.9348C16.6505 14.1885 15.5102 14.4832 14.3717 14.7862C13.2331 15.0892 12.1046 15.4014 11.1098 15.686L12.0239 16.3629C11.9176 15.4606 11.8104 14.6793 11.7198 14.04C11.6292 13.4006 11.5536 12.9056 11.5037 12.5842C11.3375 11.4991 11.1555 10.6093 11.0051 9.74623C10.841 8.87711 10.7242 7.99966 10.6552 7.11776C10.7037 7.92817 10.7012 8.74083 10.6477 9.55092C10.607 10.338 10.5447 11.1869 10.5264 12.3246C10.5214 12.6585 10.5139 13.1869 10.5139 13.883C10.5139 14.5792 10.5139 15.4473 10.5413 16.4631L10.5605 17.3045L11.453 17.1376C12.4702 16.9498 13.6212 16.7277 14.7772 16.4932C15.9332 16.2586 17.0851 16.0149 18.1114 15.7887C19.1378 15.5625 20.0362 15.358 20.6786 15.2094L21.7058 14.9698L22.2476 14.8413L23.0097 14.661L22.9981 13.878C22.9981 13.878 22.9981 13.6418 22.9881 13.2178C22.9781 12.7938 22.9657 12.1844 22.949 11.4482C22.9133 9.97579 22.846 7.99504 22.7438 5.96837L22.6964 5.03516L21.8338 5.15368C21.2246 5.23715 20.5971 5.32729 19.9838 5.41994C19.3705 5.5126 18.7721 5.60776 18.2203 5.69958C17.1167 5.88238 16.205 6.04765 15.7122 6.13947C14.6144 6.34314 13.8007 6.53932 13.0412 6.70709C12.2541 6.8931 11.4565 7.0305 10.6527 7.11858Z" fill="#D44242"/>
<path d="M2.46492 16.1992C2.46492 16.498 2.376 16.7518 2.28126 17.0197C2.1646 17.316 2.07042 17.6207 1.99953 17.9312C1.95881 18.1266 1.88567 18.5155 1.82002 18.9913C1.75437 19.4671 1.69786 20.0263 1.66711 20.5614C1.63636 21.0964 1.62556 21.6073 1.62639 21.9804C1.62722 22.3535 1.6347 22.5997 1.6347 22.5997C1.6347 22.5997 1.63469 22.8426 1.65298 23.2191C1.67126 23.5955 1.69952 24.1047 1.75521 24.6381C1.81089 25.1714 1.89149 25.7282 1.97709 26.1998C2.06269 26.6714 2.15494 27.0579 2.20397 27.2507C2.28864 27.558 2.39672 27.8582 2.52725 28.1488C2.63446 28.4126 2.73834 28.6614 2.74832 28.9602C2.74832 28.6614 2.83807 28.4076 2.93364 28.1397C3.05098 27.8436 3.14545 27.5388 3.2162 27.2282C3.25692 27.0328 3.33089 26.6439 3.39655 26.1681C3.4622 25.6923 3.51871 25.133 3.54863 24.598C3.57854 24.0629 3.58935 23.5521 3.58768 23.179C3.58602 22.8059 3.57854 22.5596 3.57854 22.5596C3.57854 22.5596 3.57854 22.3168 3.55943 21.9403C3.54032 21.5639 3.51206 21.0547 3.45555 20.5213C3.39904 19.9879 3.32008 19.4312 3.23365 18.9596C3.14722 18.488 3.05664 18.1015 3.00677 17.9087C2.92223 17.6016 2.81471 17.3014 2.68515 17.0105C2.57878 16.7468 2.47573 16.498 2.46492 16.1992Z" fill="#D44242"/>
<path d="M0.705688 28.0535C1.54256 27.9024 2.17002 28.1052 3.19139 28.0785C3.46896 28.0785 4.02245 28.056 4.68729 28.0268L5.75936 27.9659C6.13334 27.9425 6.51645 27.9124 6.89126 27.8824L7.96748 27.7922L8.88164 27.7088C9.40687 27.6604 9.74511 27.6203 9.74511 27.6203C9.74511 27.6203 10.0842 27.5911 10.6086 27.5368L11.5169 27.4366L12.5898 27.3081C12.9621 27.2588 13.3428 27.2104 13.7134 27.1579L14.7763 27.0009C15.4412 26.8933 15.983 26.8023 16.2548 26.7505C17.2604 26.5694 17.8338 26.2422 18.684 26.2196C18.2601 26.2196 17.9036 26.1178 17.5205 26.0176C17.0957 25.8965 16.6638 25.8021 16.2274 25.7347C15.9498 25.6988 15.3963 25.6245 14.7132 25.5794C14.3741 25.5552 14.0035 25.5327 13.622 25.5252C13.2405 25.5177 12.8483 25.5076 12.4643 25.5135C12.0804 25.5193 11.7064 25.5268 11.3607 25.546C11.015 25.5652 10.6959 25.5803 10.4283 25.6045C9.89056 25.6479 9.544 25.6838 9.544 25.6838C9.544 25.6838 9.19745 25.7188 8.66142 25.7856C8.39299 25.8173 8.07968 25.8691 7.73645 25.9183C7.39322 25.9676 7.02506 26.0368 6.64859 26.1111C6.27212 26.1854 5.889 26.2672 5.51752 26.3565C5.14604 26.4458 4.78785 26.5393 4.45958 26.6312C3.80305 26.8123 3.27283 26.9984 3.00773 27.0894C2.59393 27.2439 2.18984 27.4234 1.7977 27.627C1.45032 27.7956 1.12122 27.9642 0.705688 28.0535Z" fill="#D44242"/>
<path d="M10.8149 7.21645C11.0925 7.15635 11.3477 7.20061 11.6161 7.24151C11.9147 7.30095 12.2177 7.3361 12.5219 7.34667C12.7123 7.35084 13.0904 7.34666 13.545 7.32413C13.9996 7.30159 14.5331 7.249 15.0409 7.17805C15.5486 7.1071 16.0215 7.02197 16.3706 6.95018C16.7196 6.8784 16.9448 6.82583 16.9448 6.82583C16.9448 6.82583 17.1709 6.77741 17.5174 6.6906C17.864 6.60379 18.3319 6.47774 18.8164 6.32248C19.3009 6.16723 19.8037 5.98362 20.2292 5.81C20.6547 5.63638 20.9929 5.47609 21.1625 5.38845C21.4324 5.24659 21.6909 5.08361 21.9353 4.90099C22.1597 4.74657 22.3708 4.59631 22.6476 4.52953C22.37 4.58963 22.1157 4.54457 21.8472 4.50284C21.5495 4.44268 21.2474 4.40692 20.9439 4.39597C20.7544 4.3918 20.3763 4.39599 19.9209 4.4177C19.4654 4.4394 18.9327 4.49364 18.425 4.56459C17.9172 4.63554 17.4426 4.72235 17.0953 4.79413C16.7479 4.86591 16.5202 4.92019 16.5202 4.92019C16.5202 4.92019 16.2949 4.96859 15.9476 5.05624C15.6002 5.14388 15.1315 5.27077 14.6461 5.42603C14.1608 5.58128 13.658 5.76575 13.2333 5.93936C12.8086 6.11298 12.4704 6.27323 12.3009 6.36087C12.0319 6.50248 11.7743 6.66493 11.5305 6.8467C11.3011 7.00028 11.0909 7.14967 10.8149 7.21645Z" fill="#D44242"/>
<path d="M21.2977 16.6211C21.2487 16.889 21.114 17.0977 20.9761 17.3198C20.8107 17.5607 20.6656 17.815 20.5423 18.0802C20.4683 18.2471 20.3287 18.581 20.1824 18.9925C20.0362 19.404 19.8849 19.894 19.7669 20.3656C19.6489 20.8372 19.5458 21.2913 19.4818 21.6277C19.4179 21.964 19.3829 22.1819 19.3829 22.1819C19.3829 22.1819 19.3439 22.3989 19.2949 22.7378C19.2458 23.0767 19.1885 23.5366 19.1511 24.0233C19.1137 24.5099 19.0971 25.0249 19.1004 25.4589C19.1037 25.893 19.127 26.2578 19.1419 26.4389C19.1734 26.7305 19.229 27.0189 19.3082 27.3012C19.3663 27.5557 19.427 27.7978 19.3854 28.0666C19.4336 27.7995 19.5691 27.5908 19.7079 27.3687C19.8736 27.1277 20.0192 26.8734 20.1434 26.6083C20.2165 26.4414 20.3561 26.1075 20.5024 25.6952C20.6487 25.2828 20.8007 24.7945 20.9229 24.3221C21.0451 23.8496 21.1423 23.3972 21.2055 23.0608C21.2686 22.7244 21.3035 22.5058 21.3035 22.5058C21.3035 22.5058 21.3426 22.2887 21.3866 21.9498C21.4307 21.6109 21.4922 21.1502 21.5296 20.6644C21.567 20.1786 21.5836 19.6627 21.5794 19.2287C21.5753 18.7946 21.5537 18.4299 21.5379 18.2479C21.5077 17.9568 21.4535 17.6687 21.3758 17.3865C21.316 17.1319 21.257 16.8907 21.2977 16.6211Z" fill="#D44242"/>
<path d="M10.7011 7.57209C10.698 7.57361 10.6946 7.57447 10.6911 7.57462C10.6876 7.57476 10.6841 7.5742 10.6808 7.57295C10.6776 7.5717 10.6746 7.56981 10.6721 7.56736C10.6696 7.56492 10.6676 7.562 10.6662 7.55876C10.6612 7.54588 10.6612 7.53158 10.6662 7.5187C10.6721 7.49282 10.6961 7.47277 10.7119 7.47945C10.7527 7.49281 10.7618 7.54039 10.7601 7.58546C10.7585 7.63053 10.7493 7.68898 10.741 7.74323C10.7327 7.79749 10.7227 7.85425 10.7119 7.91017C10.655 8.15863 10.6206 8.41174 10.6089 8.66642C10.6089 8.82335 10.6089 9.1347 10.6288 9.50781C10.6488 9.88092 10.6962 10.3149 10.7601 10.7248C10.8241 11.1346 10.9014 11.5203 10.9662 11.8033C11.0311 12.0862 11.0793 12.2673 11.0793 12.2673C11.0793 12.2673 11.1233 12.4501 11.2006 12.7297C11.2779 13.0094 11.3926 13.3867 11.533 13.7765C11.6735 14.1663 11.8405 14.5695 11.9976 14.9075C12.1547 15.2456 12.3042 15.5194 12.3832 15.6588C12.5152 15.8765 12.6665 16.0818 12.8353 16.2722C12.9791 16.4509 13.1187 16.6187 13.1735 16.8449C13.1253 16.6178 13.1794 16.405 13.2309 16.1813C13.3007 15.9359 13.3469 15.6843 13.3688 15.43C13.3788 15.2723 13.3905 14.9593 13.3788 14.5828C13.3661 14.1711 13.3315 13.7604 13.2749 13.3524C13.2021 12.8261 13.098 12.3046 12.9633 11.7907C12.9633 11.7907 12.9192 11.6063 12.8386 11.3233C12.758 11.0403 12.6383 10.6614 12.4896 10.2699C12.3427 9.88486 12.1762 9.50763 11.9909 9.13969C11.8247 8.80581 11.6585 8.53454 11.5754 8.40183C11.435 8.18816 11.2744 7.98857 11.0959 7.80583C11.0568 7.76326 11.0203 7.72234 10.9837 7.6781C10.9471 7.63386 10.9164 7.59466 10.8765 7.54124C10.8558 7.51534 10.8318 7.4923 10.805 7.47277C10.791 7.46184 10.775 7.4539 10.7578 7.44945C10.7407 7.445 10.7228 7.44413 10.7053 7.44689C10.6941 7.45098 10.6839 7.45746 10.6755 7.46584C10.667 7.47422 10.6604 7.48431 10.6561 7.49547C10.6519 7.50663 10.6501 7.5186 10.6508 7.53052C10.6515 7.54244 10.6548 7.55405 10.6604 7.56459C10.6625 7.56789 10.6652 7.57073 10.6685 7.57291C10.6717 7.57509 10.6753 7.57656 10.6791 7.57727C10.683 7.57797 10.6869 7.57787 10.6907 7.57698C10.6945 7.5761 10.698 7.57442 10.7011 7.57209Z" fill="#D44242"/>
<path d="M21.7302 5.85547C21.7244 6.18017 21.6255 6.45225 21.5232 6.74022C21.3966 7.05817 21.2927 7.38482 21.2124 7.71766C21.1642 7.92717 21.0786 8.34704 20.9939 8.85788C20.9091 9.36872 20.8276 9.97138 20.7753 10.5482C20.7229 11.1249 20.6839 11.6758 20.6656 12.0823C20.6473 12.4888 20.6415 12.7501 20.6415 12.7501C20.6415 12.7501 20.6307 13.013 20.6249 13.4179C20.619 13.8227 20.6249 14.377 20.6423 14.9562C20.6598 15.5355 20.7071 16.1415 20.7595 16.6566C20.8119 17.1716 20.8742 17.5956 20.9099 17.8076C20.9695 18.1448 21.0528 18.4773 21.1592 18.8026C21.2423 19.0956 21.3255 19.3727 21.3146 19.6974C21.3354 19.3735 21.4493 19.1064 21.564 18.8234C21.7044 18.5103 21.8219 18.1872 21.9155 17.8568C21.9704 17.649 22.0734 17.2308 22.1723 16.72C22.2712 16.2091 22.3643 15.604 22.4283 15.0247C22.4923 14.4454 22.533 13.8903 22.5538 13.4813C22.5745 13.0723 22.5795 12.8069 22.5795 12.8069C22.5795 12.8069 22.5895 12.5431 22.5928 12.1324C22.5961 11.7218 22.5928 11.1675 22.5579 10.5849C22.523 10.0023 22.4698 9.39293 22.4017 8.87708C22.3335 8.36123 22.2562 7.93803 22.2139 7.72602C22.1401 7.39076 22.0424 7.0613 21.9213 6.74022C21.8282 6.45309 21.7318 6.18017 21.7302 5.85547Z" fill="#D44242"/>
<path d="M0.30045 16.293C0.337848 16.5784 0.274682 16.8322 0.212353 17.101C0.133122 17.3988 0.0775435 17.7025 0.046141 18.0091C0.0303509 18.2011 0.00375298 18.5851 0.000428741 19.0492C-0.0028955 19.5133 0.0128975 20.0583 0.0552815 20.5759C0.0976655 21.0934 0.157502 21.5834 0.211521 21.9439C0.26554 22.3045 0.308759 22.5366 0.308759 22.5366C0.308759 22.5366 0.346982 22.7686 0.417622 23.1259C0.488262 23.4831 0.596305 23.9664 0.73426 24.4664C0.872216 24.9664 1.03926 25.4856 1.20048 25.9205C1.36171 26.3553 1.51712 26.7068 1.59773 26.882C1.73301 27.1594 1.89031 27.4255 2.0681 27.6775C2.21769 27.9088 2.36397 28.1249 2.42546 28.407C2.37061 28.1232 2.41881 27.8662 2.46535 27.5957C2.53057 27.2934 2.57225 26.9864 2.59001 26.6776C2.59915 26.4856 2.60497 26.1041 2.59001 25.6433C2.57505 25.1826 2.54513 24.6417 2.49361 24.1317C2.44208 23.6217 2.37477 23.1359 2.31909 22.7795C2.2634 22.423 2.22019 22.1952 2.22019 22.1952C2.22019 22.1952 2.18279 21.9656 2.11298 21.6109C2.04318 21.2561 1.94678 20.7762 1.8163 20.2753C1.68582 19.7745 1.53789 19.2587 1.39328 18.8213C1.24868 18.3839 1.11156 18.0283 1.03843 17.8505C0.917508 17.5678 0.77497 17.2948 0.612097 17.0342C0.476634 16.803 0.344496 16.5776 0.30045 16.293Z" fill="#D44242"/>
</svg>
