<svg width="82" height="63" viewBox="0 0 82 63" fill="none" xmlns="http://www.w3.org/2000/svg">
<path fill-rule="evenodd" clip-rule="evenodd" d="M58.4075 4.85218C57.7264 5.37412 57.0656 5.92254 56.4269 6.49633C54.5813 8.14113 47.729 14.2925 43.5389 18.0551C43.3763 17.9283 43.2106 17.805 43.0422 17.6853C42.2672 17.1645 40.0058 15.4318 37.9035 13.7673C35.8013 12.1027 33.8137 10.7083 33.8137 10.7083C33.8137 10.7083 31.8441 9.2781 29.5923 7.77451C27.3405 6.27093 24.8793 4.75267 24.0317 4.26295C22.7571 3.50726 21.3212 3.06086 19.8429 2.96058C20.6831 4.17072 21.7734 5.19202 23.041 5.95643C23.8658 6.44603 26.3088 7.95506 28.5105 9.42243C30.7121 10.8898 32.6497 12.2929 32.6497 12.2929C32.6497 12.2929 34.6011 13.6916 36.6804 15.3111L37.1922 15.7098C39.1279 17.2182 41.1488 18.7931 41.915 19.2883C41.962 19.3215 42.0092 19.3541 42.0568 19.3861L40.1914 21.0616L38.9809 22.1449L19.4551 3.62401L4.5412 18.9822C3.82563 18.6184 3.06635 18.3399 2.27929 18.1548C2.60852 18.7959 2.99887 19.4026 3.44397 19.9671C2.92116 19.7403 2.39029 19.5309 1.85223 19.3394C2.21895 19.7645 2.59558 20.1808 2.98176 20.5881L1.23877 22.383L19.8265 40.0141C19.3996 40.5644 18.9904 41.1286 18.5995 41.7058C19.2399 41.3701 19.868 41.0135 20.4829 40.6366L41.3007 60.383L41.3289 60.354L41.8552 60.8532C41.8188 60.9133 41.7827 60.9736 41.7467 61.034C43.9408 59.8605 45.9503 58.3803 47.7135 56.6387C48.9014 55.481 52.4333 51.9808 55.5882 48.6853C58.7431 45.3899 61.5622 42.3533 61.5622 42.3533C61.5622 42.3533 64.3994 39.2809 67.3994 35.9083C70.3994 32.5356 73.6571 28.7193 74.7082 27.4486C75.1793 26.8919 75.6255 26.3161 76.0459 25.7229L80.5215 21.1141L61.9218 3.47169C62.3274 2.9447 62.7166 2.4049 63.0887 1.85303C61.806 2.53059 60.5715 3.28997 59.3926 4.1259C58.8895 4.2098 58.4116 4.41065 57.9997 4.71542C58.138 4.75466 58.2741 4.80032 58.4075 4.85218ZM60.3878 6.04915L27.618 39.7952C28.6138 40.8205 29.7657 42.0265 30.9177 43.3023C34.1632 46.8377 37.4512 50.899 38.5154 52.2706C40.0306 54.1866 41.2586 56.306 42.1622 58.5627L70.0847 29.8083C71.4782 28.1889 72.6209 26.8427 73.1804 26.1825C74.6192 24.4598 76.2583 22.912 78.0642 21.5707C76.8837 21.2401 75.8023 20.6235 74.9189 19.7761L67.9194 12.9229L64.8577 9.95022C64.5979 9.6959 64.3376 9.43792 64.0807 9.18326C63.5298 8.63724 62.9943 8.10646 62.512 7.65961C62.0021 7.19047 61.4563 6.76091 60.8795 6.3749L60.3878 6.04915ZM78.1806 21.4712L78.4871 21.1556L77.811 20.5143C77.9566 20.8234 78.0803 21.1431 78.1806 21.4712ZM22.5661 34.7882L23.6773 35.8585C23.7682 35.7762 23.8595 35.6944 23.9513 35.6132C25.9544 33.8055 33.9331 26.6626 37.9116 23.1018L20.6924 6.76889C20.4027 7.41385 20.0013 8.00713 19.503 8.52085C18.474 9.61197 13.2289 14.9501 13.2289 14.9501C13.2289 14.9501 8.92828 19.3685 7.3408 20.9769C8.43287 21.8919 10.0987 23.326 11.6341 24.7011C13.7234 26.5724 15.5529 28.3478 15.5529 28.3478C15.5529 28.3478 16.0409 28.8203 16.7813 29.5526C17.1511 29.8715 17.5188 30.1923 17.8809 30.5129C19.6598 32.0724 21.3342 33.6359 22.5661 34.7882ZM26.5315 38.6825L26.6184 38.7711L44.4072 20.4524C44.2528 20.4114 44.0997 20.3657 43.9482 20.3154C42.476 21.6337 41.5061 22.5019 41.5061 22.5019C41.5061 22.5019 27.9825 34.65 25.2659 37.0535C25.2027 37.1108 25.1393 37.1678 25.0756 37.2246L26.5315 38.6825ZM7.49608 24.6083C6.97641 24.2187 6.4678 23.8154 5.97077 23.3988C5.65624 23.5474 5.30341 23.6033 4.95447 23.5584C4.74967 23.5321 4.55203 23.4718 4.36939 23.3812L20.7307 38.9005C21.0835 38.4852 21.4468 38.0787 21.8203 37.6814C20.8827 36.6486 19.3663 35.0106 17.9079 33.492C17.14 32.6925 16.3897 31.9339 15.7655 31.3113C12.4059 28.3937 8.77429 25.5692 7.49608 24.6083ZM29.4434 44.6201C28.3242 43.3828 27.2121 42.2103 26.2441 41.21L24.7962 42.701L41.8536 58.8804L42.0061 58.7234C40.1445 57.1473 38.4514 55.3856 36.9544 53.4666C35.9176 52.1311 32.6432 48.1103 29.4434 44.6201ZM22.9734 38.945C22.5629 39.2528 22.145 39.5509 21.72 39.8389L23.7301 41.7455L24.926 40.514C24.219 40.0648 23.5639 39.5386 22.9734 38.945ZM45.2257 19.6094L48.496 16.2417C47.2518 17.3566 46.0489 18.4341 45.0019 19.3718C45.0775 19.4501 45.1521 19.5293 45.2257 19.6094ZM19.4966 5.63468L19.8057 5.9278C19.1628 6.23461 18.5753 6.64916 18.0705 7.15632C17.0141 8.21134 11.7964 13.5856 11.7964 13.5856C11.7964 13.5856 10.8737 14.5255 9.72587 15.6965L19.4966 5.63468ZM3.40944 22.2011C3.44834 22.3533 3.50703 22.4994 3.58359 22.6359L3.27318 22.3415L3.40944 22.2011Z" fill="#D54242"/>
</svg>
