<svg width="154" height="35" viewBox="0 0 154 35" fill="none" xmlns="http://www.w3.org/2000/svg">
<path d="M58.4538 28H55.6151L44.483 13.7788V28H41.2269V8.24057H44.0656L55.1698 22.434V8.24057H58.4538V28ZM76.9108 26.191C75.5193 27.5825 73.7939 28.2783 71.7344 28.2783C69.675 28.2783 67.9402 27.5825 66.5302 26.191C65.1387 24.781 64.4429 23.0648 64.4429 21.0425C64.4429 19.0201 65.1387 17.3132 66.5302 15.9217C67.9402 14.5116 69.675 13.8066 71.7344 13.8066C73.7939 13.8066 75.5193 14.5116 76.9108 15.9217C78.3209 17.3132 79.0259 19.0201 79.0259 21.0425C79.0259 23.0648 78.3209 24.781 76.9108 26.191ZM71.7344 25.4396C72.9404 25.4396 73.933 25.0222 74.7122 24.1873C75.51 23.3338 75.9089 22.2855 75.9089 21.0425C75.9089 19.7994 75.51 18.7604 74.7122 17.9255C73.933 17.072 72.9404 16.6453 71.7344 16.6453C70.5099 16.6453 69.4987 17.072 68.7009 17.9255C67.9217 18.7604 67.5321 19.7994 67.5321 21.0425C67.5321 22.2855 67.9217 23.3338 68.7009 24.1873C69.4987 25.0222 70.5099 25.4396 71.7344 25.4396ZM83.7242 28V25.5788L91.0157 16.8679H83.8355V14.0849H94.9676V16.534L87.6761 25.217H95.1903V28H83.7242ZM112.345 26.191C110.954 27.5825 109.228 28.2783 107.169 28.2783C105.11 28.2783 103.375 27.5825 101.965 26.191C100.573 24.781 99.8775 23.0648 99.8775 21.0425C99.8775 19.0201 100.573 17.3132 101.965 15.9217C103.375 14.5116 105.11 13.8066 107.169 13.8066C109.228 13.8066 110.954 14.5116 112.345 15.9217C113.755 17.3132 114.46 19.0201 114.46 21.0425C114.46 23.0648 113.755 24.781 112.345 26.191ZM107.169 25.4396C108.375 25.4396 109.368 25.0222 110.147 24.1873C110.945 23.3338 111.343 22.2855 111.343 21.0425C111.343 19.7994 110.945 18.7604 110.147 17.9255C109.368 17.072 108.375 16.6453 107.169 16.6453C105.944 16.6453 104.933 17.072 104.135 17.9255C103.356 18.7604 102.967 19.7994 102.967 21.0425C102.967 22.2855 103.356 23.3338 104.135 24.1873C104.933 25.0222 105.944 25.4396 107.169 25.4396ZM138.05 28V20.1797C138.05 19.048 137.837 18.1667 137.41 17.5359C137.002 16.905 136.39 16.5896 135.573 16.5896C134.59 16.5896 133.802 16.97 133.208 17.7307C132.614 18.4914 132.299 19.5582 132.262 20.9311V28H129.2V20.1797C129.2 19.048 128.987 18.1667 128.56 17.5359C128.152 16.905 127.54 16.5896 126.723 16.5896C125.703 16.5896 124.887 16.9885 124.274 17.7863C123.681 18.5841 123.384 19.7066 123.384 21.1538V28H120.322V14.0849H123.384V15.9774C124.237 14.5302 125.554 13.8066 127.336 13.8066C129.432 13.8066 130.87 14.725 131.649 16.5618C132.039 15.6898 132.633 15.0126 133.43 14.5302C134.247 14.0478 135.137 13.8066 136.102 13.8066C137.661 13.8066 138.885 14.3354 139.776 15.3929C140.666 16.4505 141.112 17.8791 141.112 19.6788V28H138.05ZM149.341 11.0514C148.784 11.0514 148.302 10.8566 147.894 10.467C147.485 10.0588 147.281 9.56715 147.281 8.99199C147.281 8.43538 147.485 7.96227 147.894 7.57265C148.302 7.16447 148.784 6.96038 149.341 6.96038C149.916 6.96038 150.398 7.16447 150.788 7.57265C151.178 7.96227 151.372 8.43538 151.372 8.99199C151.372 9.56715 151.178 10.0588 150.788 10.467C150.398 10.8566 149.916 11.0514 149.341 11.0514ZM147.81 28V14.0849H150.871V28H147.81Z" fill="#2E2E2E"/>
<path d="M1.50195 31.1596C1.65156 29.5399 1.86173 28.1175 2.10312 26.6425C2.34451 25.1676 2.62536 23.653 2.9053 21.7807C2.94936 21.4756 3.00718 21.0782 3.08887 20.4965C3.17055 19.9149 3.27794 19.1589 3.41194 18.1311L2.69695 18.7819C4.25726 18.8492 6.37285 18.9294 8.66833 18.9985C10.9638 19.0677 13.441 19.1257 15.7172 19.1663C17.9934 19.2069 20.0815 19.2299 21.5968 19.2419L24.0557 19.2585H24.3485L23.2838 18.1938C23.2838 18.2371 23.2976 19.3 23.3205 21.2174C23.337 22.1761 23.3572 23.3469 23.3802 24.7103C23.4031 26.0737 23.4426 27.6298 23.4894 29.3565L24.3953 28.3618C23.3939 28.4595 22.2035 28.5793 20.9442 28.7149C19.685 28.8504 18.356 29.0006 17.0765 29.1546C15.7971 29.3085 14.5663 29.4606 13.5108 29.5962L11.0051 29.9206C9.07768 30.1742 7.51738 30.4175 6.02866 30.6295C4.53995 30.8416 3.11549 31.0278 1.50195 31.1569C3.10815 31.0324 4.38667 31.0066 5.76157 30.9918C7.13648 30.9771 8.5949 30.9826 10.5214 30.9328L13.0583 30.86C14.1395 30.8268 15.4162 30.7826 16.7599 30.7291C18.1036 30.6756 19.5134 30.6093 20.8589 30.5447C22.2044 30.4802 23.4774 30.401 24.5495 30.3346L25.4498 30.2783L25.4554 29.3399C25.4664 27.6123 25.471 26.0562 25.4691 24.6928C25.4673 23.3294 25.46 22.1577 25.4563 21.199C25.4407 19.2825 25.4315 18.2186 25.4306 18.1753L25.4223 17.1143L24.3631 17.1078H24.0704L21.6106 17.0977C20.0962 17.0977 18.0109 17.0977 15.731 17.1106C13.4511 17.1235 10.9757 17.1576 8.68026 17.2028C6.38478 17.2479 4.26919 17.3042 2.70797 17.3549L2.02878 17.3761L1.99299 18.0057C1.92874 19.1304 1.89019 19.9545 1.86265 20.5795C1.83512 21.2045 1.8186 21.6286 1.80483 21.9549C1.72957 23.9498 1.73232 25.458 1.71305 26.861C1.69377 28.2641 1.64881 29.5482 1.50195 31.1596Z" fill="#D44242"/>
<path d="M11.7646 7.85954C12.7356 7.77278 13.7104 7.7365 14.6851 7.75079C15.6534 7.75079 16.664 7.7784 17.8874 7.75812C18.4381 7.7489 19.4376 7.72865 20.5941 7.69178C21.1723 7.67242 21.7873 7.64842 22.4169 7.61985C23.0465 7.59127 23.6771 7.55717 24.2883 7.51938L23.2842 6.61873C23.2328 8.85975 23.22 11.0482 23.2264 12.6744C23.2264 13.4874 23.2356 14.1604 23.2383 14.6287C23.2411 15.097 23.2475 15.3552 23.2475 15.3579L24.0736 14.2941L23.4742 14.4333L22.3398 14.7006C21.6321 14.8684 20.6427 15.1072 19.5156 15.3874C18.3886 15.6676 17.1293 15.9931 15.8719 16.3277C14.6144 16.6623 13.368 17.0071 12.2694 17.3215L13.279 18.0691C13.1615 17.0725 13.0431 16.2097 12.9431 15.5035C12.843 14.7974 12.7595 14.2507 12.7045 13.8958C12.5209 12.6974 12.3199 11.7147 12.1538 10.7615C11.9725 9.80166 11.8435 8.83261 11.7674 7.85864C11.8209 8.75365 11.8182 9.65116 11.7591 10.5458C11.7141 11.4151 11.6453 12.3527 11.6251 13.6091C11.6196 13.9779 11.6113 14.5614 11.6113 15.3302C11.6113 16.0991 11.6113 17.0578 11.6416 18.1797L11.6627 19.1089L12.6485 18.9246C13.7719 18.7171 15.0431 18.4719 16.3198 18.2129C17.5965 17.9538 18.8686 17.6847 20.0021 17.4348C21.1356 17.185 22.1278 16.9592 22.8372 16.7951L23.9717 16.5305L24.5701 16.3885L25.4118 16.1894L25.3989 15.3247C25.3989 15.3247 25.3989 15.0638 25.3879 14.5955C25.3769 14.1272 25.3631 13.4543 25.3448 12.6412C25.3053 11.0151 25.2309 8.8275 25.118 6.58924L25.0657 5.55859L24.113 5.68949C23.4403 5.78168 22.7473 5.88123 22.0699 5.98356C21.3926 6.08588 20.7318 6.19098 20.1223 6.29239C18.9035 6.49427 17.8966 6.6768 17.3523 6.7782C16.1399 7.00314 15.2413 7.2198 14.4024 7.40509C13.5332 7.61051 12.6523 7.76226 11.7646 7.85954Z" fill="#D44242"/>
<path d="M2.72203 17.8906C2.72203 18.2206 2.62383 18.5009 2.51919 18.7968C2.39035 19.124 2.28634 19.4605 2.20805 19.8035C2.16308 20.0192 2.0823 20.4487 2.0098 20.9742C1.93729 21.4997 1.87488 22.1173 1.84092 22.7082C1.80696 23.2991 1.79503 23.8633 1.79595 24.2754C1.79687 24.6874 1.80512 24.9594 1.80512 24.9594C1.80512 24.9594 1.80512 25.2276 1.82531 25.6434C1.8455 26.0591 1.87672 26.6215 1.93821 27.2105C1.99971 27.7996 2.08873 28.4145 2.18327 28.9353C2.2778 29.4562 2.37968 29.883 2.43383 30.0959C2.52735 30.4353 2.64671 30.7669 2.79087 31.0878C2.90927 31.3791 3.024 31.6539 3.03501 31.9839C3.03501 31.6539 3.13414 31.3736 3.23968 31.0777C3.36928 30.7507 3.47361 30.4142 3.55175 30.0711C3.59672 29.8553 3.67841 29.4257 3.75092 28.9003C3.82343 28.3748 3.88584 27.7572 3.91888 27.1663C3.95192 26.5754 3.96385 26.0112 3.96201 25.5991C3.96018 25.1871 3.95192 24.9151 3.95192 24.9151C3.95192 24.9151 3.95192 24.6469 3.93081 24.2311C3.9097 23.8154 3.87849 23.253 3.81608 22.664C3.75367 22.0749 3.66647 21.46 3.57102 20.9392C3.47556 20.4183 3.37552 19.9915 3.32045 19.7786C3.22708 19.4394 3.10834 19.1078 2.96526 18.7866C2.84777 18.4953 2.73396 18.2206 2.72203 17.8906Z" fill="#D44242"/>
<path d="M0.779297 30.9829C1.70355 30.8161 2.39651 31.0401 3.52452 31.0106C3.83107 31.0106 4.44234 30.9857 5.1766 30.9535L6.3606 30.8862C6.77362 30.8603 7.19674 30.8272 7.61068 30.794L8.79926 30.6944L9.80886 30.6022C10.3889 30.5488 10.7625 30.5045 10.7625 30.5045C10.7625 30.5045 11.137 30.4722 11.7161 30.4123L12.7193 30.3017L13.9042 30.1597C14.3154 30.1053 14.7358 30.0519 15.1451 29.9938L16.319 29.8205C17.0533 29.7016 17.6517 29.6011 17.9518 29.5439C19.0624 29.3439 19.6957 28.9825 20.6346 28.9576C20.1665 28.9576 19.7728 28.8451 19.3497 28.7345C18.8805 28.6008 18.4035 28.4964 17.9215 28.422C17.615 28.3824 17.0037 28.3003 16.2492 28.2505C15.8748 28.2238 15.4654 28.1989 15.0441 28.1906C14.6229 28.1823 14.1897 28.1713 13.7656 28.1777C13.3416 28.1842 12.9286 28.1925 12.5467 28.2137C12.1649 28.2349 11.8125 28.2515 11.5169 28.2782C10.9231 28.3262 10.5404 28.3658 10.5404 28.3658C10.5404 28.3658 10.1576 28.4045 9.56565 28.4783C9.26919 28.5133 8.92317 28.5704 8.54411 28.6248C8.16505 28.6792 7.75844 28.7557 7.34267 28.8378C6.92689 28.9198 6.50378 29.0102 6.09351 29.1088C5.68324 29.2074 5.28766 29.3107 4.92512 29.4121C4.20004 29.6121 3.61447 29.8177 3.32168 29.9182C2.86468 30.0888 2.4184 30.287 1.98532 30.5119C1.60167 30.6981 1.23821 30.8843 0.779297 30.9829Z" fill="#D44242"/>
<path d="M11.9443 7.9681C12.2509 7.90173 12.5327 7.95061 12.8291 7.99578C13.159 8.06142 13.4935 8.10024 13.8296 8.11192C14.0397 8.11653 14.4573 8.11191 14.9594 8.08702C15.4614 8.06213 16.0507 8.00406 16.6115 7.9257C17.1723 7.84734 17.6945 7.75331 18.08 7.67404C18.4655 7.59476 18.7142 7.5367 18.7142 7.5367C18.7142 7.5367 18.9639 7.48322 19.3466 7.38735C19.7293 7.29148 20.2461 7.15226 20.7812 6.9808C21.3163 6.80934 21.8715 6.60656 22.3415 6.41481C22.8114 6.22307 23.1849 6.04605 23.3722 5.94925C23.6703 5.79258 23.9558 5.61259 24.2258 5.4109C24.4736 5.24036 24.7067 5.07441 25.0123 5.00066C24.7058 5.06703 24.4249 5.01727 24.1285 4.97118C23.7996 4.90474 23.466 4.86525 23.1308 4.85316C22.9215 4.84855 22.5039 4.85318 22.001 4.87715C21.498 4.90112 20.9097 4.96101 20.3489 5.03937C19.7881 5.11773 19.264 5.2136 18.8804 5.29288C18.4967 5.37216 18.2452 5.4321 18.2452 5.4321C18.2452 5.4321 17.9965 5.48556 17.6128 5.58236C17.2292 5.67915 16.7115 5.81929 16.1755 5.99075C15.6395 6.16222 15.0842 6.36594 14.6152 6.55768C14.1462 6.74943 13.7726 6.92641 13.5854 7.0232C13.2884 7.1796 13.0039 7.35901 12.7346 7.55975C12.4813 7.72937 12.2491 7.89435 11.9443 7.9681Z" fill="#D44242"/>
<path d="M23.5209 18.3555C23.4668 18.6514 23.3181 18.8819 23.1657 19.1271C22.9831 19.3931 22.8228 19.674 22.6866 19.9669C22.605 20.1512 22.4507 20.52 22.2892 20.9745C22.1277 21.4289 21.9606 21.97 21.8303 22.4909C21.7 23.0117 21.5862 23.5132 21.5155 23.8847C21.4448 24.2562 21.4063 24.4969 21.4063 24.4969C21.4063 24.4969 21.3631 24.7365 21.309 25.1108C21.2548 25.4851 21.1915 25.993 21.1502 26.5305C21.1089 27.0679 21.0905 27.6367 21.0942 28.116C21.0979 28.5954 21.1236 28.9983 21.1401 29.1983C21.1749 29.5203 21.2363 29.8388 21.3237 30.1506C21.3879 30.4318 21.4549 30.6991 21.409 30.9959C21.4623 30.7009 21.6119 30.4704 21.7651 30.2252C21.9481 29.959 22.109 29.6781 22.2461 29.3854C22.3268 29.2011 22.481 28.8323 22.6426 28.3769C22.8041 27.9215 22.9721 27.3822 23.107 26.8605C23.2419 26.3387 23.3493 25.8391 23.4191 25.4676C23.4888 25.096 23.5274 24.8545 23.5274 24.8545C23.5274 24.8545 23.5705 24.6148 23.6191 24.2406C23.6678 23.8663 23.7357 23.3574 23.777 22.8209C23.8183 22.2844 23.8367 21.7147 23.8321 21.2353C23.8275 20.756 23.8036 20.3531 23.7862 20.1521C23.7529 19.8306 23.693 19.5124 23.6072 19.2008C23.5411 18.9196 23.476 18.6532 23.5209 18.3555Z" fill="#D44242"/>
<path d="M11.8187 8.36267C11.8152 8.36435 11.8114 8.3653 11.8076 8.36546C11.8037 8.36562 11.7999 8.365 11.7963 8.36362C11.7926 8.36224 11.7894 8.36015 11.7866 8.35745C11.7838 8.35475 11.7816 8.35153 11.7801 8.34795C11.7746 8.33373 11.7746 8.31793 11.7801 8.30371C11.7866 8.27513 11.8132 8.25298 11.8306 8.26036C11.8756 8.27511 11.8857 8.32766 11.8838 8.37744C11.882 8.42722 11.8719 8.49176 11.8627 8.55168C11.8535 8.6116 11.8425 8.67429 11.8306 8.73605C11.7678 9.01045 11.7297 9.28999 11.7168 9.57125C11.7168 9.74456 11.7168 10.0884 11.7388 10.5005C11.7609 10.9126 11.8132 11.3919 11.8838 11.8445C11.9545 12.2971 12.0399 12.7231 12.1115 13.0356C12.1831 13.3481 12.2363 13.5481 12.2363 13.5481C12.2363 13.5481 12.2849 13.75 12.3703 14.0588C12.4556 14.3676 12.5823 14.7843 12.7374 15.2148C12.8925 15.6453 13.077 16.0906 13.2505 16.464C13.424 16.8373 13.5892 17.1397 13.6764 17.2936C13.8221 17.5341 13.9892 17.7609 14.1757 17.9711C14.3344 18.1684 14.4886 18.3538 14.5492 18.6036C14.496 18.3528 14.5556 18.1177 14.6125 17.8707C14.6896 17.5997 14.7407 17.3218 14.7649 17.041C14.7759 16.8668 14.7888 16.5211 14.7759 16.1053C14.7619 15.6507 14.7236 15.1971 14.6612 14.7465C14.5807 14.1652 14.4658 13.5893 14.317 13.0217C14.317 13.0217 14.2684 12.818 14.1793 12.5055C14.0903 12.193 13.9581 11.7745 13.7938 11.3421C13.6316 10.9169 13.4478 10.5003 13.2431 10.0939C13.0596 9.7252 12.876 9.42561 12.7842 9.27903C12.6291 9.04307 12.4518 8.82264 12.2546 8.62082C12.2115 8.5738 12.1711 8.52861 12.1307 8.47975C12.0904 8.43089 12.0564 8.3876 12.0123 8.3286C11.9895 8.3 11.9629 8.27455 11.9334 8.25298C11.918 8.24091 11.9002 8.23215 11.8813 8.22723C11.8623 8.22232 11.8426 8.22135 11.8233 8.22439C11.8109 8.22891 11.7997 8.23607 11.7903 8.24533C11.781 8.25458 11.7737 8.26573 11.769 8.27805C11.7643 8.29037 11.7623 8.30359 11.7631 8.31676C11.7639 8.32993 11.7675 8.34275 11.7737 8.35439C11.776 8.35803 11.779 8.36116 11.7826 8.36357C11.7862 8.36598 11.7902 8.36761 11.7944 8.36839C11.7986 8.36917 11.8029 8.36905 11.8071 8.36807C11.8113 8.36709 11.8152 8.36525 11.8187 8.36267Z" fill="#D44242"/>
<path d="M23.9985 6.46484C23.9921 6.82344 23.8829 7.12393 23.77 7.44197C23.6301 7.79312 23.5153 8.15387 23.4267 8.52146C23.3735 8.75284 23.2789 9.21655 23.1853 9.78072C23.0917 10.3449 23.0018 11.0105 22.9439 11.6475C22.8861 12.2845 22.843 12.8929 22.8228 13.3418C22.8026 13.7908 22.7962 14.0793 22.7962 14.0793C22.7962 14.0793 22.7842 14.3697 22.7778 14.8168C22.7714 15.2639 22.7778 15.876 22.7971 16.5158C22.8163 17.1556 22.8687 17.8248 22.9265 18.3936C22.9843 18.9624 23.0532 19.4307 23.0926 19.6649C23.1584 20.0372 23.2504 20.4044 23.368 20.7637C23.4598 21.0873 23.5515 21.3933 23.5396 21.7519C23.5625 21.3942 23.6883 21.0993 23.815 20.7867C23.97 20.4409 24.0998 20.0841 24.2032 19.7192C24.2638 19.4897 24.3776 19.0278 24.4868 18.4637C24.596 17.8995 24.6988 17.2311 24.7695 16.5914C24.8402 15.9516 24.8851 15.3386 24.9081 14.8869C24.931 14.4352 24.9365 14.142 24.9365 14.142C24.9365 14.142 24.9476 13.8507 24.9512 13.3972C24.9549 12.9436 24.9512 12.3315 24.9127 11.688C24.8741 11.0446 24.8154 10.3716 24.7401 9.80193C24.6649 9.23222 24.5795 8.76484 24.5327 8.53069C24.4513 8.16043 24.3433 7.79657 24.2096 7.44197C24.1068 7.12485 24.0004 6.82344 23.9985 6.46484Z" fill="#D44242"/>
<path d="M0.331819 17.9961C0.373121 18.3114 0.303361 18.5916 0.234524 18.8885C0.14702 19.2174 0.0856394 19.5528 0.0509584 19.8914C0.0335197 20.1035 0.00414481 20.5275 0.000473503 21.0401C-0.0031978 21.5526 0.014244 22.1546 0.0610531 22.7261C0.107862 23.2977 0.173946 23.8388 0.233605 24.2371C0.293264 24.6353 0.340995 24.8915 0.340995 24.8915C0.340995 24.8915 0.383209 25.1478 0.461224 25.5424C0.539239 25.9369 0.658562 26.4707 0.810921 27.0229C0.96328 27.5751 1.14776 28.1485 1.32582 28.6287C1.50388 29.109 1.67551 29.4971 1.76454 29.6907C1.91395 29.9971 2.08767 30.2909 2.28402 30.5693C2.44923 30.8246 2.61078 31.0634 2.67869 31.3749C2.61812 31.0615 2.67135 30.7776 2.72275 30.4789C2.79477 30.145 2.8408 29.806 2.86042 29.4649C2.87052 29.2529 2.87694 28.8316 2.86042 28.3227C2.8439 27.8138 2.81086 27.2165 2.75395 26.6532C2.69705 26.09 2.6227 25.5534 2.56121 25.1598C2.49972 24.7662 2.45199 24.5145 2.45199 24.5145C2.45199 24.5145 2.41069 24.261 2.33359 23.8692C2.25649 23.4774 2.15003 22.9474 2.00593 22.3943C1.86183 21.8411 1.69845 21.2714 1.53875 20.7884C1.37905 20.3053 1.22762 19.9126 1.14685 19.7163C1.0133 19.404 0.855881 19.1026 0.676003 18.8147C0.526398 18.5593 0.380463 18.3104 0.331819 17.9961Z" fill="#D44242"/>
</svg>
