<svg width="260" height="413" viewBox="0 0 260 413" fill="none" xmlns="http://www.w3.org/2000/svg">
<path d="M140.474 263.07C154.99 253.164 172.952 250.183 190.224 250.825C203.178 251.283 217.648 253.255 229.316 259.217C229.408 259.263 230.51 259.951 230.556 259.905C230.602 259.859 229.5 258.484 229.729 258.3C229.637 258.346 229.683 259.263 229.683 259.401C229.546 260.777 229.408 262.152 229.224 263.482C228.581 268.619 227.8 273.755 227.065 278.846C224.676 294.714 222.104 310.582 219.485 326.45C216.408 345.115 213.238 363.735 209.793 382.309C210.941 381.85 212.136 381.345 213.284 380.887C206.439 377.447 199.273 374.42 191.786 372.54C184.39 370.66 176.856 370.293 169.231 370.568C153.245 371.118 137.305 373.366 121.732 376.805C122.697 377.585 123.708 378.365 124.672 379.144C127.658 339.795 132.573 300.492 141.026 261.923C141.669 258.942 137.121 257.658 136.432 260.639C127.888 299.621 122.927 339.337 119.895 379.052C119.757 380.612 121.411 381.712 122.835 381.391C137.672 378.089 152.831 375.98 168.036 375.338C175.432 375.017 182.736 375.2 189.948 376.989C197.206 378.777 204.143 381.621 210.803 384.969C212.044 385.611 214.019 385.152 214.295 383.547C220.588 349.38 226.284 315.03 231.475 280.68C232.302 275.177 233.129 269.72 233.818 264.216C234.047 262.244 235.196 258.438 233.864 256.603C232.669 254.952 229.5 254.081 227.708 253.347C224.86 252.201 221.92 251.238 218.98 250.412C211.63 248.394 204.051 247.11 196.425 246.468C176.489 244.725 154.944 247.385 138.086 258.896C135.651 260.593 137.948 264.767 140.474 263.07Z" fill="#2E2E2E"/>
<path d="M139.647 259.355C130.414 252.889 120.951 246.652 110.615 242.02C99.9576 237.204 88.5653 234.269 77.0352 232.343C68.5369 230.921 59.9467 229.958 51.3107 229.775C49.7029 229.729 47.5439 229.454 45.9361 229.958C43.6852 230.646 44.0067 233.214 43.4555 235.049C40.2859 245.092 39.3672 256.145 38.035 266.555C35.9679 283.065 34.406 299.621 33.1657 316.223C31.8335 334.017 30.777 351.857 30.8689 369.697C30.8689 371.577 32.7523 372.54 34.406 371.807C48.0033 365.661 63.7136 366.12 78.1377 368.505C92.9293 370.981 107.307 375.613 121.364 380.887C124.212 381.942 125.498 377.402 122.65 376.301C107.813 370.752 92.5618 365.845 76.8055 363.506C61.8761 361.304 46.1658 361.304 32.1551 367.633C33.3495 368.321 34.4978 369.055 35.6922 369.743C35.5544 349.335 36.9325 328.881 38.5862 308.564C40.1481 289.257 41.9855 269.903 45.1092 250.779C46.0739 244.771 47.452 238.81 48.7841 232.939C48.4166 233.444 48.0032 233.902 47.6357 234.407C47.1764 234.728 46.9007 234.59 47.8654 234.544C48.7841 234.499 49.6569 234.499 50.5757 234.544C53.2859 234.59 55.9962 234.728 58.7065 234.911C67.4804 235.553 76.2083 236.792 84.8444 238.672C94.6289 240.827 104.046 243.854 113.004 248.394C121.548 252.705 129.495 258.025 137.304 263.483C139.739 265.226 142.173 261.098 139.647 259.355Z" fill="#2E2E2E"/>
<path d="M45.1083 235.417C40.6065 234.867 36.1966 235.004 31.7407 235.784C30.9598 235.922 30.2249 236.701 30.0411 237.435C20.4863 276.921 18.557 318.334 20.8538 358.783C21.1753 364.608 21.5888 370.432 22.2319 376.211C22.5075 378.733 22.4616 381.806 23.3344 384.236C24.5287 387.676 29.2602 385.566 31.7407 384.97C38.6312 383.319 45.4758 381.668 52.4122 380.246C61.4617 378.366 70.5112 376.715 79.7905 376.669C93.2499 376.532 106.526 378.687 119.618 381.806C122.603 382.494 123.89 377.953 120.904 377.22C101.564 372.634 81.8576 370.295 62.1508 373.597C54.4335 374.881 46.808 376.578 39.1825 378.366C36.3344 379.054 33.4863 379.696 30.6383 380.384C29.8114 380.568 26.1365 380.843 25.6312 381.531C25.9528 381.118 27.5605 382.952 27.928 382.952C28.2955 382.906 27.8362 383.365 27.974 382.952C28.0199 382.723 27.8361 382.127 27.7902 381.852C27.5605 380.476 27.4227 379.146 27.239 377.77C26.6878 372.771 26.2743 367.772 25.9527 362.773C24.8503 345.805 24.6206 328.79 25.2637 311.822C26.1824 287.24 28.9386 262.704 34.7266 238.765C34.1754 239.315 33.5782 239.866 33.027 240.416C37.0694 239.728 41.1118 239.682 45.2002 240.187C48.0483 240.554 48.0942 235.83 45.1083 235.417Z" fill="#2E2E2E"/>
<path d="M28.7561 243.028C25.4028 243.716 22.0494 243.945 18.6501 243.762C17.3179 243.67 16.3533 244.862 16.2614 246.101C12.9539 283.111 8.36025 320.166 8.13057 357.406C8.08463 367.174 8.31435 376.942 9.14121 386.665C9.27902 388.408 10.9787 389.646 12.6783 388.775C16.491 386.803 20.3498 385.381 24.4841 384.188C27.424 383.317 26.2756 378.731 23.3356 379.602C18.8338 380.886 14.5158 382.492 10.3815 384.647C11.5758 385.335 12.7243 386.069 13.9186 386.757C10.9327 350.389 14.6536 313.608 18.1448 277.424C19.1554 267.013 20.166 256.649 21.0847 246.238C20.3038 247.018 19.4769 247.798 18.696 248.577C22.5087 248.807 26.2756 248.531 29.9965 247.706C32.9364 247.018 31.742 242.432 28.7561 243.028Z" fill="#2E2E2E"/>
<path d="M16.5833 248.9C14.4702 249.129 12.4031 249.358 10.29 249.588C8.91192 249.725 8.03909 250.505 7.90128 251.927C3.5373 289.12 -0.826639 326.588 0.82708 364.103C1.28645 374.559 2.25107 384.97 3.76698 395.334C3.95073 396.618 5.46666 397.306 6.66101 397.077C24.5304 393.362 42.3997 389.556 60.4528 386.896C79.7462 384.098 99.1774 382.86 118.655 383.456C121.732 383.548 121.778 378.824 118.7 378.733C80.2515 377.54 42.951 384.695 5.46667 392.445C6.43134 393.041 7.39597 393.592 8.36064 394.188C3.03199 357.407 5.237 320.076 9.09568 283.25C10.1982 272.793 11.3925 262.383 12.6328 251.972C11.8519 252.752 11.025 253.532 10.2441 254.311C12.3572 254.082 14.4243 253.853 16.5374 253.623C19.5233 253.302 19.6151 248.533 16.5833 248.9Z" fill="#2E2E2E"/>
<path d="M118.472 383.227C153.797 386.804 188.847 393.041 223.253 401.892C224.54 402.213 225.78 401.48 226.193 400.241C232.579 380.75 235.932 360.48 239.699 340.347C243.512 319.939 247.278 299.485 251.091 279.076C251.826 275.224 253.572 270.684 249.07 268.712C243.833 266.419 238.137 264.859 232.762 262.979C229.868 261.97 228.628 266.556 231.476 267.565C234.324 268.574 237.126 269.537 239.974 270.546C241.398 271.051 242.822 271.555 244.201 272.014C244.798 272.243 247.095 272.748 247.324 273.16C247.692 273.848 246.635 276.967 246.452 277.792C246.176 279.352 245.9 280.865 245.579 282.424C245.027 285.497 244.43 288.57 243.879 291.688C241.674 303.658 239.423 315.582 237.218 327.552C232.762 351.445 229.179 375.843 221.6 399.003C222.564 398.453 223.529 397.902 224.54 397.352C189.72 388.409 154.303 382.126 118.564 378.503C115.486 378.182 115.44 382.906 118.472 383.227Z" fill="#2E2E2E"/>
<path d="M230.141 272.885C232.162 273.527 234.138 274.353 236.113 275.132C237.216 275.591 238.318 276.049 239.42 276.554C239.834 276.737 240.247 277.013 240.661 277.15C241.534 277.425 241.212 278.021 240.753 276.921C240.707 276.325 240.615 275.728 240.569 275.132C235.332 306.318 228.212 337.32 220.586 368.047C219.3 373.275 217.968 378.457 216.498 383.64C216.085 385.107 215.671 386.529 215.166 387.95C214.982 388.501 215.028 388.547 214.936 388.547C214.569 388.501 216.039 388.042 215.947 387.813C215.901 387.767 212.823 387.4 212.593 387.354C200.972 384.924 189.35 382.447 177.636 380.338C168.862 378.778 160.042 377.357 151.13 376.531C144.469 375.889 137.303 375.293 130.734 376.898C127.748 377.632 128.897 382.218 131.883 381.484C138.36 379.879 145.526 380.704 152.095 381.346C161.053 382.218 169.964 383.731 178.83 385.336C186.456 386.758 194.035 388.317 201.615 389.923C203.911 390.427 206.208 390.886 208.505 391.344C211.169 391.895 215.396 393.591 217.968 392.078C220.265 390.702 220.862 385.795 221.505 383.502C223.251 377.219 224.813 370.89 226.374 364.561C230.784 346.538 234.827 328.423 238.64 310.262C240.661 300.677 242.59 291.046 244.336 281.369C244.657 279.627 245.53 277.196 245.254 275.453C245.025 273.986 243.83 273.344 242.59 272.747C239.053 271.005 235.286 269.445 231.519 268.299C228.488 267.428 227.201 272.014 230.141 272.885Z" fill="#2E2E2E"/>
<path d="M248.841 281.918C250.219 282.79 251.735 283.386 253.205 284.12C253.388 284.211 255.272 285.312 255.272 285.312C255.318 285.312 254.812 284.349 254.95 284.257C254.858 284.303 254.858 285.541 254.858 285.679C254.813 286.275 254.721 286.734 254.537 287.834C254.353 289.073 254.123 290.265 253.894 291.457C252.516 299.024 250.954 306.546 249.346 314.021C245.12 334.292 240.664 354.562 236.116 374.741C234.325 382.767 232.487 390.792 230.604 398.818C230.007 401.295 229.455 403.771 228.858 406.202C228.675 406.89 228.491 407.578 228.307 408.311C228.077 409.229 227.756 409.091 228.215 408.77C228.445 408.587 229.272 407.669 229.272 407.853C229.272 407.853 228.904 407.945 228.858 407.945C228.996 408.036 228.629 407.99 228.031 407.945C226.883 407.899 225.781 407.807 224.678 407.669C221.095 407.165 217.558 406.385 214.067 405.56C203.823 403.175 193.671 400.286 183.565 397.351C165.006 391.939 146.494 386.252 128.211 379.969C127.292 379.648 126.374 379.327 125.455 379.006C122.607 377.951 121.321 382.537 124.169 383.592C141.257 389.875 158.897 395.058 176.353 400.24C187.286 403.496 198.264 406.66 209.335 409.366C213.378 410.375 217.42 411.292 221.508 412.026C224.035 412.439 226.791 413.035 229.364 412.714C233.222 412.21 233.314 407.715 234.049 404.643C235.795 397.305 237.494 389.921 239.148 382.537C243.88 361.579 248.519 340.575 252.975 319.524C254.721 311.269 256.466 303.014 258.028 294.713C258.487 292.283 258.947 289.852 259.314 287.376C259.498 286 259.957 284.303 259.314 282.973C257.936 280.175 253.618 279.442 251.184 277.882C248.703 276.14 246.268 280.221 248.841 281.918Z" fill="#2E2E2E"/>
<path d="M36.5223 391.435C49.9358 389.326 63.3953 389.693 76.9006 390.61C79.8865 390.793 82.8724 391.023 85.8583 391.206C89.4413 391.435 93.254 391.344 96.7912 391.986C102.809 393.086 107.081 398.314 112.318 401.112C117.187 403.726 122.699 404.368 128.166 403.497C134.046 402.534 139.42 399.048 145.3 398.544C150.675 398.085 156.095 399.828 161.286 401.02C166.569 402.213 171.806 403.359 177.134 404.46C189.262 406.982 201.389 409.367 213.654 411.247C216.64 411.706 217.972 407.166 214.94 406.661C203.915 404.964 192.983 402.855 182.05 400.608C176.583 399.507 171.117 398.314 165.65 397.122C160.505 395.976 155.406 394.508 150.17 393.912C138.088 392.582 127.201 403.267 115.212 397.26C109.883 394.6 105.841 389.876 100.053 387.95C97.2965 387.033 94.2647 387.033 91.3707 386.849C87.8335 386.62 84.2505 386.391 80.7133 386.161C65.5542 385.106 50.533 384.51 35.4657 386.895C32.342 387.308 33.4905 391.894 36.5223 391.435Z" fill="#2E2E2E"/>
<path d="M110.568 383.914C112.543 388.179 116.677 391.527 121.363 392.444C126.186 393.362 131.147 391.986 134.822 388.73C137.119 386.712 133.812 383.318 131.515 385.336C129.08 387.491 125.543 388.546 122.327 387.812C118.928 387.079 116.218 384.786 114.748 381.621C114.197 380.475 112.589 380.108 111.532 380.704C110.292 381.346 110.016 382.768 110.568 383.914Z" fill="#2E2E2E"/>
<path d="M69.1362 245.918C79.426 247.294 89.4862 249.816 99.5003 252.522C103.864 253.669 108.504 254.448 112.73 256.191C115.211 257.2 116.589 258.576 116.405 261.373C116.313 263.208 115.808 264.996 115.578 266.831C115.257 269.674 114.889 272.518 114.062 275.269C113.649 276.691 113.373 277.883 112.133 278.755C110.801 279.672 109.377 279.397 107.815 279.213C101.981 278.525 96.2389 277.471 90.4508 276.462C85.1222 275.499 79.7935 274.49 74.4649 273.71C70.7899 273.16 65.8288 273.206 62.797 270.821C59.168 267.977 59.7652 261.649 60.3164 257.613C60.9136 253.348 61.6026 245.781 67.3906 246.193C68.9065 246.285 68.9525 243.946 67.4366 243.809C62.6592 243.442 60.3623 246.835 59.3058 250.963C58.1114 255.457 57.2386 260.273 57.7439 264.905C58.2492 269.262 60.0867 272.701 64.3129 274.215C66.3341 274.948 68.4472 275.178 70.5143 275.499C74.2811 276.049 78.0479 276.645 81.8147 277.287C89.0268 278.571 96.1929 279.947 103.451 281.002C107.723 281.644 113.235 283.249 115.486 278.388C116.681 275.866 117.186 272.885 117.553 270.179C117.967 267.29 118.564 264.309 118.748 261.419C119.069 256.741 115.854 254.724 111.857 253.394C105.242 251.238 98.26 249.725 91.5074 248.028C84.1116 246.148 76.7158 244.634 69.1822 243.625C67.6203 243.35 67.6203 245.735 69.1362 245.918Z" fill="#2E2E2E"/>
<path d="M149.156 324.477C158.251 322.368 167.531 321.542 176.856 322.093C181.22 322.368 186.686 322.322 190.637 324.432C194.955 326.725 195.047 332.411 195.23 336.722C195.414 341.217 195.828 347.316 193.347 351.214C190.775 355.204 185.446 355.755 181.174 355.571C176.488 355.342 171.803 354.746 167.117 354.333C162.524 353.92 157.608 353.874 153.107 352.865C150.258 352.223 148.145 350.756 147.181 347.867C146.354 345.39 145.986 342.684 145.757 340.07C145.527 337.731 145.527 335.346 145.665 333.008C145.848 330.393 145.848 326.541 148.375 324.982C149.661 324.202 148.513 322.093 147.227 322.918C143.23 325.395 143.23 331.173 143.184 335.346C143.138 340.07 143.414 345.895 145.573 350.251C147.686 354.562 152.463 355.342 156.781 355.755C162.983 356.351 169.184 356.901 175.386 357.497C180.577 358.002 186.089 358.736 190.958 356.351C195.184 354.241 196.93 350.343 197.389 345.849C197.987 340.437 198.124 334.292 196.7 328.972C195.46 324.34 192.153 321.909 187.605 320.992C174.88 318.424 161.191 319.295 148.605 322.184C147.089 322.551 147.686 324.844 149.156 324.477Z" fill="#2E2E2E"/>
<path d="M151.225 274.764C170.564 270.041 190.409 270.041 210.07 272.655C211.586 272.838 211.586 270.499 210.116 270.27C190.271 267.61 170.197 267.702 150.674 272.471C149.158 272.792 149.755 275.085 151.225 274.764Z" fill="#2E2E2E"/>
<path d="M150.582 285.22C170.335 283.615 189.996 281.964 209.703 284.624C211.219 284.807 211.219 282.468 209.749 282.239C190.042 279.579 170.381 281.23 150.628 282.835C149.066 282.973 149.02 285.357 150.582 285.22Z" fill="#2E2E2E"/>
<path d="M148.836 299.071C168.038 296.594 187.515 296.594 206.762 298.933C208.278 299.117 208.278 296.732 206.808 296.549C187.377 294.164 167.716 294.255 148.285 296.778C146.723 296.961 147.32 299.254 148.836 299.071Z" fill="#2E2E2E"/>
<path d="M147.364 311.773C167.025 310.168 186.778 310.581 206.347 313.057C207.863 313.241 207.863 310.856 206.393 310.673C186.824 308.196 167.071 307.738 147.41 309.389C145.894 309.526 145.848 311.911 147.364 311.773Z" fill="#2E2E2E"/>
<path d="M58.1103 284.808C78.0468 285.541 98.0293 288.11 116.68 295.493C118.104 296.043 118.747 293.75 117.323 293.2C98.5346 285.771 78.2765 283.157 58.1562 282.423C56.6403 282.377 56.5944 284.762 58.1103 284.808Z" fill="#2E2E2E"/>
<path d="M57.3752 295.907C76.7146 296.045 95.6405 300.86 113.831 307.143C115.255 307.647 115.898 305.354 114.474 304.85C96.1457 298.475 76.9442 293.66 57.4212 293.522C55.8593 293.522 55.8134 295.907 57.3752 295.907Z" fill="#2E2E2E"/>
<path d="M56.5492 309.206C76.5776 310.169 96.3304 314.388 115.578 319.846C117.048 320.258 117.691 317.965 116.221 317.553C96.7897 312.049 76.8073 307.83 56.5952 306.821C55.0333 306.775 55.0333 309.114 56.5492 309.206Z" fill="#2E2E2E"/>
<path d="M56.5947 322.506C77.0824 322.827 96.8811 328.101 116.404 333.788C117.874 334.201 118.517 331.954 117.047 331.495C97.2946 325.717 77.3121 320.443 56.6407 320.122C55.1247 320.122 55.0788 322.506 56.5947 322.506Z" fill="#2E2E2E"/>
<path d="M54.5258 334.797C75.8404 336.035 97.2928 339.888 117.275 347.546C118.699 348.097 119.342 345.804 117.918 345.253C97.7521 337.503 76.0701 333.65 54.5717 332.412C53.0099 332.366 53.0099 334.705 54.5258 334.797Z" fill="#2E2E2E"/>
<path d="M55.3525 350.71C75.6565 350.389 95.5011 353.186 114.335 360.937C115.759 361.533 116.356 359.24 114.978 358.644C95.9605 350.802 75.8402 348.004 55.3984 348.325C53.8825 348.325 53.8366 350.71 55.3525 350.71Z" fill="#2E2E2E"/>
<path d="M83.1674 159.986C78.8148 165.265 73.5672 169.692 69.1739 174.931C68.3196 175.946 68.1569 177.49 69.4993 178.261C82.964 186.14 94.8422 196.171 107.005 205.837C113.026 210.629 119.168 215.259 125.636 219.442C127.182 220.457 128.768 221.432 130.355 222.366C131.657 223.137 133.08 224.193 134.667 224.112C137.514 223.99 140.158 220.254 142.111 218.508C163.589 198.851 186.492 180.738 209.597 163.072C220.052 155.072 230.588 147.152 241.164 139.274C242.018 138.624 242.059 136.999 241.286 136.309C224.526 121.242 206.668 106.987 191.983 89.8083C191.373 89.1179 190.234 88.9148 189.461 89.3616C186.532 90.9861 184.051 93.2604 181.122 94.8848C178.763 96.1844 180.715 99.9207 183.075 98.6211C186.004 96.9966 188.485 94.7224 191.414 93.0979C190.56 92.9355 189.746 92.8136 188.892 92.6512C203.577 109.83 221.435 124.085 238.194 139.152C238.235 138.177 238.276 137.162 238.316 136.187C218.547 150.97 198.817 165.793 179.576 181.266C168.308 190.282 157.162 199.501 146.342 209.086C143.86 211.279 141.419 213.472 138.979 215.705C137.799 216.802 136.66 217.98 135.44 218.995C135.114 219.239 134.707 219.767 134.219 219.807C133.528 219.848 131.657 218.264 131.006 217.898C124.538 213.918 118.436 209.451 112.456 204.781C99.1542 194.425 86.4217 183.256 71.7773 174.687C71.8994 175.784 71.9807 176.921 72.1028 178.017C76.7401 172.494 82.2318 167.783 86.7878 162.179C88.4557 160.148 84.8759 157.915 83.1674 159.986Z" fill="#2E2E2E"/>
<path d="M65.1061 137.852C69.8249 147.518 76.903 155.925 84.3065 163.641C92.605 172.291 101.473 180.414 110.097 188.739C110.829 189.47 111.683 189.551 112.619 189.186C128.768 183.013 145.081 177.774 160.335 169.53C172.742 162.788 184.783 155.316 196.58 147.599C201.136 144.635 205.651 141.589 210.126 138.502C212.241 137.04 214.967 135.578 216.675 133.588C218.669 131.314 216.025 129.568 214.438 128.146C210.818 124.857 207.238 121.567 203.74 118.196C198.37 113.039 193.163 107.759 188.282 102.155C183.644 96.875 179.129 91.2705 176.037 84.8945C175.427 83.6761 173.719 83.4325 172.742 84.3259C160.254 96.0222 144.877 104.672 129.623 112.226C114.816 119.536 99.439 125.994 83.615 130.745C78.5708 132.248 73.1605 133.994 67.8723 134.238C65.1875 134.36 65.0247 138.543 67.7502 138.421C72.5503 138.218 77.3098 136.918 81.9065 135.619C89.1473 133.548 96.2254 131.07 103.263 128.349C120.307 121.811 136.986 113.973 152.566 104.429C160.701 99.4336 168.634 93.951 175.631 87.4124C174.532 87.2094 173.434 87.0469 172.336 86.8439C177.705 97.9309 186.939 107.353 195.522 116.003C199.468 119.983 203.536 123.841 207.685 127.618C209.069 128.877 210.452 130.136 211.835 131.395C212.079 131.598 213.421 133.223 213.747 133.182C214.153 133.141 213.014 130.502 213.828 130.542C213.747 130.542 213.584 130.827 213.503 130.827C213.177 130.948 212.73 131.436 212.445 131.679C211.265 132.573 210.085 133.426 208.865 134.319C204.716 137.284 200.445 140.086 196.214 142.888C184.905 150.32 173.434 157.509 161.596 164.088C154.6 167.986 147.481 171.56 140.077 174.606C130.396 178.546 120.429 181.795 110.666 185.531C111.521 185.693 112.334 185.815 113.188 185.978C104.768 177.855 96.1034 169.936 87.9676 161.489C80.5641 153.854 73.4859 145.569 68.8079 135.944C67.6689 133.466 63.9264 135.416 65.1061 137.852Z" fill="#2E2E2E"/>
<path d="M54.1644 10.5742C61.9341 29.8242 62.9917 53.1355 53.2695 71.8982C52.7 72.9947 53.0254 74.741 54.4492 75.0253C95.0467 83.2695 138.898 78.0712 175.916 59.1054C184.784 54.5569 193.327 48.4651 196.947 38.8401C197.517 37.3374 195.93 35.8348 194.466 36.2003C184.337 38.7995 173.638 34.9819 166.072 28.0779C158.384 21.0114 153.665 11.427 150.37 1.63954C149.882 0.218122 148.133 -0.634744 146.912 0.583614C141.258 5.985 133.936 8.66539 126.41 10.3305C118.966 11.955 111.359 12.9297 103.793 13.417C88.0092 14.3917 71.7377 13.1327 57.0119 7.04092C54.5305 6.02562 53.3102 10.0462 55.7916 11.0615C71.3716 17.5188 88.7821 18.6966 105.42 17.4782C120.39 16.3817 138.37 14.5541 149.76 3.67014C148.621 3.30463 147.441 2.93911 146.302 2.61421C150.004 13.5794 155.333 24.4228 164.282 32.0579C172.825 39.2868 184.377 43.1856 195.442 40.3427C194.628 39.4492 193.774 38.5964 192.961 37.7029C189.869 45.9472 182.262 51.1861 174.737 55.0849C166.072 59.5928 156.919 63.2478 147.604 66.1719C128.729 72.1012 108.877 75.0253 89.0669 74.7004C77.8802 74.538 66.7342 73.3196 55.7509 71.0859C56.1577 72.1418 56.5238 73.1572 56.9306 74.2131C67.3851 53.9883 66.3274 29.4587 57.9882 8.706C56.8899 6.14745 53.1881 8.09684 54.1644 10.5742Z" fill="#2E2E2E"/>
<path d="M157.976 51.8769C148.213 43.6733 141.216 32.6674 138.003 20.3214C137.677 19.0218 135.643 19.5904 135.969 20.89C139.223 33.5609 146.423 44.9728 156.471 53.3795C157.529 54.2324 159.034 52.7704 157.976 51.8769Z" fill="#2E2E2E"/>
<path d="M126.655 23.8548C126.33 22.5552 124.337 23.1238 124.621 24.4234C127.591 36.9724 132.595 48.9124 139.429 59.837C140.161 60.9741 141.951 59.9182 141.259 58.7811C134.506 48.0189 129.584 36.2414 126.655 23.8548Z" fill="#2E2E2E"/>
<path d="M114.859 25.5603C114.615 24.2201 112.581 24.7887 112.825 26.1289C115.388 39.2059 118.927 52.0393 123.401 64.5477C123.849 65.8067 125.883 65.2788 125.435 63.9792C120.961 51.4301 117.462 38.5967 114.859 25.5603Z" fill="#2E2E2E"/>
<path d="M100.376 27.3466C100.173 26.0064 98.139 26.575 98.3424 27.9152C100.254 41.1141 103.427 54.1099 107.861 66.6996C108.309 67.9585 110.343 67.4306 109.895 66.131C105.502 53.5413 102.288 40.5455 100.376 27.3466Z" fill="#2E2E2E"/>
<path d="M86.9515 27.184C87.7244 40.9108 89.8397 54.5565 93.2974 67.8772C93.6228 69.1768 95.6568 68.6082 95.3313 67.3086C91.9143 54.1503 89.799 40.7484 89.0668 27.184C88.9855 25.8438 86.8701 25.8438 86.9515 27.184Z" fill="#2E2E2E"/>
<path d="M75.3164 26.7778C75.4791 40.464 76.6995 54.1096 78.9775 67.5927C79.2216 68.9329 81.2148 68.3644 81.0114 67.0242C78.7741 53.7035 77.5944 40.2203 77.4317 26.7372C77.4317 25.397 75.3164 25.4376 75.3164 26.7778Z" fill="#2E2E2E"/>
<path d="M120.876 173.387C110.096 164.453 100.659 154.096 92.8076 142.522C92.0347 141.426 90.2448 142.481 90.977 143.578C98.9501 155.274 108.469 165.833 119.371 174.89C120.429 175.743 121.934 174.24 120.876 173.387Z" fill="#2E2E2E"/>
<path d="M131.819 166.605C119.941 159.132 110.056 148.776 103.14 136.593C102.489 135.415 100.659 136.471 101.31 137.649C108.428 150.157 118.558 160.757 130.761 168.433C131.941 169.164 132.999 167.336 131.819 166.605Z" fill="#2E2E2E"/>
<path d="M143.25 159.578C132.145 151.821 122.016 142.765 113.026 132.653C112.131 131.637 110.625 133.14 111.52 134.155C120.632 144.43 130.924 153.568 142.192 161.406C143.291 162.137 144.348 160.309 143.25 159.578Z" fill="#2E2E2E"/>
<path d="M155.82 153.366C145.202 145.609 135.724 136.472 127.548 126.197C126.694 125.141 125.229 126.644 126.043 127.699C134.341 138.137 143.982 147.356 154.721 155.194C155.86 155.965 156.918 154.138 155.82 153.366Z" fill="#2E2E2E"/>
<path d="M168.593 148.411C158.179 140.573 148.823 131.394 140.728 121.201C139.873 120.145 138.409 121.648 139.222 122.704C147.44 133.06 156.958 142.278 167.535 150.238C168.593 151.051 169.65 149.223 168.593 148.411Z" fill="#2E2E2E"/>
<path d="M178.886 142.36C168.716 133.669 159.157 124.369 150.248 114.419C149.353 113.404 147.848 114.906 148.743 115.922C157.652 125.872 167.211 135.212 177.381 143.863C178.439 144.716 179.903 143.213 178.886 142.36Z" fill="#2E2E2E"/>
<path d="M186.288 136.187C176.525 128.958 167.82 120.267 160.538 110.52C159.725 109.464 157.894 110.48 158.708 111.576C166.233 121.648 175.142 130.501 185.23 137.974C186.329 138.827 187.386 136.999 186.288 136.187Z" fill="#2E2E2E"/>
<path d="M145.287 200.76C139.551 196.942 134.303 192.434 129.585 187.358C128.649 186.383 127.185 187.845 128.08 188.86C132.88 194.059 138.331 198.648 144.229 202.587C145.368 203.318 146.385 201.491 145.287 200.76Z" fill="#2E2E2E"/>
<path d="M151.428 192.029C147.36 189.145 143.455 186.059 139.671 182.851C138.654 181.957 137.149 183.46 138.166 184.353C142.071 187.683 146.139 190.892 150.329 193.856C150.777 194.181 151.509 193.938 151.753 193.491C152.119 192.922 151.875 192.354 151.428 192.029Z" fill="#2E2E2E"/>
<path d="M160.622 187.887C157.164 184.679 153.707 181.511 150.208 178.302C149.232 177.368 147.727 178.871 148.703 179.805C152.161 183.013 155.619 186.181 159.117 189.39C160.093 190.283 161.598 188.78 160.622 187.887Z" fill="#2E2E2E"/>
<path d="M169.896 180.941C166.845 178.261 163.59 175.743 160.133 173.509C158.994 172.778 157.936 174.606 159.075 175.337C162.329 177.489 165.462 179.845 168.391 182.444C168.797 182.81 169.448 182.85 169.896 182.444C170.262 182.038 170.302 181.347 169.896 180.941Z" fill="#2E2E2E"/>
<path d="M181.001 170.992C177.625 169.367 174.493 167.337 171.686 164.9C171.239 164.534 170.628 164.494 170.181 164.9C169.815 165.265 169.733 165.996 170.181 166.403C173.15 168.961 176.405 171.154 179.944 172.819C180.473 173.063 181.083 172.941 181.367 172.454C181.652 171.926 181.53 171.235 181.001 170.992Z" fill="#2E2E2E"/>
<path d="M191.66 164.372C188.325 162.342 185.152 160.068 182.182 157.509C181.735 157.144 181.124 157.103 180.677 157.509C180.311 157.875 180.229 158.606 180.677 159.012C183.769 161.692 187.064 164.088 190.603 166.2C191.782 166.89 192.84 165.103 191.66 164.372Z" fill="#2E2E2E"/>
<path d="M202.766 156.939C199.96 155.111 197.153 153.284 194.305 151.497C193.817 151.172 193.125 151.416 192.881 151.862C192.597 152.39 192.8 153 193.248 153.284C196.054 155.111 198.861 156.939 201.709 158.726C202.197 159.051 202.888 158.807 203.133 158.36C203.458 157.873 203.255 157.264 202.766 156.939Z" fill="#2E2E2E"/>
<path d="M207.565 150.32C206.02 148.493 204.067 147.152 201.87 146.3C201.341 146.097 200.691 146.543 200.569 147.031C200.447 147.64 200.772 148.087 201.301 148.33C201.341 148.33 201.301 148.33 201.301 148.33C201.382 148.371 201.423 148.371 201.504 148.411C201.626 148.452 201.748 148.533 201.83 148.574C202.074 148.696 202.277 148.818 202.521 148.939C203.009 149.183 203.457 149.467 203.864 149.792C203.904 149.833 203.945 149.873 203.986 149.873C204.026 149.873 204.026 149.914 204.026 149.914C204.108 149.995 204.189 150.077 204.311 150.117C204.514 150.28 204.718 150.442 204.921 150.645C205.328 151.011 205.694 151.417 206.02 151.823C206.386 152.229 207.159 152.229 207.525 151.823C208.013 151.335 207.972 150.767 207.565 150.32Z" fill="#2E2E2E"/>
</svg>
