<svg width="384" height="730" viewBox="0 0 384 730" fill="none" xmlns="http://www.w3.org/2000/svg">
<g clip-path="url(#clip0_2025_7778)">
<path fill-rule="evenodd" clip-rule="evenodd" d="M158.242 161.204V161.204L158.242 161.203C158.431 155.014 158.634 148.359 158.766 140.189V140.184C158.766 137.626 158.766 133.682 158.973 128.985C159.036 126.54 159.662 124.142 160.803 121.979C162.28 119.428 163.896 116.96 165.645 114.588L189.424 80.3986L195.329 71.7662C197.103 69.0406 199.019 66.4108 201.07 63.8877C204.894 59.2759 210.237 57.5613 214.961 56.6744C218.657 55.9803 221.992 55.6574 224.64 55.401L224.64 55.401C225.376 55.3298 226.058 55.2637 226.681 55.1962L231.109 54.7232L235.537 54.3094C238.371 54.0729 242.416 53.7772 247.346 53.7033C248.492 53.6861 249.694 53.6769 250.945 53.6674L250.946 53.6674L250.947 53.6674L250.948 53.6673C255.076 53.6358 259.743 53.6001 264.749 53.2599C266.018 53.1478 267.285 53.0133 268.549 52.8563C275.459 52.6087 282.36 52.1166 289.239 51.3804C296.324 50.6117 303.07 49.4883 308 48.4241C312.93 47.3598 316.089 46.5912 316.089 46.5912C316.089 46.5912 319.263 45.8226 324.089 44.3444C330.179 42.4918 336.128 40.2046 341.891 37.5006C348.255 34.5341 354.333 30.9864 360.047 26.9023C363.903 24.168 367.553 21.1544 370.97 17.8857C373.57 15.4129 375.99 12.7582 378.213 9.94174C381.643 6.83468 384.855 3.48907 387.824 -0.0715332C385.229 2.9809 382.407 5.82531 379.384 8.43816C380.964 6.41911 382.364 4.379 383.907 2.13131L383.908 2.13056L383.909 2.12895L383.909 2.12843C384.382 1.44024 384.868 0.732589 385.376 0.000123329C383.309 2.95657 380.983 5.72188 378.424 8.26294C376.583 10.1028 374.681 11.8808 372.723 13.5942C372.381 13.8308 372.037 14.0648 371.69 14.296C365.069 18.7422 358.047 22.5577 350.715 25.6925C342.159 29.3404 333.378 32.4361 324.426 34.9605C318.568 36.6758 312.134 38.3771 305.494 40.1328L304.987 40.267L284.321 45.8248C277.86 47.5958 271.248 48.7636 264.571 49.3132C260.176 49.6032 255.976 49.6175 252.124 49.6305H252.123C250.478 49.6361 248.896 49.6414 247.39 49.668C242.49 49.7543 238.388 49.9947 235.532 50.2392C234.27 50.0161 233.017 49.741 231.775 49.4144C232.831 49.7256 233.893 50.0179 234.958 50.2912L230.872 50.6731L226.444 51.1461C225.635 51.251 224.729 51.35 223.728 51.4592L223.728 51.4593C221.204 51.7348 218.082 52.0757 214.414 52.7425C211.59 53.2579 208.839 54.1167 206.222 55.2997C203.184 56.7048 200.492 58.764 198.34 61.3305C196.218 63.9813 194.247 66.7499 192.436 69.6229L186.531 78.3144L163.386 112.947C161.621 115.438 160.009 118.035 158.559 120.722C157.896 122.034 157.4 123.425 157.083 124.861C156.83 126.172 156.692 127.502 156.67 128.837C156.67 132.178 156.725 135.006 156.769 137.291C156.79 138.362 156.808 139.315 156.818 140.145C156.917 149.348 157.126 156.628 157.323 163.479L157.323 163.48L157.323 163.48C157.534 170.866 157.732 177.753 157.763 186.012C157.763 176.908 157.99 169.472 158.242 161.204ZM307.174 44.4479C303.746 45.17 299.445 45.9735 294.753 46.717C295.349 46.5444 295.944 46.3717 296.539 46.1991L296.539 46.199C299.644 45.2983 302.742 44.3995 305.828 43.5337C312.677 41.6121 319.216 39.7053 325.223 37.7689C334.22 35.0047 343.01 31.6063 351.527 27.5993C355.268 25.8341 358.907 23.8657 362.427 21.7038C361.102 22.6327 359.757 23.533 358.393 24.4043C352.64 28.0908 346.604 31.3135 340.341 34.0418C334.664 36.5288 328.843 38.6711 322.908 40.4569C318.185 41.935 315.085 42.615 315.085 42.615C315.085 42.615 312.015 43.428 307.174 44.4479ZM133.628 327.655C135.759 325.337 137.722 323.233 139.604 321.215C145.267 315.144 150.199 309.856 156.79 301.908L162.073 295.461C164.299 292.758 167.079 289.311 169.983 285.419C172.087 282.598 174.279 279.558 176.42 276.328L224.391 298.052L162.294 330.628C157.356 333.236 153.212 335.481 149.614 337.612C148.55 336.92 147.477 336.242 146.395 335.579C145.132 334.064 143.656 332.744 142.013 331.659C139.408 329.951 136.587 328.604 133.628 327.655ZM135.894 324.147L135.897 324.142C140.963 316.774 145.411 310.304 153.403 300.381L158.934 293.447C161.395 290.46 164.064 287.068 166.927 283.257C168.91 280.616 170.973 277.768 172.972 274.767L132.626 256.496C132.436 256.887 132.249 257.264 132.066 257.632C131.878 258.012 131.694 258.382 131.517 258.748C130.679 260.26 129.924 261.815 129.255 263.404C130.087 260.95 130.809 258.463 131.42 255.95L127.062 253.976L125.49 253.273L126.064 251.633C126.693 249.827 126.871 249.331 127.035 248.876L138.274 216.347C138.778 214.896 139.279 213.458 139.778 212.025C142.572 204.008 145.318 196.129 148.241 186.892C147.875 188.692 147.508 190.442 147.138 192.153C147.309 191.678 147.478 191.221 147.644 190.772C148.104 189.527 148.539 188.347 148.938 187.035L148.282 186.933L148.954 186.983C149.084 186.551 149.211 186.105 149.333 185.638C149.223 186.103 149.128 186.552 149.043 186.989L152.39 187.234L152.393 187.234L152.408 187.235L152.411 187.236C159.727 187.771 166.383 188.257 173.164 188.796C169.804 187.757 166.486 186.579 163.218 185.263C165.265 185.47 167.099 185.629 168.83 185.779C173.644 186.196 177.663 186.544 183.266 187.664L184.648 187.953C184.238 186.775 183.885 185.577 183.593 184.364C182.143 183.884 180.772 183.169 179.536 182.24C177.454 180.673 175.836 178.568 174.857 176.15C174.433 175.119 174.126 174.043 173.942 172.943C173.738 171.875 173.624 170.792 173.603 169.706C173.58 167.294 173.868 164.89 174.458 162.552C175.058 160.035 175.919 157.587 177.027 155.25C177.415 154.415 177.836 153.598 178.29 152.798C179.167 150.361 180.364 148.045 181.854 145.911C183.802 143.196 186.025 140.694 188.485 138.445C188.72 137.693 189.013 136.778 189.392 135.666C188.313 136.201 187.258 136.788 186.232 137.424C184.552 138.442 182.956 139.598 181.46 140.88C180.655 141.546 179.902 142.276 179.208 143.061L178.264 144.227C178.074 144.499 177.895 144.799 177.717 145.099L177.717 145.099C177.617 145.267 177.517 145.435 177.415 145.598C175.317 149.395 173.6 153.397 172.292 157.544C171.126 160.793 170.334 163.6 169.818 165.427L169.818 165.428L169.817 165.431L169.817 165.431L169.813 165.445C169.734 165.725 169.661 165.981 169.595 166.213C167.813 172.691 165.657 179.057 163.137 185.277C163.262 178.469 164.273 171.708 166.143 165.17L166.238 164.827C166.737 163.001 167.575 159.939 168.84 156.31C170.232 151.897 172.067 147.641 174.314 143.609C174.403 143.463 174.487 143.316 174.572 143.17C174.796 142.782 175.018 142.397 175.312 142.018C175.572 141.683 175.837 141.354 176.101 141.026L176.102 141.025L176.105 141.021C176.251 140.841 176.395 140.662 176.538 140.482C177.34 139.583 178.205 138.744 179.127 137.972C182.98 134.725 187.36 132.186 192.07 130.47L195.764 129.194L194.416 132.952C194.277 133.326 194.152 133.656 194.039 133.95C195.935 132.539 197.962 131.147 200.054 129.785C203.026 127.735 206.111 125.855 209.294 124.153C210.922 123.316 212.615 122.614 214.357 122.054C216.003 121.562 217.673 121.157 219.361 120.842C221.98 120.487 224.515 119.666 226.845 118.418C228.395 117.443 229.835 116.303 231.141 115.018L232.617 113.54C232.617 113.54 233.237 113.037 234.093 112.062C234.87 111.209 235.503 110.239 235.97 109.19L235.981 109.047C236.021 107.428 235.902 105.809 235.627 104.213C235.56 103.839 235.484 103.466 235.398 103.096C235.091 102.691 234.738 102.322 234.343 101.995C233.287 101.093 232.037 100.447 230.69 100.108C229.343 99.7699 227.936 99.7479 226.579 100.044C224.266 100.626 221.962 102.135 219.568 103.702L219.568 103.702L219.568 103.702L219.568 103.702C218.983 104.085 218.393 104.471 217.797 104.848C216.253 105.858 214.599 106.686 212.866 107.317C211.779 107.677 210.779 107.901 209.859 108.108C209.232 108.249 208.641 108.382 208.084 108.544C206.834 108.845 205.674 109.443 204.704 110.288C203.813 111.101 203.007 112.002 202.298 112.978C200.925 114.855 199.656 116.452 198.814 117.412C196.135 120.451 193.074 123.129 189.707 125.38C186.701 127.371 183.548 129.13 180.275 130.642C183.521 129.095 186.54 127.11 189.249 124.744C192.2 122.154 194.876 119.266 197.235 116.126C198.003 115.107 199.036 113.614 200.335 111.574C201.08 110.398 201.951 109.308 202.933 108.322C204.144 107.136 205.622 106.259 207.243 105.765C208.063 105.454 208.865 105.221 209.636 104.997L209.636 104.997L209.636 104.997C210.404 104.774 211.141 104.56 211.833 104.287C213.28 103.707 214.661 102.974 215.952 102.099C216.539 101.703 217.133 101.278 217.741 100.843L217.741 100.843L217.742 100.842L217.742 100.842L217.742 100.842L217.742 100.842C220.019 99.212 222.495 97.4393 225.605 96.5411C227.601 95.9948 229.706 95.9948 231.701 96.5411C232.121 96.6423 232.534 96.7643 232.939 96.9065C232.717 96.5448 232.481 96.1913 232.232 95.8469C231.907 95.38 231.557 94.931 231.184 94.5018C230.855 94.1178 230.494 93.7618 230.106 93.4375C229.355 92.7493 228.414 92.306 227.405 92.1663C229.689 92.2198 231.899 92.9902 233.723 94.3688C234.826 95.2946 235.791 96.3749 236.586 97.5763C237.174 98.4508 237.689 99.3699 238.128 100.324C238.967 101.268 239.631 102.359 240.085 103.547C240.658 105.176 240.766 106.932 240.396 108.618C240.259 109.157 240.092 109.686 239.895 110.202C239.87 110.505 239.848 110.767 239.848 110.983C239.828 111.221 239.794 111.458 239.745 111.693L239.627 112.387C239.536 113.011 239.388 113.624 239.184 114.22C238.631 116.147 237.719 117.953 236.498 119.542C235.145 121.325 233.369 122.743 231.331 123.666C229.935 124.272 228.425 124.575 226.903 124.552C226.214 124.515 225.533 124.38 224.881 124.153C224.629 124.071 224.382 123.974 224.142 123.862C222.814 124.219 221.47 124.513 220.114 124.744C218.553 125.006 217.006 125.346 215.479 125.764C213.917 126.233 212.396 126.832 210.933 127.553C208.163 128.858 205.382 130.544 202.655 132.197L202.655 132.197C202.388 132.359 202.121 132.521 201.855 132.682C198.873 134.485 196.039 136.288 193.545 138.062C189.802 140.617 186.434 143.681 183.537 147.167C183.33 147.421 183.126 147.677 182.927 147.936C182.328 149.179 181.812 150.461 181.382 151.776C181.042 152.618 180.378 154.303 179.728 156.388C179.022 158.679 178.47 161.015 178.075 163.379C178.004 163.771 177.941 164.164 177.886 164.558C177.927 164.664 177.969 164.769 178.014 164.874C178.082 165.087 178.159 165.36 178.251 165.689C178.338 165.998 178.438 166.358 178.56 166.766C178.811 167.608 179.165 168.613 179.49 169.456C179.751 170.133 180.059 170.829 180.308 171.391C180.369 171.528 180.427 171.658 180.479 171.777L180.951 172.767L181.482 173.728C181.561 173.862 181.645 174.008 181.734 174.164C182.028 174.675 182.377 175.285 182.796 175.886C183.301 176.688 183.848 177.463 184.435 178.207C184.681 178.563 184.928 178.869 185.141 179.125C185.373 179.292 185.602 179.452 185.822 179.597C186.224 179.862 186.58 180.127 186.844 180.323C186.977 180.422 187.086 180.503 187.166 180.558C187.325 180.684 187.474 180.812 187.619 180.936C188.235 181.465 188.758 181.914 189.571 181.77C189.185 181.957 188.786 182.112 188.376 182.232C188.819 182.287 189.265 182.318 189.711 182.324C190.061 182.209 190.404 182.073 190.739 181.916C192.58 180.998 194.351 179.946 196.038 178.768L196.392 178.535C199.771 176.313 203.35 173.959 207.743 170.86C212.215 167.736 216.444 164.277 220.393 160.513C220.757 160.165 221.126 159.81 221.5 159.45L221.501 159.449C223.831 157.209 226.376 154.762 229.25 152.457C232.636 149.736 236.32 147.41 240.232 145.524C243.968 143.715 247.887 142.313 251.922 141.341C255.327 140.555 258.778 139.982 262.255 139.626C264.399 139.391 266.258 139.218 267.753 139.079L267.756 139.079L267.76 139.078C268.331 139.025 268.849 138.977 269.31 138.932L271.923 138.68C271.923 138.68 271.962 138.677 272.037 138.671C276.132 137.974 280.197 137.104 284.219 136.063C285.917 135.664 289.297 134.866 293.297 133.58C297.661 132.2 301.855 130.331 305.799 128.007C309.326 125.821 312.646 123.317 315.719 120.528C318.213 118.281 319.807 116.803 319.807 116.803L323.926 113.004C327.122 110.051 330.52 107.324 334.096 104.845C338.044 102.11 342.216 99.7171 346.569 97.6907C348.895 96.5958 351.273 95.6161 353.694 94.7551C354.884 94.1471 356.091 93.5736 357.314 93.0354C356.302 93.4956 355.309 93.9942 354.337 94.5299C354.733 94.3929 355.13 94.259 355.529 94.1284C359.936 92.7302 363.093 92.1422 366.422 91.5221C367.809 91.2638 369.226 90.9999 370.776 90.6695C368.382 91.2085 366.037 91.9452 363.765 92.872C361.634 93.7001 359.477 94.6616 356.737 95.8829L356.296 96.0795C354.717 96.7742 351.572 98.2672 347.897 100.322C346.228 101.249 344.587 102.223 342.973 103.242C340.983 105.134 338.894 107.258 336.486 109.724C335.838 110.36 335.021 111.204 334.049 112.209L334.048 112.209L334.047 112.21L334.045 112.212L334.044 112.213L334.043 112.214L334.042 112.215L334.042 112.216L334.042 112.216C331.74 114.594 328.566 117.874 324.678 121.445C321.683 124.162 318.474 126.634 315.083 128.836C311.466 131.167 307.665 133.199 303.718 134.911C296.76 137.882 289.485 140.039 282.034 141.341C279.082 141.844 276.632 142.169 274.934 142.361L272.277 142.642L262.653 143.558C260.808 143.726 258.968 143.954 257.139 144.242C252.674 145.525 248.329 147.189 244.15 149.215C246.054 151.31 247.892 153.488 249.664 155.709L255.421 163.098L266.204 177.069L281.257 196.463L284.435 200.618L292.441 201.524C292.858 200.079 293.26 198.592 293.647 196.926C293.286 198.579 293.013 200.084 292.781 201.563L296.629 201.999L298.666 202.233L298.256 204.245C293.047 230.089 287.264 252.556 282.765 268.683C280.496 276.733 278.54 283.169 277.173 287.594L274.986 294.486C274.986 294.486 274.835 295.037 273.851 297.945C273.745 298.259 273.629 298.601 273.505 298.972C272.471 302.038 270.757 307.128 267.671 315.464L266.973 317.339L265.155 316.512L234.058 302.43C232.578 303.272 230.98 304.178 229.08 305.19C226.091 306.802 217.15 311.597 208.76 315.821C200.371 320.045 192.641 323.626 192.641 323.626L187.695 325.946C184.682 327.299 180.605 329.104 176.268 330.907C171.932 332.709 167.348 334.508 163.446 335.882C159.544 337.255 156.272 338.303 154.65 338.819C154.359 338.91 154.074 338.998 153.795 339.083C152.594 339.661 151.435 340.21 150.305 340.738L149.351 341.17L149.083 340.959C149.203 341.506 149.287 342.062 149.333 342.624V342.831V343.038L143.397 380.466C143.397 380.466 143.397 380.536 143.178 381.849L142.671 385.071L140.162 383.024L93.2642 344.767C91.8385 343.605 90.5498 342.513 89.4394 341.545L86.5879 339.043L90.2072 338.379C91.9096 338.072 93.478 337.773 94.9833 337.477C94.8991 337.375 94.8157 337.274 94.7328 337.173L94.7261 337.165L94.712 337.148L94.6832 337.113L94.6831 337.113C93.7157 335.938 92.8075 334.835 91.6075 333.645C93.0961 334.891 94.6243 336.09 96.1896 337.239C97.0959 337.058 97.9856 336.879 98.8751 336.7L98.9109 336.692L98.9121 336.692C101.785 336.143 104.623 335.423 107.412 334.535C104.977 336.277 102.367 337.755 99.625 338.946C99.4157 339.038 99.206 339.129 98.9956 339.219C99.0926 339.284 99.1897 339.35 99.287 339.415C101.012 340.732 106.159 344.697 110.785 348.486C115.412 352.274 119.437 355.954 119.437 355.954L121.996 358.303C123.543 359.769 125.596 361.738 127.65 363.938C128.704 365.01 129.744 366.178 130.716 367.292C131.688 368.405 132.632 369.518 133.454 370.564C134.942 372.374 136.072 373.995 136.753 374.972L136.753 374.972L136.767 374.993L136.928 375.223L137.013 375.344C137.141 375.535 137.268 375.728 137.394 375.922L139.987 378.037C140.807 372.864 143.232 357.561 145.592 342.611C145.537 342.155 145.446 341.707 145.32 341.269C143.619 341.66 141.923 342.062 140.03 342.645C141.936 342.056 143.582 341.485 145.181 340.831C144.871 339.933 144.413 339.09 143.822 338.337C142.728 336.967 141.429 335.777 139.97 334.812C137.657 333.302 135.161 332.099 132.544 331.233L130.154 331.728C122.671 333.276 115.073 334.201 107.439 334.494C114.527 331.731 121.838 329.589 129.291 328.092L132.279 327.47L132.746 327.373L133.171 327.511C133.282 327.545 133.394 327.58 133.505 327.615C134.326 326.428 135.117 325.277 135.894 324.147ZM279.505 200.06L278.53 198.826L263.45 179.446L252.611 165.474C251.862 164.525 251.114 163.566 250.362 162.605L250.362 162.605C247.286 158.668 244.171 154.679 240.85 151.079L240.774 150.994C238.708 152.23 236.738 153.619 234.879 155.15C236.827 157.292 238.633 159.559 240.285 161.937C242.44 165.24 244.096 168.838 245.202 172.617C246.184 175.754 246.975 178.946 247.571 182.177C248.444 186.966 249.054 191.798 249.397 196.65L279.505 200.06ZM249.608 200.397L254.295 200.944C252.798 200.985 251.25 201.025 249.634 201.061C249.626 200.84 249.617 200.618 249.608 200.397ZM249.472 200.381C249.523 200.607 249.573 200.833 249.624 201.062L249.457 201.065L249.629 201.084L249.637 201.12L249.635 201.085C251.75 201.319 253.779 201.552 255.771 201.781C264.02 202.727 271.625 203.6 281.936 204.168L291.33 205.263C290.691 207.397 290.022 209.689 289.325 212.552C288.398 216.083 285.944 226.771 283.872 236.605C281.799 246.438 280 255.361 280 255.361L278.827 261.044C278.3 263.469 277.651 266.501 276.947 269.791L276.947 269.792C276.65 271.178 276.344 272.611 276.032 274.063C275.677 275.747 275.289 277.445 274.905 279.129L274.904 279.134C274.728 279.902 274.553 280.668 274.383 281.428C273.837 283.855 273.292 286.213 272.76 288.323C272.487 289.525 272.215 290.664 271.955 291.721L271.444 293.328C271.444 293.328 271.294 293.879 270.309 296.76C270.198 297.087 270.076 297.443 269.944 297.833L269.943 297.834C268.988 300.642 267.454 305.15 264.857 312.265L134.139 253.069C134.21 252.892 134.288 252.697 134.373 252.487C134.881 251.227 135.619 249.394 136.341 247.245C137.295 244.407 138.404 241.032 139.329 237.78C141.208 231.264 142.502 225.272 142.502 225.272C142.502 225.272 143.926 219.293 145.107 212.68C146.288 206.068 147.426 198.808 147.782 196.397C148.072 194.578 148.239 193.065 148.394 191.663L148.394 191.662C148.569 190.079 148.728 188.636 149.032 187.049C150.648 187.3 152.227 187.545 153.775 187.785C173.999 190.922 188.963 193.244 213.473 196.182L249.472 200.381ZM248.587 196.559C247.421 191.695 246.218 187.329 244.885 182.819C244.032 179.883 243.053 176.905 241.897 173.75C240.739 170.334 239.152 167.076 237.173 164.054C235.599 161.798 233.88 159.648 232.028 157.615C231.293 158.274 230.874 158.668 230.874 158.668L227.759 161.624C225.87 163.413 223.213 165.881 220.261 168.202C217.376 170.484 214.354 172.587 211.213 174.499C208.364 176.243 205.943 177.499 204.732 178.091C202.071 179.406 199.994 180.167 197.96 180.911L197.957 180.913C197.54 181.065 197.125 181.217 196.707 181.374L196.624 181.459L196.541 181.546C195.463 182.641 194.179 183.51 192.762 184.103C191.143 184.758 189.412 185.086 187.669 185.07C188.129 186.64 188.703 188.176 189.387 189.666L189.65 190.202C196.426 190.822 203.81 191.55 212.393 192.461L248.587 196.559ZM94.4645 340.905C95.3614 340.618 96.2505 340.306 97.1309 339.971C97.4041 340.269 97.6926 340.577 98 340.895C98.7392 341.683 100.272 343.244 102.107 345.091C103.941 346.938 106.213 349.083 108.472 351.106L116.863 358.737L119.395 361.059C119.956 361.56 120.598 362.143 121.291 362.781L95.6221 341.836C95.226 341.516 94.8404 341.206 94.4645 340.905ZM132.264 252.22C132.572 250.919 133.075 248.879 133.666 246.487C134.267 244.052 134.92 241.234 135.563 238.455L135.566 238.443C135.682 237.94 135.799 237.438 135.914 236.94L138.623 225.061C136.397 232.558 133.817 240.625 130.562 250.144L130.161 251.268L132.264 252.22ZM294.157 205.593C292.04 215.953 289.832 225.784 287.661 234.857C289.189 225.932 290.587 216.826 291.135 213.256L291.179 212.966C291.573 210.457 291.85 208.346 292.105 206.398L292.105 206.397L292.108 206.374C292.153 206.034 292.197 205.7 292.24 205.37L294.157 205.593ZM182.319 324.344C187.39 321.99 191.071 320.261 191.071 320.261L207.202 312.77C215.672 308.844 225.025 304.774 228.192 303.498C229.815 302.823 231.257 302.266 232.598 301.768L228.704 300.005L182.319 324.344ZM197.607 180.387C199.694 179.134 201.718 177.775 203.67 176.317C205.893 174.811 208.075 173.244 210.213 171.62C209.761 171.907 209.307 172.191 208.85 172.471C204.389 175.225 200.69 177.141 197.222 178.937L197.218 178.938C196.947 179.079 196.676 179.219 196.407 179.359C194.594 180.366 192.721 181.259 190.798 182.034C190.511 182.145 190.219 182.242 189.924 182.325C190.696 182.321 191.468 182.244 192.23 182.093C193.581 181.851 194.895 181.439 196.142 180.866C197.298 180.327 198.31 179.522 199.094 178.515C198.626 179.161 198.129 179.785 197.607 180.387Z" fill="#2E2E2E"/>
<path fill-rule="evenodd" clip-rule="evenodd" d="M246.536 378.204C246.185 378.95 245.826 379.719 245.453 380.647C244.632 380.133 243.84 379.585 243.006 378.849C243.886 379.648 244.557 380.424 245.219 381.244C245.181 381.347 245.142 381.451 245.102 381.558C244.586 382.962 243.331 386.835 242.386 390.53C241.441 394.226 240.718 397.61 240.718 397.61C240.718 397.61 240.069 400.587 239.489 404.065C239.451 404.125 239.412 404.186 239.374 404.246C238.165 406.196 237.175 408.273 236.422 410.44C236.145 411.284 235.913 412.143 235.728 413.012C235.595 413.556 235.526 414.057 235.476 414.417L235.476 414.417L235.476 414.417C235.454 414.575 235.436 414.706 235.418 414.8C235.452 415.245 235.465 415.69 235.457 416.135C231.495 414.696 227.286 413.171 222.401 411.456L220.703 410.85L221.235 412.624C221.422 413.274 221.638 413.995 221.868 414.764C222.109 415.568 222.366 416.426 222.622 417.31C222.963 418.417 223.383 419.807 223.908 421.545L223.909 421.548L223.909 421.549L223.915 421.57C224.116 422.234 224.332 422.948 224.564 423.716C223.392 423.678 222.602 423.667 222.028 423.659H222.028H222.028H222.028H222.028L222.027 423.659L222.027 423.659L222.026 423.659L222.025 423.659L222.025 423.659C221.846 423.657 221.688 423.654 221.546 423.652C220.189 423.725 218.83 423.763 217.472 423.767C217.245 423.307 217.036 422.827 216.849 422.291C216.946 422.782 217.036 423.274 217.119 423.767C215.262 423.764 213.405 423.696 211.553 423.563C213.5 426.251 215.275 429.06 216.866 431.974C216.942 432.093 217.026 432.228 217.12 432.377L217.12 432.377L217.12 432.377L217.12 432.377L217.12 432.378C217.497 432.979 218.026 433.822 218.734 434.901C218.921 435.953 219.118 437.043 219.314 438.107C220.023 441.935 220.717 445.394 220.717 445.394L222.193 452.696C222.945 456.51 223.875 460.693 224.215 462.083C224.42 462.705 224.613 463.332 224.794 463.962C224.278 467.447 223.811 470.592 223.405 473.332C223.116 475.296 222.863 477.052 222.643 478.576L222.643 478.578L222.642 478.582L222.642 478.583L222.642 478.584L222.642 478.585C222.412 480.176 222.219 481.514 222.061 482.57C221.827 484.13 221.753 484.724 221.712 485.055C221.698 485.163 221.688 485.243 221.677 485.319L221.382 487.389L223.449 487.61L231.065 488.438L255.686 491.069H255.981H256.079C252.302 513.671 249.425 531.511 247.493 543.723L246.417 550.623C244.876 549.144 243.299 547.599 241.62 545.908C243.32 547.647 244.879 549.288 246.375 550.894L244.541 562.658C244.541 562.658 242.623 575.292 239.814 593.632L226.431 573.357C218.489 561.407 209.304 547.825 203.405 539.214L210.873 540.572C216.146 541.52 220.52 542.224 224.595 542.88L224.596 542.88C230.309 543.8 235.434 544.625 241.62 545.893C235.409 544.573 230.458 543.299 224.858 541.857C220.927 540.846 216.678 539.752 211.449 538.503L200.836 536.034L197.795 535.325L199.478 538.03C204.792 546.558 214.622 562.079 223.228 575.397L238.91 599.536C235.775 620.083 232.082 646.452 228.738 670.414C228.116 670.324 227.494 670.231 226.871 670.138L226.87 670.137C223.985 669.706 221.071 669.27 218.062 669.071C215.953 668.917 213.834 669.001 211.744 669.322C211.116 669.427 210.49 669.545 209.867 669.676L209.691 669.676C206.616 669.642 203.541 669.776 200.48 670.075C200.48 670.075 199.373 670.178 197.676 670.415C195.53 670.726 193.402 671.146 191.299 671.671C188.972 672.255 186.688 673.001 184.465 673.903C182.948 674.515 181.47 675.215 180.036 676.002C178.082 677.075 176.491 678.687 175.443 680.632C172.294 681.705 169.174 682.732 165.543 683.793C168.997 682.825 172.036 682.07 175.089 681.349C174.99 681.568 174.897 681.792 174.811 682.018C177.096 681.607 179.314 680.888 181.405 679.883C184.313 679.209 187.462 678.465 191.153 677.526L202.796 674.512C203.311 674.669 203.826 674.833 204.355 675L204.355 675L204.356 675L204.356 675L204.356 675.001L204.356 675.001C205.808 675.461 207.363 675.954 209.308 676.444C211.699 677.094 218.873 678.853 225.544 680.228C232.216 681.603 238.224 682.711 238.224 682.711C238.224 682.711 244.276 683.849 250.962 684.884C257.649 685.919 264.985 686.835 267.435 687.072C269.414 687.292 271.035 687.376 272.547 687.454H272.547C274.487 687.555 276.245 687.646 278.344 688.003C276.269 687.599 274.603 687.071 272.771 686.49L272.771 686.49L272.771 686.49C271.319 686.03 269.764 685.537 267.819 685.047C265.428 684.396 258.254 682.637 251.582 681.248C244.91 679.858 238.903 678.779 238.903 678.779C238.903 678.779 232.851 677.641 226.164 676.606C219.478 675.572 212.142 674.67 209.691 674.419C207.744 674.209 206.146 674.125 204.659 674.047H204.659L204.604 674.044L205.598 673.787C206.971 673.733 208.346 673.713 209.721 673.726C213.627 673.726 217.86 674.051 220.109 674.225C220.528 674.257 220.879 674.284 221.145 674.302C223.008 674.459 224.877 674.283 226.668 673.791C227.724 673.973 228.78 674.153 229.826 674.318C245.959 677.038 260.647 679.315 260.647 679.315L266.334 680.213L285.472 684.531L293.827 686.453L294.181 686.527L294.107 686.172L293.825 684.932C297.031 685.53 300.278 686.138 303.394 686.868C307.072 687.598 310.64 688.805 314.007 690.46C316.778 691.998 319.454 693.701 322.022 695.559L327.38 699.225C331.32 701.918 334.571 704.029 337.599 705.995L337.599 705.996L337.6 705.996L337.604 705.999C341.539 708.554 345.096 710.865 349.3 713.888C345.059 710.771 341.724 708.054 338.014 705.031L338.014 705.031L338.013 705.03L338.01 705.028C336.07 703.447 334.028 701.783 331.7 699.934C332.03 699.047 332.396 698.173 332.797 697.314C332.827 697.214 332.858 697.114 332.887 697.014C333.842 697.504 334.81 698.004 335.763 698.499C337.429 699.363 339.05 700.195 340.463 700.917C340.394 701.042 340.323 701.167 340.251 701.29C340.384 701.196 340.519 701.105 340.654 701.015C343.296 702.363 345.165 703.303 345.165 703.303C345.165 703.303 349.594 705.549 354.686 707.826C359.779 710.102 365.329 712.378 367.218 713.073C368.774 713.674 370.07 714.071 371.278 714.441C372.776 714.9 374.138 715.318 375.691 716.029C374.154 715.248 372.983 714.42 371.697 713.511C370.673 712.787 369.576 712.012 368.163 711.166C366.45 710.087 361.225 707.027 356.354 704.441C351.483 701.854 346.937 699.622 346.937 699.622C346.937 699.622 346.138 699.225 344.838 698.595C345.555 698.104 346.385 697.513 347.144 696.93C348.665 695.762 350.008 694.639 350.008 694.639C350.008 694.639 351.351 693.545 352.783 692.244C354.215 690.943 355.735 689.406 356.193 688.859C356.556 688.454 356.82 688.059 357.067 687.69L357.067 687.69C357.432 687.144 357.757 686.658 358.303 686.287C357.238 686.64 356.148 686.911 355.041 687.1C353.492 687.664 352.007 688.392 350.613 689.273C349.516 689.949 348.47 690.705 347.484 691.535C346.492 692.354 345.56 693.243 344.694 694.195C343.794 695.18 342.982 696.24 342.267 697.364C341.592 697.045 340.868 696.705 340.11 696.353L340.191 696.289L340.259 696.234C340.651 695.921 341.071 695.586 341.506 695.144C342.771 693.799 343.939 692.366 345.005 690.858C346.304 689.025 347.322 687.266 347.322 687.266C347.322 687.266 348.37 685.536 349.359 683.526C350.171 681.865 350.872 680.152 351.455 678.397C351.657 677.165 351.968 675.953 352.385 674.775C351.983 675.388 351.472 675.793 350.902 676.246L350.902 676.246C350.509 676.558 350.088 676.893 349.654 677.333C348.39 678.678 347.221 680.111 346.156 681.619C344.857 683.452 343.853 685.211 343.853 685.211C343.853 685.211 342.791 686.941 341.816 688.951C340.998 690.609 340.297 692.323 339.72 694.08C339.609 694.72 339.471 695.354 339.305 695.98C338.675 695.69 338.028 695.395 337.372 695.099C336.19 694.583 334.97 694.07 333.766 693.593C333.963 692.681 334.132 691.763 334.273 690.84C334.715 688.165 334.863 685.711 334.863 685.711C334.863 685.711 335.055 683.257 334.981 680.552C334.942 678.332 334.735 676.119 334.361 673.93C333.915 672.512 333.565 671.065 333.313 669.599C333.081 671.059 332.73 672.497 332.265 673.9C332.044 674.861 331.557 677.758 331.276 680.39C330.996 683.021 330.834 685.43 330.834 685.43C330.834 685.43 330.656 687.839 330.582 690.485C330.565 691.118 330.556 691.767 330.553 692.402C330.288 692.312 330.027 692.225 329.77 692.143L329.329 692.001L329.328 692.001L329.321 691.998C327.174 691.308 325.395 690.737 324.456 690.502C322.184 689.965 320.465 689.758 318.771 689.555L318.461 689.518L318.227 689.489L318.003 689.462L317.917 689.451C317.106 688.91 316.285 688.383 315.453 687.873C311.92 685.941 308.141 684.499 304.22 683.586C300.485 682.634 296.684 681.785 292.928 680.99C289.961 667.935 287.678 657.678 285.183 646.268C284.661 643.858 284.126 641.397 283.571 638.849L285.006 637.803L285.025 637.796L285.026 637.796L285.026 637.796L285.026 637.796C285.367 637.681 285.825 637.526 286.33 637.318C286.417 637.282 286.506 637.245 286.596 637.209L286.824 637.116L286.827 637.115L286.827 637.115L286.829 637.114C287.453 636.86 288.128 636.585 288.765 636.283C290.389 635.515 291.806 634.731 291.806 634.731C291.806 634.731 293.282 633.977 294.758 633.031C295.525 632.558 296.308 632.011 296.957 631.553C297.397 631.243 297.79 630.939 298.085 630.711C298.225 630.603 298.343 630.511 298.433 630.445C298.8 630.128 299.089 629.817 299.357 629.527C299.791 629.059 300.17 628.649 300.736 628.375C300.446 628.418 300.154 628.453 299.862 628.48C300.69 627.654 301.5 626.891 302.34 626.1C303.743 624.779 305.228 623.382 307.009 621.489C307.282 621.185 307.645 620.797 308.077 620.335C309.135 619.202 310.606 617.627 312.19 615.769L312.243 615.706C314.461 613.102 317.109 609.994 319.496 606.9C321.902 603.781 324.131 600.825 325.74 598.593L328.441 595.03L330.995 591.276C331.32 590.774 331.676 590.23 332.054 589.652C333.392 587.607 335.013 585.129 336.589 582.525C338.612 579.185 340.663 575.637 342.302 572.592C343.94 569.547 345.254 567.005 345.859 565.733C346.977 563.466 347.748 561.605 348.475 559.849C348.855 558.933 349.222 558.045 349.621 557.143C351.233 554.893 352.898 552.566 354.612 550.167L361.993 539.939L352.073 547.64C335.261 560.692 307.393 582.731 298.625 589.752C292.353 594.757 287.276 598.893 282.576 602.721L282.573 602.724L281.441 603.646L280.169 604.681C279.285 590.443 278.359 578.132 278.359 578.132C278.359 578.132 277.34 564.194 275.938 548.88C274.536 533.566 272.72 516.893 272.041 511.35C271.507 506.658 270.964 502.906 270.455 499.394L270.455 499.393C269.929 495.758 269.439 492.38 269.036 488.482L273.99 487.477L274.374 487.403L274.669 487.196C283.556 481.254 298.899 470.904 308.614 464.287L310.817 465.854L309.507 463.681L310.641 462.911L308.973 461.684L307.779 460.811L299.376 446.842C299.368 446.257 299.369 445.671 299.378 445.085C299.323 444.1 299.156 441.926 298.925 439.394C299.374 441.282 299.78 442.84 299.999 443.593C300.317 444.705 300.654 445.601 300.967 446.433C301.394 447.569 301.777 448.586 302.007 449.875C301.851 448.631 301.904 447.582 301.962 446.429V446.429V446.428V446.428V446.428V446.428V446.428V446.428V446.427V446.427V446.427V446.427V446.427V446.427C302.009 445.498 302.059 444.502 302.007 443.282C302.007 441.804 301.785 437.37 301.342 433.379C300.899 429.388 300.338 425.737 300.338 425.737C300.338 425.737 299.822 422.1 299.04 418.139C298.257 414.177 297.18 409.891 296.766 408.472C296.449 407.418 296.129 406.561 295.834 405.77C295.388 404.576 294.999 403.533 294.759 402.19C294.914 403.434 294.861 404.483 294.803 405.636V405.636V405.636V405.636V405.636V405.636V405.636V405.636V405.636V405.637V405.637V405.637V405.637V405.637C294.763 406.439 294.72 407.291 294.743 408.293C294.695 408.014 294.656 407.776 294.625 407.585C294.01 405.307 293.517 402.998 293.149 400.667C293.186 401.689 293.105 402.582 292.991 403.494C292.922 403.095 292.848 402.681 292.764 402.248C292.705 401.945 292.629 401.566 292.527 401.057L292.527 401.054C292.374 400.295 292.164 399.245 291.864 397.725L291.303 394.858L289.429 397.341C286.768 400.911 282.117 407.651 280.381 410.213C278.668 408.408 275.907 405.584 273.221 403.061C269.649 399.706 266.298 396.75 266.298 396.75C266.298 396.75 262.977 393.793 259.184 390.674C257.581 389.357 255.888 388.026 254.357 386.846C252.781 385.186 251.07 383.383 249.235 381.452L248.231 380.402L247.714 381.881L247.674 381.995C247.499 381.886 247.327 381.782 247.157 381.679C247.194 380.862 247.175 380.093 247.158 379.371V379.371V379.371V379.37L247.158 379.369C247.149 379.014 247.141 378.67 247.139 378.338L247.17 378.274L247.183 378.247L246.578 378.114L246.574 378.123L246.534 378.114C246.535 378.144 246.535 378.174 246.536 378.204ZM285.183 646.268C287.645 657.628 289.832 667.874 292.554 680.911L292.131 680.822C284.086 679.122 276.382 677.777 270.684 676.816L261.311 675.338C261.311 675.338 251.249 673.738 238.601 671.854L231.024 669.928C234.794 647.876 238.824 623.902 242.013 604.247L243.471 606.459C242.733 611.532 241.947 616.694 241.216 621.496L241.215 621.498C240.942 623.292 240.676 625.035 240.424 626.704C239.769 631.036 239.183 634.852 238.74 637.736L238.74 637.737L238.739 637.739L238.739 637.742L238.737 637.755C238.503 639.281 238.308 640.545 238.166 641.486C237.571 645.3 237.134 648.499 236.73 651.457L236.73 651.457C236.071 656.282 235.5 660.465 234.475 665.624C235.235 661.872 236.055 658.7 236.903 655.42L236.904 655.416C236.994 655.065 237.085 654.714 237.176 654.361L237.318 653.81C238.221 650.307 239.18 646.589 240.232 641.87C240.368 641.232 240.541 640.443 240.743 639.523L240.744 639.521L240.744 639.52C241.393 636.558 242.341 632.235 243.332 627.207C244.631 620.615 246.122 612.825 247.391 605.345C247.472 604.87 247.552 604.396 247.631 603.923L247.71 603.918L247.631 603.923C248.802 596.964 249.832 590.375 250.564 585.42L251.804 576.714C251.804 576.714 252.247 573.299 252.941 567.993C253.537 563.436 254.198 557.496 254.905 551.135L254.906 551.124L254.917 551.029L254.922 550.979C255.033 549.983 255.145 548.976 255.258 547.964C256.1 540.425 256.734 532.517 257.222 525.792C257.656 519.793 257.949 514.782 258.123 511.818L258.124 511.804C258.145 511.45 258.163 511.126 258.181 510.833C258.404 506.784 258.487 503.428 258.564 500.326C258.583 499.532 258.603 498.755 258.624 497.988C258.647 497.154 258.664 496.334 258.682 495.517C258.85 494.348 259.02 493.166 259.191 491.969L259.892 491.826L265.006 490.77C266.888 505.92 269.275 525.188 271.328 541.759L271.328 541.759L271.34 541.861L271.348 541.924L272.249 549.199C273.297 564.518 274.344 578.428 274.344 578.428C274.344 578.428 275.436 592.367 276.632 607.681C277.827 622.994 279.436 639.697 279.997 645.255C280.42 649.642 280.851 653.213 281.252 656.535L281.252 656.535L281.252 656.536L281.252 656.537L281.253 656.537L281.253 656.538C281.789 660.982 282.272 664.981 282.61 669.896C282.338 665.092 282.31 661.142 282.279 656.793V656.793V656.793V656.792V656.792V656.792V656.792V656.792V656.792V656.791V656.791V656.791V656.791V656.791V656.791V656.79C282.255 653.351 282.229 649.663 282.079 645.107C282.047 643.903 281.991 642.177 281.913 640.056L282.668 639.506L283.567 638.852C284.121 641.4 284.657 643.86 285.183 646.268ZM211.553 423.563C213.459 423.806 215.355 424.12 217.237 424.506C217.445 425.874 217.596 427.251 217.691 428.632C217.754 429.083 217.863 429.784 218.005 430.649C215.724 428.41 213.569 426.044 211.553 423.563ZM246.963 383.985C246.982 383.805 246.999 383.633 247.015 383.469L247.108 383.579L246.963 383.985ZM244.036 401.241L248.716 385.364C250.24 387.008 253.545 390.416 256.733 393.424C260.305 396.794 263.642 399.736 263.642 399.736C263.642 399.736 266.962 402.692 270.756 405.811C273.209 407.828 275.872 409.875 277.847 411.363C278.409 411.919 278.97 412.475 279.534 413.036L280.014 413.826L280.015 413.828C280.625 414.832 281.248 415.857 281.893 416.915L283.258 419.602C283.258 419.602 287.377 427.598 291.657 435.048L294.683 440.34L294.702 439.568C295.326 440.714 295.972 441.905 296.649 443.158C296.861 443.926 297.082 444.692 297.311 445.455C297.692 446.734 298.104 447.74 298.488 448.679L298.488 448.679C298.952 449.813 299.376 450.849 299.658 452.151C299.537 450.868 299.454 449.581 299.41 448.293L304.997 458.778L296.904 452.863C290.484 447.691 283.578 442.166 277.413 437.355C267.184 429.373 259.065 423.224 259.065 423.224L257.146 421.746L256.556 421.436L257.161 421.746L256.571 421.436L256.231 421.332L253.117 420.327L239.662 416.109C239.875 415.615 240.088 415.081 240.29 414.476C240.777 413.175 242.076 409.199 243.006 405.519C243.24 404.593 243.461 403.686 243.661 402.846C243.699 402.693 243.733 402.547 243.764 402.411C243.828 402.137 243.89 401.872 243.949 401.617L243.95 401.615L243.95 401.614C243.979 401.487 244.008 401.363 244.036 401.241ZM279.534 413.036L279.509 412.996C279.01 412.493 278.515 411.993 278.02 411.493C278.732 412.028 279.347 412.485 279.82 412.833L279.834 412.861L281.733 416.599L279.642 413.143L279.534 413.036ZM286.786 417.784L286.25 416.773C286.547 416.959 286.847 417.156 287.155 417.37C286.775 417.085 286.431 416.799 286.11 416.508L283.77 412.095C285.175 409.84 288.041 405.119 290.203 401.392C290.409 401.987 290.56 402.409 290.683 402.736C291.239 404.185 291.761 405.411 292.246 406.548L292.246 406.548L292.246 406.549L292.246 406.549L292.246 406.549L292.249 406.556C292.356 406.807 292.461 407.053 292.565 407.297C292.556 407.439 292.549 407.585 292.543 407.733C292.406 411.31 292.451 414.891 292.676 418.464C292.746 419.699 292.838 420.892 292.934 421.969C292.866 422.394 292.799 422.835 292.735 423.297C292.59 424.294 292.345 426.117 292.078 428.288C289.278 422.536 286.786 417.784 286.786 417.784ZM330.61 695.848C327.562 694.295 324.919 692.98 323.733 692.453C322.847 692.053 322.066 691.675 321.339 691.323C320.575 690.953 319.871 690.612 319.169 690.305C320.655 691.34 322.103 692.427 323.512 693.564L328.634 697.525C329.472 698.176 330.272 698.804 331.04 699.411C330.958 698.624 330.839 697.84 330.686 697.063C330.657 696.79 330.631 696.37 330.61 695.848ZM293.374 684.848C293.106 684.798 292.837 684.747 292.57 684.697C292.171 684.623 291.774 684.548 291.378 684.473C287.723 683.786 284.136 683.15 280.776 682.576L285.62 683.807L293.573 685.802L293.374 684.848ZM218.348 425.384C218.207 425.136 218.07 424.894 217.937 424.652C219.326 424.95 220.706 425.287 222.077 425.662C222.245 425.695 222.44 425.735 222.672 425.783L222.672 425.783C223.235 425.9 224.017 426.061 225.177 426.275C226.132 429.999 227.746 435.608 228.463 438.028C227.946 441.194 227.603 443.517 227.384 445.088C226.155 442.275 224.745 439.122 223.568 436.659L223.435 436.393L223.361 436.305C223.011 435.902 222.677 435.524 222.359 435.169C221.602 432.752 220.729 430.374 219.743 428.041C219.257 426.986 218.786 426.155 218.348 425.384ZM225.853 452.12C225.833 451.928 225.812 451.736 225.791 451.546C226.05 452.215 226.26 452.749 226.401 453.103L226.119 455.01C226.049 454.045 225.96 453.082 225.853 452.12ZM296.213 441.525C295.681 439.462 295.213 437.382 294.809 435.29L294.717 438.99C295.2 439.811 295.698 440.654 296.213 441.525ZM238.065 419.546C238.045 419.788 238.025 420.029 238.002 420.27C238.06 420.034 238.123 419.808 238.192 419.589L251.788 424.141L254.888 425.161L255.016 425.205L256.615 426.447C256.615 426.447 264.704 432.625 275.184 440.297C281.902 445.214 289.596 450.739 296.661 455.781L304.028 461.573C302.632 462.517 301.183 463.379 299.688 464.155C298.551 464.88 295.26 467.112 292.307 469.299C289.355 471.487 286.728 473.497 286.728 473.497C286.728 473.497 284.071 475.507 281.222 477.813C280.122 478.704 278.991 479.641 277.96 480.513C276.125 481.706 274.414 482.821 272.883 483.821L269.717 484.431C269.605 484.42 269.488 484.412 269.368 484.407C268.572 484.347 267.773 484.347 266.977 484.407C265.951 484.487 264.934 484.655 263.937 484.909C262.927 485.15 261.939 485.477 260.984 485.885C260.711 486.006 260.44 486.135 260.174 486.271L255.744 487.125L231.523 484.462L225.991 483.862C226.021 483.657 226.055 483.429 226.091 483.176C226.386 481.107 226.829 477.943 227.39 473.923C227.543 472.81 227.704 471.631 227.875 470.39C227.973 469.848 228.067 469.302 228.157 468.764C228.777 465.039 229.22 461.654 229.22 461.654C229.22 461.654 229.707 458.254 230.091 454.5C230.118 454.236 230.144 453.97 230.17 453.704L230.299 452.816L230.978 448.248C230.978 448.248 231.45 445.218 232.306 438.182V437.709L232.173 437.31C231.421 435.107 229 428.441 227.494 424.686L227.14 423.785H227.122C226.047 420.636 225.257 418.345 224.659 416.689C224.519 416.29 224.38 415.894 224.244 415.505L224.24 415.495L224.239 415.492C224.032 414.902 223.83 414.327 223.639 413.78C227.66 414.959 231.27 415.989 234.705 416.969L234.705 416.969L234.706 416.969L235.269 417.13L234.814 418.465L236.6 419.056L238.065 419.546ZM302.821 463.466C303.263 462.843 303.676 462.262 304.179 461.692L305.492 462.725C304.198 463.555 302.825 464.437 301.398 465.355C301.964 464.673 302.405 464.051 302.821 463.466ZM267.639 488.765L269.001 488.489C269.305 492.692 269.411 496.316 269.528 500.306C269.625 503.615 269.729 507.175 269.96 511.527C269.997 512.272 270.047 513.217 270.107 514.331C269.239 505.334 268.393 496.567 267.656 488.943L267.639 488.765ZM281.742 635.617C281.609 632.337 281.444 628.541 281.252 624.496C281.656 627.704 282.085 631.016 282.55 634.511C282.077 630.96 281.647 627.598 281.244 624.342C280.986 618.929 280.68 613.076 280.337 607.414C280.301 606.82 280.264 606.227 280.228 605.637C281.31 604.852 282.402 604.06 283.514 603.255L283.526 603.246L283.556 603.225L283.576 603.21C288.559 599.6 293.92 595.716 300.337 590.964C307.788 585.474 328.036 570.385 344.264 558.149C327.168 581.481 316.736 595.946 316.736 595.946L295.486 625.365C292.809 627.346 288.246 630.749 282.708 634.894L282.609 634.437L282.708 634.894L281.742 635.617ZM297.685 628.527C298.329 628.558 298.974 628.549 299.615 628.5C300.694 627.121 301.589 625.784 302.578 624.305C303.411 623.059 304.311 621.714 305.444 620.159C307.097 617.882 312.057 610.994 316.574 604.712C321.09 598.43 325.12 592.651 325.12 592.651C325.12 592.651 329.12 586.871 333.46 580.441L341.131 568.978C327.919 587.361 319.939 598.311 319.939 598.311L298.403 627.873L298.226 628.125L297.99 628.302L297.685 628.527ZM242.956 598.401L244.331 600.515C244.561 598.927 244.788 597.369 245.009 595.857L245.012 595.837L245.012 595.837C245.61 591.735 246.158 587.972 246.594 584.858C247.332 579.581 247.804 576.167 247.804 576.167L248.97 567.475C249.414 564.101 249.954 559.953 250.54 555.442C250.307 555.184 250.075 554.927 249.842 554.671C248.971 560.258 248.526 563.176 248.526 563.176L242.956 598.401ZM249.951 553.969C250.183 554.186 250.415 554.402 250.647 554.619L251.07 551.369L251.568 547.535L254.184 526.448C253.171 533.283 252.269 539.233 251.479 544.241C250.88 548.035 250.37 551.286 249.951 553.969Z" fill="#2E2E2E"/>
<path fill-rule="evenodd" clip-rule="evenodd" d="M91.1317 475.846L91.1623 475.789C91.1184 475.87 91.0747 475.951 91.0314 476.032C90.5134 476.991 90.0283 477.835 89.5446 478.633L89.4204 478.509C88.9428 478.033 88.5118 477.603 88.1944 476.984C88.4232 477.999 88.5751 479.03 88.649 480.068C88.0834 480.95 87.4946 481.831 86.8353 482.817L86.8353 482.817C86.1517 483.839 85.3926 484.975 84.5052 486.343C83.5488 487.791 81.4331 491.138 79.1607 494.954L77.6403 491.516L74.9538 485.515L72.5771 480.208L71.101 485.854C71.0263 486.16 70.8661 486.807 70.6322 487.751L70.6312 487.755C69.2004 493.532 65.0171 510.42 60.7685 528.455L60.562 529.341L61.1227 529.992C67.8902 537.804 75.3348 546.273 79.7027 551.222C79.6102 554.307 79.4944 557.315 79.3735 560.459L79.3733 560.462V560.462V560.462C79.1786 565.524 78.9702 570.94 78.8229 577.603C78.6626 583.9 78.3584 599.941 78.1593 616.821C75.7691 615.656 73.8465 614.539 71.6939 613.289L71.6937 613.288L71.6934 613.288L71.693 613.288C69.9075 612.251 67.9637 611.122 65.4633 609.797L60.6661 607.269L57.8022 605.791L58.9093 608.954C60.5477 613.655 63.6772 622.258 66.5261 629.649C69.3749 637.039 71.8545 643.247 71.8545 643.247C71.8545 643.247 73.7731 648.164 77.8722 657.996C77.859 661.949 77.8527 665.004 77.8502 666.768C75.6652 667.128 72.8376 667.61 69.8923 668.151C63.5452 669.319 56.6076 670.738 54.3787 671.241C50.8942 671.997 47.5996 673.456 44.6956 675.527C44.7459 675.535 44.7962 675.543 44.8466 675.551C44.8921 675.558 44.9377 675.565 44.9832 675.572C38.6189 678.863 27.912 684.441 27.912 684.441C27.912 684.441 10.3319 693.532 6.84835 695.379C4.15498 696.777 1.8134 698.768 -0.000488281 701.203C3.02977 701.121 6.00199 700.353 8.69345 698.956C12.2213 697.168 29.7571 688.033 29.7571 688.033C29.7571 688.033 47.3372 678.942 50.8355 677.095C51.701 676.645 52.5302 676.135 53.3172 675.568C53.9453 675.474 54.5709 675.359 55.193 675.223C54.4743 675.666 53.7432 676.128 53.0358 676.592C50.0836 678.528 47.5153 680.45 47.5153 680.45C47.5153 680.45 44.9176 682.312 42.1868 684.559C39.4561 686.806 36.5923 689.407 35.6771 690.324C34.4348 691.793 33.1144 693.195 31.7213 694.522C33.4057 693.589 35.1403 692.75 36.9171 692.009C38.0685 691.418 41.434 689.511 44.3714 687.575C47.3088 685.638 49.8919 683.717 49.8919 683.717C49.8919 683.717 52.5044 681.839 55.2351 679.607C57.9204 677.412 60.7201 674.846 61.6828 673.89C64.4049 673.343 67.5799 672.723 70.6304 672.172C76.9332 671.034 82.6602 670.117 82.6602 670.117C82.6602 670.117 88.4169 669.216 94.764 668.388C99.6893 667.746 104.97 667.157 108.165 666.814L109.258 672.734L110.815 666.535C111.376 666.471 111.935 666.39 112.49 666.292C112.996 666.462 113.531 666.634 114.101 666.807C116.315 667.502 122.957 669.439 129.186 670.961C135.416 672.484 140.995 673.755 140.995 673.755C140.995 673.755 142.752 674.15 145.391 674.707C145.67 674.795 145.926 674.869 146.142 674.931L146.142 674.931C146.332 674.986 146.491 675.031 146.604 675.069C147.615 675.144 148.61 675.369 149.556 675.734C149.466 675.665 149.384 675.592 149.307 675.515C150.458 675.747 151.671 675.987 152.907 676.223C159.166 677.421 166.029 678.5 168.332 678.795C170.167 679.057 171.677 679.178 173.081 679.291C174.931 679.439 176.596 679.572 178.576 679.993C176.614 679.533 175.053 678.955 173.325 678.315C171.998 677.823 170.572 677.295 168.79 676.755C166.576 676.046 159.933 674.11 153.704 672.587C151.69 672.095 149.744 671.63 148.032 671.227C148.228 670.744 148.431 670.268 148.64 669.799C149.33 667.685 149.911 665.489 150.374 663.245C151.081 659.782 151.565 656.251 151.816 652.725C151.958 650.442 151.977 648.176 151.872 645.96C151.653 644.557 151.495 643.112 151.399 641.635C151.123 643.134 150.761 644.605 150.32 646.021C149.847 648.182 149.435 650.366 149.087 652.566C148.658 655.216 148.339 657.626 148.339 657.626C148.339 657.626 148.009 660.035 147.709 662.703C147.409 665.37 147.21 668.327 147.169 669.342C147.191 669.9 147.198 670.463 147.192 671.03C146.7 670.914 146.231 670.805 145.791 670.703C145.864 670.259 145.947 669.818 146.042 669.38C146.161 667.781 146.161 666.17 146.042 664.57C145.95 663.335 145.797 662.108 145.585 660.898C145.379 659.688 145.109 658.497 144.777 657.335C144.357 655.821 143.819 654.365 143.171 652.991C142.945 652.515 142.696 652.156 142.463 651.817C142.158 651.375 141.878 650.969 141.703 650.387C141.818 651.45 141.839 652.525 141.767 653.594C141.767 654.293 141.969 656.335 142.224 658.226C142.479 660.117 142.766 661.72 142.766 661.72C142.766 661.72 143.043 663.378 143.426 665.187C143.737 666.691 144.11 668.173 144.542 669.627C144.67 669.912 144.789 670.202 144.902 670.496C144.653 670.439 144.416 670.384 144.193 670.333C143.236 669.721 142.231 669.189 141.186 668.742C140.122 668.27 139.021 667.885 137.895 667.59C137.026 667.369 136.143 667.206 135.253 667.102C134.697 667.021 134.211 667.009 133.846 667L133.844 667C133.676 666.996 133.534 666.993 133.422 666.983C132.45 667.177 131.462 667.281 130.47 667.294C130.684 667.357 130.876 667.444 131.057 667.547C130.702 667.478 130.344 667.409 129.984 667.34C125.255 666.435 120.18 665.598 116.989 665.115C118.176 664.698 119.337 664.202 120.463 663.628C117.924 662.824 115.283 662.414 112.63 662.406C112.51 661.918 112.379 661.389 112.239 660.819C114.011 653.678 115.911 645.943 117.708 638.543C116.985 642.903 116.487 647.575 116.388 649.171C116.289 650.536 116.311 651.654 116.331 652.697V652.697C116.356 653.992 116.379 655.17 116.166 656.562C116.809 654.189 117.573 651.85 118.454 649.556C118.941 647.974 120.314 643.214 121.406 638.839C122.499 634.464 123.458 630.473 123.458 630.473C123.458 630.473 124.417 626.497 125.392 622.077C126.366 617.657 127.311 612.824 127.576 611.183C127.83 608.735 128.214 606.303 128.728 603.896C128.28 605.223 127.735 606.263 127.137 607.402C126.65 608.33 126.129 609.324 125.599 610.592C124.985 611.957 123.403 616.069 122.129 620.124C123.413 614.728 124.468 610.269 125.145 607.406L125.147 607.396L125.151 607.381L125.151 607.381C125.489 605.953 125.732 604.926 125.861 604.381L127.62 602.227C127.62 602.227 143.03 583.277 160.448 561.297L168.626 550.95L158.057 558.755C145.481 568.052 130.144 579.641 124.668 583.883C120.108 587.363 116.41 590.266 112.998 592.943L112.998 592.943L112.997 592.944C109.026 596.06 105.444 598.871 101.346 601.933C101.196 601.24 101.024 600.45 100.831 599.58C100.539 598.142 100.127 596.496 99.6783 594.707L99.6758 594.697C99.6042 594.411 99.5318 594.122 99.4588 593.83C99.2616 593.082 99.0643 592.319 98.862 591.536L98.859 591.524C98.7745 591.198 98.6892 590.868 98.6026 590.534C98.3461 589.545 98.0451 588.556 97.7383 587.548L97.5989 587.09L96.5654 583.572C96.4665 583.282 96.3676 582.993 96.269 582.705C95.9701 581.832 95.6734 580.965 95.3848 580.098L94.2187 576.743L92.9786 573.609C91.8874 570.637 90.6752 568.141 89.8251 566.391L89.8251 566.391L89.8249 566.39C89.5252 565.773 89.2705 565.249 89.0819 564.829C88.0325 562.727 87.0429 561.051 86.1288 559.509C85.8899 558.558 85.6494 557.585 85.4065 556.584C85.6383 557.549 85.86 558.491 86.0732 559.415C85.7212 558.822 85.3806 558.247 85.0523 557.675C84.5022 556.716 83.9053 555.823 83.2945 554.909L83.2796 554.887C83.4409 554.798 83.6027 554.711 83.765 554.625C84.209 555.144 84.6592 555.675 85.1187 556.222C85.224 556.347 85.3297 556.473 85.436 556.599C85.3297 556.472 85.224 556.347 85.1187 556.222C84.6631 555.679 84.2176 555.144 83.7805 554.616C85.0331 553.95 86.3138 553.338 87.6189 552.782C88.7259 552.19 92.0469 550.298 94.7924 548.347C97.5379 546.396 100.106 544.534 100.106 544.534C100.106 544.534 101.895 543.209 104.029 541.466C107.033 539.638 110.066 537.836 113.583 535.86C110.809 537.393 108.249 538.747 105.736 540.039C108.18 537.942 110.6 535.619 111.413 534.778C111.828 534.264 112.254 533.759 112.689 533.262C112.75 533.397 112.811 533.53 112.871 533.662C113.091 534.147 113.304 534.614 113.501 535.093C113.543 535.361 113.585 535.632 113.627 535.904C113.587 535.638 113.548 535.375 113.509 535.113C113.76 535.724 113.987 536.354 114.175 537.069C113.95 535.437 113.788 533.798 113.69 532.155C114.175 531.634 114.671 531.124 115.177 530.624C114.674 530.91 114.165 531.186 113.652 531.454C113.629 530.976 113.612 530.497 113.6 530.018C113.452 528.436 112.891 523.721 112.271 519.434C111.651 515.148 111.046 511.275 111.046 511.275C111.046 511.275 110.426 507.388 109.732 503.13C109.711 503.001 109.69 502.871 109.668 502.74C109.49 501.344 109.267 499.611 108.993 497.483L108.991 497.465C108.622 494.593 108.16 491.002 107.59 486.549L107.058 482.366L104.903 486.076C103.058 489.265 100.957 492.928 98.8384 496.641C97.4442 492.62 96.1167 489.127 95.5167 487.569C94.9531 486.115 94.4616 484.892 94.0181 483.788L94.018 483.788L94.0178 483.787C92.9115 481.035 92.1036 479.024 91.2211 476.013C91.9791 478.62 92.5148 480.947 93.0347 483.507C92.288 482.221 91.4654 480.981 90.571 479.793C90.2609 479.375 89.949 479.042 89.6505 478.74C90.0836 477.848 90.5379 476.954 91.0314 476.032L91.0707 475.959L91.1317 475.846ZM105.699 492.486C105.62 492.037 105.539 491.576 105.455 491.102C104.294 493.317 103.059 495.653 101.807 498.008C101.452 499.065 101.047 500.231 100.639 501.346C99.6502 504.051 98.6615 506.46 98.6615 506.46C98.6615 506.46 97.687 508.87 96.5357 511.501C95.3843 514.132 93.9675 516.97 93.4509 517.901C92.5459 519.213 91.7508 520.597 91.0743 522.04C91.2714 520.605 91.3952 519.16 91.445 517.713L89.7601 520.68L87.8411 524.08L86.2321 520.458L85.9369 519.823C85.9369 519.823 81.3872 510.07 77.3112 500.485L73.9649 493.068C73.9649 493.068 73.9308 492.987 73.6521 492.36L73.5294 492.844L72.9118 495.283C72.9978 495.86 73.0931 496.436 73.1978 497.011C73.3916 499.766 73.4258 502.53 73.3009 505.289C73.1533 508.659 72.7697 511.704 72.7697 511.704C72.7697 511.704 72.4447 514.734 71.81 518.045C71.2947 520.762 70.6246 523.446 69.8027 526.086C69.0764 527.767 68.4359 529.484 67.8838 531.23C67.9548 529.406 67.9054 527.579 67.736 525.761C67.736 524.534 67.8541 520.898 68.1198 517.542C68.3161 515.064 68.5769 512.803 68.6998 511.791C67.3641 516.981 65.8964 522.635 64.373 528.414C71.6785 537.287 79.5154 546.962 83.1375 551.479L85.4045 550.301C86.7546 549.601 88.0438 548.939 89.2834 548.308C90.292 547.378 91.4373 546.355 92.5635 545.406C95.1762 543.203 97.6707 541.341 97.6707 541.341C97.6707 541.341 100.136 539.508 102.97 537.542C105.804 535.576 109.052 533.684 110.159 533.107C110.85 532.812 111.535 532.502 112.213 532.176C111.996 531.66 111.778 531.102 111.563 530.476C110.393 527.083 109.407 523.629 108.611 520.129C107.622 515.857 107.046 511.911 107.046 511.911C107.046 511.911 106.396 508.038 106.042 503.603C105.734 500.025 105.616 496.433 105.688 492.843C105.691 492.722 105.695 492.603 105.699 492.486ZM82.6 555.265C82.7025 555.164 82.8046 555.062 82.9062 554.96C82.8193 554.774 82.7312 554.586 82.6415 554.399L82.5702 554.44L81.9208 553.731C81.3799 553.12 80.7137 552.367 79.9445 551.495C80.0353 554.473 80.1473 557.378 80.2642 560.412C80.4593 565.472 80.6681 570.891 80.8157 577.603C80.9928 585.142 81.3471 606.664 81.5685 626.84C81.6965 638.507 81.7505 649.744 81.7732 657.596L81.7885 657.985L82.0925 665.879L86.9561 665.213L107.37 662.469C105.471 652.02 104.068 643.982 103.317 639.652C102.491 636.036 101.636 632.275 100.787 628.511C97.3921 613.448 94.0858 598.283 92.7868 592.237C91.5284 586.299 90.566 581.357 89.673 576.772L89.673 576.772L89.673 576.772C89.0688 573.67 88.4965 570.731 87.8857 567.758C87.5867 566.941 87.3367 566.257 87.163 565.73L84.2995 558.103C83.8589 557.076 83.4248 556.078 82.9551 555.065C82.8365 555.131 82.7181 555.198 82.6 555.265ZM83.5175 554.336C83.3985 554.46 83.2788 554.583 83.1585 554.705C83.0614 554.56 82.964 554.414 82.8665 554.267L83.2595 554.037C83.3453 554.136 83.4313 554.236 83.5175 554.336ZM90.4036 575.356C90.2442 574.787 90.0863 574.223 89.9297 573.663C90.0262 573.97 90.1227 574.282 90.2185 574.599C90.3213 574.922 90.4241 575.248 90.5277 575.576L90.5285 575.579C90.7522 576.288 90.9803 577.011 91.2222 577.748L92.1667 581.118C92.2568 581.434 92.3469 581.751 92.4374 582.069L92.4382 582.071C92.6734 582.899 92.9109 583.734 93.1559 584.577C93.4029 585.426 93.6029 586.276 93.8015 587.12L93.8016 587.12L93.802 587.122C93.8763 587.437 93.9503 587.752 94.0266 588.065L94.8976 591.48C95.1282 592.455 95.3477 593.419 95.5561 594.343C95.2626 593.223 95.0065 592.247 94.7941 591.439C93.1454 585.147 91.7247 580.074 90.4039 575.357L90.4037 575.356L90.4036 575.356ZM110.207 652.517C109.542 649.795 108.806 646.782 108.024 643.59C107.41 638.811 106.351 630.762 105.201 623.245C104.492 618.485 103.725 613.933 103.09 610.577C102.455 607.222 102.012 605.079 102.012 605.079C102.012 605.079 101.778 603.936 101.366 602.028C105.584 599.079 109.471 596.487 113.716 593.656L113.716 593.656C117.489 591.14 121.545 588.435 126.366 585.125C130.513 582.292 139.874 575.835 149.448 569.145C135.343 586.259 124.491 599.699 124.491 599.699L122.439 602.227L122.144 602.596L122.041 603.04C122.041 603.201 121.313 606.311 120.156 611.259L120.156 611.259C119.301 614.914 118.211 619.571 117.007 624.783C114.986 633.534 112.656 643.865 110.485 653.655L110.208 652.52L110.207 652.517ZM86.1413 486.659L86.1413 486.659L86.1409 486.66C85.9274 487.164 85.7075 487.683 85.4793 488.22C84.6598 490.099 82.8106 494.338 80.7583 498.568L87.6882 514.241C87.8621 514.61 88.0258 514.957 88.1782 515.282C88.6316 514.498 89.1496 513.606 89.7158 512.639C90.0759 512.024 90.4578 511.372 90.8576 510.693C92.5744 507.657 94.5766 504.125 96.6404 500.498C96.3594 499.383 96.0943 498.274 95.8477 497.204C95.0231 496.024 94.2618 494.801 93.5671 493.539C92.5043 491.618 91.722 489.785 91.722 489.785C91.722 489.785 90.8809 487.967 90.1577 485.882C89.5632 484.204 89.0782 482.489 88.7055 480.748C87.8701 482.578 87.0659 484.476 86.1413 486.659ZM84.4545 553.335L83.3526 553.982L83.2877 554.02L83.5342 554.319C83.8454 553.995 84.1522 553.667 84.4545 553.335ZM78.0556 626.84C77.9913 634.173 77.9464 641.334 77.9153 647.591C76.3816 643.683 75.589 641.755 75.589 641.755C75.589 641.755 73.1387 635.532 70.0833 628.215C67.5946 622.255 64.7144 615.56 62.6228 610.837L64.3267 611.526C66.6244 612.435 68.6001 613.152 70.4462 613.821L70.4483 613.822L70.4485 613.822C73.0961 614.782 75.4772 615.645 78.159 616.841C78.1199 620.164 78.0848 623.52 78.0556 626.84Z" fill="#2E2E2E"/>
</g>
<defs>
<clipPath id="clip0_2025_7778">
<rect width="384" height="730" fill="white"/>
</clipPath>
</defs>
</svg>
