<svg width="244" height="156" viewBox="0 0 244 156" fill="none" xmlns="http://www.w3.org/2000/svg">
<g clip-path="url(#clip0_2182_7816)">
<path d="M158.071 135.439C158.876 134.356 159.608 133.222 160.265 132.044C160.666 131.349 161.652 129.538 162.615 127.726C163.577 125.915 164.495 124.128 164.816 123.505L165.674 121.83L164.046 122.785L161.817 124.1L154.081 128.646L153.608 128.922L153.889 129.398C154.691 130.753 155.248 131.652 155.529 132.092C156.302 133.262 157.151 134.38 158.071 135.439C157.269 133.771 156.952 132.692 156.166 131.209C155.954 130.809 155.537 130.009 154.839 128.842L154.643 129.594L162.37 125.04L164.588 123.729L163.822 123.009C163.521 123.589 162.671 125.244 161.841 126.931C161.011 128.618 160.193 130.337 159.872 131.021C159.134 132.624 158.757 133.723 158.071 135.439Z" fill="black"/>
<path d="M154.362 139.265C154.739 137.266 155.104 135.75 155.42 132.868C155.521 131.936 155.737 129.865 155.962 127.243L155.998 126.843L155.597 126.699L143.615 122.357L141.241 121.494L139.324 120.77L140.639 122.329L149.205 132.524L149.12 132.384C149.65 133.635 149.882 134.175 150.031 134.531C150.599 135.888 151.244 137.213 151.964 138.497L152.06 138.669H152.188C152.93 138.799 153.658 139 154.362 139.269C153.736 138.778 153.047 138.375 152.313 138.069L152.541 138.253C152.12 136.844 151.619 135.46 151.041 134.107C150.889 133.751 150.64 133.208 150.135 131.96L150.103 131.884L150.051 131.82L141.477 121.646L140.872 122.509L143.246 123.369L155.224 127.718L154.863 127.155C154.65 129.586 154.518 131.477 154.462 132.352C154.298 134.991 154.39 136.642 154.362 139.265Z" fill="black"/>
<path d="M163.673 21.7249C166.14 18.1867 167.952 15.8799 170.96 11.686C171.361 11.1303 171.978 10.2507 172.736 9.22726C173.127 8.69253 173.636 8.25477 174.224 7.94794C174.946 7.61424 175.684 7.3193 176.438 7.06438L187.044 3.11841L189.707 2.11492C190.525 1.78365 191.358 1.4941 192.205 1.24737C193.769 0.811596 195.229 1.24736 196.42 1.78308C197.611 2.31881 198.59 2.89053 199.275 3.24635L200.338 3.82205L201.389 4.41374C202.062 4.81354 202.993 5.35327 204.123 6.09689C205.254 6.8405 206.55 7.78001 208.085 8.67955C209.719 9.61033 211.437 10.3828 213.218 10.9864C215.055 11.626 216.92 12.2257 218.732 12.8494C220.545 13.4731 222.317 14.0488 223.946 14.5565C226.383 15.3238 228.871 15.921 231.392 16.3436C233.557 16.6971 235.754 16.819 237.945 16.7074C239.912 16.6053 241.862 16.2889 243.76 15.7639C241.872 16.2635 239.925 16.5003 237.973 16.4676C235.8 16.4412 233.635 16.2123 231.505 15.7839C229.029 15.2765 226.59 14.6087 224.202 13.7849C222.598 13.2532 220.838 12.6215 219.037 11.9739L213.563 10.0269C211.844 9.42881 210.184 8.67122 208.607 7.76402C207.143 6.89247 205.856 5.95296 204.713 5.19735C203.57 4.44174 202.6 3.85403 201.906 3.46623L200.839 2.86654L199.764 2.28283C199.071 1.92701 198.12 1.3673 196.833 0.787598C196.122 0.46662 195.375 0.233028 194.607 0.091959C193.711 -0.0622132 192.791 -0.018541 191.913 0.219896C191.028 0.481734 190.157 0.791369 189.306 1.14742L186.667 2.19088C183.078 3.60216 179.329 5.0774 176.153 6.33275C175.375 6.6152 174.614 6.94362 173.875 7.31626C173.525 7.50787 173.2 7.74296 172.909 8.0159C172.652 8.26556 172.417 8.53711 172.207 8.82747C171.449 9.91891 170.892 10.7825 170.499 11.3662C167.631 15.66 166.116 18.1827 163.673 21.7249Z" fill="#1D1D1B"/>
<path d="M129.699 54.6L142.239 47.9634C150.199 43.6616 149.553 42.5662 151.318 42.894C154.225 43.4297 161.07 54.2242 160.754 57.2866L132.779 59.5255C132.779 59.5255 130.938 56.2672 129.699 54.6Z" fill="#F2F0ED"/>
<path d="M129.699 54.6C133.208 53.0008 135.478 52.0973 139.155 50.2023L141.329 49.0668C142.239 48.5911 143.386 47.9794 144.621 47.2638C145.856 46.5481 147.183 45.7326 148.503 44.805L149.481 44.1014C149.77 43.8767 150.075 43.6748 150.395 43.4977C150.511 43.4376 150.638 43.4022 150.768 43.3938C150.841 43.3938 150.909 43.3938 150.989 43.3938L151.238 43.4337C151.55 43.5218 151.842 43.6713 152.096 43.8735C152.693 44.3208 153.243 44.8286 153.736 45.3887C154.237 45.9444 154.702 46.5162 155.131 47.0799C155.99 48.2073 156.711 49.2987 157.293 50.2422C157.874 51.1858 158.311 51.9853 158.6 52.5451C158.749 52.8289 158.857 53.0488 158.929 53.2007C159.001 53.3527 159.041 53.4286 159.041 53.4286L159.346 54.0923C159.462 54.3601 159.627 54.7359 159.811 55.2597C159.918 55.5531 160.009 55.852 160.084 56.1552C160.181 56.4997 160.223 56.8572 160.208 57.2147L160.71 56.7269L137.206 58.6059C135.466 58.7499 134.034 58.8978 132.743 59.0617L133.168 59.2856C132.128 57.6417 130.968 56.0757 129.699 54.6C130.75 56.4471 131.48 58.0023 132.39 59.7334L132.51 59.9693H132.815C134.118 59.9293 135.554 59.8493 137.29 59.7134L160.798 57.8343L161.267 57.7944L161.299 57.3426C161.33 56.8617 161.278 56.379 161.147 55.9153C161.065 55.5768 160.965 55.2432 160.846 54.9158C160.645 54.3481 160.473 53.9523 160.349 53.6685L160.032 52.9768L159.915 52.737C159.839 52.581 159.727 52.3372 159.575 52.0613C159.274 51.4816 158.825 50.658 158.227 49.6865C157.542 48.5654 156.8 47.4793 156.006 46.4322C155.565 45.8485 155.083 45.2328 154.55 44.6691C154.006 44.0479 153.397 43.4863 152.733 42.994C152.355 42.6999 151.92 42.4888 151.454 42.3743C151.33 42.3463 151.222 42.3383 151.105 42.3183C150.989 42.2983 150.849 42.3183 150.704 42.3183C150.426 42.334 150.153 42.4047 149.902 42.5262C149.515 42.7313 149.146 42.9694 148.799 43.2378L147.837 43.9335C146.554 44.833 145.254 45.6326 144.039 46.3322C142.824 47.0319 141.702 47.6356 140.703 48.1673L138.449 49.3667C134.555 51.4816 132.534 52.8489 129.699 54.6Z" fill="#1D1D1B"/>
<path d="M157.285 21.3171L190.204 50.0144C190.204 50.0144 176.971 62.8678 164.511 71.3994L141.542 33.5268C141.542 33.5268 151.322 26.4784 157.285 21.3171Z" fill="#F2F0ED"/>
<path d="M157.285 21.3171C162.278 26.0227 165.578 29.165 171.485 34.3624L189.851 50.4301L189.831 49.6305C184.349 54.8839 179.232 59.2936 175.507 62.372C173.634 63.9112 172.11 65.1146 171.056 65.9382L169.399 67.1936C169.399 67.1936 169.271 67.3015 168.561 67.8252C167.852 68.3489 166.556 69.3125 164.206 70.9516L164.984 71.1155C163.072 67.9692 146.137 40.0315 142.014 33.2469L141.866 33.9706L142.568 33.4628C145.776 31.112 148.23 29.201 150.508 27.322C152.786 25.4429 154.887 23.6079 157.289 21.3251C154.658 23.352 152.397 24.9672 150.015 26.6983L141.918 32.5753L141.22 33.079L140.819 33.3749L141.08 33.8027L164.046 71.6752L164.347 72.171L164.824 71.8432C167.206 70.192 168.497 69.2205 169.215 68.6928C169.933 68.1651 170.061 68.0531 170.061 68.0531L171.721 66.7858C172.78 65.9542 174.316 64.7468 176.197 63.1876C179.946 60.0932 185.071 55.6755 190.593 50.3942L191.022 49.9944L190.569 49.5946L171.806 33.3269C165.79 28.0976 162.286 25.323 157.285 21.3171Z" fill="#1D1D1B"/>
<path d="M161.019 23.38C161.019 23.38 168.638 15.9918 171.986 15.3841C173.664 15.1097 175.38 15.1929 177.023 15.628C177.023 15.628 167.07 22.1806 166.131 28.7573L161.019 23.38Z" fill="#F2F0ED"/>
<path d="M161.019 23.38C162.666 22.3107 164.25 21.1467 165.763 19.8938C166.164 19.562 166.921 18.9503 167.86 18.2666C168.868 17.4934 169.953 16.8237 171.096 16.2677C171.244 16.2077 171.389 16.1357 171.533 16.0837L171.958 15.9638C172.26 15.8913 172.567 15.8431 172.876 15.8199C173.453 15.7625 174.034 15.7505 174.613 15.7839C175.374 15.8301 176.129 15.9506 176.867 16.1437L176.722 15.1642C175.627 15.9118 175.03 16.3916 174.665 16.6675L174.216 17.0233C174.216 17.0233 173.675 17.4231 172.852 18.1547C171.795 19.064 170.791 20.0331 169.845 21.0572C168.724 22.251 167.743 23.5681 166.921 24.9832C166.254 26.1216 165.801 27.3723 165.586 28.6733L166.528 28.3774L165.522 27.33C163.918 25.6788 162.779 24.8632 161.019 23.376C162.102 24.9906 163.309 26.5196 164.628 27.9497L165.738 29.1291L166.52 29.9606L166.681 28.8292C166.878 27.6637 167.286 26.5434 167.884 25.5229C168.664 24.1796 169.595 22.9295 170.659 21.7968C171.575 20.8089 172.547 19.8745 173.57 18.9982C174.372 18.3026 174.898 17.8908 174.898 17.8908L175.339 17.543C175.688 17.2791 176.293 16.7994 177.344 16.0917L178.318 15.4281L177.199 15.1122C176.383 14.8935 175.545 14.7595 174.701 14.7125C174.063 14.669 173.422 14.6771 172.784 14.7364C172.431 14.7655 172.079 14.8203 171.734 14.9003L171.18 15.0603C171.004 15.1242 170.839 15.2042 170.671 15.2721C169.452 15.8607 168.296 16.5721 167.222 17.3951C166.256 18.1027 165.502 18.7264 165.085 19.0662C163.544 20.3184 162.176 21.769 161.019 23.38Z" fill="#1D1D1B"/>
<path d="M179.425 41.3708C181.939 43.5497 183.868 45.3168 187.044 47.7675L187.95 48.4631L187.898 47.3157C187.898 46.804 187.85 46.1883 187.822 45.5326C187.754 44.2173 187.617 41.5867 187.453 38.3763C187.369 36.7771 187.281 35.026 187.184 33.227C187.136 32.3234 187.088 31.4079 187.04 30.4924C186.992 29.5768 186.888 28.6413 186.763 27.7298C186.543 25.9585 186.131 24.216 185.536 22.5324C185.027 21.087 184.28 19.736 183.327 18.5345C182.642 17.6916 181.819 16.971 180.892 16.4036C180.633 16.2466 180.365 16.1038 180.09 15.9758L179.806 15.8399L179.405 15.684C178.66 15.3953 177.883 15.198 177.091 15.0963L176.842 15.0603L176.646 15.2322L174.957 16.7554L173.053 18.4305L171.773 19.522C171.308 19.9218 170.791 20.3216 170.246 20.7214L170.871 21.6249C172.117 20.7747 173.54 20.2195 175.034 20.0017C175.932 19.8647 176.85 19.9206 177.724 20.1657C178.163 20.2973 178.58 20.4912 178.964 20.7414C179.148 20.8733 179.333 21.0172 179.513 21.1652C179.693 21.3131 179.854 21.481 180.006 21.6649C181.253 23.1002 181.879 25.0032 182.228 26.5984C182.494 27.8511 182.628 29.128 182.629 30.4084C182.599 31.4641 182.436 32.5118 182.144 33.5268C181.891 34.4783 181.63 35.3539 181.342 36.2014C180.776 37.9006 180.199 39.5077 179.425 41.3988C180.429 39.8315 181.32 38.1949 182.092 36.5013C182.487 35.6247 182.829 34.7248 183.114 33.8067C183.482 32.7151 183.686 31.5754 183.72 30.4244C183.728 29.0655 183.593 27.7095 183.319 26.3785C183.12 25.4498 182.841 24.5402 182.485 23.6599C182.089 22.6725 181.535 21.7557 180.844 20.9452C180.668 20.7334 180.443 20.5455 180.255 20.3496C180.066 20.1537 179.818 19.9977 179.585 19.8338C179.112 19.5231 178.596 19.2833 178.053 19.1222C177.028 18.8298 175.952 18.7616 174.897 18.9223C173.233 19.1644 171.646 19.7825 170.258 20.7294L170.883 21.6329C171.505 21.1851 172.014 20.7614 172.487 20.3616L173.783 19.2541L175.695 17.567L177.396 16.0398L176.951 16.1797C177.658 16.2707 178.353 16.4451 179.02 16.6994L179.373 16.8394L179.625 16.9593C179.794 17.0353 180.026 17.1632 180.323 17.3351C181.143 17.8399 181.871 18.4793 182.476 19.2261C183.354 20.3382 184.039 21.588 184.506 22.9242C185.069 24.5324 185.46 26.1955 185.673 27.8857C185.925 29.6488 185.989 31.4838 186.074 33.2909C186.158 35.098 186.258 36.8371 186.338 38.4403C186.507 41.6386 186.647 44.2813 186.715 45.5966C186.755 46.2523 186.791 46.868 186.819 47.3797L187.674 46.9279C184.69 44.7211 182.553 43.4337 179.425 41.3708Z" fill="#1D1D1B"/>
<path d="M121.964 53.1967C124.046 54.0145 126.192 54.6603 128.38 55.1277L129.234 55.3116L128.997 55.1997C129.634 55.7501 130.191 56.385 130.654 57.0867C130.933 57.5116 131.141 57.9788 131.271 58.47C131.397 58.9342 131.383 59.425 131.231 59.8813L131.287 59.7734L125.348 68.9926L125.132 69.3245L126.09 69.3564C125.974 69.1286 119.325 56.3391 117.974 53.7405C117.725 53.2647 117.492 52.8369 117.284 52.4611L116.706 53.2087C117.591 53.3642 118.487 53.4431 119.385 53.4446C120.258 53.4492 121.129 53.3621 121.984 53.1847C121.132 53.0956 120.287 52.9541 119.453 52.761C118.651 52.589 117.849 52.4091 116.927 52.1932L115.88 51.9414L116.354 52.9409C116.538 53.3407 116.755 53.7684 117.003 54.2402L125.12 69.8602L125.557 70.6957L126.066 69.8962L126.279 69.5643L132.226 60.3451L132.258 60.2931L132.278 60.2371C132.506 59.5789 132.534 58.8682 132.358 58.1942C132.197 57.5838 131.938 57.0033 131.592 56.4751C131.069 55.6774 130.436 54.9573 129.711 54.3361L129.611 54.2522L129.475 54.2202L128.604 54.0363C126.419 53.5675 124.197 53.2866 121.964 53.1967Z" fill="#1D1D1B"/>
<path d="M177.247 12.8694C178.212 13.0375 179.188 13.131 180.167 13.1492C181.265 13.1705 182.361 13.0468 183.427 12.7814C183.768 12.6975 184.293 12.5376 184.894 12.3297C185.203 12.2183 185.523 12.1405 185.849 12.0978C186.194 12.0608 186.543 12.106 186.867 12.2297C187.236 12.3537 187.637 12.5536 188.127 12.6935C188.611 12.8207 189.109 12.8918 189.61 12.9054C190.589 12.9453 191.547 12.9054 192.313 13.1892C192.662 13.3318 192.973 13.5528 193.222 13.8351C193.471 14.1174 193.651 14.4532 193.749 14.8164C193.833 15.1226 193.833 15.4457 193.749 15.7519C193.68 16.0063 193.541 16.2363 193.348 16.4156C192.999 16.7032 192.587 16.9045 192.145 17.0033C191.8 17.0912 191.595 17.1232 191.595 17.1232L191.018 17.2192C190.528 17.3029 190.031 17.335 189.534 17.3151C188.822 17.2332 188.129 17.0261 187.489 16.7034C187.065 16.51 186.63 16.3418 186.186 16.1997C185.708 16.0575 185.22 15.9533 184.726 15.8879C183.753 15.778 182.774 15.7206 181.795 15.7159C180.836 15.692 179.902 15.6959 179.04 15.7519C177.745 15.8088 176.467 16.0581 175.246 16.4915C174.198 16.8766 173.242 17.4757 172.439 18.2506C171.735 18.9367 171.188 19.7657 170.835 20.6814C171.207 19.7808 171.82 18.9994 172.607 18.4225C173.452 17.7949 174.403 17.3237 175.415 17.0313C176.599 16.7049 177.823 16.5421 179.052 16.5475C179.886 16.5475 180.796 16.5755 181.738 16.6315C182.681 16.6874 183.659 16.7354 184.546 16.8833C184.984 16.9505 185.416 17.0535 185.837 17.1912C186.247 17.3299 186.648 17.4914 187.04 17.6749C187.432 17.8569 187.833 18.0171 188.243 18.1547C188.632 18.2854 189.036 18.3673 189.446 18.3986C190.024 18.429 190.604 18.3955 191.174 18.2986C191.575 18.2386 191.788 18.1947 191.788 18.1947C191.788 18.1947 192.012 18.1587 192.417 18.0547C193.031 17.9136 193.6 17.6239 194.074 17.2112C194.416 16.8929 194.663 16.486 194.787 16.0358C194.912 15.5425 194.903 15.0248 194.759 14.5365C194.611 14.0316 194.353 13.5651 194.005 13.1692C193.639 12.7442 193.166 12.4241 192.634 12.2417C191.579 11.8859 190.529 12.0058 189.618 11.9938C189.186 11.9979 188.754 11.955 188.331 11.8659C187.93 11.778 187.529 11.598 187.088 11.4661C186.649 11.3284 186.183 11.2942 185.729 11.3662C185.358 11.4369 184.997 11.5468 184.65 11.694C184.04 11.9499 183.579 12.1218 183.254 12.2297C182.242 12.5653 181.198 12.7957 180.138 12.9174C179.177 13.0309 178.204 13.0147 177.247 12.8694Z" fill="#1D1D1B"/>
<path d="M171.004 25.5549C170.904 25.2565 170.863 24.9414 170.884 24.6274C170.884 24.5274 170.851 24.3315 170.847 24.0956C170.833 23.84 170.833 23.5837 170.847 23.328C170.847 23.0682 170.872 22.8243 170.884 22.6444C170.896 22.4645 170.916 22.3485 170.916 22.3485C170.916 22.3485 170.916 22.2326 170.964 22.0567C171.012 21.8808 171.036 21.6369 171.1 21.385C171.164 21.1332 171.232 20.8693 171.305 20.6454C171.377 20.4215 171.449 20.2456 171.477 20.1377C171.54 19.8305 171.66 19.5376 171.83 19.2741C171.719 19.3788 171.59 19.4628 171.449 19.522C171.291 19.6037 171.143 19.703 171.008 19.8178C170.86 19.9564 170.725 20.109 170.607 20.2736C170.513 20.3879 170.432 20.5112 170.362 20.6414C170.28 20.7751 170.208 20.9155 170.15 21.0612C170.039 21.3186 169.954 21.5865 169.897 21.8608L169.833 22.2206L169.805 22.5804C169.788 22.8569 169.802 23.1344 169.845 23.408C169.865 23.5636 169.897 23.7173 169.941 23.8677C169.979 24.0044 170.028 24.138 170.086 24.2675C170.16 24.457 170.253 24.6391 170.362 24.8113C170.464 24.9551 170.58 25.0889 170.707 25.2111C170.827 25.3064 170.927 25.423 171.004 25.5549Z" fill="#1D1D1B"/>
<path d="M194.339 16.0278C193.745 17.467 192.161 18.3026 190.605 18.4265C189.049 18.5505 187.509 18.1307 186.022 17.667C184.534 17.2032 183.022 16.6994 181.462 16.7034C179.998 16.7034 178.567 17.1552 177.107 17.2512C176.024 17.3231 174.897 17.2032 173.899 17.587C171.854 18.3586 171.064 20.7854 170.53 22.8883C170.374 23.512 170.234 24.2356 170.619 24.7553C170.85 25.025 171.151 25.2268 171.489 25.339C174.697 26.6623 178.334 26.0507 181.795 25.7388C184.951 25.463 188.247 25.4789 191.13 26.7863C193.701 27.9457 195.963 30.1205 198.786 30.1925C199.152 30.2337 199.522 30.1445 199.828 29.9406C200.446 29.4569 200.229 28.4854 199.917 27.7618C198.62 24.6446 197.05 21.6478 195.225 18.8064C194.824 18.2027 194.387 17.571 193.701 17.3511" fill="#F2F0ED"/>
<path d="M194.339 16.0278C194.002 16.7908 193.407 17.4119 192.658 17.7829C191.973 18.1369 191.216 18.3298 190.445 18.3466C189.632 18.3561 188.822 18.2512 188.039 18.0348C187.205 17.8229 186.326 17.511 185.32 17.1712C184.518 16.8948 183.698 16.6731 182.866 16.5075C182.271 16.3968 181.666 16.3499 181.061 16.3676C180.382 16.4035 179.706 16.4809 179.036 16.5995C178.338 16.7284 177.632 16.8125 176.923 16.8514C176.135 16.8408 175.348 16.8755 174.565 16.9553C174.127 17.0233 173.702 17.1581 173.306 17.3551C172.908 17.5613 172.543 17.8224 172.219 18.1307C171.623 18.7492 171.151 19.4751 170.827 20.2696C170.517 21.0063 170.264 21.7654 170.069 22.5405C169.949 22.9312 169.868 23.333 169.829 23.7398C169.77 24.2312 169.895 24.7269 170.182 25.1311C170.468 25.4699 170.841 25.7254 171.26 25.8707C171.597 25.9987 171.922 26.1306 172.247 26.2185C172.85 26.4053 173.469 26.5391 174.096 26.6183C175.005 26.7294 175.922 26.7709 176.838 26.7423C177.163 26.7423 177.416 26.7183 177.588 26.7103H177.849L178.856 26.6383L181.506 26.3825C182.761 26.2529 184.022 26.1942 185.284 26.2066C186.751 26.2153 188.21 26.4266 189.619 26.8342C191.074 27.234 192.426 28.0696 193.769 28.8732C195.113 29.6768 196.576 30.4244 198.056 30.6003C198.425 30.6525 198.799 30.6646 199.171 30.6363C199.376 30.615 199.577 30.5596 199.764 30.4724C199.962 30.3823 200.134 30.245 200.266 30.0726C200.489 29.7521 200.588 29.361 200.542 28.9731C200.512 28.6659 200.444 28.3637 200.338 28.0736C199.937 27.0461 199.536 26.2985 199.295 25.7748C198.512 24.1713 197.641 22.6124 196.685 21.1052C196.284 20.4415 195.846 19.8018 195.409 19.1502C195.193 18.8111 194.956 18.4854 194.7 18.1747C194.435 17.8374 194.081 17.5811 193.677 17.4351C194.079 17.5812 194.43 17.8427 194.683 18.1867C194.929 18.5039 195.151 18.8394 195.345 19.1902C195.746 19.8618 196.119 20.5295 196.488 21.2171C197.218 22.6004 197.94 24.0837 198.778 26.0147C198.994 26.5264 199.355 27.338 199.7 28.2895C199.776 28.5255 199.823 28.7698 199.84 29.0171C199.863 29.2349 199.806 29.4536 199.68 29.6328C199.608 29.7161 199.518 29.7822 199.416 29.8264C199.315 29.8707 199.205 29.892 199.095 29.8887C198.785 29.9012 198.474 29.8811 198.168 29.8287C196.869 29.6368 195.562 28.9212 194.242 28.1056C193.581 27.7058 192.907 27.266 192.189 26.8742C191.467 26.4744 190.708 26.1437 189.923 25.8867C188.426 25.4312 186.873 25.1863 185.308 25.1591C184.005 25.1361 182.702 25.1881 181.406 25.315L178.759 25.5629L177.781 25.6389H177.528C177.364 25.6389 177.127 25.6628 176.806 25.6708C175.948 25.7007 175.089 25.6646 174.236 25.5629C173.667 25.4971 173.105 25.3821 172.556 25.2191C172.006 25.0511 171.244 24.8193 171.028 24.5194C170.897 24.3199 170.843 24.0799 170.875 23.8438C170.912 23.5039 170.979 23.1681 171.076 22.8403C171.249 22.1119 171.476 21.397 171.754 20.7014C172.016 20.0192 172.405 19.3925 172.9 18.8543C173.389 18.3526 174.025 18.0205 174.717 17.9068C175.464 17.8154 176.215 17.766 176.967 17.7589C177.708 17.6977 178.445 17.5896 179.172 17.4351C179.808 17.3006 180.45 17.2045 181.097 17.1472C181.653 17.1135 182.211 17.1377 182.761 17.2192C183.575 17.3463 184.379 17.5293 185.167 17.7669C186.178 18.0548 187.096 18.3226 187.975 18.4825C188.796 18.6506 189.638 18.6977 190.473 18.6224C191.262 18.5471 192.024 18.3001 192.706 17.8988C193.441 17.4702 194.015 16.8129 194.339 16.0278Z" fill="#F2F0ED"/>
<path d="M170.302 24.8792C170.401 25.1726 170.6 25.4226 170.863 25.5869C171.111 25.7407 171.382 25.8553 171.665 25.9267C172.215 26.0493 172.772 26.1388 173.333 26.1946C174.456 26.3345 175.643 26.4984 177.175 26.5944C178.688 26.6798 180.205 26.637 181.711 26.4664C182.717 26.3585 183.796 26.2105 184.895 26.1666C186.001 26.1264 187.109 26.2028 188.199 26.3945C189.238 26.5798 190.255 26.8705 191.235 27.262C192.068 27.6046 192.88 27.9943 193.669 28.4294L195.963 29.7088L196.596 30.0566C196.997 30.2765 197.607 30.5803 198.345 30.9201C200.21 31.7803 202.169 32.4216 204.183 32.8312C205.329 33.0578 206.492 33.1915 207.66 33.231C208.759 33.2608 209.859 33.2006 210.948 33.051C212.953 32.7712 214.557 32.4034 215.388 32.2515C216.879 31.9636 218.042 31.7477 219.165 31.6358C220.314 31.5037 221.476 31.5401 222.614 31.7437C221.474 31.5223 220.315 31.4098 219.153 31.4079C217.862 31.4143 216.573 31.5091 215.295 31.6917C214.473 31.7917 212.841 32.0676 210.864 32.2555C209.812 32.3531 208.755 32.3718 207.7 32.3114C206.585 32.2398 205.478 32.082 204.388 31.8397C202.461 31.4058 200.587 30.7664 198.798 29.9327C197.378 29.265 196.492 28.7333 196.492 28.7333L195.87 28.3895C195.469 28.1656 194.9 27.8377 194.186 27.4579C193.358 27.0051 192.502 26.6046 191.624 26.2585C190.573 25.8522 189.481 25.56 188.367 25.387C187.203 25.2081 186.022 25.1585 184.846 25.2391C183.688 25.323 182.597 25.5149 181.606 25.6628C180.147 25.8916 178.672 26.0092 177.195 26.0147C175.683 26.0147 174.488 25.9947 173.357 25.9667C172.799 25.9716 172.242 25.9342 171.689 25.8547C171.408 25.8039 171.137 25.7081 170.887 25.5709C170.613 25.42 170.405 25.1738 170.302 24.8792Z" fill="#1D1D1B"/>
<path d="M170.867 20.8573C170.663 21.0212 170.422 21.0452 170.137 21.2571C170.01 21.3784 169.896 21.5123 169.797 21.6569C169.65 21.883 169.542 22.1315 169.476 22.3925C169.419 22.636 169.398 22.8867 169.416 23.1361C169.421 23.2423 169.434 23.3478 169.456 23.452C169.474 23.5574 169.5 23.6616 169.532 23.7638C169.601 23.9902 169.696 24.2076 169.817 24.4115C169.945 24.6272 170.098 24.8272 170.274 25.0072C170.388 25.1287 170.511 25.241 170.643 25.343C170.886 25.4986 171.159 25.6008 171.445 25.6428C171.192 25.5309 171.18 25.283 171.096 25.0032C171.064 24.9312 171.012 24.7633 170.939 24.6034C170.867 24.4435 170.795 24.2036 170.731 24.0037C170.648 23.7643 170.582 23.5199 170.53 23.2721C170.53 23.2721 170.53 23.1881 170.498 23.0562C170.477 22.8919 170.469 22.7261 170.474 22.5604C170.476 22.2264 170.523 21.8942 170.615 21.5729C170.629 21.3153 170.717 21.0671 170.867 20.8573Z" fill="#1D1D1B"/>
<path d="M176.177 16.6435C175.436 16.796 174.705 16.9909 173.987 17.2272C173.552 17.403 173.13 17.6087 172.724 17.8429C172.117 18.1948 171.547 18.6073 171.024 19.0742C170.529 19.5032 170.094 19.9952 169.728 20.5375C169.566 20.7826 169.423 21.0407 169.303 21.3091C169.169 21.5873 169.067 21.8797 168.998 22.1806C168.837 22.8985 168.884 23.6475 169.135 24.3395C169.386 25.0315 169.829 25.6376 170.414 26.0866C170.817 26.3886 171.281 26.6 171.773 26.7063C172.182 26.7899 172.604 26.7899 173.013 26.7063C173.363 26.6358 173.709 26.5423 174.047 26.4265C173.71 26.5237 173.355 26.5429 173.009 26.4824C172.642 26.4148 172.285 26.3034 171.946 26.1506C171.486 25.9505 171.079 25.6483 170.754 25.2673C170.43 24.8862 170.197 24.4362 170.073 23.9517C169.945 23.4467 169.945 22.9176 170.073 22.4125C170.129 22.1879 170.204 21.9685 170.298 21.7568C170.396 21.5398 170.51 21.33 170.639 21.1292C170.952 20.6525 171.312 20.2079 171.713 19.8018C172.168 19.3386 172.653 18.9058 173.165 18.5065C173.63 18.1427 174.039 17.8668 174.244 17.7349C174.835 17.285 175.485 16.9178 176.177 16.6435Z" fill="#1D1D1B"/>
<path d="M172.207 26.4744C173.309 26.6823 174.043 26.9782 175.415 27.1741C175.78 27.23 176.513 27.326 177.42 27.378C178.416 27.4397 179.415 27.4397 180.411 27.378C181.434 27.318 182.416 27.178 183.102 27.0701L184.249 26.8982C184.249 26.8982 184.694 26.8302 185.38 26.7623C186.23 26.6705 187.087 26.6625 187.938 26.7383C189.537 26.932 191.11 27.2979 192.63 27.8297C193.669 28.1293 194.692 28.483 195.694 28.8892C194.675 28.4014 194.066 27.9057 192.843 27.29C192.24 26.9928 191.623 26.7259 190.994 26.4904C190.045 26.1354 189.061 25.8795 188.059 25.7268C187.138 25.5996 186.205 25.5795 185.28 25.6668C184.55 25.7308 184.077 25.8068 184.077 25.8068L182.914 25.9867C182.212 26.1026 181.285 26.2585 180.303 26.3865C178.688 26.5659 177.064 26.6474 175.439 26.6303C174.359 26.6672 173.278 26.6151 172.207 26.4744Z" fill="#1D1D1B"/>
<path d="M195.766 28.4294C197.053 29.1291 197.839 29.7727 199.403 30.5963C200.183 31.0048 200.986 31.3666 201.809 31.6798C203.038 32.1572 204.324 32.4717 205.635 32.6153C206.826 32.7208 208.025 32.6994 209.212 32.5513C210.146 32.4514 210.736 32.3594 210.736 32.3594L212.232 32.1435C213.36 31.9737 214.496 31.8669 215.636 31.8237C216.893 31.7749 218.151 31.8123 219.402 31.9356C220.541 32.0436 221.471 32.1955 221.932 32.2835C222.786 32.4394 223.46 32.5673 224.094 32.7192C224.746 32.8615 225.384 33.0594 226.002 33.3109C224.651 32.7512 223.769 32.2395 222.065 31.7118C221.224 31.466 220.37 31.2697 219.506 31.124C218.223 30.9043 216.923 30.7946 215.62 30.7962C214.438 30.799 213.258 30.8831 212.087 31.0481L210.58 31.256C210.58 31.256 209.99 31.3479 209.092 31.4559C207.974 31.6041 206.845 31.6509 205.719 31.5958C204.479 31.5039 203.254 31.2733 202.066 30.9082C200.975 30.5803 200.097 30.2365 199.66 30.0646C198.334 29.5896 197.034 29.0438 195.766 28.4294Z" fill="#1D1D1B"/>
<path d="M193.713 11.5621C193.915 11.7506 194.055 11.996 194.114 12.2657C194.151 12.3963 194.175 12.5302 194.186 12.6655C194.204 12.8194 194.214 12.9743 194.214 13.1293C194.223 13.4618 194.195 13.7943 194.13 14.1208C194.036 14.6002 193.887 15.0671 193.685 15.512C193.499 15.9093 193.277 16.2881 193.019 16.6435L192.759 16.9633C192.694 17.0353 192.654 17.0712 192.654 17.0712L192.546 17.1832C192.452 17.2809 192.352 17.3717 192.245 17.455C191.923 17.7295 191.561 17.9533 191.171 18.1187C190.743 18.3034 190.281 18.3987 189.815 18.3986C189.501 18.3926 189.19 18.3317 188.897 18.2187C188.63 18.1167 188.383 17.9692 188.167 17.7829C187.955 17.6048 187.798 17.3706 187.714 17.1072C187.766 17.2512 187.79 17.3911 187.834 17.507C187.875 17.6432 187.925 17.7767 187.983 17.9068C188.042 18.0506 188.122 18.1852 188.219 18.3066C188.333 18.4581 188.468 18.5928 188.62 18.7064C188.954 18.9423 189.334 19.1045 189.735 19.1822C190.332 19.2928 190.947 19.2515 191.523 19.0622C192.042 18.8964 192.525 18.6347 192.947 18.2906C193.089 18.188 193.224 18.0743 193.348 17.9508L193.48 17.8149C193.526 17.7709 193.569 17.7241 193.609 17.6749C193.685 17.583 193.797 17.447 193.926 17.2751C194.225 16.8415 194.468 16.3712 194.647 15.8759C194.841 15.3314 194.943 14.7585 194.948 14.1807C194.955 13.792 194.907 13.4043 194.804 13.0293C194.603 12.4386 194.222 11.9254 193.713 11.5621Z" fill="#1D1D1B"/>
<path d="M202.058 4.52967C202.678 5.2914 203.341 6.01753 204.043 6.70456C204.826 7.46803 205.665 8.1723 206.553 8.81148C209.135 10.637 211.822 12.3084 214.602 13.8169C216.302 14.7365 217.982 15.524 219.241 16.0598C220.501 16.5955 221.335 16.8954 221.335 16.8954C221.335 16.8954 222.161 17.2152 223.468 17.631C225.116 18.1472 226.797 18.548 228.501 18.8303C230.382 19.1488 232.288 19.2947 234.195 19.2661C235.478 19.2511 236.758 19.1429 238.025 18.9423C239.113 18.7742 240.185 18.5202 241.233 18.1827C242.155 17.9028 242.997 17.563 244.008 17.1952C243.089 17.5332 242.141 17.7901 241.177 17.9628C240.115 18.1511 239.044 18.2846 237.969 18.3626C236.721 18.4703 235.467 18.501 234.215 18.4545C232.361 18.3903 230.514 18.1791 228.693 17.8229C227.038 17.5086 225.403 17.0947 223.797 16.5835C222.526 16.1837 221.716 15.8599 221.716 15.8599C221.716 15.8599 220.914 15.568 219.667 15.0603C218.419 14.5525 216.771 13.7929 215.067 12.9294C213.363 12.0658 211.61 11.1023 210.13 10.2627C208.651 9.42317 207.456 8.71554 206.87 8.34373C205.788 7.66808 204.949 7.11235 204.191 6.53265C203.404 5.95118 202.688 5.27885 202.058 4.52967Z" fill="#1D1D1B"/>
<path d="M89.3693 103.583C86.5021 102.975 84.6213 102.403 81.1766 101.584L78.2894 100.916L77.4673 100.724L77.9244 101.452C79.3681 103.763 82.0388 107.961 84.3727 111.563L88.6996 118.187L92.3649 123.729L92.8862 124.528L93.2872 123.681C94.3018 121.526 97.0287 115.605 98.4041 112.534L98.5164 112.286L98.3319 112.11L95.4848 109.364C92.9383 106.921 91.4385 105.658 89.3693 103.587C91.4305 105.682 92.7298 107.253 95.1198 109.8L97.7986 112.638L97.7264 112.214C96.2146 115.221 93.3554 121.082 92.3288 123.229L93.2511 123.165L89.5979 117.6L85.2309 111.007C82.8449 107.433 80.0458 103.319 78.4979 101.08L78.129 101.616L81.0042 102.14C84.4609 102.759 86.486 102.995 89.3693 103.583Z" fill="black"/>
<path d="M81.201 70.5079C82.1663 70.6299 83.1217 70.8196 84.0602 71.0756C84.2487 71.1115 84.5494 71.1795 85.163 71.2875L84.8502 71.0356C85.1189 72.095 85.6522 73.9421 85.8367 74.5458L85.8166 74.3139C85.5038 76.2089 85.3956 77.0285 85.3956 77.0285C85.3956 77.0285 85.3956 77.2004 85.2231 78.2679L86.2618 78.1399C86.0813 77.6842 85.1229 75.4533 84.4492 74.05L84.4171 73.9781L84.3971 73.9541C83.8236 73.3024 83.4106 72.8826 83.194 72.6668C82.4794 71.9913 81.8096 71.2701 81.189 70.5079C81.7203 71.2333 82.2026 71.9933 82.6326 72.7827C82.805 73.0545 83.1539 73.6143 83.7394 74.4498L83.6833 74.3539C84.1845 75.8291 85.0587 78.092 85.2472 78.5477L85.9971 80.3708L86.2858 78.4198L86.4703 77.1844C86.4703 77.1844 86.5986 76.3648 86.8312 74.4578V74.3299L86.7951 74.2259C86.5946 73.6302 85.9329 71.8272 85.5279 70.8117L85.4277 70.5678H85.2151C84.4773 70.5319 84.1244 70.5318 83.9118 70.5318C83.0086 70.5801 82.1032 70.5721 81.201 70.5079Z" fill="black"/>
<path d="M93.2391 70.4159C90.007 69.3644 87.7573 68.4809 84.1522 67.2175L83.687 67.0536L83.8314 67.5334C83.9396 67.8892 84.072 68.333 84.2123 68.8007C84.5051 69.7482 85.0144 71.4634 85.9607 74.5018V74.3299C85.7041 75.977 85.3913 77.968 85.1908 79.2554L86.0851 79.3833C86.3898 77.3843 86.7066 75.3294 86.7307 75.1655L85.7562 75.0255C85.2149 78.6477 84.7497 81.7701 84.4289 83.9489C84.2685 85.0404 84.1442 85.892 84.064 86.4517C83.9838 87.0114 83.9677 87.1113 83.9557 87.1953L83.8755 87.755L84.4369 87.815L86.5101 88.0388L93.195 88.7505H93.2792H93.3594L98.1716 87.783L98.2718 87.763L98.356 87.707C100.794 86.0839 105.021 83.2453 107.652 81.4582L108.129 81.1344L107.676 80.8066L102.146 76.7806C98.4483 74.102 96.2908 72.7027 93.2512 70.4199C96.2828 72.7267 98.2558 74.4418 101.829 77.2524L107.19 81.4422L107.21 80.7906C104.528 82.4977 100.245 85.2563 97.7906 86.8555L97.9711 86.7795L93.1589 87.703H93.3193L86.6104 86.9474L84.5412 86.7235L85.0264 87.2632V87.3432C85.0264 87.2592 85.0504 87.1593 85.1306 86.5996C85.2108 86.0399 85.3312 85.1843 85.4876 84.0969C85.7883 81.914 86.2174 78.7836 86.7187 75.1575L85.7442 75.0175C85.7201 75.1814 85.4475 77.2404 85.1788 79.2474L86.073 79.3753C86.2415 78.084 86.5021 76.081 86.7147 74.4298V74.3339L86.6906 74.2539C85.652 71.2515 85.0865 69.5563 84.7457 68.6168C84.5813 68.1611 84.4289 67.7213 84.3046 67.3695L83.9878 67.6893C87.625 68.7727 89.9989 69.3804 93.2391 70.4159Z" fill="black"/>
<path d="M94.98 123.329C95.1123 124.528 95.2165 125.648 95.3088 126.731V126.703C93.6406 128.994 92.0566 131.101 89.8229 134.199L87.5131 137.426L86.3101 139.097L88.0023 137.897C92.4135 134.771 102.118 127.742 104.68 125.859L104.749 125.811L104.797 125.744L110.644 117.748C110.644 117.748 114.337 112.702 120.067 104.726L122.072 101.956L119.374 104.043C114.806 107.573 107.235 113.534 104.857 115.433C100.706 118.727 98.4848 120.63 94.984 123.329C98.5089 120.642 101.059 118.903 105.322 115.761C107.796 113.946 115.46 108.252 119.983 104.83L119.273 104.139C113.443 112.039 109.769 117.104 109.769 117.104L103.951 125.124L104.067 125.012C101.504 126.895 91.8962 134.067 87.6013 137.342L88.0906 137.813L90.3001 134.519C92.4215 131.321 93.829 129.114 95.389 126.747C95.2526 125.664 95.1123 124.552 94.98 123.329Z" fill="black"/>
<path d="M100.494 127.551L99.8282 122.313L96.0546 88.2228L93.7408 88.6705L86.1416 137.382L103.554 141.539L100.494 127.551Z" fill="#F2F0ED"/>
<path d="M100.494 127.551C99.7237 121.818 99.3628 117.904 98.6611 111.015C98.2921 107.213 97.1733 95.659 96.4475 88.1788L96.4154 87.747L95.9823 87.827L94.1697 88.1548L93.6765 88.2428L93.3356 88.5946L93.6765 88.2428L93.3356 88.5946C92.293 94.7794 91.507 99.6569 90.9777 102.987C90.4483 106.317 90.1756 108.105 90.1756 108.105L88.6758 117.732C87.8257 123.377 86.775 130.685 85.8447 137.322L85.8086 137.597L86.0693 137.657L101.272 141.072L103.537 141.591H103.638L103.614 141.495C102.362 136.034 101.576 132.476 100.494 127.503C101.576 132.46 102.346 136.018 103.493 141.495L103.569 141.419L101.312 140.856L86.2096 137.034L86.4342 137.366C87.565 130.761 88.7961 123.481 89.7024 117.848C90.6087 112.214 91.2303 108.228 91.2303 108.228C91.2303 108.228 91.507 106.445 92.0323 103.107C92.5576 99.7689 93.2795 94.8834 94.1697 88.6785L93.8329 89.0304L94.1697 88.6785C93.492 89.3822 93.9812 88.8704 93.8329 89.0304L94.3261 88.9304L96.1307 88.5586L95.6615 88.2108C96.5878 95.6669 98.0234 107.189 98.4966 110.999C99.3388 117.908 99.7277 121.814 100.494 127.551Z" fill="#1D1D1B"/>
<path d="M100.915 69.6962L99.6516 67.6373C98.4245 66.406 97.2736 65.2385 95.6414 63.5274L91.4268 59.1057L91.1501 58.8219L91.0137 59.2216L88.9205 65.0506L87.6693 68.6488L87.5049 69.1166L87.9901 69.2805L92.1205 70.6558L92.9587 70.9316L93.0549 70.9636H93.075L92.9105 70.8797L93.075 70.9636L92.9105 70.8797L93.4318 71.2794C93.4318 71.2794 95.6294 72.9506 98.4726 75.0255C101.316 77.1005 104.813 79.5712 107.295 81.3303L108.153 81.938L107.616 81.0504L105.033 76.7766C103.289 73.8661 102.326 72.199 100.923 69.7322C102.33 72.195 103.269 73.8781 104.885 76.8646C105.286 77.5962 106.024 78.9915 107.239 81.2623L107.56 80.9825C105.19 79.0834 101.861 76.3928 99.0821 74.2299C96.3031 72.067 94.0975 70.4119 94.0975 70.4119L93.5762 70.0121L93.4158 69.9281L93.5762 70.0121H93.6083L93.4439 69.9281L93.3476 69.9001L92.5055 69.6283L88.351 68.333L88.6758 68.9646C88.7881 68.5928 89.2252 67.1536 89.7826 65.3305C90.34 63.5074 90.9857 61.2966 91.5391 59.3936L91.1381 59.4935L95.5853 63.6873C97.2896 65.3105 98.4766 66.4579 99.7157 67.6853C100.045 68.285 100.454 68.9566 100.915 69.6962Z" fill="black"/>
<path d="M52.705 105.022C52.2639 102.092 52.1395 100.153 51.6984 96.5865C51.5942 95.7869 51.3977 94.2597 51.0648 91.673L50.9165 90.5375L50.335 91.541C48.5826 94.5555 45.98 99.1371 45.2862 100.377L46.2166 100.416C43.8867 95.1712 42.9243 93.0123 42.9243 93.0123C42.9243 93.0123 42.8802 92.9083 42.1984 91.4131L41.5528 89.9738L41.1518 91.5051C41.0034 92.0928 39.6881 97.3461 38.3447 103.027L38.2886 103.263L38.441 103.439C40.6465 105.974 43.1168 108.768 44.0912 109.86L44.2677 110.056L44.4802 109.932L45.3424 109.424C48.4743 107.585 50.0984 106.481 52.6929 105.026C50.0703 106.469 48.1495 107.321 45.0376 108.928L44.1795 109.376L44.5805 109.444C43.6621 108.304 41.3122 105.414 39.1708 102.823L39.267 103.223C40.7628 97.5819 42.0741 92.3286 42.2345 91.7409L41.2039 91.8289C41.8857 93.3481 41.9298 93.4521 41.9298 93.4521L45.2702 100.832L45.7033 101.78L46.2006 100.872C46.8863 99.6249 49.4087 94.9913 51.0127 91.9128L50.2829 91.7809C50.724 94.2837 50.9846 95.7469 51.125 96.5425C51.7425 100.021 52.2278 102.072 52.705 105.022Z" fill="black"/>
<path d="M103.754 67.5494C103.505 66.5899 103.509 65.9102 103.285 64.7308C103.245 64.5269 103.176 64.1951 103.04 63.5074L102.888 62.7318L102.378 63.4035C101.576 64.4749 100.105 66.6019 99.7959 67.0656L99.6274 67.3255L99.7718 67.6013L100.702 69.4244C100.702 69.4244 101.817 71.5873 102.98 73.6023L103.806 75.0335L103.846 73.4344C103.874 72.195 103.87 70.9157 103.846 70.4159C103.846 69.2165 103.69 68.5569 103.742 67.5654C103.666 68.5609 103.441 69.2485 103.277 70.4279C103.204 70.9236 103.04 72.175 102.92 73.3784L103.782 73.1985C102.795 71.0916 101.661 68.9367 101.661 68.9367C101.661 68.9367 101.452 68.5369 100.702 67.1256L100.678 67.6613C100.987 67.1856 102.33 64.9907 102.98 63.8193L102.318 63.7153L102.719 64.8668C103.124 65.9662 103.481 66.5899 103.754 67.5494Z" fill="black"/>
<path d="M46.5816 88.7745C46.0041 89.8459 45.5911 90.3737 44.773 91.629C44.4362 92.1407 43.57 93.508 42.7479 94.8993L42.6396 95.0872L42.7359 95.3071C43.8587 97.9497 45.142 100.688 45.142 100.688L45.2222 100.86L45.6713 101.816L46.1926 100.9L47.123 99.2651C47.6563 98.3176 48.326 97.0742 48.9917 95.8548L49.0879 95.6709L49.0318 95.503C48.5385 93.9838 47.9731 92.5046 47.7566 91.9448C47.2152 90.5536 46.9185 89.9459 46.5776 88.7745C46.9305 89.9739 47.1069 90.9534 47.3796 92.3726C47.4999 92.9643 47.7806 94.3716 48.1415 95.7469L48.1856 95.3911C47.4558 96.5625 46.726 97.7898 46.1806 98.7213C45.6352 99.6529 45.2542 100.321 45.2342 100.345L46.2046 100.384C46.1285 100.217 46.1244 100.213 46.1244 100.213C46.1244 100.213 44.8572 97.47 43.5499 94.9113V95.3111C44.1835 94.0478 44.7811 92.6805 45.0297 92.1127C45.6112 90.7934 45.9881 89.8659 46.5816 88.7745Z" fill="black"/>
<path d="M45.0255 110.615C44.4841 109.984 44.0029 109.388 43.5377 108.808L43.4775 108.736V108.832C43.4134 111.139 43.3011 113.23 43.2289 116.3C43.1808 118.339 43.0725 124.152 43.0244 129.614C42.9763 135.075 42.9683 140.184 42.9683 140.808V141.431L43.5898 141.347L45.6149 141.076L52.0632 140.188L52.6527 140.108L52.5123 139.536C52.1113 137.937 51.1248 133.863 50.1063 129.789C49.0877 125.716 48.017 121.65 47.5879 120.038C46.5533 116.096 45.8475 113.922 45.0415 110.611C45.8435 113.934 46.1964 116.264 47.0466 120.258C47.3994 121.893 48.2937 125.995 49.22 130.069C50.1464 134.143 51.0928 138.197 51.4657 139.784L51.9148 139.133L45.4626 139.992L43.4374 140.272L44.055 140.808C44.055 140.18 44.055 135.075 43.9989 129.614C43.9427 124.152 43.8425 118.339 43.7943 116.3C43.7222 113.214 43.6099 111.139 43.5457 108.832L43.4856 108.856C43.9748 109.404 44.4841 109.984 45.0255 110.615Z" fill="black"/>
<path d="M43.2453 127.015C43.2733 128.482 43.133 129.558 43.0808 131.309C43.0808 131.884 43.0287 133.14 43.0127 134.463C42.9966 135.786 42.9926 137.178 43.0127 138.061L43.9992 137.861C42.9204 135.063 42.351 133.659 42.351 133.659C42.351 133.659 41.6853 131.98 40.8552 130.001C40.0251 128.022 39.0346 125.743 38.4732 124.516L37.996 124.968L39.2913 125.488C40.8953 126.115 41.9179 126.403 43.2573 127.015C41.946 126.399 41.1841 125.851 39.6001 125.016L38.2687 124.328L37.4907 123.928L37.7915 124.784C38.2366 126.059 39.0868 128.382 39.8567 130.381C40.6266 132.38 41.3084 134.063 41.3084 134.063C41.3084 134.063 41.8537 135.451 43.0207 138.233L44.1154 140.848L44.0072 138.049C43.9711 137.122 43.8989 135.65 43.8187 134.303C43.7385 132.956 43.6382 131.68 43.5941 131.105C43.4818 129.366 43.2894 128.466 43.2453 127.015Z" fill="black"/>
<path d="M48.2939 123.661C48.9235 126.859 49.1762 128.978 49.8499 132.856C50.0584 134.055 50.5156 136.67 51.1532 140.14L51.506 142.047L51.9792 140.156C52.8334 136.762 53.852 132.62 54.646 129.31C55.44 125.999 56.0255 123.513 56.0455 123.437L55.9372 123.657L56.4906 122.973C56.4906 122.973 60.6812 117.848 65.4091 111.907L67.6307 109.108L64.7635 111.219C61.3429 113.734 57.1764 116.872 55.6926 118.015C52.5687 120.382 50.9326 121.766 48.2939 123.677C50.9607 121.77 52.9256 120.554 56.1538 118.351C57.7057 117.296 61.9444 114.377 65.3209 111.999L64.6713 111.315C59.811 117.152 55.6445 122.293 55.6445 122.293L55.0871 122.977L55.0069 123.073L54.9788 123.197C54.9788 123.273 54.3813 125.755 53.6114 129.074C52.8414 132.392 51.9071 136.55 51.1572 139.972H51.9833C51.2614 136.618 50.684 134.067 50.4153 132.88C49.5491 129.086 48.9356 126.867 48.2939 123.661Z" fill="black"/>
<path d="M86.4353 74.6657C86.3149 75.2294 86.0742 75.5813 85.8655 76.2649C85.7492 76.6247 85.4443 77.7081 85.2436 78.7196C85.043 79.7311 84.9186 80.6586 84.9186 80.6586C84.9186 80.6586 84.7862 81.5822 84.714 82.6096C84.6499 83.4516 84.6298 84.2963 84.6538 85.1403C84.6779 85.836 84.8183 86.2398 84.7782 86.8115C84.8946 86.2705 85.042 85.7365 85.2196 85.2123C85.3118 84.8485 85.5486 83.753 85.7171 82.7456C85.8856 81.7381 86.006 80.8185 86.006 80.8185C86.006 80.8185 86.1384 79.903 86.2427 78.8876C86.347 77.8721 86.4152 76.7526 86.4232 76.3768C86.3932 75.8067 86.3972 75.2354 86.4353 74.6657Z" fill="#1D1D1B"/>
<path d="M50.6599 91.4731C50.696 92.1328 50.5476 92.5925 50.5275 93.3921C50.508 94.3633 50.5401 95.3348 50.6238 96.3026C50.72 97.482 50.8965 98.5495 50.8965 98.5495C50.8965 98.5495 51.0529 99.6169 51.3215 100.772C51.5395 101.719 51.8072 102.653 52.1236 103.571C52.3842 104.326 52.6689 104.718 52.8373 105.358C52.7496 104.726 52.6974 104.089 52.681 103.451C52.6409 103.023 52.4885 101.748 52.3201 100.588C52.1516 99.429 51.9872 98.3815 51.9872 98.3815C51.9872 98.3815 51.8188 97.3301 51.6303 96.1747C51.4418 95.0193 51.1932 93.7759 51.101 93.3401C50.9191 92.7265 50.7718 92.1032 50.6599 91.4731Z" fill="#1D1D1B"/>
<path d="M94.1013 87.5191C93.9248 89.8059 93.6281 91.3492 93.2992 94.0758C93.211 94.8114 93.0306 96.2906 92.81 98.0737L92.0681 104.031C91.7995 106.058 91.5468 107.997 91.3623 109.424L91.0455 111.775C91.0455 111.775 90.9132 112.694 90.7127 114.125C90.5122 115.557 90.2275 117.484 89.9347 119.507C89.642 121.53 89.3092 123.649 89.0405 125.44C88.7718 127.231 88.5392 128.706 88.4269 129.438C88.0019 132.152 87.8695 133.715 87.4204 135.966C87.653 134.843 87.9016 133.907 88.1583 132.92C88.4149 131.932 88.6836 130.885 88.9844 129.542C89.1448 128.814 89.4736 127.359 89.8265 125.576C90.1794 123.793 90.5844 121.686 90.9293 119.663C91.2741 117.64 91.5789 115.705 91.7914 114.273L92.1283 111.919C92.1283 111.919 92.2526 110.995 92.4411 109.56C92.6295 108.125 92.8421 106.182 93.0666 104.139C93.2912 102.096 93.4677 99.9607 93.604 98.1417C93.7403 96.3226 93.8206 94.8394 93.8647 94.0958C93.9369 92.7205 93.9529 91.641 93.981 90.6215C94.009 89.6021 94.009 88.6625 94.1013 87.5191Z" fill="#1D1D1B"/>
<path d="M97.0688 87.847C97.5461 87.5551 97.9591 87.4911 98.5726 87.1913C99.3109 86.8222 100.027 86.4111 100.718 85.9599C101.56 85.4082 102.282 84.8485 102.282 84.8485C102.282 84.8485 103.016 84.2968 103.766 83.6491C104.385 83.1013 104.971 82.5179 105.522 81.902C105.967 81.3943 106.136 81.0105 106.545 80.6266C106.099 80.9392 105.632 81.2223 105.149 81.4742C104.84 81.6701 103.946 82.2738 103.144 82.8655C102.342 83.4572 101.628 84.0009 101.628 84.0009C101.628 84.0009 100.911 84.5446 100.137 85.1643C99.3626 85.784 98.5325 86.4996 98.2639 86.7635C97.8903 87.1509 97.4911 87.5129 97.0688 87.847Z" fill="#1D1D1B"/>
<path d="M87.665 68.9326C87.7813 68.6888 87.9979 68.5808 88.2184 68.325C88.2706 68.253 88.3869 68.1131 88.5072 67.9252C88.6275 67.7373 88.7718 67.5254 88.9082 67.3295C89.1488 66.9297 89.3092 66.5299 89.3092 66.5299C89.3092 66.5299 89.5017 66.1301 89.6701 65.6943C89.7543 65.4704 89.8265 65.2305 89.8867 65.0227C89.9468 64.8148 89.9829 64.6229 90.007 64.5509C90.0108 64.2805 90.0499 64.0117 90.1233 63.7513C89.9789 63.9792 89.7503 64.0632 89.5017 64.303C89.4456 64.371 89.3132 64.4989 89.1809 64.6748C89.0375 64.8626 88.9037 65.0574 88.7799 65.2585C88.6163 65.5164 88.4677 65.7834 88.3347 66.0581C88.2023 66.3379 88.0859 66.6249 87.9859 66.9177C87.9097 67.1496 87.8455 67.4014 87.7974 67.6133C87.7493 67.8252 87.7292 68.0131 87.7132 68.0971C87.73 68.3765 87.7138 68.657 87.665 68.9326Z" fill="#1D1D1B"/>
<path d="M93.1592 88.4227C93.4023 88.3849 93.6499 88.3849 93.893 88.4227C93.9692 88.4227 94.1296 88.4227 94.3141 88.3867C94.4986 88.3507 94.7151 88.3427 94.9236 88.3027C95.3246 88.2308 95.6855 88.1388 95.6855 88.1388C95.6855 88.1388 96.0505 88.0588 96.4435 87.9349C96.64 87.8709 96.8445 87.795 97.0209 87.727C97.1974 87.6591 97.3377 87.5911 97.4219 87.5631C97.6866 87.4232 97.8229 87.2513 98.0716 87.2153C97.831 87.2153 97.6706 87.0714 97.3578 86.9994C97.2118 86.9732 97.0646 86.9545 96.9167 86.9434C96.138 86.9004 95.3598 87.0372 94.6429 87.3432C94.4435 87.4294 94.2506 87.5296 94.0655 87.6431C93.897 87.743 93.7687 87.851 93.7005 87.8949C93.4559 88.1068 93.3677 88.3147 93.1592 88.4227Z" fill="#1D1D1B"/>
<path d="M119.101 105.826C118.523 106.857 117.982 107.473 117.2 108.648C116.771 109.28 115.496 111.183 114.321 112.926C113.146 114.669 112.055 116.228 112.055 116.228C112.055 116.228 110.964 117.788 109.737 119.491C108.51 121.194 107.159 123.049 106.714 123.669C105.879 124.808 105.49 125.532 104.708 126.427C105.511 125.548 106.16 125.064 107.115 124.028C107.375 123.745 107.917 123.189 108.522 122.477C109.128 121.766 109.853 120.926 110.527 120.078C111.201 119.231 111.79 118.435 112.227 117.832L112.941 116.832C112.941 116.832 113.21 116.432 113.631 115.817C114.052 115.201 114.606 114.353 115.155 113.45C115.704 112.546 116.262 111.587 116.707 110.763C117.152 109.94 117.509 109.252 117.673 108.908C118.319 107.657 118.547 106.869 119.101 105.826Z" fill="#1D1D1B"/>
<path d="M100.253 128.698C100.51 128.591 100.779 128.517 101.055 128.478C101.139 128.446 101.316 128.394 101.52 128.31C101.725 128.226 101.961 128.13 102.182 128.03C102.623 127.822 102.984 127.631 102.984 127.631C102.984 127.631 103.385 127.427 103.786 127.171C103.994 127.043 104.187 126.895 104.383 126.771C104.58 126.647 104.704 126.527 104.784 126.471C105.041 126.247 105.157 126.027 105.41 125.911C105.129 125.953 104.844 125.966 104.56 125.951C104.468 125.951 104.279 125.991 104.059 126.047C103.816 126.106 103.578 126.18 103.345 126.267C103.043 126.379 102.749 126.513 102.467 126.667C102.187 126.82 101.919 126.992 101.664 127.183C101.464 127.331 101.273 127.492 101.091 127.663C100.923 127.814 100.802 127.962 100.738 128.026C100.53 128.286 100.469 128.526 100.253 128.698Z" fill="#1D1D1B"/>
<path d="M96.7725 87.5911C96.9649 89.9099 96.9248 91.5011 97.0732 94.2876C97.1454 95.7949 97.4061 100.321 97.6908 104.47L98.2642 112.382C98.2642 112.382 98.557 116.152 98.8818 120.294C99.2066 124.436 99.6437 128.954 99.7961 130.453C100.069 133.252 100.35 134.795 100.506 137.122C100.374 134.795 100.458 133.208 100.366 130.417C100.321 128.91 100.141 124.376 99.8923 120.222C99.6437 116.068 99.355 112.302 99.355 112.302C99.355 112.302 99.0783 108.532 98.6973 104.39C98.3164 100.249 97.8231 95.7389 97.6386 94.2397C97.3098 91.4691 96.993 89.9099 96.7725 87.5911Z" fill="#1D1D1B"/>
<path d="M43.8589 109.244C44.1755 109.829 44.4619 110.429 44.7171 111.043L45.495 113.102C45.6434 113.55 45.9963 114.421 46.3251 115.501C46.4093 115.773 46.5016 116.056 46.5978 116.348C46.694 116.64 46.7662 116.952 46.8544 117.26L47.1191 118.195L47.3597 119.143C47.4399 119.455 47.5201 119.763 47.5963 120.066C47.6725 120.37 47.7327 120.666 47.8008 120.95C47.9292 121.522 48.0575 122.041 48.1457 122.489C48.3342 123.385 48.4585 123.96 48.4585 123.96L48.7472 125.436C48.9197 126.335 49.1482 127.551 49.4009 128.83C49.6535 130.109 49.9061 131.445 50.1468 132.576C50.3874 133.707 50.6039 134.635 50.7082 135.095C50.9127 135.946 51.1092 136.61 51.2896 137.234C51.4701 137.857 51.6626 138.433 51.815 139.161C51.5182 137.729 51.4982 136.726 51.2696 134.995C51.1493 134.055 50.7924 131.237 50.3954 128.658C50.1989 127.367 49.9944 126.135 49.8179 125.232C49.6415 124.328 49.5292 123.741 49.5292 123.741C49.5292 123.741 49.4089 123.157 49.2084 122.257C49.1121 121.806 48.9798 121.278 48.8314 120.702C48.7593 120.414 48.6831 120.114 48.6029 119.807L48.3302 118.875C48.2379 118.563 48.1417 118.243 48.0495 117.924L47.7287 116.988C47.6204 116.676 47.5121 116.372 47.4119 116.076C47.3116 115.781 47.1793 115.505 47.071 115.233C46.67 114.141 46.2128 113.29 46.0163 112.858C45.6153 112.059 45.2464 111.483 44.9216 110.919C44.5967 110.355 44.2118 109.884 43.8589 109.244Z" fill="#1D1D1B"/>
<path d="M56.7831 123.417C56.5666 124.068 56.2538 124.46 55.937 125.228C55.7565 125.628 55.2673 126.895 54.9104 128.078C54.5535 129.262 54.2928 130.349 54.2928 130.349C54.2928 130.349 54.0241 131.437 53.8116 132.656C53.5991 133.875 53.4627 135.211 53.4347 135.658C53.3745 136.486 53.4748 136.978 53.3745 137.657C53.5479 137.015 53.7554 136.383 53.9961 135.762C54.1284 135.335 54.4973 134.047 54.7981 132.868C55.0989 131.688 55.3515 130.605 55.3515 130.605C55.3515 130.605 55.6162 129.526 55.8808 128.334C56.1455 127.143 56.4021 125.827 56.4743 125.388C56.5441 124.726 56.6471 124.068 56.7831 123.417Z" fill="#1D1D1B"/>
<path d="M44.2559 110.275C44.6964 110.023 45.1517 109.798 45.6193 109.6C45.9201 109.444 46.8023 108.932 47.5682 108.4C48.3342 107.869 49.0119 107.373 49.0119 107.373C49.0119 107.373 49.6896 106.873 50.3994 106.274C51.1092 105.674 51.847 104.978 52.0836 104.73C52.4031 104.337 52.7445 103.962 53.1062 103.607C52.6647 103.856 52.2095 104.08 51.7428 104.279C51.442 104.438 50.5598 104.95 49.7898 105.478C49.0199 106.006 48.3502 106.509 48.3502 106.509C48.3502 106.509 47.6725 107.009 46.9627 107.609C46.2529 108.209 45.515 108.904 45.2784 109.152C44.9579 109.544 44.6166 109.919 44.2559 110.275Z" fill="#1D1D1B"/>
<path d="M50.0023 93.1522C50.0424 93.2162 50.1066 93.1522 50.1146 93.0963C50.1227 93.0689 50.1227 93.0397 50.1146 93.0123C50.107 92.9962 50.0959 92.9821 50.082 92.971C50.0681 92.9599 50.0518 92.9522 50.0344 92.9483C49.9732 92.9445 49.912 92.9556 49.8561 92.9807C49.8002 93.0058 49.7513 93.0441 49.7136 93.0923C49.5508 93.2576 49.3982 93.4325 49.2564 93.616C48.8754 94.1462 48.5337 94.7034 48.2339 95.2831C47.8649 95.9868 47.6003 96.6624 47.6003 96.6624C47.6003 96.6624 47.3195 97.3261 47.091 98.0857C46.9034 98.7106 46.7601 99.3478 46.6619 99.9927C46.6514 100.426 46.6166 100.859 46.5576 101.288C46.7414 100.898 46.9574 100.523 47.2032 100.169C47.3396 99.9127 47.7286 99.1492 48.0374 98.4375C48.3461 97.7259 48.6148 97.0702 48.6148 97.0702C48.6148 97.0702 48.8875 96.4186 49.1562 95.6909C49.4249 94.9633 49.6895 94.1437 49.7657 93.8679C49.8419 93.592 49.874 93.3921 49.9061 93.2042C49.9261 93.1243 49.9542 93.0363 50.0304 93.0203C50.1066 93.0043 50.0945 93.0203 50.0905 93.0923C50.0865 93.1642 50.0464 93.2162 50.0023 93.1522Z" fill="#1D1D1B"/>
<path d="M41.5096 93.0483C41.4082 93.5351 41.2742 94.0146 41.1084 94.4835C41.0321 94.8074 40.8315 95.7749 40.7071 96.6664C40.5827 97.558 40.4784 98.3695 40.4784 98.3695C40.4784 98.3695 40.3741 99.1691 40.3019 100.081C40.2297 100.992 40.1936 101.968 40.1976 102.3C40.2436 102.793 40.2571 103.288 40.2377 103.783C40.3877 103.309 40.5618 102.843 40.7593 102.388C40.981 101.675 41.1618 100.95 41.3009 100.217C41.4775 99.321 41.5657 98.4975 41.5657 98.4975C41.5657 98.4975 41.6701 97.6779 41.7062 96.7664C41.7431 96.0203 41.735 95.2727 41.6821 94.5275C41.5994 94.0377 41.5418 93.544 41.5096 93.0483Z" fill="#1D1D1B"/>
<path d="M90.6528 58.8618C90.7077 58.6462 90.7856 58.4371 90.8854 58.2382L90.7169 58.1982C90.5926 58.474 90.4603 58.7539 90.3159 59.1337C90.1716 59.5135 89.8347 60.561 89.5981 61.5604C89.3615 62.5599 89.149 63.4755 89.149 63.4755C89.149 63.4755 88.9485 64.391 88.7841 65.4105C88.6197 66.43 88.4994 67.5494 88.4753 67.9252C88.4825 68.4856 88.4611 69.0461 88.4111 69.6043C88.5894 69.071 88.7969 68.5478 89.0327 68.0371C89.161 67.6813 89.5139 66.6099 89.7706 65.6144C90.0272 64.6189 90.2197 63.7033 90.2197 63.7033C90.2197 63.7033 90.4202 62.7878 90.5846 61.7723C90.749 60.7569 90.8653 59.6334 90.8894 59.2576C90.9134 58.8818 90.9094 58.542 90.8894 58.2382L90.7209 58.1982C90.7232 58.4212 90.7003 58.6438 90.6528 58.8618Z" fill="#1D1D1B"/>
<path d="M103.81 64.7148C103.886 65.3225 103.778 65.7583 103.81 66.4979C103.81 66.8977 103.87 68.0971 103.99 69.1765C104.111 70.256 104.259 71.2434 104.259 71.2434C104.259 71.2434 104.399 72.227 104.612 73.2984C104.824 74.3699 105.117 75.5293 105.233 75.9131C105.434 76.6247 105.671 77.0085 105.775 77.6122C105.699 77.0045 105.811 76.5687 105.795 75.8291C105.795 75.4293 105.731 74.2299 105.61 73.1505C105.49 72.071 105.342 71.0835 105.342 71.0835C105.342 71.0835 105.201 70.1 104.985 69.0286C104.768 67.9571 104.48 66.7937 104.367 66.4099C104.153 65.8547 103.967 65.2889 103.81 64.7148Z" fill="#1D1D1B"/>
<path d="M103.369 64.303C103.397 64.9587 103.241 65.4185 103.209 66.2141C103.169 67.1815 103.18 68.1502 103.241 69.1166C103.313 70.3159 103.453 71.3634 103.453 71.3634C103.453 71.3634 103.582 72.4348 103.81 73.5942C103.992 74.5465 104.224 75.4886 104.504 76.4168C104.732 77.1804 104.997 77.5842 105.142 78.2279C105.08 77.5928 105.053 76.9548 105.061 76.3168C105.037 75.8851 104.937 74.6057 104.809 73.4463C104.68 72.2869 104.54 71.2275 104.54 71.2275C104.54 71.2275 104.412 70.172 104.243 69.0166C104.075 67.8612 103.842 66.5939 103.774 66.1701C103.606 65.5554 103.47 64.9322 103.369 64.303Z" fill="#1D1D1B"/>
<path d="M82.6406 70.156C82.757 70.723 82.8334 71.2975 82.8692 71.8751C82.9253 72.2749 83.1178 73.3983 83.3143 74.4338L83.6953 76.4088C83.6953 76.4088 83.8798 77.3483 84.0963 78.3838C84.3128 79.4193 84.5575 80.5467 84.6497 80.9225C84.8322 81.4704 84.9769 82.0301 85.0828 82.5976C85.0547 82.0059 85.1951 81.5862 85.2151 80.8625C85.2318 79.9826 85.1916 79.1026 85.0948 78.2279C84.9825 77.1604 84.786 76.2009 84.786 76.2009C84.786 76.2009 84.6056 75.2414 84.3088 74.2019C84.0699 73.3551 83.7765 72.5245 83.4306 71.7152C83.1258 71.0476 82.8371 70.7117 82.6406 70.156Z" fill="#1D1D1B"/>
<path d="M71.2236 140.4C71.9099 140.277 72.5737 140.052 73.1926 139.732C73.3891 139.628 73.7861 139.428 74.2874 139.221C74.846 138.996 75.4194 138.81 76.0037 138.665C76.5323 138.53 77.0678 138.423 77.6078 138.345C78.0409 138.281 78.3256 138.257 78.3256 138.257C79.1187 138.183 79.9151 138.15 80.7116 138.157C81.9708 138.157 83.3503 138.277 83.8114 138.313C84.5317 138.373 85.2555 138.252 85.9167 137.961C85.3249 137.544 84.6333 137.291 83.9117 137.226C83.4465 137.182 82.0349 137.066 80.7276 137.058C79.8908 137.051 79.0542 137.089 78.2213 137.17C78.2213 137.17 77.9246 137.198 77.4634 137.262C76.8802 137.342 76.3019 137.454 75.731 137.597C75.0985 137.759 74.477 137.961 73.8703 138.201C73.4587 138.369 73.0571 138.56 72.6673 138.773C72.0033 139.122 71.4899 139.7 71.2236 140.4Z" fill="#1D1D1B"/>
<path d="M129.178 144.982C132.061 144.774 133.99 144.662 137.395 144.25C138.317 144.146 140.158 143.934 142.416 143.746C144.673 143.558 147.332 143.378 149.886 143.259C154.991 143.011 159.643 142.979 159.643 142.979H162.607C164.411 142.979 166.853 142.979 169.424 143.031C174.541 143.107 180.123 143.295 181.979 143.35C184.738 143.452 187.501 143.37 190.248 143.103C187.527 142.632 184.776 142.35 182.016 142.259C180.159 142.191 174.569 142.007 169.44 141.931C166.873 141.895 164.427 141.883 162.623 141.883L159.647 141.903C159.647 141.903 154.979 141.931 149.85 142.175C147.284 142.295 144.605 142.471 142.335 142.667C140.066 142.863 138.209 143.067 137.283 143.183C134.524 143.488 131.807 144.092 129.178 144.982Z" fill="#1D1D1B"/>
<path d="M161.219 61.0927C159.687 61.0287 158.649 60.8208 156.808 60.6929C155.814 60.6249 152.826 60.501 150.087 60.449L144.874 60.365C144.874 60.365 142.388 60.3291 139.661 60.2611C138.293 60.2291 136.854 60.1931 135.651 60.1412C134.448 60.0892 133.453 60.0372 132.956 60.0212C132.042 59.9812 131.324 59.9412 130.638 59.9253C129.952 59.9093 129.315 59.8373 128.553 59.7254C129.311 59.8413 129.94 59.9972 130.606 60.1491C131.272 60.3011 131.985 60.453 132.896 60.5889C133.393 60.6569 134.379 60.8128 135.595 60.9367C136.81 61.0607 138.237 61.1886 139.605 61.2686C140.972 61.3485 142.287 61.3925 143.254 61.4245L144.858 61.4525C144.858 61.4525 147.352 61.4965 150.091 61.4525C152.83 61.4085 155.818 61.2966 156.812 61.2606C158.641 61.2086 159.683 61.0527 161.219 61.0927Z" fill="#1D1D1B"/>
<path d="M190.557 47.8235C189.354 48.9149 188.403 49.5386 186.948 50.8299C186.146 51.5216 183.78 53.6645 181.662 55.6675L177.624 59.4935L176.401 60.6529L173.594 63.2916C173.065 63.7913 172.511 64.287 171.99 64.7748C171.469 65.2625 170.935 65.7303 170.45 66.1581C169.496 67.0256 168.686 67.6973 168.289 68.0491L166.424 69.6723C165.867 70.136 165.333 70.5678 164.664 71.0356C165.333 70.5718 165.935 70.236 166.56 69.8362C167.186 69.4364 167.84 69.0366 168.642 68.4769C169.067 68.165 169.945 67.5574 170.963 66.7498C171.477 66.35 172.034 65.9142 172.592 65.4464C173.149 64.9787 173.73 64.5029 174.28 64.0232C175.391 63.0677 176.417 62.1201 177.179 61.4245L178.41 60.2651L179.637 59.0937C180.379 58.3781 181.37 57.3986 182.396 56.3631C184.458 54.2962 186.643 51.9853 187.373 51.2177C188.668 49.8225 189.358 48.9349 190.557 47.8235Z" fill="#1D1D1B"/>
<path d="M159.266 22.6804C158.44 23.4 157.766 23.7638 156.752 24.5994C156.194 25.0432 154.57 26.4304 153.143 27.7418C151.715 29.0531 150.408 30.2645 150.408 30.2645L147.681 32.7832C146.967 33.4429 146.221 34.1345 145.58 34.7062C144.938 35.2779 144.413 35.7537 144.152 35.9935C143.4 36.7269 142.605 37.4145 141.77 38.0525C142.189 37.7792 142.621 37.527 143.065 37.2969C143.49 37.053 143.952 36.8091 144.497 36.4413C144.794 36.2374 145.391 35.8496 146.101 35.3219C146.811 34.7942 147.609 34.1705 148.359 33.5388C149.87 32.2874 151.166 31.0641 151.166 31.0641C151.166 31.0641 152.473 29.8647 153.853 28.4694C155.232 27.0741 156.688 25.5309 157.169 25.0112C158.031 24.0517 158.456 23.42 159.266 22.6804Z" fill="#1D1D1B"/>
<path d="M146.478 91.4051C146.313 92.2047 146.036 92.7085 145.808 93.656C145.744 93.9119 145.623 94.4276 145.495 95.0553C145.367 95.6829 145.234 96.4265 145.114 97.1382C144.873 98.5574 144.685 99.8448 144.685 99.8448C144.685 99.8448 144.489 101.132 144.248 102.535C144.188 102.887 144.128 103.247 144.059 103.595C143.991 103.943 143.939 104.283 143.871 104.59C143.751 105.21 143.63 105.714 143.574 105.966C143.451 106.731 143.242 107.481 142.953 108.201C143.123 107.871 143.314 107.552 143.522 107.245C143.742 106.893 143.939 106.527 144.112 106.15C144.22 105.906 144.436 105.414 144.641 104.798C144.753 104.49 144.853 104.155 144.954 103.803C145.054 103.451 145.154 103.095 145.234 102.739C145.415 102.032 145.535 101.348 145.635 100.844C145.736 100.341 145.772 100.013 145.772 100.013C145.772 100.013 145.976 98.7054 146.117 97.2701C146.257 95.8348 146.345 94.2597 146.373 93.7359C146.356 92.9575 146.391 92.1789 146.478 91.4051Z" fill="#1D1D1B"/>
<path d="M162.931 127.119C162.735 127.559 162.454 127.798 162.161 128.318C161.814 128.935 161.5 129.57 161.223 130.221C160.878 131.021 160.605 131.732 160.605 131.732C160.605 131.732 160.324 132.452 160.044 133.252C159.763 134.051 159.474 134.939 159.378 135.251C159.29 135.711 159.156 136.161 158.977 136.594C159.096 136.404 159.238 136.231 159.402 136.078C159.577 135.898 159.74 135.707 159.891 135.506C160.303 134.921 160.667 134.303 160.978 133.659C161.379 132.86 161.632 132.14 161.632 132.14C161.632 132.14 161.92 131.409 162.169 130.581C162.418 129.753 162.634 128.842 162.694 128.534C162.735 128.057 162.814 127.583 162.931 127.119Z" fill="#1D1D1B"/>
<path d="M62.7307 130.705C62.705 131.019 62.6445 131.328 62.5501 131.629C62.518 131.836 62.4498 132.428 62.4257 132.996C62.4017 133.564 62.4257 134.047 62.4257 134.047C62.4257 134.047 62.4257 134.547 62.4498 135.099C62.4707 135.556 62.5149 136.013 62.5822 136.466C62.6777 136.766 62.7409 137.076 62.7708 137.39C62.8678 137.091 62.9886 136.801 63.1319 136.522C63.2777 136.071 63.3811 135.608 63.4408 135.139C63.485 134.777 63.5051 134.412 63.501 134.047C63.502 133.682 63.4778 133.318 63.4288 132.956C63.3695 132.487 63.2633 132.025 63.1118 131.577C62.964 131.296 62.8366 131.004 62.7307 130.705Z" fill="#1D1D1B"/>
<path d="M60.7251 131.277C60.7662 131.585 60.7743 131.898 60.7492 132.208C60.7492 132.416 60.8254 133.008 60.9177 133.563C61.01 134.119 61.1263 134.583 61.1263 134.583C61.1263 134.583 61.2266 135.067 61.3751 135.594C61.4924 136.033 61.6331 136.466 61.7964 136.89C61.9517 137.161 62.0781 137.448 62.1735 137.745C62.2147 137.432 62.2777 137.122 62.3621 136.818C62.4084 136.351 62.4084 135.881 62.3621 135.415C62.3296 135.054 62.2719 134.696 62.1896 134.343C62.1121 133.99 62.0115 133.643 61.8887 133.304C61.7303 132.862 61.5273 132.437 61.2828 132.036C61.0661 131.724 60.8334 131.565 60.7251 131.277Z" fill="#1D1D1B"/>
<path d="M79.1436 136.686C80.8078 137.01 81.9065 137.402 83.8956 137.833C84.9703 138.081 88.2185 138.745 91.21 139.241C94.2016 139.736 96.9405 140.108 96.9405 140.108C96.9405 140.108 99.6754 140.508 102.691 140.812C104.199 140.976 105.779 141.124 107.102 141.212C108.425 141.3 109.544 141.396 110.094 141.432C112.127 141.559 113.302 141.495 114.982 141.655C113.294 141.471 112.175 141.176 110.17 140.856C109.079 140.68 105.811 140.2 102.811 139.78L97.0849 138.981L91.3584 138.205L83.9838 137.278C81.9787 137.022 80.8118 136.986 79.1436 136.686Z" fill="#1D1D1B"/>
<path d="M177.873 140.968C179.642 141.563 180.784 142.131 182.886 142.887C183.455 143.095 184.598 143.498 185.994 143.974C187.389 144.45 189.049 144.982 190.641 145.473C193.821 146.457 196.741 147.256 196.741 147.256C196.741 147.256 199.656 148.08 202.888 148.884C204.492 149.283 206.197 149.683 207.636 150.011C209.076 150.339 210.259 150.587 210.844 150.707C213.03 151.162 214.305 151.286 216.118 151.71C214.309 151.258 213.126 150.783 210.985 150.159C209.826 149.811 206.341 148.808 203.141 147.912L197.029 146.205L190.922 144.518L183.058 142.355C180.905 141.763 179.65 141.539 177.873 140.968Z" fill="#1D1D1B"/>
<path d="M117.573 141.032C117.785 140.82 118.05 140.784 118.375 140.592C118.547 140.492 119.032 140.168 119.449 139.852C119.867 139.536 120.223 139.233 120.223 139.233C120.223 139.233 120.592 138.937 120.981 138.585C121.37 138.233 121.783 137.817 121.904 137.669C122.148 137.398 122.232 137.142 122.481 136.974C122.192 137.069 121.895 137.143 121.595 137.194C121.167 137.344 120.757 137.541 120.372 137.781C120.075 137.964 119.792 138.168 119.526 138.393C119.256 138.615 119.003 138.855 118.768 139.113C118.462 139.447 118.193 139.813 117.966 140.204C117.857 140.49 117.725 140.766 117.573 141.032Z" fill="#1D1D1B"/>
<path d="M37.4665 141.651C35.6718 141.942 33.9125 142.419 32.2173 143.075C29.9355 143.938 18.5307 148.316 18.5307 148.316C18.5307 148.316 7.11389 152.674 4.84015 153.557C3.14017 154.2 1.51251 155.019 -0.0161133 156C1.77808 155.707 3.53714 155.23 5.23314 154.577C7.5149 153.713 18.9197 149.335 18.9197 149.335C18.9197 149.335 30.3365 144.974 32.6102 144.094C34.3095 143.45 35.937 142.631 37.4665 141.651Z" fill="#1D1D1B"/>
<path d="M33.9575 142.803C34.9077 142.949 35.8768 142.921 36.8167 142.719C37.4343 142.591 39.291 142.203 40.9993 141.895C42.7076 141.587 44.2836 141.319 44.2836 141.319C44.2836 141.319 45.8475 141.076 47.5719 140.856C49.2962 140.636 51.181 140.432 51.8066 140.364C52.7638 140.269 53.6951 139.997 54.5535 139.564C53.6321 139.272 52.6603 139.171 51.6983 139.269C51.0647 139.325 49.1639 139.524 47.4275 139.752C45.6911 139.98 44.1152 140.232 44.1152 140.232C44.1152 140.232 42.5392 140.472 40.8148 140.784C39.0905 141.096 37.2057 141.483 36.5962 141.623C35.6447 141.832 34.7465 142.233 33.9575 142.803Z" fill="#1D1D1B"/>
<path d="M59.1733 136.418C59.434 136.494 59.5743 136.69 59.847 136.878C59.9232 136.922 60.0716 137.018 60.248 137.118C60.4245 137.218 60.6491 137.338 60.8576 137.438C61.2586 137.645 61.6596 137.809 61.6596 137.809C61.6596 137.809 62.0406 137.981 62.4616 138.149C62.6782 138.233 62.9108 138.313 63.1113 138.381C63.3118 138.449 63.4842 138.493 63.5684 138.521C63.8431 138.542 64.1133 138.602 64.3704 138.701C64.1579 138.537 64.0938 138.301 63.8732 138.037C63.7607 137.916 63.6415 137.801 63.5163 137.693C63.3323 137.533 63.1366 137.386 62.9308 137.254C62.6656 137.083 62.3866 136.934 62.0967 136.81C61.808 136.681 61.5088 136.577 61.2025 136.498C60.9663 136.439 60.7265 136.395 60.4846 136.366C60.2641 136.334 60.0836 136.342 59.9874 136.334C59.7189 136.385 59.4466 136.413 59.1733 136.418Z" fill="#1D1D1B"/>
<path d="M107.768 141.979C111.778 141.751 114.525 141.815 119.337 141.823C120.641 141.823 123.251 141.851 126.431 141.919C129.611 141.987 133.365 142.091 136.954 142.195L150.664 142.627C150.664 142.627 157.197 142.823 164.379 142.983C171.561 143.143 179.401 143.251 182.024 143.271C186.836 143.318 189.579 143.219 193.605 143.318C189.595 143.191 186.856 142.919 182.04 142.703C179.433 142.571 171.613 142.227 164.419 141.975C157.225 141.723 150.704 141.539 150.704 141.539L146.542 141.419C144.012 141.356 140.583 141.26 136.99 141.192C133.397 141.124 129.635 141.104 126.447 141.124C123.259 141.144 120.649 141.216 119.341 141.26C114.509 141.427 111.782 141.719 107.768 141.979Z" fill="#1D1D1B"/>
<path d="M116.803 141.088C116.926 140.708 117.073 140.337 117.244 139.976C117.42 139.404 117.554 138.82 117.646 138.229C117.766 137.509 117.802 136.85 117.802 136.85C117.802 136.85 117.858 136.19 117.838 135.459C117.825 134.861 117.767 134.265 117.666 133.675C117.548 133.293 117.453 132.905 117.381 132.512C117.319 132.905 117.224 133.291 117.096 133.667C117.04 133.927 116.907 134.707 116.827 135.419C116.747 136.13 116.711 136.774 116.711 136.774C116.711 136.774 116.659 137.422 116.643 138.137C116.627 138.853 116.643 139.64 116.671 139.904C116.748 140.294 116.792 140.69 116.803 141.088Z" fill="#1D1D1B"/>
<path d="M118.872 140.088C119.057 139.804 119.325 139.688 119.614 139.396C119.954 139.033 120.269 138.647 120.556 138.241C120.909 137.749 121.182 137.278 121.182 137.278C121.182 137.278 121.471 136.81 121.735 136.27C121.956 135.823 122.144 135.36 122.301 134.887C122.357 134.555 122.442 134.229 122.553 133.911C122.369 134.191 122.1 134.311 121.811 134.599C121.471 134.962 121.156 135.348 120.869 135.754C120.516 136.246 120.244 136.718 120.244 136.718C120.244 136.718 119.955 137.186 119.69 137.729C119.47 138.176 119.281 138.636 119.125 139.109C119.069 139.442 118.985 139.77 118.872 140.088Z" fill="#1D1D1B"/>
<path d="M13.7507 151.314C13.6566 151.023 13.5842 150.725 13.5342 150.423C13.4981 150.327 13.4339 150.135 13.3296 149.911C13.219 149.664 13.0931 149.423 12.9527 149.191C12.7727 148.89 12.5703 148.603 12.3472 148.332C12.1287 148.049 11.8902 147.782 11.6334 147.532C11.3004 147.227 10.9346 146.958 10.5426 146.733C10.2559 146.618 9.97726 146.485 9.7085 146.333C9.88478 146.582 10.0315 146.85 10.1456 147.133C10.2459 147.304 10.5466 147.8 10.8795 148.22C11.2123 148.64 11.497 149.02 11.497 149.02C11.497 149.02 11.7897 149.391 12.1386 149.787C12.4875 150.183 12.9046 150.587 13.057 150.735C13.3256 150.975 13.5823 151.059 13.7507 151.314Z" fill="#1D1D1B"/>
<path d="M15.5159 149.859C15.5343 149.378 15.5852 148.898 15.6683 148.424C15.6924 148.1 15.7365 147.137 15.7245 146.261C15.7125 145.385 15.6763 144.586 15.6763 144.586C15.6763 144.586 15.6483 143.786 15.572 142.919C15.4958 142.051 15.3674 141.088 15.3112 140.768C15.1862 140.303 15.0924 139.83 15.0304 139.353C15.0103 139.844 14.8338 140.18 14.7455 140.772C14.6428 141.493 14.5812 142.219 14.5609 142.947C14.5369 143.834 14.585 144.638 14.585 144.638C14.585 144.638 14.6131 145.437 14.7214 146.325C14.8061 147.047 14.9333 147.764 15.1026 148.472C15.2641 148.927 15.402 149.39 15.5159 149.859Z" fill="#1D1D1B"/>
<path d="M14.0554 150.387C13.9777 150.017 13.9281 149.641 13.907 149.263C13.8011 148.71 13.6605 148.164 13.486 147.628C13.2774 146.977 13.0408 146.401 13.0408 146.401C13.0408 146.401 12.8163 145.821 12.5155 145.201C12.2695 144.693 11.9923 144.201 11.6854 143.726C11.4382 143.44 11.213 143.135 11.0117 142.815C11.0899 143.185 11.1381 143.56 11.1561 143.938C11.264 144.491 11.4046 145.037 11.5771 145.573C11.7857 146.225 12.0263 146.801 12.0263 146.801C12.0263 146.801 12.2508 147.376 12.5516 148C12.7974 148.507 13.0746 148.999 13.3817 149.471C13.6281 149.76 13.8533 150.066 14.0554 150.387Z" fill="#1D1D1B"/>
<path d="M184.542 142.219C184.71 141.905 184.901 141.603 185.112 141.316C185.361 140.841 185.569 140.346 185.734 139.836C185.984 139.046 186.147 138.231 186.219 137.406C186.262 136.873 186.254 136.337 186.195 135.806C186.102 135.46 186.03 135.109 185.978 134.755C185.897 135.1 185.779 135.435 185.625 135.754C185.557 135.982 185.365 136.65 185.224 137.262C185.084 137.873 184.975 138.429 184.975 138.429C184.975 138.429 184.859 138.989 184.759 139.628C184.658 140.268 184.582 140.944 184.574 141.18C184.593 141.526 184.583 141.874 184.542 142.219Z" fill="#1D1D1B"/>
<path d="M184.29 141.12C184.266 140.72 184.275 140.319 184.318 139.92C184.318 139.652 184.282 138.865 184.206 138.153C184.129 137.442 184.025 136.802 184.025 136.802C184.025 136.802 183.937 136.162 183.796 135.459C183.656 134.755 183.463 133.995 183.395 133.739C183.228 133.375 183.094 132.996 182.994 132.608C182.958 133.011 182.896 133.412 182.809 133.807C182.757 134.404 182.749 135.004 182.785 135.602C182.825 136.33 182.93 136.982 182.93 136.982C182.93 136.982 183.022 137.637 183.199 138.345C183.341 138.927 183.526 139.497 183.752 140.052C183.954 140.396 184.134 140.753 184.29 141.12Z" fill="#1D1D1B"/>
<path d="M182.392 142.851C182.276 142.355 182.188 141.853 182.127 141.348C182.059 141.012 181.811 140.016 181.526 139.129C181.241 138.241 180.936 137.45 180.936 137.45C180.936 137.45 180.644 136.65 180.267 135.798C179.89 134.947 179.425 134.035 179.252 133.735C178.958 133.318 178.69 132.883 178.45 132.432C178.565 132.929 178.652 133.432 178.711 133.939C178.783 134.271 179.028 135.267 179.316 136.154C179.605 137.042 179.906 137.833 179.906 137.833C179.906 137.833 180.199 138.633 180.576 139.484C180.952 140.336 181.418 141.248 181.59 141.547C181.884 141.965 182.152 142.4 182.392 142.851Z" fill="#1D1D1B"/>
<path d="M51.939 139.161C53.3385 139.085 54.2969 139.209 55.9731 139.197C56.8794 139.197 59.6063 139.149 62.1006 139.041C64.5949 138.933 66.8606 138.793 66.8606 138.793C66.8606 138.793 69.1263 138.665 71.6126 138.461C74.0989 138.257 76.8258 137.977 77.716 137.869C79.3802 137.677 80.3146 137.438 81.7261 137.342C80.3306 137.414 79.3722 137.29 77.696 137.302C76.7857 137.302 74.0628 137.35 71.5685 137.457C69.0742 137.565 66.8085 137.705 66.8085 137.705C66.8085 137.705 64.5428 137.837 62.0525 138.037C59.5622 138.237 56.8393 138.521 55.9531 138.633C54.2729 138.821 53.3345 139.061 51.939 139.161Z" fill="#1D1D1B"/>
<path d="M39.6599 141.208C39.2031 141.461 38.7318 141.688 38.2483 141.887C37.9395 142.047 37.0212 142.567 36.2433 143.087C35.4653 143.606 34.7435 144.126 34.7435 144.126C34.7435 144.126 34.0377 144.634 33.2918 145.238C32.5459 145.841 31.776 146.549 31.5274 146.797C31.1908 147.196 30.832 147.577 30.4526 147.936C30.9094 147.682 31.3807 147.455 31.8642 147.256C32.177 147.097 33.0913 146.577 33.8893 146.057C34.6873 145.537 35.3891 145.018 35.3891 145.018C35.3891 145.018 36.0949 144.51 36.8408 143.902C37.5867 143.294 38.3566 142.591 38.6052 142.343C38.9362 141.946 39.2883 141.567 39.6599 141.208Z" fill="#1D1D1B"/>
<path d="M96.6157 139.684C97.6263 139.88 98.2839 140.184 99.479 140.484C100.125 140.656 102.078 141.136 103.89 141.507C105.703 141.879 107.335 142.179 107.335 142.179C107.335 142.179 108.975 142.487 110.792 142.767C112.608 143.047 114.605 143.29 115.271 143.358C116.498 143.49 117.22 143.434 118.234 143.61C117.224 143.41 116.57 143.107 115.371 142.811C114.725 142.639 112.777 142.159 110.96 141.787C109.143 141.415 107.515 141.116 107.515 141.116C107.515 141.116 105.871 140.812 104.055 140.532C102.238 140.252 100.245 140.004 99.5752 139.94C98.3521 139.8 97.6183 139.856 96.6157 139.684Z" fill="#1D1D1B"/>
<path d="M98.5649 120.77C98.8176 121.766 98.8216 122.485 99.0542 123.697C99.1745 124.352 99.5715 126.315 100.005 128.094C100.438 129.873 100.867 131.485 100.867 131.485C100.867 131.485 101.268 133.084 101.809 134.855C102.351 136.626 102.96 138.513 103.185 139.145C103.586 140.308 103.947 140.936 104.223 141.943C103.971 140.948 103.967 140.228 103.734 139.017C103.618 138.361 103.217 136.398 102.788 134.619C102.359 132.84 101.921 131.229 101.921 131.229C101.921 131.229 101.5 129.629 100.975 127.858C100.45 126.087 99.8241 124.2 99.5996 123.569C99.1985 122.385 98.8416 121.758 98.5649 120.77Z" fill="#1D1D1B"/>
<path d="M157.622 105.282C156.579 103.123 155.914 101.472 154.302 98.5214C153.812 97.6259 152.754 95.7229 151.29 93.1642L150.66 92.0688L150.283 93.2682L149.726 95.0592L150.66 94.8514L148.888 92.9123L148.286 92.2567L147.966 93.0842C147.392 94.5555 147.095 95.3191 146.979 95.623L147.954 95.519L146.779 93.7319L146.61 93.4761V93.4521L145.616 93.636V93.6839V93.7519C145.616 93.7839 145.616 93.7959 145.616 93.7759V93.7279V93.6839V93.64L146.61 93.4561L145.616 93.64C144.717 97.7579 144.473 98.8693 144.473 98.8693C144.473 98.8693 143.711 102.34 142.448 108.105L142.355 108.528L142.756 108.716L151.98 113.094L152.381 113.29L152.649 112.926C153.155 112.246 153.327 112.019 153.451 111.839C155.011 109.764 156.418 107.579 157.662 105.302C155.825 107.136 154.124 109.102 152.573 111.183L151.771 112.274L152.449 112.107L143.25 107.709L143.55 108.32L145.556 99.0812C145.556 99.0812 145.796 97.9698 146.698 93.8559L145.704 94.0358L146.698 93.8559V93.8759V93.9038V93.9438V93.9918C146.698 93.9918 146.698 93.9918 146.698 93.9678V93.8998V93.8519L145.704 94.0318V94.0558L145.872 94.3156L147.043 96.0987L147.629 96.9902L148.03 95.9988C148.146 95.6949 148.431 94.9313 149.016 93.46L148.098 93.632L149.87 95.571L150.52 96.2826L150.805 95.3671L151.362 93.572L150.356 93.6839C151.719 96.0547 152.762 97.7658 153.235 98.5774C154.815 101.244 155.974 102.771 157.622 105.282Z" fill="black"/>
<path d="M152.758 113.71L151.45 112.266L150.292 142.287L159.346 143.618L152.758 113.71Z" fill="#F2F0ED"/>
<path d="M152.753 113.71C152.339 113.145 151.951 112.62 151.59 112.134L151.318 111.763L151.25 112.258C150.933 114.657 150.732 116.772 150.6 119.966C150.46 123.677 149.826 140.064 149.742 142.267L149.722 142.755L150.207 142.827L154.057 143.39L159.27 144.158L160.072 144.274L159.899 143.498C159.294 140.752 156.118 126.367 155.36 122.945C154.679 119.819 153.815 116.735 152.773 113.71C153.123 116.954 153.649 120.177 154.349 123.365C155.095 126.755 158.231 141.012 158.829 143.754L159.442 143.095L154.229 142.331L150.379 141.767L150.849 142.327C150.933 140.124 151.562 123.741 151.707 120.026C151.823 116.828 151.783 114.729 151.655 112.294L151.314 112.414L152.753 113.71Z" fill="#1D1D1B"/>
<path d="M152.818 112.934C152.625 114.233 152.337 115.097 152.104 116.656C152.036 117.08 151.916 117.924 151.791 118.959C151.667 119.994 151.535 121.21 151.418 122.373L150.981 126.811C150.981 126.811 150.925 127.339 150.841 128.154C150.801 128.554 150.737 129.042 150.68 129.566C150.624 130.089 150.552 130.653 150.472 131.229C150.392 131.804 150.324 132.396 150.231 132.964C150.139 133.532 150.067 134.091 149.967 134.595C149.802 135.614 149.618 136.438 149.53 136.85C149.489 137.042 149.453 137.222 149.421 137.398C149.389 137.573 149.341 137.729 149.301 137.889C149.233 138.193 149.165 138.485 149.1 138.781C148.95 139.359 148.762 139.926 148.539 140.48C148.784 139.872 149.064 139.393 149.313 138.857L149.69 138.013L149.89 137.538C149.951 137.37 150.011 137.19 150.079 137.006C150.215 136.606 150.48 135.782 150.749 134.767C150.893 134.259 151.013 133.703 151.15 133.128C151.286 132.552 151.39 131.96 151.486 131.381C151.583 130.801 151.683 130.229 151.751 129.701C151.819 129.174 151.896 128.69 151.94 128.278C152.028 127.455 152.088 126.923 152.088 126.923C152.088 126.923 152.136 126.391 152.212 125.564C152.289 124.736 152.369 123.621 152.437 122.453C152.577 120.11 152.649 117.56 152.686 116.708C152.722 115.141 152.653 114.237 152.818 112.934Z" fill="#1D1D1B"/>
<path d="M150.251 95.2311C150.5 95.8428 150.516 96.3266 150.785 97.0822C150.921 97.482 151.394 98.7014 151.892 99.7688C152.389 100.836 152.854 101.796 152.854 101.796L153.829 103.795C154.077 104.318 154.338 104.866 154.546 105.334C154.755 105.802 154.907 106.194 154.987 106.385C155.112 106.749 155.248 107.029 155.32 107.313C155.421 107.596 155.461 107.897 155.437 108.197C155.457 107.873 155.541 107.593 155.549 107.289C155.589 106.944 155.589 106.595 155.549 106.25C155.492 105.854 155.413 105.461 155.312 105.074C155.161 104.506 154.979 103.947 154.767 103.399C154.554 102.839 154.326 102.32 154.149 101.936C153.973 101.552 153.853 101.316 153.853 101.316C153.853 101.316 153.383 100.341 152.802 99.317C152.22 98.2936 151.539 97.1981 151.306 96.8343C150.916 96.3263 150.563 95.7905 150.251 95.2311Z" fill="#1D1D1B"/>
<path d="M147.769 96.0747C147.649 96.7224 147.404 97.1422 147.228 97.9218C147.119 98.3216 146.871 99.6169 146.714 100.784C146.558 101.952 146.442 103.007 146.442 103.007L146.189 105.218C146.117 105.794 146.045 106.417 145.965 106.901C145.884 107.385 145.812 107.821 145.776 108.025C145.684 108.4 145.652 108.712 145.564 108.988C145.493 109.278 145.363 109.55 145.183 109.788C145.375 109.524 145.584 109.332 145.764 109.08C145.981 108.808 146.165 108.511 146.313 108.197C146.478 107.832 146.621 107.458 146.743 107.077C146.922 106.517 147.069 105.947 147.184 105.37C147.304 104.786 147.392 104.223 147.444 103.807C147.496 103.391 147.529 103.123 147.529 103.123C147.529 103.123 147.661 102.052 147.717 100.872C147.773 99.6929 147.789 98.4055 147.789 97.9777C147.735 97.3448 147.729 96.7087 147.769 96.0747Z" fill="#1D1D1B"/>
<path d="M89.7505 58.402C90.2999 58.9018 90.5525 59.3695 91.1701 60.0252C91.4989 60.385 92.5054 61.4325 93.4759 62.344C94.4464 63.2556 95.3526 64.0511 95.3526 64.0511C95.3526 64.0511 96.2589 64.8507 97.2895 65.6903C98.3201 66.5299 99.4831 67.4014 99.8881 67.6893C100.626 68.205 101.131 68.3929 101.741 68.8127C101.143 68.3689 100.871 67.9052 100.261 67.2615C99.9362 66.9057 98.9257 65.8542 97.9552 64.9467C96.9848 64.0391 96.0785 63.2396 96.0785 63.2396C96.0785 63.2396 95.1762 62.44 94.1416 61.5964C93.107 60.7529 91.944 59.8893 91.547 59.5974C90.8011 59.0817 90.3159 58.8818 89.7505 58.402Z" fill="#1D1D1B"/>
<path d="M45.7754 89.1023C45.8495 89.4268 45.8938 89.7573 45.9077 90.0898C46.0098 90.5712 46.1438 91.0453 46.3087 91.509C46.5052 92.0728 46.7298 92.5605 46.7298 92.5605C46.7298 92.5605 46.9463 93.0563 47.2351 93.58C47.474 94.012 47.742 94.4274 48.0371 94.8234C48.2978 95.1552 48.5624 95.2791 48.7709 95.531C48.5825 95.2511 48.6346 94.9713 48.5544 94.5835C48.4537 94.1031 48.3197 93.6302 48.1534 93.1682C47.9569 92.6045 47.7283 92.1167 47.7283 92.1167C47.7283 92.1167 47.5118 91.621 47.223 91.0973C46.9853 90.6658 46.7173 90.2517 46.421 89.8579C46.1764 89.5341 45.9278 89.3981 45.7754 89.1023Z" fill="#1D1D1B"/>
</g>
<defs>
<clipPath id="clip0_2182_7816">
<rect width="244" height="156" fill="white"/>
</clipPath>
</defs>
</svg>
