<svg width="158" height="134" viewBox="0 0 158 134" fill="none" xmlns="http://www.w3.org/2000/svg">
<g clip-path="url(#clip0_2022_12339)">
<path d="M81.8382 49.4416C83.8606 45.3349 85.309 40.9671 86.1425 36.4621C86.6887 33.7883 88.0161 26.3487 89.0376 19.2331C90.0591 12.1174 90.8238 5.3477 90.9549 4.11784L91.3974 0L88.311 2.74523L85.203 5.49045C85.203 5.49045 79.4728 10.5691 73.3823 16.3945C67.2917 22.2199 60.8188 28.7645 58.7431 30.9882C55.5619 34.264 52.8369 37.9579 50.6423 41.9691C54.407 39.4257 57.8868 36.4803 61.0209 33.1843C63.1294 30.9882 69.5203 24.471 75.5781 18.7005C81.636 12.9301 87.3114 7.85138 87.3114 7.85138L90.3977 5.10615L87.7593 3.72254C87.6228 4.93593 86.8799 11.6617 85.8366 18.7169C84.7932 25.7722 83.4823 33.1568 82.9852 35.8142C82.1277 40.3036 81.7433 44.8712 81.8382 49.4416Z" fill="#2E2E2E"/>
<path d="M62.5348 59.4897C60.74 54.7735 58.5127 50.2354 55.8816 45.9338C54.3467 43.4027 50.146 36.375 46.3824 29.5338C42.6189 22.6927 39.2267 16.0877 38.5712 14.7974L37.5498 12.7935L35.9984 14.4406L32.568 18.0094L28.8209 21.9021L26.9745 23.8238L25.9531 24.8834C25.5074 25.3259 25.1084 25.8135 24.7623 26.3384C24.5397 26.6927 24.3685 27.0773 24.2542 27.4804C24.1375 27.9 24.0859 28.3352 24.1013 28.7707C24.1404 29.488 24.2877 30.1952 24.5383 30.868C24.724 31.417 24.9152 31.9661 25.0845 32.4877C25.2539 33.0093 25.4669 33.5858 25.6308 34.1349C26.3518 36.331 27.0183 38.5821 27.6137 40.7893C28.2091 42.9964 28.7062 45.1816 29.1049 47.1692C29.9298 51.1662 30.3722 54.4934 30.5907 56.1461C30.9894 59.2097 31.3008 61.6365 31.6832 63.8931C32.0655 66.1497 32.5244 68.3458 33.0324 70.9648C33.5313 68.5919 33.8635 66.1866 34.0266 63.7668C34.1731 61.0917 34.078 58.4087 33.7425 55.7508C33.5295 54.0487 33.0815 50.6281 32.2349 46.5213C31.8252 44.4624 31.2898 42.2387 30.6999 39.9327C30.11 37.6267 29.4053 35.3318 28.657 33.0862C28.4822 32.5371 28.2746 31.9881 28.1107 31.439C27.9469 30.89 27.7338 30.3409 27.5645 29.8358C27.4232 29.4678 27.3349 29.0814 27.3023 28.6883C27.287 28.4639 27.3487 28.241 27.4771 28.0569C28.0299 27.3587 28.6285 26.6984 29.2688 26.0803L31.1151 24.1587L34.8569 20.2605L38.2871 16.6917L35.7089 16.3019C36.3644 17.6031 39.7457 24.274 43.5584 31.1261C47.3712 37.9782 51.5773 45.0938 53.145 47.6359C55.7687 51.9668 58.9233 55.9493 62.5348 59.4897Z" fill="#2E2E2E"/>
<path d="M37.6641 14.1253C35.1972 12.7261 32.4652 11.8637 29.6454 11.5942C27.7936 11.38 22.2219 10.8804 17.1473 10.4247C14.6073 10.1941 12.1875 9.95804 10.4068 9.76587L7.47889 9.44188L4.53472 9.07956L0.164795 8.53052L3.16365 11.7424C3.46954 12.0718 4.32158 13.0162 5.52331 14.1966C6.72504 15.3771 8.29826 16.7881 9.94244 18.1607C13.2199 20.906 16.8305 23.514 18.136 24.4583C20.9492 26.4569 22.872 27.1102 25.7834 27.9118C24.2403 25.5535 22.273 23.5053 19.9824 21.8723C18.6987 20.9224 15.1536 18.3584 11.9744 15.6955C10.3794 14.3668 8.88271 13.0162 7.73014 11.9072C6.57758 10.7981 5.79655 9.91409 5.50704 9.60663L4.1141 12.2805L7.10202 12.6484L10.0626 12.9833C11.8597 13.1809 14.2959 13.4225 16.8469 13.6586L29.3176 14.8061C32.7206 15.1026 34.6926 14.7731 37.6641 14.1253Z" fill="#2E2E2E"/>
<path d="M15.7308 21.5053C13.5458 23.6411 12.1801 25.1071 10.5851 28.1543C9.92416 29.4226 8.25266 32.6399 6.61941 35.8738C4.98615 39.1077 3.4349 42.3581 2.87227 43.5879L5.89846 43.9613C5.52156 41.9353 5.35222 40.667 5.21566 39.8983C5.0791 39.1297 5.07364 38.8881 5.07364 38.8881C5.07364 38.8881 4.91514 37.7461 4.70756 35.9672C4.49999 34.1883 4.25421 31.7615 4.04663 29.2194C3.62603 24.1242 3.33105 18.5405 3.22181 16.6792C3.01424 13.2477 2.37518 11.3205 1.21715 8.49292C0.3377 11.4193 -0.126567 13.3959 0.0263806 16.8494C0.113779 18.7162 0.408744 24.3329 0.840273 29.4775C1.05331 32.0525 1.3155 34.5122 1.52307 36.3296C1.73065 38.1469 1.91088 39.3163 1.91088 39.3163C1.91088 39.3163 1.94366 39.5744 2.05291 40.354C2.16216 41.1337 2.36428 42.4514 2.75211 44.5597L3.66976 49.5011L5.77831 44.9276C6.32455 43.7306 7.86484 40.5352 9.49263 37.3178C11.1204 34.1004 12.7702 30.8885 13.4257 29.6312C14.7374 27.1089 15.5219 24.3436 15.7308 21.5053Z" fill="#2E2E2E"/>
<path d="M35.9271 66.1347C38.8987 65.2342 41.6626 64.526 44.3337 63.8397C47.0048 63.1534 49.605 62.522 52.2706 61.8741L56.3455 60.8803C57.7166 60.5509 59.1969 60.1996 60.7155 59.7493C63.9639 58.7402 67.1599 57.5674 70.2911 56.2354C73.1643 55.0605 78.1951 52.9411 84.3185 50.3551C87.3829 49.0703 90.7095 47.6484 94.1508 46.2757C97.5921 44.9031 101.252 43.5305 104.917 42.1963C112.226 39.5225 119.529 36.8156 125.603 34.3614C131.678 31.9072 136.566 29.8153 139.205 28.6788L137.124 26.4826C136.627 27.4764 136.146 28.4208 135.692 29.3157L134.316 31.8578C133.442 33.461 132.601 34.8775 131.88 36.1513C130.394 38.6769 129.258 40.5876 128.389 42.0096L126.09 45.7651C126.09 45.7651 123.407 50.1575 118.792 57.4708C116.487 61.1439 113.706 65.5637 110.598 70.6149C109.058 73.1405 107.435 75.8254 105.791 78.6749C104.147 81.5245 104.265 81.8154 102.67 85.0548L104.631 84.2257L96.2952 81.9253L95.9893 81.8209H95.6726C91.6135 82.1251 87.1964 80.0026 83.2214 80.8828C79.2612 81.7394 74.6836 80.5201 71.1603 81.4864C67.6371 82.4528 64.1793 83.756 61.4208 84.371C59.2287 84.8767 55.0774 86.683 52.8415 86.927C52.0331 86.9984 51.2519 87.0313 50.6565 87.0753L52.197 88.1733C51.0346 85.15 52.2758 88.0799 50.3533 85.4776C48.7146 83.1002 47.0759 81.0029 45.4371 78.9549C42.2362 74.8645 39.1062 71.0377 35.9053 66.1018C38.0955 71.0182 40.6691 75.753 43.6018 80.2617C44.9893 82.4578 46.4477 84.6869 47.9335 87.0753C49.57 89.5459 48.1227 86.4107 49.1762 89.1836L49.575 90.3366L50.7167 90.2762C51.3776 90.2377 52.2516 90.2049 53.131 90.1335C55.5029 89.881 59.1862 87.4527 61.5115 86.9189C64.3738 86.2875 65.8334 84.8617 69.3512 83.9009C72.869 82.94 75.7521 82.9191 79.6031 82.09C83.4283 81.2389 91.9786 85.3478 95.8855 85.0548L95.2683 84.9724L103.604 87.273L104.931 87.7177L105.559 86.4439C107.094 83.3308 106.933 83.0947 108.566 80.2836C110.199 77.4725 111.8 74.7932 113.329 72.284C116.405 67.2603 119.18 62.8404 121.479 59.1673C126.089 51.8266 128.783 47.4397 128.783 47.4397C128.783 47.4397 129.329 46.5173 131.093 43.6623C131.973 42.2403 133.12 40.3076 134.622 37.76C135.348 36.4643 136.2 35.0148 137.091 33.4006L138.5 30.8036C138.975 29.8702 139.467 28.893 139.986 27.8662L141.969 23.946L137.91 25.692C135.288 26.8176 130.438 28.9149 124.396 31.3252C118.355 33.7356 111.112 36.4478 103.792 39.1272C100.132 40.4668 96.4614 41.8339 92.9491 43.234C89.4368 44.6341 86.0993 46.0561 83.0404 47.3409L69.0402 53.2321C65.6262 54.6431 62.6054 55.9005 59.7541 56.8778C58.3393 57.3774 56.9683 57.7892 55.5809 58.234C54.1934 58.6787 52.8496 59.1234 51.5714 59.5791C48.9549 60.4905 46.4423 61.4513 43.8695 62.511C41.2967 63.5706 38.713 64.7566 35.9271 66.1347Z" fill="#2E2E2E"/>
<path d="M2.40991 8.56689C4.10326 9.5387 5.2121 10.0603 7.16218 10.0768C8.22188 10.0768 11.401 10.1152 14.307 10.2854C17.213 10.4556 19.8568 10.7137 19.8568 10.7137L21.5338 10.9003C22.5498 11.0211 23.9318 11.1914 25.3575 11.4165C28.2416 11.8337 31.3662 12.4487 32.3986 12.6518C34.3159 13.0252 35.5066 12.7397 37.3584 12.1028C35.9928 10.7192 34.9987 9.90659 33.0431 9.48382C31.9834 9.24773 28.7825 8.61634 25.8218 8.19358C24.347 7.97396 22.9268 7.80372 21.8835 7.67744L20.1627 7.49078C20.1627 7.49078 17.4589 7.20531 14.4709 7.0351C11.483 6.8649 8.22746 6.82092 7.14044 6.84288C5.15759 6.89779 4.02132 7.48527 2.40991 8.56689Z" fill="#2E2E2E"/>
<path d="M23.3473 28.3269C22.7137 30.5231 22.4296 31.9946 22.8611 34.4049C23.096 35.7116 23.8554 39.6263 24.5873 43.1896L26.0075 50.0252C26.0075 50.0252 26.7067 53.2756 27.4715 56.8499C28.2362 60.4241 29.1484 64.3059 29.4652 65.5906C30.0442 67.9735 30.9073 69.1978 32.3767 70.9438C32.8902 68.7147 33.1031 67.2433 32.5733 64.8604C32.2838 63.5702 31.4099 59.6994 30.6124 56.1471L29.1321 49.3554L27.7337 42.5472C27.029 38.9729 26.2587 35.0802 26.002 33.7625C25.5213 31.4071 24.7239 30.1497 23.3473 28.3269Z" fill="#2E2E2E"/>
<path d="M39.0608 87.0284C37.9137 84.2832 37.1871 82.4714 35.0404 79.8524C34.4614 79.1496 33.2924 77.7276 31.763 76.0475C31.3806 75.6247 30.9655 75.191 30.5394 74.7518L29.2394 73.434C28.3436 72.5391 27.3822 71.6167 26.3662 70.7657C25.3774 69.9272 24.3172 69.1777 23.1979 68.5256C22.1894 67.9479 21.107 67.5119 19.9807 67.2298C19.1778 67.0158 18.3529 66.8961 17.5226 66.873C17.1791 66.8692 16.8358 66.8912 16.4956 66.9389C16.1212 66.9763 15.7536 67.065 15.4031 67.2024C14.9317 67.3666 14.4959 67.6201 14.1194 67.9491C14.0101 68.0479 13.8791 68.1577 13.7808 68.2675L13.5022 68.6079C13.3035 68.8678 13.1349 69.1497 12.9997 69.448C12.7019 70.1093 12.5598 70.8308 12.5845 71.5563C12.61 72.2596 12.7389 72.9553 12.9669 73.6207C13.4259 74.8881 14.0444 76.0911 14.8076 77.2005C15.5341 78.2986 16.3372 79.3582 17.0637 80.341L17.5771 81.0548L17.801 81.3897L18.0251 81.7466C18.3637 82.2956 18.6915 82.7788 19.0083 83.251C20.2647 85.1177 21.3244 86.6001 21.8542 87.3468C23.8152 90.0921 25.3829 91.322 27.8629 92.9965C27.0435 90.1195 26.3826 88.2473 24.4762 85.4966C23.9573 84.7499 22.9084 83.2564 21.6849 81.4391C21.3844 80.9889 21.0622 80.5058 20.7727 80.0391L20.516 79.6328L20.2319 79.2045C20.0407 78.9465 19.855 78.6555 19.6857 78.4139C18.9264 77.3927 18.1726 76.4044 17.5007 75.4161C16.8951 74.5402 16.3996 73.5923 16.0257 72.594C15.8956 72.2416 15.8202 71.8713 15.8018 71.4959C15.7892 71.2591 15.8303 71.0226 15.922 70.8041C15.9608 70.7188 16.0084 70.6378 16.064 70.5625L16.157 70.4528C16.1843 70.4143 16.2006 70.4198 16.2224 70.3978C16.306 70.3225 16.4048 70.2663 16.512 70.2331C16.6104 70.1981 16.7107 70.1688 16.8124 70.1453H16.9435C17.1247 70.1226 17.3072 70.1116 17.4898 70.1123C18.066 70.1341 18.6378 70.2226 19.194 70.3759C20.0416 70.5878 20.856 70.9167 21.6139 71.3531C22.5713 71.9121 23.4762 72.5572 24.3178 73.2803C25.2245 74.0325 26.1148 74.889 26.9779 75.7565L28.2561 77.0467C28.6604 77.464 29.0481 77.8704 29.4141 78.2712C30.878 79.8634 32.0252 81.2579 32.6151 81.9443C34.3618 84.0987 36.5636 85.8354 39.0608 87.0284Z" fill="#2E2E2E"/>
<path d="M53.553 87.4153C52.6244 84.8842 52.0126 83.2645 50.1171 80.9421C49.6037 80.3216 48.5822 79.0588 47.2494 77.5489C46.5884 76.7968 45.8455 75.9787 45.0644 75.1661C44.2833 74.3535 43.4804 73.519 42.6501 72.7558C41.1541 71.2794 39.487 69.9891 37.6847 68.9125C37.331 68.7091 36.9663 68.5258 36.5922 68.3634C36.2645 68.2207 35.9749 68.1054 35.7401 68.023C35.2594 67.8473 34.9863 67.7705 34.9863 67.7705C34.9863 67.7705 34.7186 67.6881 34.2215 67.5673C33.5063 67.3876 32.7735 67.2882 32.0365 67.2708C31.4681 67.2563 30.9004 67.3191 30.3487 67.4575C29.5954 67.6442 28.9075 68.0355 28.3603 68.5886C27.7952 69.1719 27.3987 69.8988 27.2133 70.6914C27.0523 71.4534 27.0523 72.2408 27.2133 73.0028C27.5069 74.2769 28.011 75.4926 28.7045 76.5991C29.2773 77.545 29.8971 78.4612 30.5617 79.3443C31.1571 80.1514 31.7034 80.8652 32.0967 81.4307C32.49 81.9962 32.7794 82.5288 33.0034 82.8527C34.6421 85.4113 36.0951 86.5149 38.3784 87.9369C37.9157 85.5267 37.0118 83.2238 35.7127 81.1452C35.4942 80.8048 35.232 80.3216 34.7349 79.5859C34.2378 78.8502 33.7244 78.2078 33.1509 77.4227C32.5507 76.6224 31.991 75.7923 31.4739 74.9355C30.9757 74.143 30.6068 73.2756 30.3814 72.366C30.3163 72.0528 30.3163 71.7294 30.3814 71.4162C30.4291 71.184 30.5452 70.9716 30.7147 70.8067C30.8513 70.6814 31.0194 70.596 31.2008 70.5596C31.4727 70.4949 31.7517 70.4653 32.0311 70.4717C32.5397 70.4852 33.0453 70.5552 33.5387 70.6804C33.9101 70.7682 34.1232 70.8341 34.1232 70.8341C34.1232 70.8341 34.3308 70.8945 34.6968 71.0263C34.8825 71.0922 35.101 71.18 35.3468 71.2898C35.6211 71.4098 35.8875 71.5474 36.1443 71.7016C37.7206 72.6555 39.1783 73.7946 40.4868 75.0947C41.2625 75.8359 42.0436 76.6375 42.8138 77.4282C43.584 78.2188 44.2669 78.9655 44.9114 79.6902C46.1842 81.1342 47.2056 82.3805 47.73 82.9845C49.2797 84.9194 51.2796 86.4411 53.553 87.4153Z" fill="#2E2E2E"/>
<path d="M28.3335 93.298C26.8005 91.8138 25.4089 90.1888 24.1767 88.4444C22.9859 86.7972 21.9098 85.1501 20.7517 83.503C19.5431 81.7073 18.2431 79.9756 16.857 78.3145C16.4692 77.8753 16.0868 77.4195 15.6498 76.9803L14.3772 75.6736C13.4442 74.7015 12.4556 73.7848 11.4165 72.9284C10.613 72.2608 9.73493 71.6896 8.79994 71.2263C8.1124 70.8911 7.37387 70.674 6.61498 70.584C6.39102 70.584 6.15614 70.584 5.93765 70.584L5.30406 70.6334C5.08556 70.6718 4.86162 70.7102 4.63766 70.7596C4.40447 70.8203 4.1747 70.8937 3.94939 70.9793C2.96196 71.3718 2.12275 72.0673 1.55132 72.9668C1.02219 73.8268 0.676317 74.7877 0.535388 75.7889C0.295051 77.701 0.40057 79.641 0.846782 81.5154C1.05465 82.5027 1.33948 83.4721 1.69882 84.4144C1.89546 84.9305 2.10309 85.3533 2.3052 85.8145C2.50731 86.2757 2.73124 86.7259 2.96066 87.1706C3.88247 89.0044 4.90371 90.786 6.01966 92.5073C8.30464 96.0095 10.8212 99.3534 13.5523 102.516C16.1231 105.575 18.8912 108.46 21.8388 111.153C24.3825 113.422 27.1248 115.457 30.0324 117.231C32.0675 118.458 34.1931 119.526 36.3905 120.426C37.9692 121.074 38.8924 121.354 38.8924 121.354L39.5533 121.574C39.9794 121.733 40.6458 121.892 41.4542 122.123C43.778 122.74 46.1565 123.126 48.5553 123.276C51.9983 123.442 55.4485 123.173 58.8247 122.474C62.7114 121.648 66.5427 120.577 70.2957 119.268C74.1795 117.983 78.0851 116.599 81.9088 115.578C83.768 115.063 85.6559 114.657 87.5624 114.365C89.3287 114.079 91.1158 113.943 92.9047 113.959C95.9296 113.96 98.9274 114.532 101.743 115.644C103.622 116.406 105.412 117.374 107.08 118.532C109.232 120.015 111.062 121.579 112.788 123.001C114.514 124.423 116.114 125.779 117.704 127.037C119.31 128.303 120.984 129.48 122.718 130.562C124.558 131.717 126.509 132.685 128.541 133.45C126.762 132.271 125.086 130.941 123.532 129.475C122.047 128.107 120.676 126.729 119.261 125.274C117.846 123.819 116.382 122.342 114.721 120.767C112.894 118.999 110.938 117.369 108.871 115.891C107.006 114.588 105.001 113.497 102.895 112.641C99.7146 111.382 96.3283 110.731 92.91 110.719C90.9474 110.704 88.9869 110.853 87.0489 111.164C85.023 111.477 83.0168 111.908 81.0402 112.454C77.0417 113.519 73.0925 114.925 69.2415 116.199C65.6131 117.466 61.9097 118.506 58.1528 119.312C55.0513 119.924 51.8861 120.145 48.7302 119.971C46.5494 119.831 44.3871 119.48 42.2736 118.922C41.5143 118.702 40.9189 118.565 40.5256 118.417L39.9139 118.214C39.9139 118.214 39.0671 117.956 37.6032 117.357C35.5606 116.512 33.5834 115.515 31.6875 114.376C28.9454 112.699 26.3569 110.781 23.9526 108.644C18.1814 103.276 13.0655 97.2385 8.71259 90.657C7.65964 89.0344 6.695 87.3555 5.82296 85.6278C5.60992 85.2105 5.40243 84.7933 5.22217 84.3705C5.04191 83.9477 4.82888 83.5194 4.67593 83.1516C4.38058 82.3649 4.14321 81.5575 3.96579 80.7358C3.60939 79.2521 3.51692 77.7168 3.69267 76.2007C3.76459 75.6449 3.9506 75.1102 4.23891 74.6304C4.44125 74.2935 4.74834 74.033 5.11282 73.8892C5.19475 73.8507 5.30401 73.8343 5.39141 73.8014L5.7028 73.741H6.03607H6.29278C6.68745 73.7946 7.07094 73.9114 7.42887 74.0869C8.13492 74.4447 8.7999 74.8792 9.41179 75.3826C10.3896 76.1733 11.2854 77.0297 12.1758 77.8862L13.4758 79.1271C13.8909 79.5059 14.2733 79.9122 14.6611 80.2966C16.1851 81.8723 17.5398 83.4371 18.9054 84.9415C20.271 86.4458 21.6366 87.9228 23.1552 89.3338C24.7321 90.8413 26.4686 92.1706 28.3335 93.298Z" fill="#2E2E2E"/>
<path d="M157.978 118.781C156.7 117.035 155.542 115.394 154.291 113.911C153.674 113.165 153.09 112.407 152.44 111.715C151.79 111.023 151.156 110.304 150.495 109.596C147.441 106.433 144.114 103.548 140.553 100.976C136.392 97.9832 132.046 95.2582 127.542 92.8171C120.853 89.1996 113.83 86.2446 106.572 83.9939C104.704 83.4449 102.868 82.8959 101.049 82.4402C99.2303 81.9845 97.4332 81.5891 95.7071 81.2487C92.5806 80.6462 89.4184 80.2483 86.2407 80.0573C84.0265 79.9321 81.8071 79.9321 79.593 80.0573C78.8009 80.1067 78.1781 80.1726 77.7521 80.2001C77.326 80.2275 77.1076 80.2714 77.1076 80.2714L76.463 80.3483C76.0424 80.3867 75.4251 80.4691 74.6331 80.6009C73.841 80.7326 72.8906 80.9193 71.7926 81.1499C70.6947 81.3805 69.4766 81.6989 68.1547 82.0668C65.5 82.797 62.4574 83.8073 59.1799 84.8505C57.5339 85.3776 55.837 85.879 54.089 86.3549C52.3411 86.7996 50.5494 87.2168 48.7304 87.4969C48.277 87.5792 47.8182 87.6122 47.3593 87.6726C46.9005 87.733 46.4471 87.7879 45.9883 87.8044L44.6117 87.8867H43.268C42.3558 87.8867 41.3507 87.8263 40.3674 87.8208C39.3842 87.8153 38.3791 87.8208 37.3631 87.8867C36.3218 87.9419 35.2883 88.0982 34.2769 88.3534C33.177 88.6188 32.1358 89.088 31.207 89.737C30.2488 90.4537 29.5108 91.4269 29.0771 92.5454C28.6434 93.6639 28.5315 94.8826 28.7544 96.0619C28.9874 97.1052 29.4401 98.0862 30.0818 98.9389C30.6282 99.6788 31.265 100.347 31.9773 100.927C33.1845 101.916 34.5183 102.737 35.943 103.37C36.5984 103.666 37.2047 103.886 37.7728 104.089L38.5976 104.396L39.4006 104.644C40.4166 104.984 41.3288 105.193 42.0444 105.341C44.4739 105.824 46.9628 105.93 49.4241 105.654C51.4642 105.414 53.4836 105.021 55.4656 104.479C59.1909 103.48 62.5994 102.283 66.7071 100.937C62.4027 101.283 58.7867 101.706 55.0286 102.167C53.1495 102.381 51.2377 102.601 49.2057 102.683C47.0218 102.788 44.8333 102.624 42.6889 102.195C42.0608 102.03 41.2632 101.876 40.3456 101.563L39.6246 101.344L38.8707 101.064L38.0623 100.762C37.7892 100.657 37.5161 100.542 37.2648 100.427C36.1039 99.9115 35.0165 99.2432 34.0311 98.4394C33.018 97.6865 32.2729 96.6257 31.9062 95.4141C31.8062 94.8605 31.863 94.2898 32.0701 93.767C32.265 93.2058 32.6274 92.7188 33.1079 92.3724C34.1512 91.6257 35.8392 91.2743 37.5871 91.137C38.4666 91.0711 39.3843 91.0712 40.3184 91.0821C41.2524 91.0931 42.1864 91.148 43.2078 91.148H44.7373L46.2559 91.0547C46.7639 91.0547 47.261 90.9723 47.7581 90.9119C48.2552 90.8515 48.7577 90.8076 49.2438 90.7197C51.162 90.4097 53.0636 90.0029 54.9412 89.5009C56.7602 89.0067 58.519 88.4852 60.1741 87.9526C63.4952 86.8984 66.4832 85.8992 69.0396 85.2074C70.3178 84.8505 71.4813 84.5759 72.5083 84.3343C73.5352 84.0928 74.431 83.9336 75.1684 83.8348C75.9058 83.7359 76.4849 83.6316 76.8782 83.5931L77.4844 83.5163C77.4844 83.5163 77.6921 83.4833 78.0908 83.4559C78.4896 83.4284 79.0685 83.368 79.8169 83.3241C81.9055 83.2049 83.9991 83.2049 86.0877 83.3241C89.1266 83.5066 92.1502 83.8899 95.1389 84.4716C96.7777 84.7955 98.5311 85.1744 100.295 85.6192C102.06 86.0639 103.846 86.6074 105.66 87.1345C112.717 89.3243 119.546 92.1984 126.051 95.716C130.431 98.0949 134.663 100.739 138.723 103.633C142.837 106.604 145.956 109.074 148.955 111.391C149.697 111.984 150.435 112.561 151.167 113.148C151.899 113.736 152.62 114.34 153.352 114.938C154.865 116.064 156.34 117.381 157.978 118.781Z" fill="#2E2E2E"/>
<path d="M77.1672 82.8714C78.2597 83.0745 79.2866 83.2447 80.2589 83.4204C81.2312 83.5961 82.1653 83.7608 83.1212 83.9036C84.0771 84.0463 85.0549 84.1945 86.1146 84.3263C86.6608 84.3977 87.2071 84.469 87.7533 84.5294L88.6438 84.6173L89.5723 84.7326C90.9543 84.8808 93.7183 85.2212 97.0503 85.9021C100.72 86.6756 104.333 87.6974 107.866 88.9603C111.07 90.1114 114.202 91.4553 117.245 92.9848C118.463 93.5832 119.43 94.1158 120.118 94.4946L121.183 95.0712L122.227 95.6916C122.898 96.0814 123.865 96.6469 124.996 97.3881C127.879 99.2191 130.66 101.208 133.326 103.345C136.27 105.704 139.087 108.219 141.766 110.878C144.191 113.294 146.064 115.397 146.993 116.445C147.867 117.406 148.632 118.29 149.375 119.059C150.118 119.828 150.8 120.558 151.51 121.255C152.221 121.952 152.909 122.589 153.657 123.248C154.406 123.907 155.159 124.599 156.011 125.34C155.574 124.302 155.165 123.341 154.739 122.43C154.313 121.519 153.854 120.662 153.357 119.8C152.86 118.938 152.297 118.082 151.652 117.187C151.008 116.292 150.281 115.347 149.391 114.354C148.446 113.256 146.523 111.098 144.027 108.605C141.269 105.862 138.366 103.27 135.331 100.842C132.57 98.6368 129.693 96.5839 126.711 94.6923C125.531 93.9291 124.526 93.3471 123.838 92.9409L122.745 92.3039L121.653 91.7C120.948 91.3102 119.938 90.7502 118.676 90.1352C115.521 88.5414 112.272 87.1423 108.947 85.946C105.276 84.626 101.518 83.5619 97.7003 82.7615C94.2317 82.0533 91.3475 81.7074 89.9055 81.5647L88.9333 81.4658L88.0046 81.4219C87.3982 81.4219 86.8247 81.3834 86.273 81.3779C85.1805 81.3779 84.1372 81.4767 83.1485 81.5756C82.1598 81.6744 81.1984 81.8831 80.2152 82.0862C79.2319 82.2894 78.2269 82.5639 77.1672 82.8714Z" fill="#2E2E2E"/>
<path d="M36.6804 69.3665C37.2867 68.3617 37.3523 67.4888 36.6804 66.8683C36.3445 66.5705 35.9783 66.3092 35.5879 66.0887C35.0087 65.7689 34.387 65.5341 33.7417 65.3914C33.144 65.2652 32.5313 65.2264 31.9227 65.2761C31.7265 65.2898 31.5312 65.3154 31.3381 65.353L31.1252 65.3914L30.9067 65.4463C30.7212 65.4911 30.5387 65.548 30.3605 65.6165C29.786 65.8206 29.2447 66.1093 28.7544 66.473C28.2214 66.8669 27.7501 67.3388 27.3562 67.8731C27.0889 68.2332 26.8617 68.6217 26.6787 69.0315C26.3182 69.8716 26.7388 70.6403 27.7002 71.3046C28.7927 70.8269 29.3662 70.8104 29.5738 70.3932C29.6782 70.188 29.7988 69.9916 29.9344 69.8057C30.1412 69.5292 30.3857 69.2834 30.6608 69.0755C30.902 68.8954 31.1668 68.7494 31.4475 68.6417C31.666 68.5594 31.8134 68.5375 31.808 68.532C31.9328 68.511 32.0585 68.4963 32.1848 68.488C32.485 68.4643 32.7872 68.4865 33.0807 68.5539C33.4148 68.6286 33.7367 68.7506 34.0367 68.9163C34.2377 69.031 34.4293 69.1613 34.6101 69.3061C34.9542 69.5971 35.5005 69.3719 36.6804 69.3665Z" fill="#2E2E2E"/>
<path d="M29.2408 73.303C29.6505 72.0292 29.6668 71.1068 28.8693 70.2228C28.47 69.8044 28.0431 69.4136 27.5911 69.0534C26.9099 68.521 26.178 68.0576 25.4062 67.6698C24.7065 67.3138 23.9749 67.0253 23.2212 66.8078C22.9263 66.7145 22.6749 66.6595 22.5001 66.6211L22.2325 66.5552L21.9594 66.5058C21.7846 66.4728 21.5333 66.4235 21.2219 66.3905C19.596 66.1828 17.9457 66.2909 16.3604 66.7089C15.8017 66.8519 15.254 67.0354 14.7217 67.258C13.6292 67.7302 13.2852 68.5976 13.1541 69.9263C14.4486 70.2887 15.104 70.5523 15.9289 70.2283C16.3351 70.0734 16.7489 69.9396 17.1688 69.8275C17.795 69.6644 18.4351 69.5614 19.0807 69.52C19.6638 69.4826 20.249 69.501 20.8286 69.5749C21.058 69.5749 21.2438 69.6298 21.3749 69.6518L21.577 69.6903L21.7791 69.7397C21.9047 69.7397 22.0904 69.8111 22.3253 69.8824C22.8902 70.0496 23.4387 70.2683 23.964 70.5358C24.5418 70.8329 25.0905 71.184 25.6028 71.5845C26.0616 71.9523 26.4058 72.2872 26.5805 72.4574C27.2087 73.1053 27.9134 73.1273 29.2408 73.303Z" fill="#2E2E2E"/>
<path d="M35.7947 90.9697C35.2899 91.0978 34.8171 91.3305 34.407 91.6529C33.9969 91.9753 33.6583 92.3803 33.4131 92.8419C32.8602 93.9184 32.7465 95.169 33.0962 96.3283C33.2462 96.8772 33.4647 97.4049 33.7463 97.8987C34.1571 98.6047 34.6749 99.2419 35.2812 99.7874C36.7152 101.045 38.458 101.894 40.3285 102.247C41.8926 102.527 43.4842 102.619 45.0699 102.522C46.2771 102.456 47.0253 102.39 47.0253 102.39L61.3096 101.226C63.4945 101.023 64.7017 100.369 66.4497 99.1999C64.5378 98.3214 63.2488 97.8712 61.0529 98.0249L46.7741 99.1834C46.7741 99.1834 46.0312 99.2493 44.9278 99.3042C43.6036 99.3886 42.274 99.313 40.9676 99.0791C39.6663 98.838 38.4511 98.2567 37.4444 97.3935C37.0819 97.0778 36.7704 96.7074 36.5211 96.2954C36.3689 96.0331 36.2497 95.7527 36.1661 95.4609C35.9735 94.7904 35.8148 94.1106 35.6908 93.4239C35.5133 92.6106 35.5491 91.7649 35.7947 90.9697Z" fill="#2E2E2E"/>
<path d="M100.107 85.1081C102.063 84.01 101.497 86.0992 102.847 84.1336L107.763 76.9357L111.63 71.3573L115.563 65.834C117.644 62.957 119.933 59.7945 120.67 58.7733C122.063 56.8406 122.424 55.4241 122.795 53.2114C120.791 54.1942 119.518 54.9519 118.103 56.868C117.322 57.9002 115.028 61.0408 112.952 63.9452L109.019 69.5071L105.119 75.0909C103.092 78.0283 100.913 81.2511 100.203 82.3382C98.8864 84.3368 100.358 82.8735 100.107 85.1081Z" fill="#2E2E2E"/>
<path d="M139.088 33.2947C136.699 33.1216 134.296 33.2786 131.949 33.7614C129.413 34.2805 126.912 34.9591 124.46 35.7929L86.6547 48.4209L48.855 61.0489C44.156 62.6014 39.6436 64.6749 35.4011 67.2311C40.3216 66.7317 45.1712 65.682 49.8601 64.1016L87.6653 51.4736L125.465 38.8455C127.913 38.0313 130.314 37.0837 132.659 36.0069C134.749 34.9813 136.896 34.0758 139.088 33.2947Z" fill="#2E2E2E"/>
<path d="M87.4202 6.67261C85.0768 7.11184 83.438 7.56755 81.3404 9.13782L67.6135 19.4983L53.8864 29.8423C51.7888 31.451 50.9258 32.7962 49.7732 34.9484C52.1493 34.4378 53.6788 33.9821 55.7818 32.4119L69.5089 22.0733L83.2359 11.7293C85.3608 10.0712 86.1911 8.83036 87.4202 6.67261Z" fill="#2E2E2E"/>
<path d="M35.4008 68.2449C35.2916 69.8206 35.3297 70.8034 36.1545 71.9728C37.0558 73.2357 41.688 79.4838 41.688 79.4838C41.688 79.4838 46.2764 85.7594 47.2159 86.9893C48.0844 88.1313 49.0131 88.4552 50.5426 88.8066C50.6518 87.2363 50.6135 86.248 49.7887 85.0786C48.8874 83.8158 44.2553 77.5677 44.2553 77.5677C44.2553 77.5677 39.6669 71.292 38.7273 70.0622C37.8533 68.9092 36.9303 68.5963 35.4008 68.2449Z" fill="#2E2E2E"/>
</g>
<defs>
<clipPath id="clip0_2022_12339">
<rect width="158" height="134" fill="white"/>
</clipPath>
</defs>
</svg>
