<svg width="1320" height="30" viewBox="0 0 1320 30" fill="none" xmlns="http://www.w3.org/2000/svg">
<g clip-path="url(#clip0_4218_7458)">
<path d="M2.61952e-06 -3.62434e-05L4.36398e-07 24.9719C0.171753 24.9719 0.515503 24.9719 0.687256 24.9719C1.20264 25.8099 2.06165 25.6423 2.74878 25.6423C3.26416 25.6423 3.60779 25.6423 4.12317 25.6423C5.15393 25.6423 6.18469 25.9775 6.87183 24.9719C7.73084 24.9719 8.76172 24.9719 9.62073 24.9719C10.9951 24.9719 12.3694 24.9719 13.7438 24.9719C14.4309 24.9719 15.1182 24.9719 15.8053 24.9719C15.9772 25.4747 16.3208 25.4747 16.4926 24.9719C16.6643 24.9719 17.0079 24.9719 17.1797 24.9719C18.5541 24.8043 20.1002 25.4747 21.3029 24.3015C21.4746 24.3015 21.8181 24.3015 21.99 24.3015C22.1617 24.1339 22.5054 23.7987 22.6772 23.6312C23.708 23.6312 24.3953 24.3015 25.0824 24.8043C26.1132 25.8099 27.3157 26.3127 28.8618 26.3127C31.0952 26.3127 33.5004 26.1451 35.7338 26.8155C36.7645 27.1507 37.7954 27.1507 38.8262 26.4803C40.0287 25.4747 41.4031 25.6423 42.7775 25.6423C45.5261 25.3071 48.2749 25.4747 50.6801 23.6312C51.1954 23.6312 51.5391 23.6312 52.0544 23.6312C53.0852 24.4691 54.2877 24.9719 55.4904 24.6367C57.2083 24.1339 58.7545 24.4691 60.4724 24.3015C62.3622 24.8043 64.2521 25.1395 65.97 26.1451C66.829 26.6479 68.0315 27.3183 69.234 26.9831C72.3264 25.9775 75.5906 25.9775 78.6829 25.4747C81.088 25.1395 83.4932 25.1395 85.8983 25.4747C89.1625 25.8099 92.5985 26.8155 95.519 24.134C96.3781 23.296 97.7523 23.6312 98.7831 24.134C99.6421 24.4691 100.501 24.9719 101.36 25.3071C104.281 26.4803 107.201 27.1507 110.122 25.9775C112.011 25.3071 113.729 25.1395 115.447 25.1395C118.712 25.9775 121.804 27.6535 125.068 25.3071C125.927 24.8043 126.958 24.6367 127.989 24.4691C133.658 24.134 139.327 25.1395 144.996 25.4747C147.058 25.6423 149.12 25.9775 151.009 25.1395C152.384 24.6367 153.586 24.8043 154.961 25.3071C158.053 26.3127 160.974 27.6535 164.238 28.1563C166.815 28.4915 169.392 28.1563 171.797 28.6591C173.343 28.9943 174.374 29.1619 175.576 27.9887C177.294 26.6479 179.012 26.3127 180.73 26.3127C181.933 26.3127 182.964 26.3127 184.166 25.9775C188.633 24.6367 193.1 23.6312 197.738 24.9719C198.425 25.1395 199.112 25.1395 199.8 24.9719C200.143 24.8043 200.659 24.6368 201.002 24.6368C201.002 24.6368 207.359 23.6312 210.623 23.4636C213.372 23.296 215.948 23.4636 218.697 23.4636C220.587 23.1284 222.477 24.134 224.195 22.7932C224.366 22.7932 224.71 22.7932 224.882 22.7932C226.428 22.458 227.802 22.1228 229.521 23.1284C230.895 23.9664 232.956 23.9664 234.503 23.1284C237.079 21.62 239.656 22.1228 242.233 22.6256C243.951 22.9608 245.841 23.296 247.387 22.7932C250.48 22.1228 253.4 21.9552 256.149 23.296C256.836 23.6312 257.523 23.6312 258.21 23.296C259.928 22.2904 261.818 21.7876 263.88 22.7932C264.223 22.9608 264.739 22.7932 265.254 22.6256C267.144 21.9552 269.034 21.4524 270.752 20.6144C271.439 20.2792 272.126 19.944 272.813 19.4412C272.813 19.4412 280.372 18.1005 283.636 18.1005C287.588 18.1005 291.711 18.1005 295.662 18.1005C297.724 18.1005 299.614 17.5977 301.847 17.9329C305.626 18.4357 309.406 19.2737 313.185 18.7709C316.449 18.7709 319.714 18.7709 322.978 18.7709C324.18 18.7709 325.383 18.7709 326.414 18.7709C327.96 18.7709 329.678 18.7709 331.224 18.7709C333.286 18.7709 335.519 18.4357 337.409 18.9385C340.673 19.7764 343.937 18.9385 347.201 18.9385C350.809 18.9385 354.417 18.4357 357.853 19.2737C360.945 19.944 364.381 20.1116 367.473 19.7765C371.596 19.4413 375.719 20.2792 379.843 19.4413C380.358 19.2737 381.217 19.4413 381.561 19.6089C383.279 20.9496 385.34 20.782 387.23 20.6144C389.463 20.4468 391.353 20.9496 393.071 22.2904C394.102 23.1284 395.304 23.6312 396.679 23.1284C399.599 21.9552 402.348 22.7932 405.097 23.7988C406.299 24.3016 407.502 24.4692 409.048 23.6312C410.938 22.458 413.343 22.2904 415.748 22.9608C418.497 23.6312 421.417 23.9664 424.166 22.9608C425.369 22.458 426.399 22.6256 427.602 23.1284C430.179 24.3016 432.756 24.4692 435.333 23.9664C435.333 23.9664 447.53 24.6368 453.887 24.4692C454.574 24.8044 455.261 25.1396 455.948 25.1396C458.354 26.9831 461.102 27.6535 464.023 26.8155C465.569 26.4803 466.943 26.4803 468.49 26.4803C471.238 26.9831 473.815 28.3239 476.564 27.6535C478.454 27.3183 480.344 27.1507 482.405 27.1507C483.264 27.1507 483.951 27.1507 484.639 26.4803C486.357 26.3127 487.903 26.8155 489.621 27.4859C490.995 27.9887 492.713 29.4971 494.431 27.8211C500.1 27.9887 511.611 28.3239 511.611 28.3239C511.954 28.3239 512.47 28.3239 513.157 28.3239C516.765 28.3239 520.544 28.4915 524.152 28.4915C525.87 28.4915 527.244 28.4915 528.618 29.1619C529.821 29.8323 531.195 30.1675 532.57 29.8323C536.865 28.9943 541.16 28.4915 545.626 28.6591C548.719 28.6591 551.639 28.6591 554.732 28.6591C555.762 28.6591 556.793 28.9943 557.652 27.9887C557.824 27.9887 558.167 27.9887 558.339 27.9887C559.714 27.8211 561.088 27.4859 562.462 27.3183C565.039 27.6535 567.788 27.6535 570.365 28.3239C572.77 28.8267 574.832 28.6591 577.065 27.9887C581.016 26.8155 585.14 26.1452 589.263 27.3183C593.214 28.4915 597.337 28.1563 601.288 27.6535C602.147 27.4859 602.835 27.4859 603.694 27.6535C609.363 28.1563 615.032 28.4915 620.53 27.1507C621.732 26.8155 623.107 26.3128 624.309 26.8156C626.886 27.6535 629.635 27.3183 632.212 27.3183C632.555 27.4859 633.071 27.9887 633.414 27.9887C637.022 27.9887 640.63 28.3239 644.238 27.9887C648.876 27.3183 653.343 27.1507 657.981 27.9887C658.84 28.1563 659.871 27.9887 660.73 27.9887C664.853 27.3183 668.976 25.9776 673.271 27.3183C673.787 27.4859 674.646 27.1507 675.333 27.1507C680.83 26.8156 686.328 25.9776 691.825 26.8156C693.543 26.9832 695.089 27.6535 696.979 26.9832C698.182 26.648 699.556 26.8156 700.759 27.3183C701.618 27.6535 702.648 27.8211 703.508 27.4859C705.913 26.4804 708.49 27.3183 711.067 26.3128C712.097 25.9776 713.3 26.1452 714.503 26.8156C716.392 27.8211 718.454 27.9887 720.172 27.4859C723.608 26.3128 727.387 26.648 730.995 26.648C733.744 26.648 736.492 26.4804 739.241 27.1508C740.1 27.3184 744.739 25.1396 745.254 25.3072C745.426 25.3072 745.77 25.3072 745.941 25.3072C746.285 25.81 746.8 25.9776 747.316 25.9776C747.487 25.9776 747.831 25.9776 748.003 25.9776C748.69 26.8156 749.377 26.8156 750.064 25.9776C750.236 25.9776 750.58 25.9776 750.752 25.9776C750.923 25.6424 751.267 25.4748 751.439 25.3072C752.126 25.3072 752.813 25.3072 753.5 25.3072C754.359 25.3072 755.39 25.3072 756.249 25.3072C756.936 26.1452 757.624 26.1452 758.311 25.3072C758.826 25.3072 759.17 25.3072 759.685 25.3072C760.372 25.3072 761.059 25.3072 761.747 25.3072C762.949 25.3072 763.98 25.3072 765.183 25.3072C765.526 25.81 766.042 25.9776 766.557 25.9776C769.134 26.9832 773.085 26.9832 775.662 25.9776C776.349 25.9776 777.208 26.1452 777.724 25.3072C778.239 25.3072 778.583 25.3072 779.098 25.3072C779.613 25.4748 779.957 25.81 780.472 25.9776C780.644 25.9776 780.988 25.9776 781.16 25.9776C783.737 26.9832 787.688 26.9832 790.265 25.9776C790.437 25.9776 790.78 25.9776 790.952 25.9776C791.467 25.9776 791.811 25.9776 792.326 25.9776C792.498 25.9776 792.842 25.9776 793.014 25.9776C794.216 26.9832 795.419 26.9832 796.45 25.9776C796.621 25.9776 796.965 25.9776 797.137 25.9776C799.198 25.3072 801.26 25.3072 803.321 25.3072C804.524 25.3072 805.898 25.81 806.929 24.6368C808.304 24.4692 809.85 25.1396 811.052 23.9664C811.568 23.9664 812.083 23.7988 812.427 23.296C812.942 23.296 813.286 23.296 813.801 23.296C813.973 23.4636 814.316 23.6312 814.488 23.9664C814.66 23.9664 815.004 23.9664 815.175 23.9664C816.378 25.1396 817.924 24.4692 819.299 24.6368C821.532 25.6424 824.109 26.1452 826.514 26.648C827.717 26.8156 829.263 27.1508 830.465 25.9776C830.637 25.9776 830.981 25.9776 831.152 25.9776C831.324 25.6424 831.668 25.4748 831.84 25.3072C832.011 25.3072 832.355 25.3072 832.527 25.3072C834.76 24.972 836.65 26.1452 838.883 25.9776C839.055 25.9776 839.399 25.9776 839.57 25.9776C840.601 26.8156 841.46 26.648 842.147 26.648C842.663 26.648 843.006 26.648 843.522 26.648C844.381 27.6536 845.412 27.3184 846.442 27.3184C850.394 27.1508 854.345 27.3184 858.468 26.8156C862.248 26.1452 866.199 26.648 869.979 26.648C870.15 26.648 870.494 26.648 870.666 26.648C871.868 27.8212 873.414 27.1508 874.789 27.3184C875.648 27.3184 876.679 27.3184 877.538 27.3184C878.225 27.3184 878.912 27.3184 879.599 27.3184C880.286 27.3184 880.974 27.3184 881.661 27.3184C887.502 27.3184 893.515 27.3184 899.356 27.3184C900.387 27.3184 901.761 27.6536 902.62 26.648C906.228 26.648 909.835 26.648 913.443 26.648C921.002 26.648 928.561 26.8156 935.948 26.648C938.01 26.648 940.072 27.8212 942.133 27.3184C944.71 26.648 947.115 26.8156 949.692 26.8156C952.269 26.8156 954.846 26.4804 957.079 25.6424C960.859 24.3016 964.467 25.3072 968.246 26.1452C971.682 26.9832 975.118 27.3184 978.726 26.1452C978.898 26.1452 979.241 26.1452 979.413 26.1452C981.646 25.81 983.88 25.1396 986.113 26.4804C987.487 27.3184 989.034 26.8156 990.064 25.4748C991.095 24.134 992.47 24.134 994.188 23.9664C996.249 23.7988 997.795 24.8044 999.341 25.6424C1000.37 26.1452 1001.23 26.8156 1002.61 26.648C1007.59 25.81 1012.4 25.81 1017.38 26.648C1018.75 26.8156 1020.3 26.9832 1021.5 26.648C1023.91 25.81 1026.31 25.9776 1028.72 26.1452C1033.36 26.3128 1038 25.4748 1042.63 26.8156C1043.49 26.9832 1044.52 26.648 1045.38 26.3128C1049.85 24.8044 1054.49 25.3072 1059.13 25.81C1060.84 25.9776 1062.22 26.1452 1063.94 25.6424C1065.48 24.972 1067.2 24.972 1068.92 25.1396C1072.01 25.3072 1075.1 25.9776 1078.2 25.9776C1079.4 25.9776 1080.43 26.1452 1081.63 25.6424C1084.04 24.8044 1086.44 24.972 1088.85 25.3072C1093.14 25.81 1097.44 25.6424 1101.73 24.972C1102.25 24.8044 1102.76 24.6368 1103.45 24.6368C1107.75 25.81 1112.21 24.972 1116.68 25.1396C1117.19 25.1396 1117.54 25.1396 1118.05 25.1396C1122.86 25.1396 1127.85 25.1396 1132.66 25.1396C1134.2 24.972 1135.58 25.9776 1137.47 25.6424C1140.9 24.972 1144.51 24.4692 1148.12 24.4692C1151.9 24.4692 1155.5 25.3072 1159.11 25.3072C1166.16 25.1396 1173.2 25.3072 1180.24 25.3072C1181.96 25.3072 1185.91 25.9776 1185.91 25.9776C1186.94 25.6424 1187.8 25.3072 1188.83 25.3072C1190.38 25.3072 1191.58 24.8044 1192.61 23.9664C1193.99 22.9609 1195.53 22.1229 1197.42 22.7933C1198.11 22.9609 1198.8 22.9609 1199.48 22.6257C1201.37 21.6201 1203.09 22.2905 1204.81 22.9609C1207.39 23.9665 1209.79 24.4692 1212.54 23.4637C1213.74 22.9609 1215.46 22.9609 1216.66 23.7989C1218.55 25.1396 1220.62 24.8044 1222.68 24.4692C1226.28 23.7989 1230.06 23.9665 1233.67 24.4692C1237.28 24.972 1240.89 25.9776 1244.5 23.7989C1245.18 23.2961 1246.04 23.6313 1246.9 23.6313C1249.31 23.7989 1251.71 24.6368 1253.94 25.3072C1256.01 25.9776 1258.07 24.972 1260.13 25.3072C1263.56 25.81 1267 25.6424 1270.44 25.9776C1274.9 26.3128 1279.37 25.6424 1284.01 25.3072C1284.87 25.6424 1285.73 26.1452 1286.59 25.9776C1288.65 25.4748 1292.6 24.6368 1292.6 24.6368C1295 24.6368 1297.41 24.8044 1299.81 25.3072C1300.33 25.3072 1300.67 25.3072 1301.19 25.3072C1304.8 25.3072 1308.4 25.1396 1312.01 25.4748C1316.48 25.81 1320.94 27.6536 1325.58 25.4748C1326.1 25.3072 1326.79 25.3072 1327.3 25.4748C1328.85 25.4748 1330.22 25.3072 1331.6 24.6368C1333.66 23.7989 1335.72 23.7989 1337.61 24.8044C1340.53 26.648 1343.79 26.1452 1347.06 25.81C1350.32 25.4748 1353.59 24.6369 1356.85 26.3128C1357.19 26.4804 1357.54 26.4804 1357.88 26.4804C1360.63 26.1452 1363.38 25.81 1366.13 25.3072C1367.33 25.1396 1367.67 24.3017 1367.85 23.2961C1368.36 20.4469 1369.22 20.2793 1371.8 21.6201C1372.83 22.1229 1373.34 22.7933 1374.03 23.6313C1374.72 24.3017 1375.4 24.8045 1376.44 24.4693C1380.21 23.4637 1383.99 24.1341 1387.77 23.9665C1389.32 23.9665 1391.04 23.7989 1392.58 23.2961C1395.16 22.2905 1397.74 21.9553 1400.66 21.9553C1402.55 21.6201 1404.61 20.4469 1406.33 21.7877C1408.56 23.7989 1410.97 23.2961 1413.37 22.7933C1416.12 22.2905 1418.87 22.1229 1421.62 21.7877C1427.29 22.2905 1432.78 21.6201 1438.28 19.9441C1438.97 19.6089 1439.48 19.4413 1440 19.2738L1440 8.96454e-05L2.61952e-06 -3.62434e-05ZM41.2312 1.84354L41.2312 1.67594C41.2312 1.67594 41.2313 1.67594 41.4031 1.67594C41.2313 1.67594 41.2312 1.84354 41.2312 1.84354ZM51.5391 18.9384C51.5391 18.7708 51.5391 18.7708 51.5391 18.9384C51.5391 18.7708 51.5391 18.7708 51.5391 18.9384C51.5391 18.7708 51.5391 18.7708 51.5391 18.9384C51.5391 18.7708 51.5391 18.9384 51.5391 18.9384ZM119.742 6.03347C119.742 6.03347 119.742 5.86587 119.742 6.03347C119.742 5.86587 119.742 5.86587 119.742 6.03347ZM119.914 5.86587C119.914 5.86587 119.742 5.86587 119.914 5.86587C119.742 5.86587 119.742 5.86587 119.914 5.86587C119.742 5.86587 119.742 5.86587 119.914 5.86587C119.742 5.86587 119.742 5.86587 119.914 5.86587C119.742 5.86587 119.742 5.86587 119.914 5.86587L119.742 5.69827C119.742 5.69827 119.914 5.69827 119.914 5.86587C119.914 5.69827 119.914 5.86587 119.914 5.86587ZM463.679 8.71505C463.851 8.71505 463.679 8.71505 463.679 8.71505V8.71505ZM490.651 10.7262L490.48 10.7262C490.651 10.7262 490.651 10.5586 490.823 10.5586C490.651 10.5586 490.651 10.5586 490.651 10.7262ZM568.819 9.55305C568.819 9.55305 568.991 9.55305 568.819 9.55305C568.991 9.55305 568.819 9.55305 568.819 9.55305ZM643.894 6.36871C644.066 6.36871 644.066 6.36871 644.238 6.53631C644.066 6.53631 644.066 6.53631 643.894 6.7039C643.894 6.53631 643.894 6.5363 643.894 6.36871ZM643.55 8.54747C643.722 8.37987 643.894 8.21228 644.066 8.04468C644.066 8.04468 644.066 8.04468 644.066 8.21228C644.066 8.21228 643.894 8.37987 643.55 8.54747ZM842.147 21.7877C842.147 21.7877 842.147 21.9553 842.147 21.7877C842.147 21.9553 842.147 21.9553 842.147 21.7877ZM1169.08 6.36875L1169.25 6.20116C1169.08 6.20116 1169.08 6.20116 1169.08 6.36875ZM1169.42 5.86596C1169.42 5.69837 1169.59 5.69837 1169.42 5.86596C1169.59 5.69837 1169.42 5.69837 1169.42 5.86596ZM1169.59 5.69837L1169.76 5.53077L1169.59 5.69837Z" fill="#E8E3DB"/>
</g>
<defs>
<clipPath id="clip0_4218_7458">
<rect width="1320" height="29.9999" fill="white" transform="translate(1320 30) rotate(-180)"/>
</clipPath>
</defs>
</svg>
