<svg width="1320" height="26" viewBox="0 0 1320 26" fill="none" xmlns="http://www.w3.org/2000/svg">
<g clip-path="url(#clip0_4218_7460)">
<path d="M1440 22.3381V10.0705C1438.29 9.70431 1436.75 9.33811 1435.04 9.33811C1431.79 9.33811 1428.38 9.52121 1425.13 9.52121C1421.2 9.52121 1417.09 9.52121 1413.16 9.52121C1411.11 9.52121 1409.23 10.0705 1407.01 9.70431C1403.25 9.15502 1399.49 8.23952 1395.73 8.78882C1392.48 8.78882 1389.23 8.78882 1385.98 8.78882C1384.79 8.78882 1383.59 8.78882 1382.56 8.78882C1381.03 8.78882 1379.32 8.78882 1377.78 8.78882C1375.73 8.78882 1373.5 9.15502 1371.62 8.60572C1368.38 7.69023 1365.13 8.60572 1361.88 8.60572C1358.29 8.60572 1354.7 9.15502 1351.28 8.23952C1348.21 7.50713 1344.79 7.32403 1341.71 7.69023C1337.61 8.05642 1333.5 7.14093 1329.4 8.05643C1328.89 8.23952 1328.03 8.05643 1327.69 7.87333C1325.98 6.40854 1323.93 6.59164 1322.05 6.77473C1319.83 6.95783 1317.95 6.40854 1316.24 4.94375C1315.21 4.02826 1314.02 3.47896 1312.65 4.02826C1309.74 5.30995 1307.01 4.39445 1304.27 3.29586C1303.08 2.74657 1301.88 2.56347 1300.34 3.47896C1298.46 4.76065 1296.07 4.94375 1293.68 4.21135C1290.94 3.47896 1288.03 3.11276 1285.3 4.21135C1284.1 4.76065 1283.08 4.57755 1281.88 4.02826C1279.32 2.74657 1276.75 2.74657 1274.19 3.11276C1274.19 3.11276 1269.23 2.01417 1266.84 1.46488C1266.32 1.46488 1265.98 1.46488 1265.47 1.46488C1261.88 1.46488 1258.29 1.64797 1254.7 1.28178C1250.26 0.91558 1245.81 -1.0985 1241.2 1.28178C1240.68 1.46488 1240 1.46488 1239.49 1.28178C1237.95 1.28178 1236.58 1.46488 1235.21 2.19727C1233.16 3.11276 1231.11 3.11276 1229.23 2.01417C1226.15 8.73059e-05 1222.73 0.366284 1219.49 0.91558C1216.24 1.28178 1212.99 2.19727 1209.74 0.366284C1209.4 0.183186 1209.06 0.183186 1208.72 0.183186C1205.98 0.549383 1203.25 0.91558 1200.51 1.46488C1199.32 1.64797 1198.97 2.56347 1198.63 3.66206C1198.12 6.77474 1197.26 6.95783 1194.7 5.49304C1193.68 4.94375 1193.16 4.21135 1192.48 3.29586C1191.97 2.56347 1191.11 2.01417 1190.09 2.19727C1186.32 3.29586 1182.56 2.56347 1178.8 2.74657C1177.26 2.74657 1175.56 2.92966 1174.02 3.47896C1171.45 4.57755 1168.89 4.94375 1165.98 4.94375C1164.1 5.30995 1162.05 6.59164 1160.34 5.12685C1158.12 2.92966 1155.73 3.47896 1153.33 4.02826C1150.6 4.57755 1147.86 4.76065 1145.13 5.12685C1139.49 4.76065 1134.02 5.49304 1128.55 7.50713C1127.86 7.69023 1127.35 7.87333 1126.84 8.05643C1126.84 8.05643 1113.5 7.87333 1107.35 8.05643C1106.67 7.69023 1105.98 7.32403 1105.3 7.32403C1102.91 5.30995 1100.17 4.57755 1097.26 5.49304C1095.73 5.85924 1094.36 5.85924 1092.82 5.85924C1090.09 5.30995 1087.52 3.84516 1084.79 4.57755C1082.91 4.94375 1081.03 5.12685 1078.97 5.12685C1078.12 5.12685 1077.44 5.12685 1076.75 5.85924C1075.04 6.04234 1073.5 5.49304 1071.79 4.76065C1070.43 4.21135 1068.72 2.56347 1067.01 4.39445C1061.37 4.21135 1049.91 5.12685 1049.91 5.12685C1049.74 5.12685 1049.4 5.12685 1049.23 5.12685C1048.72 5.12685 1048.03 4.94375 1047.52 4.76065C1044.44 4.02826 1041.37 3.47896 1038.29 3.66206C1035.56 3.84516 1032.99 3.66206 1030.26 3.66206C1028.38 4.02826 1026.5 2.92966 1024.79 4.39445C1024.62 4.39445 1024.27 4.39445 1024.1 4.39445C1022.56 4.76065 1021.2 5.12685 1019.49 4.02826C1018.12 3.11276 1016.07 3.11276 1014.53 4.02826C1011.97 5.67614 1009.4 5.12685 1006.84 4.57755C1005.13 4.21135 1003.25 3.84516 1001.71 4.39445C998.632 5.12685 995.727 5.30995 992.991 3.84516C992.308 3.47896 991.624 3.47896 990.94 3.84516C989.231 4.94375 987.35 5.49304 985.299 4.39445C984.957 4.21135 984.444 4.39445 983.932 4.57755C982.051 5.30995 976.581 5.67614 976.581 5.67614C975.555 5.30995 974.53 5.30995 973.504 5.30995C969.914 5.30995 966.154 5.12685 962.564 5.12685C960.855 5.12685 959.487 5.12685 958.12 4.39445C956.923 3.66206 955.556 3.29586 954.188 3.66206C949.914 4.57755 945.641 5.12685 941.196 4.94375C938.12 4.94375 935.214 4.94375 932.137 4.94375C931.111 4.94375 930.085 4.57755 929.231 5.67614C929.06 5.67614 928.718 5.67614 928.547 5.67614C927.179 5.85924 925.812 6.22544 924.444 6.40854C921.88 6.04234 919.145 6.04234 916.581 5.30995C914.188 4.76065 912.137 4.94375 909.914 5.67614C905.983 6.95783 901.88 7.69023 897.778 6.40854C893.846 5.12685 889.744 5.49304 885.812 6.04234C884.957 6.22544 884.273 6.22544 883.419 6.04234C877.778 5.49304 872.137 5.12685 866.667 6.59164C865.47 6.95783 864.102 7.50713 862.906 6.95783C860.342 6.04234 857.607 6.40854 855.043 6.40854C854.701 6.22544 854.188 5.67614 853.846 5.67614C850.256 5.67614 846.667 5.30995 843.077 5.67614C838.461 6.40854 834.017 6.59164 829.402 5.67614C828.547 5.49304 827.521 5.67614 826.667 5.67614C822.564 6.40854 818.461 7.87333 814.188 6.40854C813.675 6.22544 812.82 6.59164 812.137 6.59164C806.667 6.95783 801.197 7.87333 795.726 6.95783C794.017 6.77473 792.479 6.04234 790.598 6.77473C789.402 7.14093 788.034 6.95783 786.838 6.40854C785.983 6.04234 784.957 5.85924 784.103 6.22544C781.709 7.32403 779.145 6.40854 776.581 7.50713C775.555 7.87333 774.359 7.69023 773.162 6.95783C771.282 5.85924 769.231 5.67614 767.521 6.22544C763.932 7.14093 760.171 6.77473 756.581 6.77473C753.846 6.77473 751.111 6.95783 748.376 6.22544C747.521 6.04234 746.667 5.85924 745.641 5.85924V6.04234C745.47 6.04234 745.299 6.04234 745.299 6.04234C744.786 5.12685 743.932 5.30995 743.248 5.30995C742.735 5.30995 742.393 5.30995 741.88 5.30995C740.855 5.30995 739.829 4.94375 739.145 6.04234C738.291 6.04234 737.265 6.04234 736.41 6.04234C735.043 6.04234 733.675 6.04234 732.308 6.04234C731.624 6.04234 730.94 6.04234 730.256 6.04234C730.085 5.49304 729.744 5.49304 729.573 6.04234C729.402 6.04234 729.06 6.04234 728.889 6.04234C727.521 6.22544 725.983 5.49304 724.786 6.77473C724.615 6.77473 724.273 6.77473 724.103 6.77473C723.932 6.95783 723.59 7.32403 723.419 7.50713C722.393 7.50713 721.709 6.77473 721.026 6.22544C720 5.12685 718.803 4.57755 717.265 4.57755C715.043 4.57755 712.65 4.76065 710.427 4.02826C709.402 3.66206 708.376 3.66206 707.35 4.39445C706.154 5.49304 704.786 5.30995 703.419 5.30995C700.684 5.67614 697.949 5.49304 695.555 7.50713C695.043 7.50713 694.701 7.50713 694.188 7.50713C693.162 6.59164 691.966 6.04234 690.769 6.40854C689.06 6.95783 687.521 6.59164 685.812 6.77473C683.932 6.22544 682.051 5.85924 680.342 4.76065C679.487 4.21135 678.291 3.47896 677.094 3.84516C674.017 4.94375 670.769 4.94375 667.692 5.49304C665.299 5.85924 662.906 5.85924 660.513 5.49304C657.265 5.12685 653.846 4.02826 650.94 6.95783C650.085 7.87333 648.718 7.50713 647.692 6.95783C646.838 6.59164 645.983 6.04234 645.128 5.67614C642.222 4.39445 639.316 3.66206 636.41 4.94375C634.53 5.67614 632.82 5.85924 631.111 5.85924C627.863 4.94375 624.786 3.11276 621.538 5.67614C620.684 6.22544 619.658 6.40854 618.632 6.59164C612.991 6.95783 607.35 5.85924 601.709 5.49304C599.658 5.30995 597.607 4.94375 595.726 5.85924C594.359 6.40854 593.162 6.22544 591.795 5.67614C588.718 4.57755 585.812 3.11276 582.564 2.56347C580 2.19727 577.436 2.56347 575.043 2.01417C573.504 1.64797 572.479 1.46488 571.282 2.74657C569.914 4.02826 568.205 4.39445 566.496 4.39445C565.299 4.39445 564.273 4.39445 563.077 4.76065C558.632 6.22544 546.325 8.78882 546.325 8.78882C545.983 8.23952 545.47 8.05643 544.957 8.05643C544.786 8.05643 544.444 8.05643 544.273 8.05643C543.932 7.50713 543.419 7.32403 542.906 7.32403C542.735 7.32403 542.393 7.32403 542.222 7.32403C541.538 6.40854 540.855 6.40854 540.171 7.32403C540 7.32403 539.658 7.32403 539.487 7.32403C539.316 7.69023 538.974 7.87333 538.803 8.05643C538.12 8.05643 537.436 8.05643 536.752 8.05643C535.897 8.05643 534.872 8.05643 534.017 8.05643C533.333 7.14093 532.65 7.14093 531.966 8.05643C531.453 8.05643 531.111 8.05643 530.598 8.05643C529.914 8.05643 529.231 8.05643 528.547 8.05643C527.35 8.05643 526.325 8.05643 525.128 8.05643C524.786 7.50713 524.273 7.32403 523.761 7.32403C521.197 6.22544 517.265 6.22544 514.701 7.32403C514.017 7.32403 513.162 7.14093 512.65 8.05643C512.137 8.05643 511.795 8.05643 511.282 8.05643C510.769 7.87333 510.427 7.50713 509.914 7.32403C509.744 7.32403 509.402 7.32403 509.231 7.32403C506.667 6.22544 502.735 6.22544 500.171 7.32403C500 7.32403 499.658 7.32403 499.487 7.32403C498.974 7.32403 498.632 7.32403 498.12 7.32403C497.949 7.32403 497.607 7.32403 497.436 7.32403C496.239 6.22544 495.043 6.22544 494.017 7.32403C493.846 7.32403 493.504 7.32403 493.333 7.32403C491.282 8.05643 489.231 8.05643 487.179 8.05643C485.983 8.05643 484.615 7.50713 483.59 8.78882C482.222 8.97192 480.684 8.23952 479.487 9.52121C478.974 9.52121 478.462 9.70431 478.12 10.2536C477.607 10.2536 477.265 10.2536 476.752 10.2536C476.581 10.0705 476.239 9.88741 476.068 9.52121C475.897 9.52121 475.556 9.52121 475.385 9.52121C474.188 8.23952 472.65 8.97192 471.282 8.78882C469.06 7.69023 466.496 7.14093 464.103 6.59164C462.906 6.40854 461.368 6.04234 460.171 7.32403C460 7.32403 459.658 7.32403 459.487 7.32403C459.316 7.69023 458.974 7.87333 458.803 8.05643C458.632 8.05643 458.291 8.05643 458.12 8.05643C455.897 8.42262 454.017 7.14093 451.795 7.32403C451.624 7.32403 451.282 7.32403 451.111 7.32403C450.598 6.40854 449.744 6.59164 449.06 6.59164C448.547 6.59164 448.205 6.59164 447.692 6.59164C446.838 5.49304 445.812 5.85924 444.786 5.85924C440.855 6.04234 436.923 5.85924 432.82 6.40854C429.06 6.95783 425.128 6.59164 421.367 6.59164C421.197 6.59164 420.855 6.59164 420.684 6.59164C419.487 5.30995 417.949 6.04234 416.581 5.85924C415.726 5.85924 414.701 5.85924 413.846 5.85924C413.162 5.85924 412.479 5.85924 411.795 5.85924C411.111 5.85924 410.427 5.85924 409.744 5.85924C403.932 5.85924 397.949 5.85924 392.137 5.85924C391.111 5.85924 389.744 5.49304 388.889 6.59164C385.299 6.59164 381.709 6.59164 378.12 6.59164C370.598 6.59164 363.077 6.40854 355.726 6.59164C353.675 6.59164 351.624 5.30995 349.573 5.85924C346.838 7.32403 344.273 7.32403 341.88 7.14093C339.316 7.14093 336.752 7.50713 334.53 8.42262C330.769 9.88741 327.179 8.78882 323.419 7.87333C320 6.95783 316.581 6.59164 312.991 7.87333C312.82 7.87333 312.479 7.87333 312.308 7.87333C310.085 8.23952 307.863 8.97192 305.641 7.50713C304.273 6.59164 302.735 7.14093 301.709 8.60572C300.684 10.0705 299.316 10.0705 297.607 10.2536C295.556 10.4367 294.017 9.33811 292.479 8.42262C291.453 7.87333 290.598 7.14093 289.231 7.32403C284.273 8.23952 279.487 8.23952 274.53 7.32403C273.162 7.14093 271.624 6.95783 270.427 7.32403C268.034 8.23952 265.641 8.05643 263.248 7.87333C258.632 7.69023 254.017 8.60572 249.402 7.14093C248.547 6.95783 247.521 7.32403 246.667 7.69023C242.222 9.33811 237.607 8.78882 232.991 8.23952C231.282 8.05643 229.915 7.87333 228.205 8.42262C226.667 8.97192 224.957 8.97192 223.248 8.78882C220.171 8.60572 217.094 7.87333 214.017 7.87333C212.82 7.87333 211.795 7.69023 210.598 8.23952C208.205 9.15502 205.812 8.97192 203.419 8.60572C199.145 8.05642 194.872 8.23952 190.598 8.97192C190.085 9.15502 189.573 9.33811 188.889 9.33811C184.615 8.05643 180.171 8.97192 175.726 8.78882C175.214 8.78882 174.872 8.78882 174.359 8.78882C169.573 8.78882 164.615 8.78882 159.829 8.78882C158.291 8.97192 156.923 7.87333 155.043 8.23952C151.624 8.97192 148.034 9.52121 144.444 9.52121C140.684 9.52121 137.094 8.60572 133.504 8.60572C126.496 8.78882 119.487 8.60572 112.479 8.60572C110.769 8.60572 109.06 9.15502 107.35 8.97192C106.838 8.97192 106.496 8.78882 105.983 8.78882C105.983 8.78882 104.103 8.42262 103.077 8.60572C101.538 8.60572 100.342 9.15502 99.3162 10.0705C97.9487 11.1691 96.4102 12.0846 94.5299 11.3522C93.8461 11.1691 93.1624 11.1691 92.4786 11.5353C90.5983 12.6339 88.8889 12.0846 87.1795 11.3522C84.6154 10.2536 82.2222 9.70431 79.4872 10.8029C78.2906 11.3522 76.5812 11.3522 75.3846 10.4367C73.5043 8.97192 71.453 9.33812 69.4017 9.70431C65.812 10.4367 62.0513 10.2536 58.4615 9.70431C54.8718 9.15502 51.282 8.05642 47.6923 10.4367C47.0085 10.986 46.1538 10.6198 45.2991 10.6198C42.906 10.4367 40.5128 9.52121 38.2906 8.78882C36.2393 8.05643 34.188 9.15502 32.1367 8.78882C28.7179 8.23952 25.2991 8.42262 21.8803 8.05643C17.4359 7.69023 12.9915 8.42262 8.37607 8.78882C7.52137 8.42262 6.66667 7.87333 5.81197 8.05643C4.10256 8.60572 2.05128 8.78882 0 8.60572V22.5212H1440V22.3381ZM1112.65 20.324C1112.65 20.5071 1112.65 20.6902 1112.65 20.6902C1112.65 21.0564 1112.65 21.2395 1112.48 21.2395C1112.48 20.8733 1112.48 20.5071 1112.65 20.324ZM1097.78 24.9015C1097.78 24.9015 1097.78 25.0846 1097.78 24.9015C1097.78 25.0846 1097.78 25.0846 1097.78 24.9015ZM1070.94 22.8874H1071.11C1070.94 22.8874 1070.94 23.0705 1070.77 23.0705C1070.94 23.0705 1070.94 22.8874 1070.94 22.8874ZM918.632 25.817C918.632 26.0001 918.632 26.0001 918.632 25.817C918.632 26.0001 918.632 26.0001 918.632 25.817C918.632 26.0001 918.632 25.817 918.632 25.817ZM527.863 15.0142C527.692 15.1973 527.692 15.0142 527.521 15.0142C527.692 15.0142 527.692 15.0142 527.863 15.0142ZM513.675 9.88741C513.504 9.70431 513.333 9.33811 513.333 9.15502C513.504 9.15502 513.504 9.52121 513.675 9.88741ZM448.889 12.4508C448.889 12.4508 449.06 12.4508 448.889 12.4508C448.889 12.4508 448.889 12.6339 448.889 12.4508C448.889 12.6339 448.889 12.4508 448.889 12.4508ZM120.513 23.986C120.513 24.1691 120.684 24.1691 120.684 24.3522C120.513 24.3522 120.342 24.3522 120.171 24.3522C120.342 24.3522 120.342 24.1691 120.513 23.986Z" fill="#E8E3DB"/>
</g>
<defs>
<clipPath id="clip0_4218_7460">
<rect width="1320" height="26" fill="white"/>
</clipPath>
</defs>
</svg>
